<svg enable-background="new 0 0 566.93 192.22" viewBox="0 0 160 180" xmlns="http://www.w3.org/2000/svg"><path d="m154.94 136.71v-83.45l-72.27-41.72-72.27 41.72v83.45l72.27 41.73z" fill="#7f488e"/><g fill="#fff"><path d="m71.02 77.04h11.61v43.88h.14v9.83h-.14v13.8h-10.91v-13.8h-36.63v-9.63zm.7 43.87v-29.49l-24.04 29.49z"/><path d="m82.06 57.1c6.68-4.57 14.16-6.85 22.44-6.85 7.08 0 12.81 1.64 17.17 4.91 4.37 3.28 6.55 7.96 6.55 14.05 0 5.05-1.68 9.36-5.05 12.93s-7.95 7.07-13.75 10.47c-.45.28-1.29.79-2.5 1.54-1.22.75-2.08 1.28-2.59 1.59s-1.29.79-2.33 1.43c-1.05.64-1.82 1.12-2.33 1.43s-1.17.79-2 1.43c-.82.64-1.43 1.18-1.82 1.62s-.85.98-1.38 1.62-.9 1.23-1.13 1.77-.44 1.15-.64 1.83-.3 1.35-.3 2.03l36.19-.1v10.23h-48.8v-5.16c0-8.6 3.64-15.75 10.92-21.44 2.03-1.53 5.84-3.99 11.41-7.39 5.61-3.22 9.22-5.56 10.83-7.01 2.65-2.58 3.97-5.46 3.97-8.64 0-2.91-1.18-5.13-3.52-6.65-2.35-1.52-5.64-2.28-9.88-2.28-7.35 0-14.49 2.52-21.44 7.54v-10.9z"/></g></svg>