<svg id="svg" version="1.1" xmlns="http://www.w3.org/2000/svg" xmlns:xlink="http://www.w3.org/1999/xlink" width="400" height="400" viewBox="0, 0, 400,400"><g id="svgg"><path id="path0" d="M124.200 50.989 C 123.540 51.276,121.152 51.686,118.894 51.900 C 116.256 52.149,114.539 52.506,114.094 52.898 C 113.692 53.251,112.353 53.580,110.915 53.679 C 109.407 53.782,108.149 54.101,107.715 54.491 C 107.322 54.844,106.280 55.259,105.400 55.415 C 104.520 55.570,103.260 56.016,102.600 56.406 C 101.940 56.795,100.815 57.237,100.100 57.389 C 99.385 57.540,98.800 57.815,98.800 58.001 C 98.800 58.186,98.125 58.555,97.300 58.820 C 96.475 59.084,95.530 59.530,95.200 59.811 C 94.870 60.091,93.925 60.599,93.100 60.940 C 92.275 61.280,91.600 61.748,91.600 61.980 C 91.600 62.211,91.254 62.400,90.831 62.400 C 90.408 62.400,89.527 62.850,88.873 63.400 C 88.219 63.950,87.466 64.400,87.200 64.400 C 86.674 64.400,85.214 65.495,82.400 68.000 C 79.644 70.453,78.129 71.600,77.642 71.600 C 77.399 71.600,77.200 71.870,77.200 72.200 C 77.200 72.530,77.039 72.800,76.842 72.800 C 76.645 72.800,76.060 73.247,75.542 73.793 C 75.024 74.339,74.420 74.793,74.200 74.802 C 73.754 74.819,72.070 76.746,67.910 82.000 C 65.308 85.286,61.592 90.920,60.390 93.400 C 60.176 93.840,59.834 94.470,59.628 94.800 C 59.422 95.130,58.694 96.660,58.009 98.200 C 57.325 99.740,56.412 101.666,55.982 102.479 C 55.552 103.293,55.199 104.463,55.199 105.079 C 55.198 105.696,54.859 106.755,54.445 107.433 C 54.031 108.112,53.568 109.462,53.415 110.433 C 53.262 111.405,52.791 113.152,52.369 114.315 C 51.946 115.478,51.600 117.217,51.600 118.180 C 51.600 119.142,51.330 121.340,51.000 123.065 C 50.214 127.174,50.210 138.263,50.994 142.600 C 51.312 144.360,51.578 146.842,51.586 148.116 C 51.595 149.566,51.881 150.987,52.352 151.916 C 52.766 152.732,53.232 154.338,53.388 155.485 C 53.544 156.632,54.015 158.245,54.435 159.070 C 54.856 159.894,55.206 160.936,55.213 161.385 C 55.219 161.833,55.668 163.100,56.209 164.200 C 56.750 165.300,57.194 166.502,57.196 166.871 C 57.198 167.241,57.433 167.781,57.717 168.071 C 58.001 168.362,58.481 169.230,58.783 170.000 C 59.085 170.770,59.530 171.670,59.772 172.000 C 60.014 172.330,60.750 173.680,61.406 175.000 C 62.063 176.320,62.730 177.458,62.889 177.530 C 63.048 177.601,63.839 178.771,64.647 180.130 C 65.456 181.488,66.339 182.784,66.612 183.010 C 66.884 183.235,68.129 184.675,69.379 186.210 C 70.628 187.744,73.996 191.380,76.862 194.289 C 79.728 197.199,82.012 199.759,81.937 199.979 C 81.862 200.199,79.446 202.769,76.568 205.689 C 73.691 208.610,70.506 212.080,69.491 213.400 C 68.476 214.720,67.317 216.160,66.915 216.600 C 66.213 217.370,65.821 217.947,62.712 222.800 C 61.448 224.773,58.824 229.819,56.158 235.406 C 55.631 236.510,55.200 237.839,55.200 238.359 C 55.200 238.880,54.859 239.867,54.442 240.553 C 54.025 241.239,53.555 242.767,53.398 243.949 C 53.240 245.131,52.793 246.841,52.403 247.749 C 51.985 248.724,51.591 250.995,51.440 253.294 C 51.300 255.436,51.008 257.653,50.792 258.220 C 50.291 259.539,50.297 272.485,50.799 274.600 C 51.009 275.480,51.302 277.910,51.452 280.000 C 51.606 282.149,52.031 284.522,52.432 285.463 C 52.821 286.378,53.267 287.998,53.423 289.063 C 53.578 290.128,54.041 291.668,54.453 292.484 C 54.864 293.300,55.206 294.290,55.213 294.684 C 55.219 295.078,55.668 296.300,56.209 297.400 C 56.750 298.500,57.194 299.610,57.196 299.866 C 57.198 300.123,57.818 301.473,58.573 302.866 C 59.328 304.260,60.591 306.680,61.380 308.245 C 62.169 309.809,63.171 311.412,63.607 311.807 C 64.043 312.201,64.400 312.667,64.400 312.842 C 64.400 313.330,66.601 316.481,68.079 318.108 C 68.805 318.908,69.850 320.137,70.400 320.840 C 74.422 325.979,72.939 326.674,86.143 313.463 C 97.091 302.508,97.785 301.644,96.529 300.513 C 95.376 299.475,91.191 294.166,90.442 292.791 C 90.089 292.144,89.239 290.666,88.553 289.507 C 87.868 288.348,87.181 286.827,87.028 286.128 C 86.874 285.428,86.506 284.654,86.209 284.408 C 85.912 284.161,85.544 283.047,85.390 281.931 C 85.237 280.814,84.739 279.069,84.284 278.051 C 83.050 275.293,83.064 257.691,84.301 254.600 C 84.742 253.500,85.230 251.836,85.386 250.902 C 85.542 249.968,85.820 249.111,86.004 248.997 C 86.188 248.884,86.649 247.848,87.028 246.695 C 87.408 245.543,87.841 244.510,87.992 244.400 C 88.143 244.290,88.855 243.030,89.575 241.600 C 90.294 240.170,91.135 238.730,91.444 238.400 C 91.752 238.070,93.149 236.360,94.548 234.600 C 98.808 229.239,104.593 223.600,105.834 223.600 C 105.991 223.600,113.778 231.262,123.137 240.627 C 132.497 249.992,140.447 257.811,140.804 258.002 C 141.318 258.277,143.812 255.996,152.738 247.085 C 165.446 234.400,164.772 235.522,161.690 232.188 C 159.835 230.180,154.804 222.731,154.788 221.966 C 154.781 221.655,154.332 220.680,153.790 219.800 C 153.248 218.920,152.797 217.840,152.788 217.400 C 152.780 216.960,152.425 215.880,152.000 215.000 C 151.575 214.120,151.221 212.760,151.214 211.978 C 151.206 211.195,150.823 209.438,150.361 208.072 C 149.259 204.807,149.372 192.251,150.522 190.200 C 150.892 189.540,151.196 188.277,151.198 187.394 C 151.199 186.511,151.560 185.116,152.000 184.296 C 152.440 183.475,152.800 182.524,152.800 182.183 C 152.800 181.842,153.250 180.718,153.800 179.685 C 154.350 178.652,154.800 177.608,154.800 177.365 C 154.800 177.123,155.144 176.613,155.564 176.233 C 155.984 175.852,156.436 175.109,156.569 174.581 C 156.807 173.633,158.556 170.814,159.158 170.409 C 159.329 170.294,159.633 169.906,159.834 169.547 C 160.998 167.468,166.984 161.200,167.806 161.200 C 168.103 161.200,168.460 160.840,168.600 160.400 C 168.740 159.960,169.117 159.600,169.440 159.600 C 169.762 159.600,170.122 159.346,170.241 159.037 C 170.360 158.727,170.985 158.255,171.629 157.988 C 172.273 157.721,172.800 157.364,172.800 157.195 C 172.800 157.025,173.485 156.613,174.323 156.278 C 175.160 155.943,176.082 155.383,176.372 155.034 C 176.661 154.685,177.319 154.400,177.833 154.400 C 178.348 154.400,179.091 154.064,179.484 153.653 C 179.878 153.242,180.920 152.777,181.800 152.620 C 182.680 152.462,183.940 152.010,184.600 151.616 C 185.260 151.222,186.880 150.804,188.200 150.688 C 189.520 150.572,191.140 150.191,191.800 149.841 C 193.548 148.915,206.446 148.912,208.200 149.838 C 208.860 150.187,210.694 150.598,212.276 150.753 C 213.970 150.918,215.450 151.294,215.876 151.666 C 216.274 152.014,217.320 152.427,218.200 152.585 C 219.080 152.742,220.122 153.215,220.516 153.635 C 220.909 154.056,221.667 154.400,222.200 154.400 C 222.733 154.400,223.491 154.745,223.884 155.168 C 224.278 155.590,225.110 156.063,225.732 156.219 C 226.355 156.375,226.953 156.734,227.061 157.015 C 227.169 157.297,227.690 157.636,228.217 157.769 C 228.745 157.901,229.368 158.367,229.603 158.805 C 229.837 159.242,230.285 159.600,230.600 159.600 C 230.915 159.600,231.358 159.948,231.586 160.373 C 231.813 160.798,232.359 161.260,232.800 161.400 C 233.240 161.540,233.600 161.892,233.600 162.184 C 233.600 162.475,234.051 162.827,234.603 162.965 C 236.334 163.399,257.916 141.542,257.055 140.228 C 256.718 139.714,254.633 137.470,252.422 135.241 C 250.210 133.012,248.400 131.011,248.400 130.794 C 248.400 130.577,248.214 130.400,247.987 130.400 C 247.449 130.400,244.800 127.751,244.800 127.213 C 244.800 126.986,244.617 126.800,244.393 126.800 C 243.875 126.800,232.400 115.304,232.400 114.786 C 232.400 114.574,232.214 114.400,231.987 114.400 C 231.449 114.400,228.800 111.751,228.800 111.213 C 228.800 110.986,228.620 110.800,228.400 110.800 C 227.672 110.800,223.600 106.449,223.600 105.670 C 223.600 105.225,225.599 102.919,228.382 100.153 C 233.009 95.554,233.933 94.708,236.192 93.000 C 236.775 92.560,237.595 91.889,238.016 91.509 C 238.437 91.129,239.416 90.553,240.191 90.230 C 240.966 89.906,241.600 89.466,241.600 89.252 C 241.600 89.038,242.170 88.738,242.867 88.585 C 243.563 88.432,244.497 87.968,244.942 87.554 C 245.387 87.139,246.250 86.800,246.860 86.800 C 247.470 86.800,248.303 86.441,248.712 86.002 C 249.158 85.523,250.243 85.098,251.428 84.938 C 252.512 84.792,254.030 84.360,254.800 83.978 C 257.588 82.595,277.411 82.704,279.650 84.115 C 280.172 84.444,281.452 84.833,282.493 84.980 C 283.535 85.127,284.535 85.512,284.716 85.836 C 284.898 86.160,285.756 86.533,286.623 86.666 C 287.490 86.798,288.560 87.229,289.000 87.623 C 289.440 88.018,290.310 88.467,290.932 88.622 C 291.555 88.776,292.153 89.134,292.261 89.415 C 292.369 89.697,292.864 90.030,293.360 90.154 C 294.166 90.357,294.810 90.820,297.300 92.990 C 297.685 93.325,298.145 93.600,298.322 93.600 C 298.498 93.600,299.234 94.209,299.955 94.954 C 301.891 96.951,301.991 96.881,313.252 85.637 C 324.713 74.192,324.553 74.437,322.006 72.245 C 321.013 71.390,320.056 70.445,319.880 70.145 C 319.704 69.845,319.318 69.600,319.023 69.600 C 318.727 69.600,318.381 69.327,318.253 68.994 C 318.125 68.661,317.611 68.210,317.110 67.992 C 316.610 67.775,315.390 66.968,314.400 66.200 C 313.410 65.432,312.233 64.641,311.784 64.443 C 311.335 64.245,310.727 63.795,310.435 63.442 C 310.142 63.089,309.663 62.800,309.372 62.800 C 309.080 62.800,308.356 62.350,307.762 61.800 C 307.169 61.250,306.287 60.800,305.804 60.800 C 305.320 60.800,304.601 60.444,304.207 60.008 C 303.813 59.572,302.871 59.099,302.113 58.957 C 301.356 58.815,300.646 58.465,300.537 58.179 C 300.427 57.894,299.586 57.533,298.669 57.379 C 297.751 57.224,296.571 56.761,296.046 56.349 C 295.521 55.937,294.621 55.598,294.046 55.596 C 293.471 55.594,292.100 55.150,291.000 54.609 C 289.812 54.025,288.280 53.620,287.226 53.613 C 286.251 53.606,284.721 53.258,283.826 52.839 C 280.050 51.072,251.957 51.010,249.843 52.764 C 249.520 53.033,248.117 53.415,246.727 53.614 C 245.337 53.813,243.487 54.341,242.615 54.788 C 241.744 55.234,240.479 55.600,239.804 55.600 C 239.130 55.600,238.159 55.893,237.647 56.252 C 237.135 56.610,235.998 57.065,235.119 57.263 C 234.240 57.460,233.247 57.896,232.912 58.231 C 232.578 58.565,231.794 58.941,231.172 59.066 C 230.550 59.190,229.734 59.631,229.358 60.046 C 228.983 60.461,228.280 60.800,227.796 60.800 C 227.313 60.800,226.431 61.250,225.838 61.800 C 225.244 62.350,224.526 62.800,224.241 62.800 C 223.957 62.800,223.398 63.160,223.000 63.600 C 222.602 64.040,222.062 64.400,221.800 64.400 C 221.539 64.400,220.801 64.850,220.162 65.400 C 219.523 65.949,218.769 66.399,218.487 66.400 C 218.206 66.400,217.874 66.663,217.750 66.985 C 217.627 67.306,217.202 67.673,216.805 67.798 C 215.971 68.063,212.193 71.510,205.732 77.900 C 202.967 80.635,200.867 82.400,200.378 82.400 C 199.550 82.400,196.800 79.951,196.800 79.213 C 196.800 78.986,196.623 78.800,196.406 78.800 C 196.190 78.800,194.397 77.225,192.422 75.300 C 190.447 73.375,187.969 71.131,186.915 70.313 C 185.862 69.495,184.450 68.325,183.777 67.713 C 182.102 66.189,179.458 64.400,178.882 64.400 C 178.621 64.400,178.182 64.040,177.907 63.600 C 177.632 63.160,177.195 62.800,176.934 62.800 C 176.674 62.800,175.927 62.350,175.273 61.800 C 174.619 61.250,173.820 60.800,173.496 60.800 C 173.173 60.800,172.479 60.466,171.954 60.058 C 171.429 59.650,170.325 59.096,169.500 58.827 C 168.675 58.558,168.000 58.180,168.000 57.987 C 168.000 57.794,167.325 57.515,166.500 57.367 C 165.675 57.220,164.691 56.829,164.314 56.500 C 163.937 56.171,162.781 55.744,161.745 55.550 C 160.709 55.357,159.526 54.895,159.116 54.524 C 158.644 54.097,157.456 53.786,155.885 53.679 C 154.442 53.580,153.108 53.251,152.703 52.895 C 152.248 52.494,150.620 52.165,147.995 51.943 C 145.789 51.756,143.335 51.333,142.543 51.002 C 140.619 50.198,126.037 50.188,124.200 50.989 M145.400 84.048 C 146.060 84.404,147.437 84.818,148.460 84.967 C 149.483 85.115,150.726 85.589,151.221 86.019 C 151.717 86.448,152.607 86.800,153.199 86.800 C 153.791 86.800,154.593 87.150,154.979 87.577 C 155.366 88.005,156.186 88.465,156.800 88.600 C 157.414 88.735,158.234 89.195,158.621 89.623 C 159.007 90.050,159.625 90.400,159.992 90.400 C 160.360 90.400,161.083 90.850,161.600 91.400 C 162.117 91.950,162.695 92.400,162.885 92.400 C 163.075 92.400,163.980 93.120,164.896 94.000 C 165.812 94.880,166.692 95.600,166.853 95.600 C 167.827 95.600,176.515 105.027,176.486 106.052 C 176.450 107.311,143.324 140.800,142.114 140.800 C 141.759 140.800,133.575 148.675,123.928 158.300 C 114.281 167.925,106.109 175.860,105.768 175.934 C 105.235 176.050,95.484 166.620,93.600 164.166 C 91.507 161.439,90.380 159.581,88.467 155.703 C 86.183 151.071,85.665 149.845,85.386 148.400 C 85.238 147.630,84.775 145.971,84.358 144.713 C 83.214 141.261,83.223 124.421,84.370 121.896 C 84.794 120.963,85.267 119.390,85.422 118.400 C 85.576 117.410,86.039 116.171,86.451 115.646 C 86.863 115.121,87.200 114.385,87.200 114.010 C 87.200 113.342,88.807 110.036,90.537 107.144 C 92.043 104.627,99.339 95.774,100.739 94.765 C 101.475 94.234,102.370 93.485,102.728 93.100 C 103.085 92.715,103.575 92.400,103.817 92.400 C 104.058 92.400,104.647 91.950,105.125 91.400 C 105.603 90.850,106.268 90.400,106.601 90.400 C 106.935 90.400,107.515 90.041,107.891 89.602 C 108.267 89.163,109.154 88.695,109.861 88.562 C 110.569 88.429,111.457 87.979,111.836 87.560 C 112.232 87.122,113.054 86.800,113.773 86.800 C 114.498 86.800,115.291 86.486,115.662 86.053 C 116.027 85.626,117.138 85.180,118.251 85.013 C 119.323 84.853,120.560 84.528,121.000 84.291 C 122.682 83.387,124.499 83.254,134.200 83.326 C 142.559 83.388,144.397 83.506,145.400 84.048 " stroke="none" fill="#f3811d" fill-rule="evenodd"></path><path id="path1" d="M314.791 85.921 C 308.736 92.015,303.551 97.301,303.268 97.669 C 302.779 98.305,305.905 103.200,306.800 103.200 C 306.949 103.200,307.280 103.657,307.534 104.215 C 307.788 104.773,308.180 105.448,308.404 105.715 C 309.923 107.524,313.200 113.760,313.200 114.843 C 313.200 115.161,313.447 115.777,313.749 116.211 C 314.051 116.645,314.424 117.630,314.578 118.400 C 314.733 119.170,315.231 120.880,315.685 122.200 C 316.899 125.725,316.907 140.951,315.698 144.600 C 315.260 145.920,314.774 147.630,314.616 148.400 C 313.786 152.463,309.276 160.579,305.291 165.184 C 302.049 168.930,294.944 176.000,294.421 176.000 C 294.147 176.000,286.380 168.452,277.160 159.226 C 267.940 150.001,260.023 142.334,259.565 142.189 C 258.510 141.854,236.397 163.619,236.405 164.985 C 236.408 165.433,237.083 166.526,237.905 167.412 C 239.290 168.906,240.418 170.374,241.399 171.956 C 241.618 172.310,242.203 173.173,242.699 173.873 C 243.195 174.574,243.600 175.314,243.600 175.519 C 243.600 175.724,243.949 176.336,244.375 176.878 C 244.802 177.420,245.282 178.389,245.443 179.032 C 245.604 179.674,246.064 180.740,246.466 181.400 C 246.868 182.060,247.198 182.965,247.199 183.411 C 247.199 183.857,247.471 184.609,247.802 185.081 C 248.384 185.913,250.399 197.590,250.401 200.142 C 250.404 204.627,247.713 216.663,246.166 219.086 C 245.855 219.573,245.600 220.146,245.600 220.360 C 245.600 220.955,244.910 222.450,243.907 224.024 C 242.718 225.892,241.345 228.012,240.710 228.962 C 239.835 230.268,236.556 234.163,235.657 234.962 C 234.638 235.868,234.559 236.400,235.443 236.400 C 236.266 236.400,258.000 258.157,258.000 258.982 C 258.000 260.272,259.218 259.147,276.368 242.000 C 286.051 232.320,294.228 224.400,294.540 224.400 C 295.442 224.400,307.595 236.905,307.598 237.838 C 307.599 238.079,307.960 238.602,308.400 239.000 C 308.840 239.398,309.200 239.952,309.200 240.231 C 309.200 240.510,309.650 241.273,310.200 241.927 C 310.750 242.581,311.200 243.364,311.200 243.669 C 311.200 243.973,311.460 244.592,311.777 245.045 C 312.516 246.101,313.909 249.633,314.598 252.200 C 314.894 253.300,315.429 255.249,315.788 256.531 C 317.025 260.945,316.829 273.723,315.453 278.400 C 313.701 284.359,311.623 289.513,309.972 292.000 C 309.607 292.550,308.673 293.990,307.896 295.200 C 307.120 296.410,305.971 297.879,305.342 298.464 C 303.611 300.076,302.400 301.473,302.400 301.859 C 302.400 302.049,307.688 307.491,314.151 313.951 C 325.714 325.510,325.915 325.685,326.651 324.921 C 328.032 323.490,330.591 320.566,331.503 319.377 C 334.407 315.594,335.934 313.433,337.000 311.598 C 337.660 310.462,338.385 309.323,338.611 309.067 C 339.023 308.600,342.169 302.252,344.151 297.891 C 344.728 296.621,345.200 295.216,345.200 294.769 C 345.200 294.322,345.544 293.201,345.964 292.278 C 346.384 291.355,346.862 289.880,347.026 289.000 C 347.191 288.120,347.547 286.860,347.819 286.200 C 348.090 285.540,348.435 283.650,348.584 282.000 C 348.734 280.350,349.126 277.509,349.455 275.686 C 350.621 269.229,349.555 253.200,347.555 247.098 C 347.140 245.833,346.800 244.390,346.800 243.892 C 346.800 243.395,346.466 242.361,346.059 241.594 C 345.651 240.827,345.188 239.501,345.030 238.646 C 344.873 237.791,344.396 236.444,343.972 235.652 C 343.547 234.860,343.200 233.918,343.200 233.560 C 343.200 233.201,342.838 232.448,342.396 231.886 C 341.955 231.325,341.482 230.310,341.346 229.632 C 341.211 228.955,340.976 228.400,340.825 228.400 C 340.673 228.400,339.752 226.870,338.777 225.000 C 337.802 223.130,336.868 221.600,336.702 221.600 C 336.536 221.600,336.400 221.373,336.400 221.096 C 336.400 220.819,335.995 220.144,335.500 219.596 C 335.005 219.048,333.804 217.520,332.831 216.200 C 330.172 212.592,329.174 211.466,323.559 205.738 C 320.721 202.843,318.400 200.366,318.400 200.232 C 318.400 200.098,320.695 197.698,323.500 194.898 C 330.463 187.948,334.612 182.776,337.841 177.020 C 338.206 176.370,338.750 175.592,339.052 175.291 C 339.353 174.990,339.600 174.521,339.600 174.249 C 339.600 173.978,340.050 173.145,340.600 172.400 C 341.150 171.655,341.604 170.765,341.609 170.422 C 341.614 170.080,341.970 169.350,342.400 168.800 C 342.830 168.250,343.192 167.530,343.204 167.200 C 343.215 166.870,343.668 165.700,344.209 164.600 C 344.750 163.500,345.194 162.235,345.196 161.789 C 345.198 161.343,345.444 160.623,345.743 160.189 C 346.042 159.755,346.506 158.410,346.775 157.200 C 347.044 155.990,347.501 154.367,347.791 153.594 C 348.081 152.821,348.520 150.571,348.767 148.594 C 349.013 146.617,349.397 144.280,349.619 143.400 C 350.513 139.857,350.538 129.724,349.665 124.400 C 349.214 121.650,348.731 118.500,348.593 117.400 C 348.454 116.300,348.086 114.590,347.774 113.600 C 347.462 112.610,346.951 110.810,346.638 109.600 C 345.925 106.845,344.680 103.370,343.844 101.800 C 343.493 101.140,343.204 100.385,343.202 100.121 C 343.201 99.858,342.778 98.848,342.261 97.877 C 341.745 96.905,341.200 95.771,341.052 95.355 C 340.903 94.940,340.342 93.880,339.805 93.000 C 339.269 92.120,338.459 90.725,338.007 89.900 C 337.554 89.075,337.027 88.400,336.835 88.400 C 336.644 88.400,336.385 87.995,336.260 87.500 C 336.008 86.500,335.865 86.302,331.571 81.011 C 328.318 77.002,326.324 74.787,326.001 74.821 C 325.891 74.833,320.846 79.828,314.791 85.921 " stroke="none" fill="#4586ef" fill-rule="evenodd"></path><path id="path2" d="M152.721 247.102 C 146.605 253.208,141.600 258.420,141.600 258.684 C 141.600 258.948,149.340 266.923,158.800 276.405 C 168.260 285.887,176.000 293.937,176.000 294.295 C 176.000 295.140,165.657 305.346,162.800 307.320 C 159.182 309.821,156.256 311.600,155.762 311.600 C 155.507 311.600,155.074 311.870,154.800 312.200 C 154.526 312.530,153.956 312.800,153.533 312.800 C 153.110 312.800,151.918 313.250,150.885 313.800 C 149.852 314.350,148.697 314.800,148.318 314.800 C 147.939 314.800,146.678 315.185,145.515 315.655 C 142.369 316.927,124.607 316.956,121.200 315.694 C 119.990 315.246,118.460 314.761,117.800 314.616 C 115.230 314.053,107.863 310.398,105.472 308.500 C 104.849 308.005,104.127 307.600,103.869 307.600 C 103.611 307.600,102.410 306.615,101.200 305.412 C 99.730 303.950,98.667 303.221,97.997 303.212 C 96.939 303.199,75.998 323.753,75.449 325.343 C 75.064 326.456,81.798 332.530,86.377 335.200 C 87.320 335.750,88.403 336.470,88.783 336.800 C 89.862 337.736,95.817 340.889,99.600 342.526 C 100.590 342.954,102.066 343.641,102.879 344.052 C 103.693 344.464,104.683 344.802,105.079 344.804 C 105.476 344.806,106.700 345.250,107.800 345.791 C 108.900 346.332,110.362 346.781,111.050 346.787 C 111.737 346.794,113.087 347.092,114.050 347.449 C 120.934 349.999,145.488 350.016,152.200 347.474 C 153.080 347.141,154.572 346.760,155.515 346.627 C 156.458 346.494,157.895 346.029,158.709 345.593 C 159.522 345.157,160.551 344.799,160.994 344.798 C 161.437 344.796,162.278 344.546,162.861 344.241 C 163.445 343.937,164.615 343.459,165.461 343.180 C 167.639 342.462,173.849 339.269,176.096 337.713 C 177.139 336.991,178.149 336.400,178.341 336.400 C 178.533 336.400,179.390 335.866,180.245 335.214 C 181.100 334.561,182.160 333.761,182.600 333.435 C 185.498 331.288,189.291 327.948,193.800 323.575 C 200.461 317.114,199.502 317.224,204.684 322.324 C 207.073 324.676,210.192 327.579,211.614 328.776 C 213.036 329.973,214.560 331.274,215.000 331.668 C 217.293 333.721,218.146 334.400,218.430 334.400 C 218.602 334.400,218.981 334.627,219.271 334.905 C 221.141 336.692,232.950 343.200,234.323 343.200 C 234.608 343.200,235.507 343.543,236.321 343.963 C 238.769 345.225,242.294 346.463,244.099 346.693 C 245.035 346.813,246.340 347.185,247.000 347.521 C 247.660 347.856,250.450 348.372,253.200 348.666 C 255.950 348.960,259.460 349.371,261.000 349.580 C 264.716 350.083,270.385 350.081,273.600 349.575 C 275.030 349.350,278.000 348.925,280.200 348.632 C 282.400 348.338,284.920 347.821,285.800 347.483 C 286.680 347.145,288.178 346.759,289.128 346.625 C 290.079 346.491,291.249 346.136,291.728 345.836 C 292.208 345.535,293.320 345.164,294.200 345.011 C 295.080 344.858,296.340 344.411,297.000 344.018 C 297.660 343.625,298.739 343.175,299.398 343.019 C 300.057 342.863,300.781 342.582,301.007 342.394 C 301.782 341.751,306.081 339.600,306.592 339.600 C 306.872 339.600,307.338 339.315,307.627 338.967 C 307.916 338.619,308.716 338.034,309.406 337.667 C 312.323 336.114,315.341 334.045,318.341 331.543 C 326.473 324.760,326.974 326.780,313.922 313.722 C 302.581 302.375,302.073 301.990,300.445 303.500 C 298.750 305.072,295.877 307.410,295.453 307.562 C 295.204 307.651,294.460 308.102,293.800 308.563 C 291.822 309.946,291.039 310.410,290.245 310.673 C 289.829 310.810,288.695 311.345,287.723 311.861 C 286.752 312.378,285.735 312.800,285.463 312.800 C 285.192 312.800,284.294 313.144,283.470 313.565 C 282.645 313.985,281.032 314.451,279.885 314.600 C 278.738 314.749,276.585 315.233,275.100 315.674 C 271.481 316.751,259.024 316.625,256.920 315.490 C 256.216 315.111,254.995 314.800,254.208 314.800 C 253.420 314.800,251.707 314.350,250.400 313.800 C 249.093 313.250,247.681 312.800,247.261 312.800 C 246.841 312.800,246.275 312.531,246.002 312.202 C 245.728 311.873,244.806 311.394,243.953 311.139 C 243.099 310.883,242.400 310.554,242.400 310.408 C 242.400 310.262,241.545 309.752,240.500 309.274 C 236.626 307.503,224.000 295.936,224.000 294.158 C 224.000 293.698,230.586 286.823,240.900 276.518 C 250.195 267.231,257.857 259.359,257.928 259.025 C 258.115 258.134,236.321 236.400,235.240 236.400 C 234.775 236.400,234.003 236.850,233.525 237.400 C 233.047 237.950,232.499 238.400,232.308 238.400 C 232.117 238.400,231.294 239.048,230.480 239.841 C 229.666 240.633,228.370 241.625,227.600 242.045 C 225.937 242.952,224.953 243.537,223.592 244.428 C 223.038 244.791,222.138 245.224,221.592 245.391 C 221.047 245.558,220.330 245.927,220.000 246.210 C 219.670 246.494,218.590 246.940,217.600 247.202 C 216.610 247.464,215.593 247.848,215.340 248.055 C 215.087 248.262,213.737 248.610,212.340 248.827 C 210.943 249.045,209.003 249.487,208.029 249.811 C 205.965 250.497,194.020 250.653,192.818 250.010 C 192.417 249.795,190.582 249.357,188.740 249.036 C 186.898 248.714,184.853 248.171,184.195 247.828 C 183.538 247.485,182.710 247.204,182.356 247.202 C 180.783 247.196,170.265 241.160,168.400 239.194 C 167.523 238.269,164.575 236.000,164.249 236.000 C 164.026 236.000,158.838 240.996,152.721 247.102 " stroke="none" fill="#34ab53" fill-rule="evenodd"></path><path id="path3" d="M0.000 200.000 L 0.000 400.000 200.000 400.000 L 400.000 400.000 400.000 200.000 L 400.000 0.000 200.000 0.000 L 0.000 0.000 0.000 200.000 M142.200 50.014 C 143.300 50.215,146.090 50.675,148.400 51.035 C 150.710 51.395,153.050 51.916,153.600 52.193 C 154.150 52.470,155.500 52.822,156.600 52.975 C 157.700 53.129,159.230 53.573,160.000 53.962 C 160.770 54.352,162.018 54.792,162.774 54.940 C 163.529 55.088,164.429 55.461,164.774 55.768 C 165.118 56.074,166.144 56.524,167.053 56.766 C 167.963 57.008,168.930 57.474,169.202 57.803 C 169.475 58.131,170.001 58.400,170.371 58.400 C 170.742 58.400,171.655 58.850,172.400 59.400 C 173.145 59.950,174.053 60.400,174.416 60.400 C 174.779 60.400,175.402 60.760,175.800 61.200 C 176.198 61.640,176.738 62.000,177.000 62.000 C 177.262 62.000,177.802 62.360,178.200 62.800 C 178.598 63.240,179.143 63.600,179.411 63.600 C 179.679 63.600,180.987 64.455,182.318 65.500 C 183.650 66.545,185.333 67.850,186.058 68.400 C 188.264 70.071,191.589 73.152,195.915 77.531 L 200.030 81.697 200.909 80.948 C 201.392 80.537,203.797 78.209,206.254 75.776 C 208.711 73.343,211.401 70.823,212.232 70.176 C 213.063 69.529,214.030 68.730,214.380 68.400 C 215.102 67.721,215.186 67.660,220.943 63.715 C 223.258 62.129,225.748 60.549,226.476 60.205 C 227.204 59.860,228.250 59.316,228.800 58.995 C 229.350 58.674,230.087 58.409,230.438 58.406 C 230.789 58.403,231.390 58.053,231.774 57.629 C 232.157 57.205,233.165 56.741,234.013 56.598 C 234.860 56.455,235.762 56.086,236.017 55.779 C 236.272 55.472,237.135 55.098,237.936 54.948 C 238.737 54.798,240.114 54.347,240.996 53.946 C 241.878 53.545,243.050 53.206,243.600 53.191 C 244.150 53.177,245.320 52.888,246.200 52.549 C 252.089 50.280,267.733 49.097,275.448 50.336 C 278.282 50.792,281.680 51.285,283.000 51.432 C 284.320 51.580,285.703 51.858,286.074 52.050 C 286.444 52.242,288.035 52.671,289.609 53.002 C 291.182 53.333,292.854 53.873,293.324 54.202 C 293.794 54.531,294.543 54.801,294.989 54.801 C 295.435 54.802,296.389 55.162,297.110 55.601 C 297.830 56.041,298.650 56.400,298.931 56.400 C 299.381 56.400,300.609 56.929,304.400 58.757 C 304.950 59.022,306.120 59.673,307.000 60.204 C 307.880 60.736,309.230 61.542,310.000 61.996 C 312.948 63.736,316.482 66.188,318.745 68.063 C 319.044 68.312,320.115 69.145,321.125 69.916 C 323.235 71.527,325.600 73.760,325.600 74.141 C 325.600 74.285,326.215 74.986,326.966 75.701 C 327.717 76.415,329.742 78.742,331.466 80.872 C 335.894 86.342,336.008 86.499,336.260 87.500 C 336.385 87.995,336.644 88.400,336.835 88.400 C 337.027 88.400,337.554 89.075,338.007 89.900 C 338.459 90.725,339.269 92.120,339.805 93.000 C 340.342 93.880,340.903 94.940,341.052 95.355 C 341.200 95.771,341.745 96.905,342.261 97.877 C 342.778 98.848,343.201 99.858,343.202 100.121 C 343.204 100.385,343.493 101.140,343.844 101.800 C 344.680 103.370,345.925 106.845,346.638 109.600 C 346.951 110.810,347.462 112.610,347.774 113.600 C 348.086 114.590,348.454 116.300,348.593 117.400 C 348.731 118.500,349.214 121.650,349.665 124.400 C 350.538 129.724,350.513 139.857,349.619 143.400 C 349.397 144.280,349.013 146.617,348.767 148.594 C 348.520 150.571,348.081 152.821,347.791 153.594 C 347.501 154.367,347.044 155.990,346.775 157.200 C 346.506 158.410,346.042 159.755,345.743 160.189 C 345.444 160.623,345.198 161.343,345.196 161.789 C 345.194 162.235,344.750 163.500,344.209 164.600 C 343.668 165.700,343.215 166.870,343.204 167.200 C 343.192 167.530,342.830 168.250,342.400 168.800 C 341.970 169.350,341.614 170.080,341.609 170.422 C 341.604 170.765,341.150 171.655,340.600 172.400 C 340.050 173.145,339.600 173.978,339.600 174.249 C 339.600 174.521,339.353 174.990,339.052 175.291 C 338.750 175.592,338.206 176.370,337.841 177.020 C 334.612 182.776,330.463 187.948,323.500 194.898 C 320.695 197.698,318.400 200.098,318.400 200.232 C 318.400 200.366,320.721 202.843,323.559 205.738 C 329.174 211.466,330.172 212.592,332.831 216.200 C 333.804 217.520,335.005 219.048,335.500 219.596 C 335.995 220.144,336.400 220.819,336.400 221.096 C 336.400 221.373,336.536 221.600,336.702 221.600 C 336.868 221.600,337.802 223.130,338.777 225.000 C 339.752 226.870,340.673 228.400,340.825 228.400 C 340.976 228.400,341.211 228.955,341.346 229.632 C 341.482 230.310,341.955 231.325,342.396 231.886 C 342.838 232.448,343.200 233.201,343.200 233.560 C 343.200 233.918,343.547 234.860,343.972 235.652 C 344.396 236.444,344.873 237.791,345.030 238.646 C 345.188 239.501,345.651 240.827,346.059 241.594 C 346.466 242.361,346.800 243.395,346.800 243.892 C 346.800 244.390,347.140 245.833,347.555 247.098 C 349.555 253.200,350.621 269.229,349.455 275.686 C 349.126 277.509,348.734 280.350,348.584 282.000 C 348.435 283.650,348.090 285.540,347.819 286.200 C 347.547 286.860,347.191 288.120,347.026 289.000 C 346.862 289.880,346.384 291.355,345.964 292.278 C 345.544 293.201,345.200 294.322,345.200 294.769 C 345.200 295.216,344.728 296.621,344.151 297.891 C 342.169 302.252,339.023 308.600,338.611 309.067 C 338.385 309.323,337.660 310.462,337.000 311.598 C 335.934 313.433,334.407 315.594,331.503 319.377 C 330.436 320.768,327.682 323.881,326.730 324.773 C 323.819 327.499,322.652 328.529,320.200 330.536 C 318.660 331.797,317.120 333.086,316.777 333.402 C 315.673 334.422,312.614 336.385,312.120 336.393 C 311.856 336.397,311.496 336.639,311.320 336.931 C 310.924 337.588,303.823 341.600,303.056 341.600 C 302.749 341.600,302.282 341.860,302.018 342.178 C 301.754 342.496,300.654 343.050,299.574 343.409 C 298.493 343.768,297.519 344.207,297.409 344.385 C 297.299 344.563,296.532 344.836,295.704 344.991 C 294.877 345.146,293.445 345.616,292.522 346.036 C 291.599 346.456,290.332 346.800,289.707 346.800 C 289.081 346.800,287.898 347.142,287.078 347.560 C 286.259 347.978,284.315 348.448,282.760 348.604 C 281.204 348.760,278.912 349.150,277.666 349.471 C 273.984 350.417,262.462 350.637,258.591 349.835 C 256.836 349.471,253.651 348.993,251.514 348.773 C 249.338 348.549,246.873 348.031,245.914 347.595 C 244.971 347.168,243.657 346.814,242.994 346.809 C 242.331 346.804,241.116 346.440,240.296 346.000 C 239.475 345.560,238.524 345.200,238.183 345.200 C 237.842 345.200,236.718 344.750,235.685 344.200 C 234.652 343.650,233.603 343.200,233.353 343.200 C 232.857 343.200,226.122 339.827,224.200 338.617 C 223.540 338.201,222.036 337.217,220.858 336.430 C 219.680 335.644,218.417 334.820,218.051 334.600 C 217.685 334.380,217.029 333.880,216.593 333.490 C 216.157 333.099,214.630 331.849,213.200 330.712 C 211.770 329.575,208.296 326.385,205.479 323.623 C 202.662 320.860,200.190 318.541,199.985 318.469 C 199.780 318.396,197.134 320.763,194.106 323.729 C 188.440 329.277,181.368 335.214,179.000 336.412 C 178.560 336.634,177.390 337.336,176.400 337.971 C 172.801 340.281,163.837 344.542,161.600 345.007 C 160.830 345.167,159.532 345.636,158.716 346.049 C 157.900 346.462,156.637 346.800,155.910 346.800 C 155.183 346.800,153.926 347.155,153.116 347.589 C 152.174 348.094,150.451 348.469,148.322 348.632 C 146.495 348.771,144.010 349.174,142.800 349.527 C 139.681 350.436,126.541 350.391,122.675 349.458 C 121.177 349.096,119.273 348.800,118.446 348.800 C 117.618 348.800,115.438 348.350,113.600 347.800 C 111.762 347.250,109.930 346.800,109.528 346.800 C 109.126 346.800,108.125 346.440,107.304 346.000 C 106.484 345.560,105.551 345.200,105.232 345.200 C 104.913 345.200,103.921 344.856,103.026 344.436 C 102.132 344.016,100.079 343.102,98.465 342.406 C 94.148 340.544,92.218 339.477,87.660 336.430 C 86.483 335.644,85.077 334.760,84.534 334.466 C 83.992 334.172,83.451 333.677,83.332 333.366 C 83.212 333.055,82.933 332.800,82.712 332.800 C 81.592 332.800,72.813 324.237,69.200 319.619 C 67.990 318.073,66.895 316.806,66.767 316.804 C 66.639 316.802,65.940 315.855,65.212 314.700 C 64.485 313.545,63.486 311.970,62.993 311.200 C 60.542 307.375,56.800 300.127,56.800 299.204 C 56.800 298.959,56.462 298.093,56.048 297.279 C 55.051 295.317,54.014 292.263,53.510 289.800 C 53.284 288.700,52.762 286.957,52.350 285.926 C 51.937 284.895,51.599 283.365,51.598 282.526 C 51.597 281.687,51.237 278.873,50.798 276.273 C 49.747 270.046,49.747 262.933,50.800 256.600 C 51.239 253.960,51.598 251.222,51.599 250.515 C 51.599 249.808,51.942 248.278,52.361 247.115 C 52.779 245.952,53.234 244.218,53.371 243.263 C 53.509 242.308,53.952 240.868,54.357 240.063 C 54.761 239.258,55.214 237.925,55.364 237.100 C 55.514 236.275,55.780 235.600,55.955 235.600 C 56.130 235.600,56.486 234.890,56.746 234.023 C 58.927 226.743,66.890 215.252,76.538 205.464 C 79.322 202.639,81.600 200.119,81.600 199.863 C 81.600 199.608,79.705 197.510,77.389 195.200 C 73.584 191.404,65.600 182.362,65.600 181.848 C 65.600 181.734,65.015 180.801,64.300 179.776 C 62.476 177.161,61.500 175.493,59.570 171.690 C 58.646 169.869,57.735 168.284,57.545 168.166 C 57.355 168.049,57.198 167.648,57.196 167.276 C 57.194 166.904,56.750 165.700,56.209 164.600 C 55.668 163.500,55.219 162.276,55.213 161.881 C 55.206 161.485,54.849 160.434,54.419 159.545 C 53.990 158.656,53.513 157.090,53.360 156.065 C 53.207 155.039,52.749 153.420,52.341 152.467 C 51.934 151.514,51.597 150.074,51.593 149.267 C 51.589 148.460,51.232 145.640,50.800 143.000 C 49.845 137.163,49.777 129.764,50.627 124.200 C 50.963 122.000,51.381 118.940,51.556 117.400 C 51.732 115.860,52.148 114.060,52.481 113.400 C 52.815 112.740,53.196 111.390,53.328 110.400 C 53.461 109.410,53.936 107.887,54.385 107.015 C 54.833 106.144,55.200 105.028,55.200 104.537 C 55.200 104.045,55.650 102.796,56.200 101.762 C 56.750 100.727,57.200 99.558,57.200 99.164 C 57.200 98.770,57.360 98.348,57.556 98.227 C 57.752 98.106,58.664 96.520,59.582 94.703 C 61.557 90.796,62.409 89.293,63.136 88.434 C 63.431 88.085,64.241 86.892,64.936 85.782 C 65.631 84.672,66.427 83.502,66.705 83.182 C 66.982 82.862,67.750 81.880,68.410 81.000 C 69.682 79.304,73.277 75.210,75.584 72.829 C 77.029 71.338,78.934 69.699,81.195 68.000 C 81.928 67.450,82.799 66.731,83.132 66.403 C 83.465 66.074,84.048 65.624,84.427 65.403 C 84.806 65.181,86.080 64.343,87.258 63.539 C 88.436 62.735,90.480 61.499,91.800 60.791 C 93.120 60.083,94.555 59.255,94.989 58.952 C 95.423 58.648,96.076 58.400,96.440 58.400 C 96.804 58.400,97.325 58.131,97.598 57.803 C 97.870 57.474,98.837 57.008,99.747 56.766 C 100.656 56.524,101.682 56.074,102.026 55.768 C 102.371 55.461,103.271 55.088,104.026 54.940 C 104.782 54.792,106.030 54.352,106.800 53.962 C 107.570 53.573,109.100 53.129,110.200 52.975 C 111.300 52.822,112.650 52.470,113.200 52.193 C 113.750 51.916,116.180 51.379,118.600 51.001 C 121.020 50.622,123.720 50.174,124.600 50.006 C 126.874 49.571,139.813 49.577,142.200 50.014 M124.600 84.412 C 123.940 84.613,122.169 85.056,120.664 85.398 C 119.159 85.741,117.232 86.376,116.380 86.810 C 115.529 87.245,114.487 87.600,114.065 87.600 C 113.643 87.600,113.098 87.840,112.855 88.134 C 112.611 88.428,111.686 88.907,110.800 89.200 C 109.914 89.493,108.989 89.972,108.745 90.266 C 108.502 90.560,108.132 90.800,107.924 90.800 C 107.717 90.800,106.957 91.250,106.236 91.800 C 105.514 92.350,104.782 92.800,104.608 92.800 C 104.434 92.800,103.885 93.205,103.387 93.700 C 102.890 94.195,101.522 95.410,100.349 96.400 C 96.780 99.411,93.760 102.619,92.187 105.070 C 91.365 106.352,90.382 107.853,90.002 108.408 C 89.623 108.962,89.172 109.862,89.001 110.408 C 88.830 110.953,88.355 111.829,87.945 112.354 C 87.535 112.879,87.200 113.667,87.200 114.107 C 87.200 114.546,86.859 115.467,86.442 116.153 C 86.026 116.839,85.554 118.210,85.395 119.200 C 85.236 120.190,84.816 121.540,84.462 122.200 C 83.490 124.011,83.289 140.075,84.199 143.200 C 84.551 144.410,85.073 146.410,85.358 147.645 C 85.644 148.880,86.175 150.315,86.539 150.834 C 86.903 151.353,87.200 152.080,87.200 152.448 C 87.200 153.119,89.239 157.372,89.998 158.283 C 90.219 158.549,90.400 158.892,90.400 159.045 C 90.400 159.199,90.850 159.914,91.400 160.636 C 91.950 161.357,92.400 162.132,92.400 162.358 C 92.400 162.858,104.254 175.094,105.262 175.633 C 106.022 176.040,175.600 107.037,175.600 105.877 C 175.600 104.946,163.080 93.070,161.605 92.602 C 161.220 92.480,160.584 92.024,160.191 91.590 C 159.798 91.155,159.242 90.800,158.956 90.800 C 158.670 90.800,157.772 90.350,156.962 89.800 C 156.151 89.250,155.266 88.800,154.993 88.800 C 154.721 88.800,154.274 88.530,154.000 88.200 C 153.726 87.870,153.209 87.598,152.851 87.596 C 152.493 87.594,151.300 87.150,150.200 86.609 C 149.100 86.068,147.660 85.611,147.000 85.595 C 146.340 85.578,145.080 85.276,144.200 84.923 C 142.349 84.180,126.708 83.773,124.600 84.412 M258.200 84.251 C 257.760 84.360,256.721 84.707,255.892 85.024 C 255.062 85.341,253.802 85.601,253.092 85.603 C 252.381 85.604,251.260 85.963,250.600 86.400 C 249.940 86.837,249.149 87.196,248.842 87.197 C 248.355 87.200,245.611 88.489,240.956 90.903 C 240.210 91.290,239.600 91.773,239.600 91.976 C 239.600 92.180,239.195 92.471,238.700 92.623 C 237.231 93.076,229.761 99.894,225.267 104.886 L 224.333 105.923 241.267 122.961 C 250.580 132.333,266.210 148.092,276.000 157.982 C 285.790 167.873,294.052 175.973,294.360 175.982 C 294.927 176.000,301.835 169.177,305.291 165.184 C 309.276 160.579,313.786 152.463,314.616 148.400 C 314.774 147.630,315.260 145.920,315.698 144.600 C 316.907 140.951,316.899 125.725,315.685 122.200 C 315.231 120.880,314.733 119.170,314.578 118.400 C 314.424 117.630,314.051 116.645,313.749 116.211 C 313.447 115.777,313.200 115.161,313.200 114.843 C 313.200 113.797,309.975 107.617,308.479 105.795 C 308.296 105.573,307.966 105.067,307.745 104.673 C 306.636 102.691,303.015 98.839,299.780 96.200 C 298.702 95.320,297.434 94.240,296.964 93.800 C 295.997 92.896,294.413 91.903,292.500 91.002 C 291.785 90.665,291.200 90.240,291.200 90.058 C 291.200 89.876,290.501 89.517,289.647 89.261 C 288.794 89.006,287.872 88.527,287.598 88.198 C 287.325 87.869,286.782 87.600,286.391 87.600 C 286.000 87.600,284.717 87.152,283.540 86.604 C 282.363 86.056,280.899 85.606,280.287 85.604 C 279.675 85.602,278.505 85.298,277.687 84.930 C 276.220 84.268,260.374 83.716,258.200 84.251 M197.567 150.165 C 197.475 150.255,195.240 150.624,192.600 150.984 C 187.018 151.745,181.979 153.285,178.000 155.443 C 177.450 155.742,176.446 156.249,175.768 156.570 C 175.091 156.891,174.304 157.434,174.019 157.777 C 173.735 158.120,173.277 158.400,173.002 158.400 C 172.507 158.400,167.878 161.930,167.037 162.949 C 166.797 163.240,165.735 164.084,164.677 164.824 C 162.864 166.092,158.400 171.136,158.400 171.917 C 158.400 172.114,158.050 172.593,157.623 172.979 C 157.195 173.366,156.731 174.206,156.590 174.845 C 156.450 175.484,155.990 176.191,155.567 176.417 C 155.145 176.643,154.800 177.232,154.800 177.725 C 154.800 178.218,154.522 179.019,154.181 179.505 C 153.526 180.441,152.166 184.064,151.594 186.400 C 149.751 193.923,149.600 194.912,149.600 199.472 C 149.600 202.542,149.825 205.078,150.233 206.616 C 150.581 207.927,151.033 210.142,151.237 211.538 C 151.441 212.933,151.876 214.458,152.204 214.927 C 152.532 215.395,152.800 216.161,152.800 216.629 C 152.800 217.098,153.250 218.327,153.800 219.362 C 154.350 220.396,154.800 221.445,154.800 221.692 C 154.800 221.939,155.640 223.415,156.666 224.971 C 157.692 226.527,158.995 228.502,159.562 229.360 C 160.709 231.097,168.438 239.052,170.000 240.104 C 170.550 240.475,171.900 241.410,173.000 242.183 C 174.100 242.955,175.203 243.591,175.451 243.594 C 175.699 243.597,176.117 243.858,176.379 244.174 C 176.641 244.490,177.374 244.863,178.009 245.002 C 178.643 245.141,179.576 245.577,180.081 245.970 C 180.587 246.363,181.712 246.815,182.581 246.975 C 183.451 247.136,184.839 247.612,185.665 248.033 C 186.492 248.455,187.798 248.800,188.569 248.800 C 189.339 248.800,191.513 249.160,193.400 249.600 C 197.541 250.566,202.186 250.626,205.875 249.762 C 207.374 249.411,209.648 248.972,210.929 248.788 C 213.131 248.471,215.784 247.595,219.400 245.992 C 220.280 245.602,221.389 245.167,221.864 245.026 C 222.339 244.885,222.946 244.506,223.213 244.185 C 223.480 243.863,224.008 243.600,224.387 243.600 C 224.766 243.600,225.398 243.245,225.791 242.810 C 226.184 242.376,226.887 241.901,227.353 241.755 C 228.861 241.284,236.075 234.844,238.557 231.754 C 240.482 229.357,240.857 228.814,243.907 224.024 C 244.910 222.450,245.600 220.955,245.600 220.360 C 245.600 220.146,245.855 219.573,246.166 219.086 C 247.713 216.663,250.404 204.627,250.401 200.142 C 250.399 197.590,248.384 185.913,247.802 185.081 C 247.471 184.609,247.199 183.857,247.199 183.411 C 247.198 182.965,246.868 182.060,246.466 181.400 C 246.064 180.740,245.604 179.674,245.443 179.032 C 245.282 178.389,244.802 177.420,244.375 176.878 C 243.949 176.336,243.600 175.724,243.600 175.519 C 243.600 175.314,243.195 174.574,242.699 173.873 C 242.203 173.173,241.618 172.310,241.399 171.956 C 239.811 169.394,238.167 167.577,234.040 163.821 C 231.233 161.267,227.534 158.400,227.045 158.400 C 226.796 158.400,226.368 158.040,226.093 157.600 C 225.818 157.160,225.270 156.800,224.874 156.800 C 224.479 156.800,223.545 156.350,222.800 155.800 C 222.055 155.250,221.186 154.800,220.870 154.800 C 220.553 154.800,219.733 154.462,219.047 154.049 C 218.361 153.635,217.107 153.174,216.260 153.023 C 215.413 152.872,214.153 152.496,213.460 152.188 C 211.258 151.207,198.194 149.544,197.567 150.165 M104.800 224.285 C 104.470 224.407,102.670 226.062,100.800 227.963 C 94.397 234.472,91.169 238.578,89.247 242.656 C 88.817 243.567,88.285 244.424,88.064 244.561 C 87.843 244.697,87.538 245.392,87.388 246.105 C 87.237 246.817,86.795 247.940,86.406 248.600 C 86.016 249.260,85.575 250.520,85.425 251.400 C 85.276 252.280,84.788 253.990,84.342 255.200 C 83.125 258.499,83.136 273.849,84.358 277.475 C 84.807 278.808,85.297 280.686,85.447 281.649 C 85.598 282.612,86.054 283.829,86.460 284.354 C 86.867 284.879,87.200 285.709,87.200 286.200 C 87.200 286.691,87.527 287.521,87.927 288.046 C 88.327 288.571,88.889 289.585,89.176 290.300 C 89.462 291.015,89.841 291.600,90.018 291.600 C 90.194 291.600,90.545 292.229,90.799 292.997 C 91.053 293.765,91.487 294.530,91.765 294.697 C 92.043 294.864,92.436 295.305,92.639 295.677 C 93.155 296.628,97.122 301.133,98.800 302.675 C 103.050 306.578,104.229 307.597,104.499 307.598 C 104.664 307.599,105.654 308.196,106.699 308.924 C 109.846 311.116,116.272 313.979,120.400 315.030 C 125.527 316.334,127.110 316.474,135.000 316.317 C 141.262 316.194,143.322 316.017,144.485 315.506 C 145.301 315.147,146.788 314.731,147.789 314.581 C 148.790 314.431,150.012 313.995,150.505 313.612 C 150.997 313.229,152.057 312.795,152.860 312.647 C 153.663 312.500,154.530 312.125,154.787 311.815 C 155.045 311.505,155.770 311.138,156.400 311.000 C 157.030 310.862,157.752 310.498,158.006 310.192 C 158.260 309.887,159.308 309.150,160.334 308.555 C 163.552 306.692,175.241 295.995,175.681 294.512 C 175.831 294.006,106.459 223.989,105.850 224.032 C 105.602 224.049,105.130 224.163,104.800 224.285 M277.097 241.126 C 267.910 250.297,252.295 265.827,242.397 275.638 C 232.499 285.450,224.400 293.773,224.400 294.135 C 224.400 295.834,237.792 307.867,241.326 309.343 C 242.083 309.660,242.825 310.117,242.975 310.359 C 243.125 310.602,243.572 310.800,243.970 310.800 C 244.367 310.800,245.164 311.171,245.740 311.624 C 246.316 312.077,247.465 312.553,248.294 312.681 C 249.122 312.808,250.340 313.198,251.000 313.546 C 251.660 313.895,253.460 314.395,255.000 314.657 C 256.540 314.919,258.610 315.321,259.600 315.549 C 261.907 316.082,271.309 316.104,273.400 315.581 C 274.280 315.361,276.350 314.929,278.000 314.621 C 281.045 314.053,284.341 312.997,287.600 311.546 C 290.767 310.137,293.597 308.609,293.599 308.308 C 293.599 308.148,294.320 307.649,295.200 307.200 C 296.080 306.751,296.800 306.207,296.800 305.992 C 296.800 305.776,297.030 305.600,297.311 305.600 C 297.592 305.600,298.105 305.285,298.450 304.900 C 298.796 304.515,299.655 303.750,300.361 303.200 C 301.066 302.650,302.218 301.599,302.922 300.864 C 303.625 300.129,304.714 299.049,305.342 298.464 C 305.971 297.879,307.120 296.410,307.896 295.200 C 308.673 293.990,309.607 292.550,309.972 292.000 C 311.623 289.513,313.701 284.359,315.453 278.400 C 316.829 273.723,317.025 260.945,315.788 256.531 C 315.429 255.249,314.894 253.300,314.598 252.200 C 313.909 249.633,312.516 246.101,311.777 245.045 C 311.460 244.592,311.200 243.973,311.200 243.669 C 311.200 243.364,310.750 242.581,310.200 241.927 C 309.650 241.273,309.200 240.510,309.200 240.231 C 309.200 239.952,308.840 239.398,308.400 239.000 C 307.960 238.602,307.599 238.079,307.598 237.838 C 307.594 236.829,295.402 224.388,294.453 224.426 C 294.094 224.440,286.284 231.955,277.097 241.126 " stroke="none" fill="#fbfbfb" fill-rule="evenodd"></path><path id="path4" d="M124.600 50.006 C 123.720 50.174,121.020 50.622,118.600 51.001 C 116.180 51.379,113.750 51.916,113.200 52.193 C 112.650 52.470,111.300 52.822,110.200 52.975 C 109.100 53.129,107.570 53.573,106.800 53.962 C 106.030 54.352,104.782 54.792,104.026 54.940 C 103.271 55.088,102.371 55.461,102.026 55.768 C 101.682 56.074,100.656 56.524,99.747 56.766 C 98.837 57.008,97.870 57.474,97.598 57.803 C 97.325 58.131,96.804 58.400,96.440 58.400 C 96.076 58.400,95.423 58.648,94.989 58.952 C 94.555 59.255,93.120 60.083,91.800 60.791 C 90.480 61.499,88.436 62.735,87.258 63.539 C 86.080 64.343,84.806 65.181,84.427 65.403 C 84.048 65.624,83.465 66.074,83.132 66.403 C 82.799 66.731,81.928 67.450,81.195 68.000 C 77.465 70.802,73.774 74.307,74.154 74.687 C 74.283 74.816,74.865 74.444,75.448 73.861 C 76.032 73.277,76.665 72.800,76.855 72.800 C 77.045 72.800,77.200 72.530,77.200 72.200 C 77.200 71.870,77.399 71.600,77.642 71.600 C 78.129 71.600,79.644 70.453,82.400 68.000 C 85.214 65.495,86.674 64.400,87.200 64.400 C 87.466 64.400,88.219 63.950,88.873 63.400 C 89.527 62.850,90.408 62.400,90.831 62.400 C 91.254 62.400,91.600 62.211,91.600 61.980 C 91.600 61.748,92.275 61.280,93.100 60.940 C 93.925 60.599,94.870 60.091,95.200 59.811 C 95.530 59.530,96.475 59.084,97.300 58.820 C 98.125 58.555,98.800 58.186,98.800 58.001 C 98.800 57.815,99.385 57.540,100.100 57.389 C 100.815 57.237,101.940 56.795,102.600 56.406 C 103.260 56.016,104.520 55.570,105.400 55.415 C 106.280 55.259,107.322 54.844,107.715 54.491 C 108.149 54.101,109.407 53.782,110.915 53.679 C 112.353 53.580,113.692 53.251,114.094 52.898 C 114.540 52.506,116.254 52.150,118.894 51.901 C 121.152 51.689,123.607 51.264,124.349 50.957 C 126.343 50.133,140.547 50.168,142.543 51.002 C 143.335 51.333,145.789 51.756,147.995 51.943 C 150.620 52.165,152.248 52.494,152.703 52.895 C 153.108 53.251,154.442 53.580,155.885 53.679 C 157.456 53.786,158.644 54.097,159.116 54.524 C 159.526 54.895,160.709 55.357,161.745 55.550 C 162.781 55.744,163.937 56.171,164.314 56.500 C 164.691 56.829,165.675 57.220,166.500 57.367 C 167.325 57.515,168.000 57.794,168.000 57.987 C 168.000 58.180,168.675 58.558,169.500 58.827 C 170.325 59.096,171.429 59.650,171.954 60.058 C 172.479 60.466,173.173 60.800,173.496 60.800 C 173.820 60.800,174.619 61.250,175.273 61.800 C 175.927 62.350,176.674 62.800,176.934 62.800 C 177.195 62.800,177.632 63.160,177.907 63.600 C 178.182 64.040,178.621 64.400,178.882 64.400 C 179.458 64.400,182.102 66.189,183.777 67.713 C 184.450 68.325,185.862 69.495,186.915 70.313 C 187.969 71.131,190.447 73.375,192.422 75.300 C 194.397 77.225,196.190 78.800,196.406 78.800 C 196.623 78.800,196.800 78.986,196.800 79.213 C 196.800 79.951,199.550 82.400,200.378 82.400 C 200.867 82.400,202.967 80.635,205.732 77.900 C 212.193 71.510,215.971 68.063,216.805 67.798 C 217.202 67.673,217.627 67.306,217.750 66.985 C 217.874 66.663,218.206 66.400,218.487 66.400 C 218.769 66.399,219.523 65.949,220.162 65.400 C 220.801 64.850,221.539 64.400,221.800 64.400 C 222.062 64.400,222.602 64.040,223.000 63.600 C 223.398 63.160,223.957 62.800,224.241 62.800 C 224.526 62.800,225.244 62.350,225.838 61.800 C 226.431 61.250,227.313 60.800,227.796 60.800 C 228.280 60.800,228.983 60.461,229.358 60.046 C 229.734 59.631,230.550 59.190,231.172 59.066 C 231.794 58.941,232.578 58.565,232.912 58.231 C 233.247 57.896,234.240 57.460,235.119 57.263 C 235.998 57.065,237.135 56.610,237.647 56.252 C 238.159 55.893,239.130 55.600,239.804 55.600 C 240.479 55.600,241.744 55.234,242.615 54.788 C 243.487 54.341,245.337 53.813,246.727 53.614 C 248.117 53.415,249.520 53.033,249.843 52.764 C 251.957 51.010,280.050 51.072,283.826 52.839 C 284.721 53.258,286.251 53.606,287.226 53.613 C 288.280 53.620,289.812 54.025,291.000 54.609 C 292.100 55.150,293.471 55.594,294.046 55.596 C 294.621 55.598,295.521 55.937,296.046 56.349 C 296.571 56.761,297.751 57.224,298.669 57.379 C 299.586 57.533,300.427 57.894,300.537 58.179 C 300.646 58.465,301.356 58.815,302.113 58.957 C 302.871 59.099,303.813 59.572,304.207 60.008 C 304.601 60.444,305.320 60.800,305.804 60.800 C 306.287 60.800,307.169 61.250,307.762 61.800 C 308.356 62.350,309.080 62.800,309.372 62.800 C 309.663 62.800,310.142 63.089,310.435 63.442 C 310.727 63.795,311.335 64.245,311.784 64.443 C 312.233 64.641,313.410 65.432,314.400 66.200 C 315.390 66.968,316.610 67.775,317.110 67.992 C 317.611 68.210,318.125 68.661,318.253 68.994 C 318.381 69.327,318.727 69.600,319.023 69.600 C 319.318 69.600,319.704 69.845,319.880 70.145 C 320.056 70.445,321.013 71.390,322.006 72.245 C 324.553 74.437,324.713 74.192,313.252 85.637 C 301.991 96.881,301.891 96.951,299.955 94.954 C 299.234 94.209,298.498 93.600,298.322 93.600 C 298.145 93.600,297.685 93.325,297.300 92.990 C 294.810 90.820,294.166 90.357,293.360 90.154 C 292.864 90.030,292.369 89.697,292.261 89.415 C 292.153 89.134,291.555 88.776,290.932 88.622 C 290.310 88.467,289.440 88.018,289.000 87.623 C 288.560 87.229,287.490 86.798,286.623 86.666 C 285.756 86.533,284.898 86.160,284.716 85.836 C 284.535 85.512,283.535 85.127,282.493 84.980 C 281.452 84.833,280.172 84.444,279.650 84.115 C 277.411 82.704,257.588 82.595,254.800 83.978 C 254.030 84.360,252.512 84.792,251.428 84.938 C 250.243 85.098,249.158 85.523,248.712 86.002 C 248.303 86.441,247.470 86.800,246.860 86.800 C 246.250 86.800,245.387 87.139,244.942 87.554 C 244.497 87.968,243.563 88.432,242.867 88.585 C 242.170 88.738,241.600 89.038,241.600 89.252 C 241.600 89.466,240.966 89.906,240.191 90.230 C 239.416 90.553,238.437 91.129,238.016 91.509 C 237.595 91.889,236.775 92.560,236.192 93.000 C 233.933 94.708,233.009 95.554,228.382 100.153 C 225.599 102.919,223.600 105.225,223.600 105.670 C 223.600 106.449,227.672 110.800,228.400 110.800 C 228.620 110.800,228.800 110.986,228.800 111.213 C 228.800 111.751,231.449 114.400,231.987 114.400 C 232.214 114.400,232.400 114.574,232.400 114.786 C 232.400 115.304,243.875 126.800,244.393 126.800 C 244.617 126.800,244.800 126.986,244.800 127.213 C 244.800 127.751,247.449 130.400,247.987 130.400 C 248.214 130.400,248.400 130.577,248.400 130.794 C 248.400 131.011,250.210 133.012,252.422 135.241 C 254.633 137.470,256.718 139.714,257.055 140.228 C 257.916 141.542,236.334 163.399,234.603 162.965 C 234.051 162.827,233.600 162.475,233.600 162.184 C 233.600 161.892,233.240 161.540,232.800 161.400 C 232.359 161.260,231.813 160.798,231.586 160.373 C 231.358 159.948,230.915 159.600,230.600 159.600 C 230.285 159.600,229.837 159.242,229.603 158.805 C 229.368 158.367,228.745 157.901,228.217 157.769 C 227.690 157.636,227.169 157.297,227.061 157.015 C 226.953 156.734,226.355 156.375,225.732 156.219 C 225.110 156.063,224.278 155.590,223.884 155.168 C 223.491 154.745,222.733 154.400,222.200 154.400 C 221.667 154.400,220.909 154.056,220.516 153.635 C 220.122 153.215,219.080 152.742,218.200 152.585 C 217.320 152.427,216.274 152.014,215.876 151.666 C 215.450 151.294,213.970 150.918,212.276 150.753 C 210.694 150.598,208.860 150.187,208.200 149.838 C 206.446 148.912,193.548 148.915,191.800 149.841 C 191.140 150.191,189.520 150.572,188.200 150.688 C 186.880 150.804,185.260 151.222,184.600 151.616 C 183.940 152.010,182.680 152.462,181.800 152.620 C 180.920 152.777,179.878 153.242,179.484 153.653 C 179.091 154.064,178.348 154.400,177.833 154.400 C 177.319 154.400,176.661 154.685,176.372 155.034 C 176.082 155.383,175.160 155.943,174.323 156.278 C 173.485 156.613,172.800 157.025,172.800 157.195 C 172.800 157.364,172.273 157.721,171.629 157.988 C 170.985 158.255,170.360 158.727,170.241 159.037 C 170.122 159.346,169.762 159.600,169.440 159.600 C 169.117 159.600,168.740 159.960,168.600 160.400 C 168.460 160.840,168.121 161.200,167.846 161.200 C 167.314 161.200,165.244 163.034,163.595 164.965 C 163.048 165.605,162.870 165.978,163.200 165.793 C 164.249 165.205,166.584 163.465,167.037 162.932 C 167.924 161.891,172.518 158.400,173.002 158.400 C 173.277 158.400,173.735 158.120,174.019 157.777 C 174.304 157.434,175.091 156.891,175.768 156.570 C 176.446 156.249,177.450 155.742,178.000 155.443 C 183.025 152.717,187.697 151.512,198.649 150.117 C 200.612 149.867,212.164 151.491,213.614 152.221 C 214.171 152.502,215.341 152.859,216.214 153.014 C 217.086 153.170,218.361 153.635,219.047 154.049 C 219.733 154.462,220.553 154.800,220.870 154.800 C 221.186 154.800,222.055 155.250,222.800 155.800 C 223.545 156.350,224.479 156.800,224.874 156.800 C 225.270 156.800,225.818 157.160,226.093 157.600 C 226.368 158.040,226.796 158.400,227.045 158.400 C 227.585 158.400,231.787 161.713,234.127 163.984 C 235.971 165.774,236.400 165.944,236.400 164.885 C 236.400 163.802,258.601 141.838,259.389 142.140 C 260.961 142.744,258.146 139.743,241.737 123.326 L 224.338 105.918 225.269 104.883 C 229.759 99.896,237.231 93.076,238.700 92.623 C 239.195 92.471,239.600 92.180,239.600 91.976 C 239.600 91.773,240.210 91.290,240.956 90.903 C 245.611 88.489,248.355 87.200,248.842 87.197 C 249.149 87.196,249.940 86.837,250.600 86.400 C 251.260 85.963,252.381 85.604,253.092 85.603 C 253.802 85.601,255.152 85.285,256.092 84.900 C 258.627 83.861,274.973 83.861,277.508 84.900 C 278.448 85.285,279.708 85.602,280.308 85.604 C 280.909 85.606,282.363 86.056,283.540 86.604 C 284.717 87.152,286.000 87.600,286.391 87.600 C 286.782 87.600,287.325 87.869,287.598 88.198 C 287.872 88.527,288.794 89.006,289.647 89.261 C 290.501 89.517,291.200 89.876,291.200 90.058 C 291.200 90.240,291.785 90.665,292.500 91.002 C 294.402 91.898,295.991 92.892,296.974 93.800 C 298.998 95.671,301.299 97.615,301.862 97.931 C 302.562 98.322,325.600 75.578,325.600 74.495 C 325.600 73.796,323.815 71.969,321.125 69.916 C 320.115 69.145,319.044 68.312,318.745 68.063 C 316.482 66.188,312.948 63.736,310.000 61.996 C 309.230 61.542,307.880 60.736,307.000 60.204 C 306.120 59.673,304.950 59.022,304.400 58.757 C 300.609 56.929,299.381 56.400,298.931 56.400 C 298.650 56.400,297.830 56.041,297.110 55.601 C 296.389 55.162,295.435 54.802,294.989 54.801 C 294.543 54.801,293.794 54.531,293.324 54.202 C 292.854 53.873,291.182 53.333,289.609 53.002 C 288.035 52.671,286.444 52.242,286.074 52.050 C 285.703 51.858,284.320 51.580,283.000 51.432 C 281.680 51.285,278.282 50.792,275.448 50.336 C 267.733 49.097,252.089 50.280,246.200 52.549 C 245.320 52.888,244.150 53.177,243.600 53.191 C 243.050 53.206,241.878 53.545,240.996 53.946 C 240.114 54.347,238.737 54.798,237.936 54.948 C 237.135 55.098,236.272 55.472,236.017 55.779 C 235.762 56.086,234.860 56.455,234.013 56.598 C 233.165 56.741,232.157 57.205,231.774 57.629 C 231.390 58.053,230.789 58.403,230.438 58.406 C 230.087 58.409,229.350 58.674,228.800 58.995 C 228.250 59.316,227.204 59.860,226.476 60.205 C 225.748 60.549,223.258 62.129,220.943 63.715 C 215.186 67.660,215.102 67.721,214.380 68.400 C 214.030 68.730,213.063 69.529,212.232 70.176 C 211.401 70.823,208.711 73.343,206.254 75.776 C 203.797 78.209,201.392 80.537,200.909 80.948 L 200.030 81.697 195.915 77.531 C 191.589 73.152,188.264 70.071,186.058 68.400 C 185.333 67.850,183.650 66.545,182.318 65.500 C 180.987 64.455,179.679 63.600,179.411 63.600 C 179.143 63.600,178.598 63.240,178.200 62.800 C 177.802 62.360,177.262 62.000,177.000 62.000 C 176.738 62.000,176.198 61.640,175.800 61.200 C 175.402 60.760,174.779 60.400,174.416 60.400 C 174.053 60.400,173.145 59.950,172.400 59.400 C 171.655 58.850,170.742 58.400,170.371 58.400 C 170.001 58.400,169.475 58.131,169.202 57.803 C 168.930 57.474,167.963 57.008,167.053 56.766 C 166.144 56.524,165.118 56.074,164.774 55.768 C 164.429 55.461,163.529 55.088,162.774 54.940 C 162.018 54.792,160.770 54.352,160.000 53.962 C 159.230 53.573,157.700 53.129,156.600 52.975 C 155.500 52.822,154.150 52.470,153.600 52.193 C 153.050 51.916,150.710 51.395,148.400 51.035 C 146.090 50.675,143.300 50.215,142.200 50.014 C 139.813 49.577,126.874 49.571,124.600 50.006 M123.000 83.557 C 122.340 83.724,121.440 84.055,121.000 84.291 C 120.560 84.528,119.323 84.853,118.251 85.013 C 117.138 85.180,116.027 85.626,115.662 86.053 C 115.291 86.486,114.498 86.800,113.773 86.800 C 113.054 86.800,112.232 87.122,111.836 87.560 C 111.457 87.979,110.569 88.429,109.861 88.562 C 109.154 88.695,108.267 89.163,107.891 89.602 C 107.515 90.041,106.935 90.400,106.601 90.400 C 106.268 90.400,105.603 90.850,105.125 91.400 C 104.647 91.950,104.058 92.400,103.817 92.400 C 103.575 92.400,103.085 92.715,102.728 93.100 C 102.370 93.485,101.475 94.234,100.739 94.764 C 100.002 95.295,98.594 96.735,97.610 97.964 C 95.883 100.120,95.869 100.160,97.210 99.073 C 99.347 97.340,102.383 94.699,103.387 93.700 C 103.885 93.205,104.434 92.800,104.608 92.800 C 104.782 92.800,105.514 92.350,106.236 91.800 C 106.957 91.250,107.717 90.800,107.924 90.800 C 108.132 90.800,108.502 90.560,108.745 90.266 C 108.989 89.972,109.914 89.493,110.800 89.200 C 111.686 88.907,112.611 88.428,112.855 88.134 C 113.098 87.840,113.643 87.600,114.065 87.600 C 114.487 87.600,115.529 87.245,116.380 86.810 C 117.232 86.376,119.069 85.760,120.464 85.441 C 121.859 85.122,123.862 84.652,124.917 84.395 C 127.802 83.692,142.100 84.085,144.200 84.925 C 145.080 85.277,146.340 85.578,147.000 85.595 C 147.660 85.611,149.100 86.068,150.200 86.609 C 151.300 87.150,152.493 87.594,152.851 87.596 C 153.209 87.598,153.726 87.870,154.000 88.200 C 154.274 88.530,154.721 88.800,154.993 88.800 C 155.266 88.800,156.151 89.250,156.962 89.800 C 157.772 90.350,158.670 90.800,158.956 90.800 C 159.242 90.800,159.798 91.155,160.191 91.590 C 160.584 92.024,161.220 92.480,161.605 92.602 C 163.094 93.074,175.600 104.949,175.600 105.890 C 175.600 106.183,167.590 114.418,157.800 124.189 C 148.010 133.960,140.006 142.100,140.013 142.277 C 140.021 142.455,140.364 142.195,140.777 141.700 C 141.190 141.205,141.805 140.800,142.144 140.800 C 143.334 140.800,176.451 107.292,176.486 106.052 C 176.515 105.027,167.827 95.600,166.853 95.600 C 166.692 95.600,165.812 94.880,164.896 94.000 C 163.980 93.120,163.075 92.400,162.885 92.400 C 162.695 92.400,162.117 91.950,161.600 91.400 C 161.083 90.850,160.360 90.400,159.992 90.400 C 159.625 90.400,159.007 90.050,158.621 89.623 C 158.234 89.195,157.414 88.735,156.800 88.600 C 156.186 88.465,155.366 88.005,154.979 87.577 C 154.593 87.150,153.791 86.800,153.199 86.800 C 152.607 86.800,151.717 86.448,151.221 86.019 C 150.726 85.589,149.483 85.115,148.460 84.967 C 147.437 84.818,146.060 84.404,145.400 84.048 C 144.086 83.338,125.469 82.930,123.000 83.557 M50.161 133.200 C 50.161 136.610,50.222 138.005,50.297 136.300 C 50.372 134.595,50.372 131.805,50.297 130.100 C 50.222 128.395,50.161 129.790,50.161 133.200 M85.603 149.690 C 85.601 149.850,85.959 150.570,86.399 151.290 C 86.838 152.011,87.196 152.420,87.196 152.200 C 87.195 151.980,86.837 151.260,86.400 150.600 C 85.963 149.940,85.604 149.531,85.603 149.690 M100.400 171.400 C 101.146 172.170,101.847 172.800,101.957 172.800 C 102.067 172.800,101.546 172.170,100.800 171.400 C 100.054 170.630,99.353 170.000,99.243 170.000 C 99.133 170.000,99.654 170.630,100.400 171.400 M78.200 196.000 C 79.283 197.100,80.260 198.000,80.370 198.000 C 80.480 198.000,79.683 197.100,78.600 196.000 C 77.517 194.900,76.540 194.000,76.430 194.000 C 76.320 194.000,77.117 194.900,78.200 196.000 M107.600 225.400 C 108.346 226.170,109.047 226.800,109.157 226.800 C 109.267 226.800,108.746 226.170,108.000 225.400 C 107.254 224.630,106.553 224.000,106.443 224.000 C 106.333 224.000,106.854 224.630,107.600 225.400 M110.800 228.600 C 111.546 229.370,112.247 230.000,112.357 230.000 C 112.467 230.000,111.946 229.370,111.200 228.600 C 110.454 227.830,109.753 227.200,109.643 227.200 C 109.533 227.200,110.054 227.830,110.800 228.600 M163.353 234.418 C 163.810 235.253,164.638 236.212,165.192 236.549 C 165.747 236.886,166.785 237.720,167.500 238.401 C 169.989 240.774,168.779 239.250,165.661 236.086 C 163.047 233.433,162.660 233.154,163.353 234.418 M233.136 237.200 C 232.413 237.860,231.997 238.400,232.212 238.400 C 232.427 238.400,233.112 237.860,233.735 237.200 C 234.358 236.540,234.774 236.000,234.659 236.000 C 234.544 236.000,233.858 236.540,233.136 237.200 M123.400 241.200 C 124.259 242.080,125.052 242.800,125.162 242.800 C 125.272 242.800,124.659 242.080,123.800 241.200 C 122.941 240.320,122.148 239.600,122.038 239.600 C 121.928 239.600,122.541 240.320,123.400 241.200 M169.200 239.711 C 169.200 239.787,169.785 240.278,170.500 240.801 C 171.304 241.390,171.584 241.487,171.233 241.055 C 170.700 240.399,169.200 239.407,169.200 239.711 M173.000 242.612 C 173.660 243.153,174.370 243.597,174.578 243.598 C 174.785 243.599,174.345 243.150,173.600 242.600 C 171.860 241.317,171.430 241.325,173.000 242.612 M226.303 242.500 C 225.785 242.995,225.640 243.200,225.980 242.956 C 226.321 242.712,226.960 242.312,227.400 242.068 C 227.840 241.824,227.985 241.619,227.722 241.612 C 227.460 241.605,226.821 242.005,226.303 242.500 M126.800 244.600 C 127.546 245.370,128.247 246.000,128.357 246.000 C 128.467 246.000,127.946 245.370,127.200 244.600 C 126.454 243.830,125.753 243.200,125.643 243.200 C 125.533 243.200,126.054 243.830,126.800 244.600 M222.856 244.413 C 221.616 245.446,222.175 245.435,223.491 244.400 C 224.050 243.960,224.349 243.606,224.154 243.613 C 223.959 243.621,223.375 243.981,222.856 244.413 M177.233 244.930 C 177.966 245.504,180.798 246.720,180.580 246.368 C 180.427 246.121,179.700 245.667,178.964 245.359 C 177.726 244.842,176.840 244.622,177.233 244.930 M219.367 245.993 C 219.151 246.209,218.170 246.646,217.187 246.964 C 213.963 248.008,212.187 248.765,212.922 248.782 C 213.319 248.792,214.399 248.460,215.322 248.045 C 216.245 247.630,217.573 247.169,218.272 247.020 C 218.972 246.871,219.759 246.490,220.021 246.174 C 220.553 245.534,219.984 245.376,219.367 245.993 M184.600 248.000 C 186.668 248.999,187.424 248.999,185.600 248.000 C 184.830 247.578,183.930 247.232,183.600 247.230 C 183.270 247.229,183.720 247.575,184.600 248.000 M190.800 249.467 C 192.010 249.797,193.720 250.135,194.600 250.218 C 195.624 250.315,195.120 250.093,193.200 249.601 C 191.550 249.178,189.840 248.841,189.400 248.850 C 188.960 248.860,189.590 249.138,190.800 249.467 M206.600 249.632 C 204.246 250.256,204.086 250.347,205.600 250.200 C 207.722 249.995,211.875 248.846,210.400 248.872 C 209.850 248.881,208.140 249.223,206.600 249.632 M134.000 251.800 C 134.746 252.570,135.447 253.200,135.557 253.200 C 135.667 253.200,135.146 252.570,134.400 251.800 C 133.654 251.030,132.953 250.400,132.843 250.400 C 132.733 250.400,133.254 251.030,134.000 251.800 M50.849 256.200 C 50.816 256.640,50.696 257.450,50.583 258.000 L 50.377 259.000 50.806 258.019 C 51.042 257.479,51.161 256.669,51.072 256.219 C 50.913 255.421,50.907 255.421,50.849 256.200 M140.352 258.270 C 140.858 259.166,175.998 294.311,175.999 293.922 C 176.000 293.770,168.260 285.887,158.800 276.405 C 149.340 266.923,141.600 258.999,141.600 258.796 C 141.600 258.594,141.226 258.228,140.770 257.984 C 140.031 257.588,139.985 257.620,140.352 258.270 M240.889 276.525 C 230.553 286.855,224.000 293.698,224.000 294.160 C 224.000 294.943,230.970 302.313,233.800 304.521 C 234.680 305.208,232.925 303.307,229.900 300.296 C 226.875 297.286,224.400 294.525,224.400 294.161 C 224.400 293.798,231.968 285.941,241.218 276.701 C 250.468 267.462,257.978 259.845,257.907 259.774 C 257.837 259.703,250.178 267.241,240.889 276.525 M50.162 266.600 C 50.162 270.120,50.224 271.506,50.298 269.681 C 50.372 267.856,50.372 264.976,50.297 263.281 C 50.222 261.586,50.161 263.080,50.162 266.600 M83.309 268.800 C 83.309 269.790,83.387 270.195,83.482 269.700 C 83.578 269.205,83.578 268.395,83.482 267.900 C 83.387 267.405,83.309 267.810,83.309 268.800 M171.131 299.285 C 169.222 301.218,167.786 302.800,167.939 302.800 C 168.321 302.800,175.002 296.056,174.779 295.897 C 174.681 295.827,173.039 297.351,171.131 299.285 M96.735 302.361 C 96.144 303.508,76.368 323.415,74.794 324.446 L 73.808 325.092 76.690 327.946 C 78.275 329.516,79.714 330.799,79.886 330.797 C 80.059 330.796,79.066 329.753,77.681 328.479 C 74.417 325.480,73.804 326.511,86.350 313.900 C 98.542 301.644,97.824 302.055,101.200 305.412 C 102.410 306.615,103.580 307.599,103.800 307.598 C 104.162 307.597,103.301 306.754,98.735 302.641 L 97.270 301.322 96.735 302.361 M300.325 303.244 C 299.392 304.119,299.267 304.352,299.900 304.030 C 300.395 303.778,300.800 303.398,300.800 303.186 C 300.800 302.974,301.261 302.800,301.824 302.800 C 302.404 302.800,302.740 302.627,302.600 302.400 C 302.199 301.752,301.727 301.927,300.325 303.244 M165.400 304.844 C 162.756 306.979,161.784 308.022,163.800 306.560 C 165.524 305.310,167.927 303.196,167.600 303.216 C 167.490 303.223,166.500 303.955,165.400 304.844 M235.977 306.134 C 236.594 306.918,239.757 309.200,240.226 309.200 C 240.381 309.200,240.079 308.873,239.554 308.473 C 236.620 306.239,235.464 305.483,235.977 306.134 M296.800 305.992 C 296.800 306.207,296.080 306.751,295.200 307.200 C 294.320 307.649,293.600 308.220,293.600 308.470 C 293.600 308.733,293.908 308.645,294.331 308.262 C 294.734 307.898,295.242 307.600,295.462 307.600 C 295.681 307.600,296.283 307.150,296.800 306.600 C 297.317 306.050,297.528 305.600,297.270 305.600 C 297.011 305.600,296.800 305.776,296.800 305.992 M105.527 308.600 C 106.181 309.150,106.870 309.599,107.058 309.598 C 107.485 309.596,105.123 307.634,104.669 307.614 C 104.487 307.606,104.873 308.050,105.527 308.600 M159.938 308.785 C 158.913 309.428,157.956 310.148,157.810 310.384 C 157.558 310.791,159.667 309.527,161.400 308.233 C 162.739 307.233,161.911 307.545,159.938 308.785 M241.500 309.688 C 241.995 309.927,242.400 310.275,242.400 310.461 C 242.400 310.648,242.625 310.794,242.900 310.787 C 243.175 310.779,242.975 310.419,242.456 309.987 C 241.936 309.554,241.306 309.212,241.056 309.227 C 240.805 309.242,241.005 309.449,241.500 309.688 M107.810 310.016 C 108.075 310.446,112.886 312.847,113.084 312.649 C 113.168 312.565,111.970 311.865,110.422 311.093 C 108.874 310.321,107.699 309.836,107.810 310.016 M155.600 311.390 C 155.050 311.708,154.240 312.144,153.800 312.359 C 153.138 312.682,153.117 312.754,153.676 312.775 C 154.048 312.789,154.467 312.615,154.607 312.389 C 154.747 312.162,155.432 311.727,156.131 311.421 C 156.829 311.115,157.220 310.853,157.000 310.839 C 156.780 310.824,156.150 311.072,155.600 311.390 M244.652 311.376 C 245.341 311.676,246.026 312.119,246.176 312.360 C 246.325 312.602,246.752 312.786,247.124 312.768 C 247.676 312.743,247.690 312.695,247.200 312.509 C 246.870 312.383,246.171 311.947,245.646 311.540 C 245.121 311.133,244.401 310.807,244.046 310.816 C 243.691 310.824,243.963 311.076,244.652 311.376 M286.406 312.023 C 285.640 312.450,285.280 312.799,285.606 312.797 C 285.933 312.796,286.740 312.437,287.400 312.000 C 288.931 310.986,288.238 311.002,286.406 312.023 M115.000 313.600 C 115.863 314.040,116.756 314.392,116.985 314.383 C 117.592 314.359,114.706 312.837,114.015 312.817 C 113.694 312.808,114.137 313.160,115.000 313.600 M150.456 313.613 C 149.242 314.625,149.621 314.619,151.290 313.601 C 152.011 313.162,152.330 312.808,152.000 312.815 C 151.670 312.821,150.975 313.181,150.456 313.613 M249.960 313.616 C 250.927 314.055,251.799 314.334,251.897 314.237 C 252.168 313.965,249.736 312.799,248.920 312.809 C 248.524 312.814,248.992 313.177,249.960 313.616 M282.200 313.578 C 281.320 313.995,280.877 314.350,281.215 314.368 C 281.554 314.385,282.537 314.040,283.400 313.600 C 285.392 312.584,284.341 312.565,282.200 313.578 M253.105 314.683 C 253.602 314.779,254.322 314.775,254.705 314.675 C 255.087 314.575,254.680 314.496,253.800 314.501 C 252.920 314.505,252.607 314.587,253.105 314.683 M120.800 315.484 C 121.570 315.825,123.010 316.165,124.000 316.240 L 125.800 316.376 124.200 316.021 C 123.320 315.826,122.093 315.472,121.474 315.233 C 119.760 314.574,119.207 314.780,120.800 315.484 M145.097 315.233 C 144.711 315.458,143.631 315.793,142.697 315.977 C 141.020 316.308,141.016 316.313,142.400 316.334 C 143.170 316.346,144.610 316.015,145.600 315.600 C 146.639 315.164,147.062 314.840,146.600 314.835 C 146.160 314.829,145.484 315.008,145.097 315.233 M257.000 315.471 C 258.839 316.560,271.081 316.767,274.760 315.772 C 276.203 315.381,277.192 314.997,276.957 314.919 C 276.722 314.841,275.472 315.052,274.181 315.388 C 271.545 316.075,262.469 316.209,259.800 315.600 C 258.920 315.400,257.660 315.129,257.000 314.998 L 255.800 314.760 257.000 315.471 M131.513 316.695 C 132.676 316.776,134.476 316.776,135.513 316.693 C 136.551 316.611,135.600 316.545,133.400 316.546 C 131.200 316.547,130.351 316.614,131.513 316.695 M205.200 323.240 C 210.909 328.939,215.200 332.749,215.200 332.118 C 215.200 331.910,213.994 330.763,212.520 329.570 C 211.046 328.376,208.103 325.690,205.979 323.600 C 203.855 321.510,201.596 319.361,200.959 318.824 C 200.321 318.288,202.230 320.275,205.200 323.240 M192.600 324.695 C 189.080 328.135,186.740 330.547,187.400 330.054 C 188.879 328.950,199.654 318.392,199.274 318.420 C 199.123 318.431,196.120 321.254,192.600 324.695 M324.428 325.727 C 324.119 326.540,322.606 327.986,318.341 331.543 C 315.341 334.045,312.323 336.114,309.406 337.667 C 308.716 338.034,307.893 338.651,307.576 339.038 C 307.195 339.504,307.676 339.352,309.000 338.590 C 310.100 337.958,311.144 337.206,311.320 336.920 C 311.496 336.634,311.856 336.397,312.120 336.393 C 312.614 336.385,315.673 334.422,316.777 333.402 C 317.120 333.086,318.660 331.790,320.200 330.522 C 325.349 326.281,326.039 325.518,325.200 325.000 C 324.979 324.864,324.632 325.190,324.428 325.727 M81.288 331.813 C 81.886 332.443,82.447 332.877,82.535 332.779 C 82.623 332.680,82.133 332.165,81.447 331.634 L 80.200 330.669 81.288 331.813 M184.600 331.833 C 183.940 332.388,183.040 333.108,182.600 333.435 C 179.707 335.579,178.744 336.400,179.121 336.400 C 179.359 336.400,179.669 336.213,179.810 335.984 C 179.951 335.755,180.727 335.145,181.534 334.629 C 183.031 333.671,186.362 330.837,186.000 330.829 C 185.890 330.827,185.260 331.279,184.600 331.833 M85.342 334.679 C 85.755 335.387,89.200 337.635,89.200 337.197 C 89.200 336.990,88.615 336.524,87.900 336.162 C 87.185 335.800,86.254 335.210,85.831 334.852 C 85.408 334.493,85.188 334.415,85.342 334.679 M218.549 334.717 C 218.698 334.959,219.671 335.713,220.710 336.392 C 222.226 337.383,222.362 337.425,221.400 336.604 C 219.228 334.751,218.114 334.014,218.549 334.717 M175.727 337.927 C 173.346 339.605,173.140 340.137,175.453 338.635 C 177.768 337.132,178.646 336.434,178.200 336.451 C 177.980 336.459,176.867 337.123,175.727 337.927 M90.991 338.620 C 91.818 339.181,92.572 339.561,92.668 339.465 C 92.861 339.272,90.287 337.600,89.797 337.600 C 89.627 337.600,90.165 338.059,90.991 338.620 M224.162 338.600 C 224.972 339.150,225.753 339.600,225.895 339.600 C 226.038 339.600,225.545 339.150,224.800 338.600 C 224.055 338.050,223.274 337.600,223.066 337.600 C 222.859 337.600,223.351 338.050,224.162 338.600 M94.600 340.610 C 95.480 341.152,96.380 341.596,96.600 341.596 C 96.820 341.596,96.280 341.152,95.400 340.610 C 94.520 340.068,93.620 339.625,93.400 339.625 C 93.180 339.625,93.720 340.068,94.600 340.610 M171.000 340.610 C 170.120 341.152,169.580 341.591,169.800 341.585 C 170.020 341.580,170.920 341.132,171.800 340.590 C 172.680 340.048,173.220 339.609,173.000 339.615 C 172.780 339.620,171.880 340.068,171.000 340.610 M227.800 340.610 C 228.680 341.152,229.580 341.596,229.800 341.596 C 230.020 341.596,229.480 341.152,228.600 340.610 C 227.720 340.068,226.820 339.625,226.600 339.625 C 226.380 339.625,226.920 340.068,227.800 340.610 M304.200 340.610 C 303.320 341.152,302.870 341.591,303.200 341.585 C 303.530 341.580,304.520 341.132,305.400 340.590 C 306.280 340.048,306.730 339.609,306.400 339.615 C 306.070 339.620,305.080 340.068,304.200 340.610 M98.400 342.400 C 100.257 343.416,100.958 343.415,99.290 342.399 C 98.570 341.959,97.760 341.608,97.490 341.617 C 97.221 341.626,97.630 341.978,98.400 342.400 M168.219 341.969 C 168.093 342.173,167.072 342.644,165.950 343.017 C 164.828 343.389,163.435 343.942,162.855 344.245 C 161.229 345.093,162.790 344.874,164.600 344.000 C 165.480 343.575,166.380 343.220,166.600 343.211 C 167.195 343.187,169.479 341.606,168.924 341.603 C 168.662 341.601,168.344 341.766,168.219 341.969 M231.400 342.400 C 232.060 342.837,232.863 343.196,233.185 343.197 C 233.506 343.199,233.063 342.840,232.200 342.400 C 230.201 341.381,229.861 341.381,231.400 342.400 M301.209 342.189 C 300.940 342.514,300.134 342.889,299.418 343.023 C 297.882 343.311,295.425 344.793,296.476 344.797 C 296.848 344.799,297.256 344.634,297.381 344.431 C 297.507 344.227,298.493 343.768,299.574 343.409 C 301.371 342.812,303.062 341.600,302.098 341.600 C 301.878 341.600,301.478 341.865,301.209 342.189 M102.104 344.000 C 104.022 345.028,104.552 345.028,103.000 344.000 C 102.340 343.563,101.533 343.204,101.206 343.203 C 100.879 343.201,101.284 343.560,102.104 344.000 M235.730 344.224 C 236.788 344.787,237.957 345.168,238.327 345.071 C 238.862 344.929,238.836 344.883,238.200 344.844 C 237.760 344.817,236.860 344.437,236.200 344.000 C 235.540 343.563,234.731 343.204,234.403 343.203 C 234.075 343.201,234.672 343.661,235.730 344.224 M105.577 345.268 C 106.335 345.485,107.320 345.919,107.766 346.231 C 108.213 346.544,108.853 346.794,109.189 346.787 C 109.525 346.781,108.900 346.332,107.800 345.791 C 106.700 345.250,105.440 344.822,105.000 344.840 C 104.527 344.859,104.764 345.034,105.577 345.268 M159.000 345.449 C 158.340 345.803,157.350 346.236,156.800 346.412 C 156.106 346.633,156.020 346.742,156.520 346.766 C 156.916 346.785,157.815 346.503,158.517 346.139 C 159.220 345.776,160.246 345.341,160.797 345.174 C 161.612 344.926,161.650 344.863,161.000 344.837 C 160.560 344.819,159.660 345.095,159.000 345.449 M239.875 345.756 C 240.356 346.115,241.346 346.506,242.075 346.623 L 243.400 346.837 242.000 346.272 C 238.960 345.047,238.911 345.035,239.875 345.756 M291.789 345.752 C 291.355 346.055,290.640 346.395,290.200 346.506 L 289.400 346.707 290.200 346.740 C 290.640 346.758,291.720 346.425,292.600 346.000 C 293.697 345.470,293.945 345.223,293.389 345.214 C 292.943 345.206,292.223 345.448,291.789 345.752 M113.000 347.615 C 114.320 348.040,115.577 348.331,115.793 348.263 C 116.346 348.087,112.434 346.795,111.429 346.822 C 110.973 346.833,111.680 347.191,113.000 347.615 M151.400 347.636 C 149.780 348.226,149.609 348.368,150.501 348.382 C 151.107 348.392,152.275 348.040,153.096 347.600 C 154.907 346.629,154.116 346.646,151.400 347.636 M245.944 347.609 C 246.903 348.044,247.983 348.396,248.344 348.391 C 248.705 348.386,248.215 348.026,247.256 347.591 C 246.297 347.156,245.217 346.804,244.856 346.809 C 244.495 346.814,244.985 347.174,245.944 347.609 M285.200 347.620 C 283.741 348.217,283.592 348.361,284.415 348.378 C 284.974 348.390,286.137 348.040,287.000 347.600 C 288.976 346.593,287.674 346.607,285.200 347.620 M117.305 348.687 C 117.914 348.779,118.814 348.777,119.305 348.682 C 119.797 348.587,119.300 348.511,118.200 348.514 C 117.100 348.517,116.697 348.595,117.305 348.687 M147.105 348.683 C 147.602 348.779,148.322 348.775,148.705 348.675 C 149.087 348.575,148.680 348.496,147.800 348.501 C 146.920 348.505,146.607 348.587,147.105 348.683 M250.505 348.687 C 251.114 348.779,252.014 348.777,252.505 348.682 C 252.997 348.587,252.500 348.511,251.400 348.514 C 250.300 348.517,249.897 348.595,250.505 348.687 M280.900 348.676 C 281.285 348.776,281.915 348.776,282.300 348.676 C 282.685 348.575,282.370 348.493,281.600 348.493 C 280.830 348.493,280.515 348.575,280.900 348.676 M122.800 349.442 C 126.039 350.352,140.282 350.368,142.800 349.464 C 144.345 348.910,144.402 348.854,143.200 349.074 C 141.243 349.432,125.469 349.461,122.800 349.112 L 120.600 348.823 122.800 349.442 M257.600 349.625 C 262.244 350.623,273.791 350.507,277.600 349.425 L 279.800 348.800 277.800 349.014 C 276.700 349.132,274.810 349.389,273.600 349.585 C 270.688 350.057,264.486 350.053,261.000 349.576 C 254.932 348.746,253.598 348.766,257.600 349.625 " stroke="none" fill="#c8708d" fill-rule="evenodd"></path></g></svg>