<svg xmlns="http://www.w3.org/2000/svg" width="400" height="400" fill-rule="evenodd" xmlns:v="https://vecta.io/nano"><path d="M124.2 50.989c-.66.287-3.048.697-5.306.911-2.638.249-4.355.606-4.8.998-.402.353-1.741.682-3.179.781-1.508.103-2.766.422-3.2.812-.393.353-1.435.768-2.315.924s-2.14.601-2.8.991a10.04 10.04 0 0 1-2.5.983c-.715.151-1.3.426-1.3.612s-.675.554-1.5.819-1.77.71-2.1.991-1.275.788-2.1 1.129-1.5.808-1.5 1.04-.346.42-.769.42-1.304.45-1.958 1-1.407 1-1.673 1c-.526 0-1.986 1.095-4.8 3.6-2.756 2.453-4.271 3.6-4.758 3.6-.243 0-.442.27-.442.6s-.161.6-.358.6-.782.447-1.3.993-1.122 1-1.342 1.009c-.446.017-2.13 1.944-6.29 7.198-2.602 3.286-6.318 8.92-7.52 11.4-.214.44-.556 1.07-.762 1.4s-.934 1.86-1.619 3.4-1.597 3.466-2.027 4.279-.783 1.984-.783 2.6-.34 1.676-.754 2.354-.877 2.029-1.03 3-.624 2.719-1.046 3.882-.769 2.902-.769 3.865-.27 3.16-.6 4.885c-.786 4.109-.79 15.198-.006 19.535.318 1.76.584 4.242.592 5.516.009 1.45.295 2.871.766 3.8.414.816.88 2.422 1.036 3.569s.627 2.76 1.047 3.585.771 1.866.778 2.315.455 1.715.996 2.815.985 2.302.987 2.671a2.02 2.02 0 0 0 .521 1.2c.284.291.764 1.159 1.066 1.929s.747 1.67.989 2 .978 1.68 1.634 3 1.324 2.458 1.483 2.53.95 1.241 1.758 2.6 1.692 2.654 1.965 2.88 1.517 1.665 2.767 3.2 4.617 5.17 7.483 8.079 5.15 5.47 5.075 5.69-2.491 2.79-5.369 5.71-6.062 6.391-7.077 7.711-2.174 2.76-2.576 3.2c-.702.77-1.094 1.347-4.203 6.2-1.264 1.973-3.888 7.019-6.554 12.606-.527 1.104-.958 2.433-.958 2.953s-.341 1.508-.758 2.194-.887 2.214-1.044 3.396-.605 2.892-.995 3.8c-.418.975-.812 3.246-.963 5.545-.14 2.142-.432 4.359-.648 4.926-.501 1.319-.495 14.265.007 16.38.21.88.503 3.31.653 5.4.154 2.149.579 4.522.98 5.463.389.915.835 2.535.991 3.6s.618 2.605 1.03 3.421.753 1.806.76 2.2.455 1.616.996 2.716.985 2.21.987 2.466.622 1.607 1.377 3a250.49 250.49 0 0 1 2.807 5.379c.789 1.564 1.791 3.167 2.227 3.562s.793.86.793 1.035c0 .488 2.201 3.639 3.679 5.266.726.8 1.771 2.029 2.321 2.732 4.022 5.139 2.539 5.834 15.743-7.377 10.948-10.955 11.642-11.819 10.386-12.95-1.153-1.038-5.338-6.347-6.087-7.722a141.31 141.31 0 0 0-1.889-3.284c-.685-1.159-1.372-2.68-1.525-3.379s-.522-1.474-.819-1.72-.665-1.361-.819-2.477a17.15 17.15 0 0 0-1.106-3.88c-1.234-2.758-1.22-20.36.017-23.451.441-1.1.929-2.764 1.085-3.698s.434-1.791.618-1.905.645-1.149 1.024-2.302.813-2.185.964-2.295.863-1.37 1.583-2.8 1.56-2.87 1.869-3.2 1.705-2.04 3.104-3.8c4.26-5.361 10.045-11 11.286-11 .157 0 7.944 7.662 17.303 17.027l17.667 17.375c.514.275 3.008-2.006 11.934-10.917 12.708-12.685 12.034-11.563 8.952-14.897-1.855-2.008-6.886-9.457-6.902-10.222-.007-.311-.456-1.286-.998-2.166s-.993-1.96-1.002-2.4-.363-1.52-.788-2.4-.779-2.24-.786-3.022-.391-2.54-.853-3.906c-1.102-3.265-.989-15.821.161-17.872.37-.66.674-1.923.676-2.806s.362-2.278.802-3.098.8-1.772.8-2.113.45-1.465 1-2.498 1-2.077 1-2.32.344-.752.764-1.132a3.94 3.94 0 0 0 1.005-1.652c.238-.948 1.987-3.767 2.589-4.172.171-.115.475-.503.676-.862 1.164-2.079 7.15-8.347 7.972-8.347.297 0 .654-.36.794-.8s.517-.8.84-.8.682-.254.801-.563.744-.782 1.388-1.049 1.171-.624 1.171-.793.685-.582 1.523-.917 1.759-.895 2.049-1.244.947-.634 1.461-.634 1.258-.336 1.651-.747 1.436-.876 2.316-1.033 2.14-.61 2.8-1.004 2.28-.812 3.6-.928 2.94-.497 3.6-.847c1.748-.926 14.646-.929 16.4-.003.66.349 2.494.76 4.076.915 1.694.165 3.174.541 3.6.913.398.348 1.444.761 2.324.919s1.922.63 2.316 1.05 1.151.765 1.684.765 1.291.345 1.684.768 1.226.895 1.848 1.051 1.221.515 1.329.796.629.621 1.156.754 1.151.598 1.386 1.036.682.795.997.795.758.348.986.773a2.44 2.44 0 0 0 1.214 1.027c.44.14.8.492.8.784s.451.643 1.003.781c1.731.434 23.313-21.423 22.452-22.737-.337-.514-2.422-2.758-4.633-4.987s-4.022-4.23-4.022-4.447-.186-.394-.413-.394c-.538 0-3.187-2.649-3.187-3.187a.41.41 0 0 0-.407-.413c-.518 0-11.993-11.496-11.993-12.014 0-.212-.186-.386-.413-.386-.538 0-3.187-2.649-3.187-3.187 0-.227-.18-.413-.4-.413-.728 0-4.8-4.351-4.8-5.13 0-.445 1.999-2.751 4.782-5.517 4.627-4.599 5.551-5.445 7.81-7.153.583-.44 1.403-1.111 1.824-1.491s1.4-.956 2.175-1.279 1.409-.764 1.409-.978.57-.514 1.267-.667 1.63-.617 2.075-1.031 1.308-.754 1.918-.754 1.443-.359 1.852-.798c.446-.479 1.531-.904 2.716-1.064 1.084-.146 2.602-.578 3.372-.96 2.788-1.383 22.611-1.274 24.85.137.522.329 1.802.718 2.843.865s2.042.532 2.223.856 1.04.697 1.907.83 1.937.563 2.377.957a5.37 5.37 0 0 0 1.932.999c.623.154 1.221.512 1.329.793s.603.615 1.099.739c.806.203 1.45.666 3.94 2.836.385.335.845.61 1.022.61s.912.609 1.633 1.354c1.936 1.997 2.036 1.927 13.297-9.317 11.461-11.445 11.301-11.2 8.754-13.392-.993-.855-1.95-1.8-2.126-2.1s-.562-.545-.857-.545-.642-.273-.77-.606-.642-.784-1.143-1.002-1.72-1.024-2.71-1.792-2.167-1.559-2.616-1.757-1.057-.648-1.349-1.001-.772-.642-1.063-.642-1.016-.45-1.61-1-1.475-1-1.958-1-1.203-.356-1.597-.792-1.336-.909-2.094-1.051-1.467-.492-1.576-.778-.951-.646-1.868-.8-2.098-.618-2.623-1.03-1.425-.751-2-.753-1.946-.446-3.046-.987c-1.188-.584-2.72-.989-3.774-.996-.975-.007-2.505-.355-3.4-.774-3.776-1.767-31.869-1.829-33.983-.075-.323.269-1.726.651-3.116.85s-3.24.727-4.112 1.174-2.136.812-2.811.812-1.645.293-2.157.652-1.649.813-2.528 1.011-1.872.633-2.207.968-1.118.71-1.74.835-1.438.565-1.814.98-1.078.754-1.562.754-1.365.45-1.958 1-1.312 1-1.597 1-.843.36-1.241.8-.938.8-1.2.8-.999.45-1.638 1-1.393.999-1.675 1-.613.263-.737.585-.548.688-.945.813c-.834.265-4.612 3.712-11.073 10.102-2.765 2.735-4.865 4.5-5.354 4.5-.828 0-3.578-2.449-3.578-3.187 0-.227-.177-.413-.394-.413s-2.009-1.575-3.984-3.5-4.453-4.169-5.507-4.987-2.465-1.988-3.138-2.6c-1.675-1.524-4.319-3.313-4.895-3.313-.261 0-.7-.36-.975-.8s-.712-.8-.973-.8-1.007-.45-1.661-1-1.453-1-1.777-1-1.017-.334-1.542-.742-1.629-.962-2.454-1.231-1.5-.647-1.5-.84-.675-.472-1.5-.62-1.809-.538-2.186-.867-1.533-.756-2.569-.95-2.219-.655-2.629-1.026c-.472-.427-1.66-.738-3.231-.845-1.443-.099-2.777-.428-3.182-.784-.455-.401-2.083-.73-4.708-.952-2.206-.187-4.66-.61-5.452-.941-1.924-.804-16.506-.814-18.343-.013m21.2 33.059c.66.356 2.037.77 3.06.919s2.266.622 2.761 1.052 1.386.781 1.978.781 1.394.35 1.78.777 1.207.888 1.821 1.023 1.434.595 1.821 1.023 1.004.777 1.371.777 1.091.45 1.608 1 1.095 1 1.285 1 1.095.72 2.011 1.6 1.796 1.6 1.957 1.6c.974 0 9.662 9.427 9.633 10.452-.036 1.259-33.162 34.748-34.372 34.748-.355 0-8.539 7.875-18.186 17.5l-18.16 17.634c-.533.116-10.284-9.314-12.168-11.768-2.093-2.727-3.22-4.585-5.133-8.463-2.284-4.632-2.802-5.858-3.081-7.303-.148-.77-.611-2.429-1.028-3.687-1.144-3.452-1.135-20.292.012-22.817a16.27 16.27 0 0 0 1.052-3.496c.154-.99.617-2.229 1.029-2.754s.749-1.261.749-1.636c0-.668 1.607-3.974 3.337-6.866 1.506-2.517 8.802-11.37 10.202-12.379.736-.531 1.631-1.28 1.989-1.665s.847-.7 1.089-.7.83-.45 1.308-1 1.143-1 1.476-1 .914-.359 1.29-.798 1.263-.907 1.97-1.04 1.596-.583 1.975-1.002c.396-.438 1.218-.76 1.937-.76.725 0 1.518-.314 1.889-.747.365-.427 1.476-.873 2.589-1.04 1.072-.16 2.309-.485 2.749-.722 1.682-.904 3.499-1.037 13.2-.965 8.359.062 10.197.18 11.2.722" fill="#f3811d"/><path d="M314.791 85.921l-11.523 11.748c-.489.636 2.637 5.531 3.532 5.531.149 0 .48.457.734 1.015s.646 1.233.87 1.5c1.519 1.809 4.796 8.045 4.796 9.128 0 .318.247.934.549 1.368s.675 1.419.829 2.189.653 2.48 1.107 3.8c1.214 3.525 1.222 18.751.013 22.4-.438 1.32-.924 3.03-1.082 3.8-.83 4.063-5.34 12.179-9.325 16.784-3.242 3.746-10.347 10.816-10.87 10.816-.274 0-8.041-7.548-17.261-16.774s-17.137-16.892-17.595-17.037c-1.055-.335-23.168 21.43-23.16 22.796.003.448.678 1.541 1.5 2.427 1.385 1.494 2.513 2.962 3.494 4.544.219.354.804 1.217 1.3 1.917s.901 1.441.901 1.646.349.817.775 1.359a6.86 6.86 0 0 1 1.068 2.154c.161.642.621 1.708 1.023 2.368s.732 1.565.733 2.011.272 1.198.603 1.67c.582.832 2.597 12.509 2.599 15.061.003 4.485-2.688 16.521-4.235 18.944-.311.487-.566 1.06-.566 1.274 0 .595-.69 2.09-1.693 3.664l-3.197 4.938c-.875 1.306-4.154 5.201-5.053 6-1.019.906-1.098 1.438-.214 1.438.823 0 22.557 21.757 22.557 22.582 0 1.29 1.218.165 18.368-16.982 9.683-9.68 17.86-17.6 18.172-17.6.902 0 13.055 12.505 13.058 13.438.001.241.362.764.802 1.162s.8.952.8 1.231.45 1.042 1 1.696 1 1.437 1 1.742.26.923.577 1.376c.739 1.056 2.132 4.588 2.821 7.155l1.19 4.331c1.237 4.414 1.041 17.192-.335 21.869-1.752 5.959-3.83 11.113-5.481 13.6l-2.076 3.2c-.776 1.21-1.925 2.679-2.554 3.264-1.731 1.612-2.942 3.009-2.942 3.395 0 .19 5.288 5.632 11.751 12.092 11.563 11.559 11.764 11.734 12.5 10.97 1.381-1.431 3.94-4.355 4.852-5.544 2.904-3.783 4.431-5.944 5.497-7.779.66-1.136 1.385-2.275 1.611-2.531.412-.467 3.558-6.815 5.54-11.176.577-1.27 1.049-2.675 1.049-3.122s.344-1.568.764-2.491a17.22 17.22 0 0 0 1.062-3.278c.165-.88.521-2.14.793-2.8s.616-2.55.765-4.2a88.1 88.1 0 0 1 .871-6.314c1.166-6.457.1-22.486-1.9-28.588-.415-1.265-.755-2.708-.755-3.206s-.334-1.531-.741-2.298-.871-2.093-1.029-2.948-.634-2.202-1.058-2.994-.772-1.734-.772-2.092-.362-1.112-.804-1.674a6.39 6.39 0 0 1-1.05-2.254c-.135-.677-.37-1.232-.521-1.232s-1.073-1.53-2.048-3.4-1.909-3.4-2.075-3.4-.302-.227-.302-.504-.405-.952-.9-1.5-1.696-2.076-2.669-3.396c-2.659-3.608-3.657-4.734-9.272-10.462-2.838-2.895-5.159-5.372-5.159-5.506s2.295-2.534 5.1-5.334c6.963-6.95 11.112-12.122 14.341-17.878.365-.65.909-1.428 1.211-1.729s.548-.77.548-1.042.45-1.104 1-1.849 1.004-1.635 1.009-1.978.361-1.072.791-1.622.792-1.27.804-1.6.464-1.5 1.005-2.6.985-2.365.987-2.811.248-1.166.547-1.6.763-1.779 1.032-2.989.726-2.833 1.016-3.606.729-3.023.976-5 .63-4.314.852-5.194c.894-3.543.919-13.676.046-19l-1.072-7c-.139-1.1-.507-2.81-.819-3.8s-.823-2.79-1.136-4c-.713-2.755-1.958-6.23-2.794-7.8-.351-.66-.64-1.415-.642-1.679s-.424-1.273-.941-2.244-1.061-2.106-1.209-2.522-.71-1.475-1.247-2.355-1.346-2.275-1.798-3.1-.98-1.5-1.172-1.5-.45-.405-.575-.9c-.252-1-.395-1.198-4.689-6.489-3.253-4.009-5.247-6.224-5.57-6.19-.11.012-5.155 5.007-11.21 11.1" fill="#4586ef"/><path d="M152.721 247.102c-6.116 6.106-11.121 11.318-11.121 11.582s7.74 8.239 17.2 17.721 17.2 17.532 17.2 17.89c0 .845-10.343 11.051-13.2 13.025-3.618 2.501-6.544 4.28-7.038 4.28-.255 0-.688.27-.962.6a1.88 1.88 0 0 1-1.267.6c-.423 0-1.615.45-2.648 1s-2.188 1-2.567 1-1.64.385-2.803.855c-3.146 1.272-20.908 1.301-24.315.039-1.21-.448-2.74-.933-3.4-1.078-2.57-.563-9.937-4.218-12.328-6.116-.623-.495-1.345-.9-1.603-.9s-1.459-.985-2.669-2.188c-1.47-1.462-2.533-2.191-3.203-2.2-1.058-.013-21.999 20.541-22.548 22.131-.385 1.113 6.349 7.187 10.928 9.857.943.55 2.026 1.27 2.406 1.6 1.079.936 7.034 4.089 10.817 5.726a73.49 73.49 0 0 1 3.279 1.526c.814.412 1.804.75 2.2.752s1.621.446 2.721.987 2.562.99 3.25.996 2.037.305 3 .662c6.884 2.55 31.438 2.567 38.15.025a18.68 18.68 0 0 1 3.315-.847 11.52 11.52 0 0 0 3.194-1.034c.813-.436 1.842-.794 2.285-.795s1.284-.252 1.867-.557 1.754-.782 2.6-1.061c2.178-.718 8.388-3.911 10.635-5.467 1.043-.722 2.053-1.313 2.245-1.313s1.049-.534 1.904-1.186l2.355-1.779c2.898-2.147 6.691-5.487 11.2-9.86 6.661-6.461 5.702-6.351 10.884-1.251 2.389 2.352 5.508 5.255 6.93 6.452l3.386 2.892c2.293 2.053 3.146 2.732 3.43 2.732.172 0 .551.227.841.505 1.87 1.787 13.679 8.295 15.052 8.295.285 0 1.184.343 1.998.763 2.448 1.262 5.973 2.5 7.778 2.73.936.12 2.241.492 2.901.828s3.45.851 6.2 1.145l7.8.914c3.716.503 9.385.501 12.6-.005l6.6-.943c2.2-.294 4.72-.811 5.6-1.149s2.378-.724 3.328-.858 2.121-.489 2.6-.789 1.592-.672 2.472-.825 2.14-.6 2.8-.993 1.739-.843 2.398-.999 1.383-.437 1.609-.625c.775-.643 5.074-2.794 5.585-2.794.28 0 .746-.285 1.035-.633s1.089-.933 1.779-1.3c2.917-1.553 5.935-3.622 8.935-6.124 8.132-6.783 8.633-4.763-4.419-17.821-11.341-11.347-11.849-11.732-13.477-10.222-1.695 1.572-4.568 3.91-4.992 4.062-.249.089-.993.54-1.653 1.001-1.978 1.383-2.761 1.847-3.555 2.11-.416.137-1.55.672-2.522 1.188s-1.988.939-2.26.939-1.169.344-1.993.765-2.438.886-3.585 1.035-3.3.633-4.785 1.074c-3.619 1.077-16.076.951-18.18-.184-.704-.379-1.925-.69-2.712-.69s-2.501-.45-3.808-1-2.719-1-3.139-1a1.87 1.87 0 0 1-1.259-.598c-.274-.329-1.196-.808-2.049-1.063s-1.553-.585-1.553-.731-.855-.656-1.9-1.134c-3.874-1.771-16.5-13.338-16.5-15.116 0-.46 6.586-7.335 16.9-17.64l17.028-17.493c.187-.891-21.607-22.625-22.688-22.625-.465 0-1.237.45-1.715 1s-1.026 1-1.217 1-1.014.648-1.828 1.441-2.11 1.784-2.88 2.204c-1.663.907-2.647 1.492-4.008 2.383-.554.363-1.454.796-2 .963s-1.262.536-1.592.819-1.41.73-2.4.992-2.007.646-2.26.853-1.603.555-3 .772-3.337.66-4.311.984c-2.064.686-14.009.842-15.211.199-.401-.215-2.236-.653-4.078-.974s-3.887-.865-4.545-1.208-1.485-.624-1.839-.626c-1.573-.006-12.091-6.042-13.956-8.008-.877-.925-3.825-3.194-4.151-3.194-.223 0-5.411 4.996-11.528 11.102" fill="#34ab53"/><path d="M0 200v200h200 200V200 0H200 0v200M142.2 50.014l6.2 1.021c2.31.36 4.65.881 5.2 1.158s1.9.629 3 .782 2.63.598 3.4.987 2.018.83 2.774.978 1.655.521 2 .828 1.37.756 2.279.998 1.877.708 2.149 1.037.799.597 1.169.597 1.284.45 2.029 1 1.653 1 2.016 1 .986.36 1.384.8.938.8 1.2.8.802.36 1.2.8.943.8 1.211.8 1.576.855 2.907 1.9l3.74 2.9c2.206 1.671 5.531 4.752 9.857 9.131l4.115 4.166.879-.749c.483-.411 2.888-2.739 5.345-5.172s5.147-4.953 5.978-5.6 1.798-1.446 2.148-1.776c.722-.679.806-.74 6.563-4.685 2.315-1.586 4.805-3.166 5.533-3.51a37.49 37.49 0 0 0 2.324-1.21c.55-.321 1.287-.586 1.638-.589s.952-.353 1.336-.777 1.391-.888 2.239-1.031 1.749-.512 2.004-.819 1.118-.681 1.919-.831 2.178-.601 3.06-1.002 2.054-.74 2.604-.755 1.72-.303 2.6-.642c5.889-2.269 21.533-3.452 29.248-2.213 2.834.456 6.232.949 7.552 1.096s2.703.426 3.074.618 1.961.621 3.535.952 3.245.871 3.715 1.2 1.219.599 1.665.599 1.4.361 2.121.8 1.54.799 1.821.799c.45 0 1.678.529 5.469 2.357.55.265 1.72.916 2.6 1.447l3 1.792c2.948 1.74 6.482 4.192 8.745 6.067.299.249 1.37 1.082 2.38 1.853 2.11 1.611 4.475 3.844 4.475 4.225 0 .144.615.845 1.366 1.56s2.776 3.041 4.5 5.171c4.428 5.47 4.542 5.627 4.794 6.628.125.495.384.9.575.9s.719.675 1.172 1.5 1.262 2.22 1.798 3.1 1.098 1.94 1.247 2.355.693 1.55 1.209 2.522.94 1.981.941 2.244.291 1.019.642 1.679c.836 1.57 2.081 5.045 2.794 7.8.313 1.21.824 3.01 1.136 4s.68 2.7.819 3.8.621 4.25 1.072 7c.873 5.324.848 15.457-.046 19-.222.88-.606 3.217-.852 5.194s-.686 4.227-.976 5-.747 2.396-1.016 3.606-.733 2.555-1.032 2.989-.545 1.154-.547 1.6-.446 1.711-.987 2.811-.994 2.27-1.005 2.6-.374 1.05-.804 1.6-.786 1.28-.791 1.622-.459 1.233-1.009 1.978-1 1.578-1 1.849-.247.741-.548 1.042-.846 1.079-1.211 1.729c-3.229 5.756-7.378 10.928-14.341 17.878-2.805 2.8-5.1 5.2-5.1 5.334s2.321 2.611 5.159 5.506c5.615 5.728 6.613 6.854 9.272 10.462.973 1.32 2.174 2.848 2.669 3.396s.9 1.223.9 1.5.136.504.302.504 1.1 1.53 2.075 3.4 1.896 3.4 2.048 3.4.386.555.521 1.232a6.39 6.39 0 0 0 1.05 2.254c.442.562.804 1.315.804 1.674s.347 1.3.772 2.092.901 2.139 1.058 2.994.621 2.181 1.029 2.948.741 1.801.741 2.298.34 1.941.755 3.206c2 6.102 3.066 22.131 1.9 28.588a88.1 88.1 0 0 0-.871 6.314c-.149 1.65-.494 3.54-.765 4.2s-.628 1.92-.793 2.8a17.22 17.22 0 0 1-1.062 3.278c-.42.923-.764 2.044-.764 2.491s-.472 1.852-1.049 3.122c-1.982 4.361-5.128 10.709-5.54 11.176-.226.256-.951 1.395-1.611 2.531-1.066 1.835-2.593 3.996-5.497 7.779-1.067 1.391-3.821 4.504-4.773 5.396-2.911 2.726-4.078 3.756-6.53 5.763l-3.423 2.866c-1.104 1.02-4.163 2.983-4.657 2.991-.264.004-.624.246-.8.538-.396.657-7.497 4.669-8.264 4.669-.307 0-.774.26-1.038.578s-1.364.872-2.444 1.231-2.055.798-2.165.976-.877.451-1.705.606-2.259.625-3.182 1.045-2.19.764-2.815.764-1.809.342-2.629.76-2.763.888-4.318 1.044-3.848.546-5.094.867c-3.682.946-15.204 1.166-19.075.364-1.755-.364-4.94-.842-7.077-1.062-2.176-.224-4.641-.742-5.6-1.178-.943-.427-2.257-.781-2.92-.786s-1.878-.369-2.698-.809-1.772-.8-2.113-.8-1.465-.45-2.498-1-2.082-1-2.332-1c-.496 0-7.231-3.373-9.153-4.583a195.62 195.62 0 0 1-3.342-2.187l-2.807-1.83c-.366-.22-1.022-.72-1.458-1.11s-1.963-1.641-3.393-2.778-4.904-4.327-7.721-7.089-5.289-5.082-5.494-5.154-2.851 2.294-5.879 5.26c-5.666 5.548-12.738 11.485-15.106 12.683-.44.222-1.61.924-2.6 1.559-3.599 2.31-12.563 6.571-14.8 7.036-.77.16-2.068.629-2.884 1.042s-2.079.751-2.806.751-1.984.355-2.794.789c-.942.505-2.665.88-4.794 1.043-1.827.139-4.312.542-5.522.895-3.119.909-16.259.864-20.125-.069-1.498-.362-3.402-.658-4.229-.658s-3.008-.45-4.846-1-3.67-1-4.072-1-1.403-.36-2.224-.8-1.753-.8-2.072-.8-1.311-.344-2.206-.764-2.947-1.334-4.561-2.03c-4.317-1.862-6.247-2.929-10.805-5.976-1.177-.786-2.583-1.67-3.126-1.964s-1.083-.789-1.202-1.1-.399-.566-.62-.566c-1.12 0-9.899-8.563-13.512-13.181-1.21-1.546-2.305-2.813-2.433-2.815s-.827-.949-1.555-2.104l-2.219-3.5c-2.451-3.825-6.193-11.073-6.193-11.996 0-.245-.338-1.111-.752-1.925-.997-1.962-2.034-5.016-2.538-7.479-.226-1.1-.748-2.843-1.16-3.874s-.751-2.561-.752-3.4-.361-3.653-.8-6.253c-1.051-6.227-1.051-13.34.002-19.673.439-2.64.798-5.378.799-6.085s.343-2.237.762-3.4.873-2.897 1.01-3.852.581-2.395.986-3.2.857-2.138 1.007-2.963.416-1.5.591-1.5.531-.71.791-1.577c2.181-7.28 10.144-18.771 19.792-28.559 2.784-2.825 5.062-5.345 5.062-5.601s-1.895-2.353-4.211-4.663c-3.805-3.796-11.789-12.838-11.789-13.352 0-.114-.585-1.047-1.3-2.072-1.824-2.615-2.8-4.283-4.73-8.086-.924-1.821-1.835-3.406-2.025-3.524s-.347-.518-.349-.89-.446-1.576-.987-2.676-.99-2.324-.996-2.719-.364-1.447-.794-2.336-.906-2.455-1.059-3.48-.611-2.645-1.019-3.598-.744-2.393-.748-3.2-.361-3.627-.793-6.267c-.955-5.837-1.023-13.236-.173-18.8.336-2.2.754-5.26.929-6.8s.592-3.34.925-4 .715-2.01.847-3 .608-2.513 1.057-3.385.815-1.987.815-2.478.45-1.741 1-2.775 1-2.204 1-2.598.16-.816.356-.937 1.108-1.707 2.026-3.524c1.975-3.907 2.827-5.41 3.554-6.269.295-.349 1.105-1.542 1.8-2.652s1.491-2.28 1.769-2.6S67.75 81.88 68.41 81c1.272-1.696 4.867-5.79 7.174-8.171 1.445-1.491 3.35-3.13 5.611-4.829.733-.55 1.604-1.269 1.937-1.597s.916-.779 1.295-1 1.653-1.06 2.831-1.864a60.38 60.38 0 0 1 4.542-2.748c1.32-.708 2.755-1.536 3.189-1.839s1.087-.552 1.451-.552.885-.269 1.158-.597 1.239-.795 2.149-1.037 1.935-.692 2.279-.998 1.245-.68 2-.828 2.004-.588 2.774-.978 2.3-.833 3.4-.987 2.45-.505 3-.782 2.98-.814 5.4-1.192l6-.995c2.274-.435 15.213-.429 17.6.008m-17.6 34.398c-.66.201-2.431.644-3.936.986s-3.432.978-4.284 1.412-1.893.79-2.315.79-.967.24-1.21.534-1.169.773-2.055 1.066-1.811.772-2.055 1.066-.613.534-.821.534-.967.45-1.688 1-1.454 1-1.628 1-.723.405-1.221.9-1.865 1.71-3.038 2.7c-3.569 3.011-6.589 6.219-8.162 8.67l-2.185 3.338c-.379.554-.83 1.454-1.001 2s-.646 1.421-1.056 1.946-.745 1.313-.745 1.753-.341 1.36-.758 2.046-.888 2.057-1.047 3.047-.579 2.34-.933 3c-.972 1.811-1.173 17.875-.263 21 .352 1.21.874 3.21 1.159 4.445s.817 2.67 1.181 3.189.661 1.246.661 1.614c0 .671 2.039 4.924 2.798 5.835.221.266.402.609.402.762s.45.869 1 1.591 1 1.496 1 1.722c0 .5 11.854 12.736 12.862 13.275.76.407 70.338-68.596 70.338-69.756 0-.931-12.52-12.807-13.995-13.275-.385-.122-1.021-.578-1.414-1.012s-.949-.79-1.235-.79-1.184-.45-1.994-1-1.696-1-1.969-1-.719-.27-.993-.6-.791-.602-1.149-.604-1.551-.446-2.651-.987-2.54-.998-3.2-1.014-1.92-.319-2.8-.672c-1.851-.743-17.492-1.15-19.6-.511m133.6-.161c-.44.109-1.479.456-2.308.773s-2.09.577-2.8.579-1.832.36-2.492.797-1.451.796-1.758.797c-.487.003-3.231 1.292-7.886 3.706-.746.387-1.356.87-1.356 1.073s-.405.495-.9.647c-1.469.453-8.939 7.271-13.433 12.263l-.934 1.037 16.934 17.038L276 157.982c9.79 9.891 18.052 17.991 18.36 18 .567.018 7.475-6.805 10.931-10.798 3.985-4.605 8.495-12.721 9.325-16.784.158-.77.644-2.48 1.082-3.8 1.209-3.649 1.201-18.875-.013-22.4-.454-1.32-.952-3.03-1.107-3.8s-.527-1.755-.829-2.189-.549-1.05-.549-1.368c0-1.046-3.225-7.226-4.721-9.048a9.54 9.54 0 0 1-.734-1.122c-1.109-1.982-4.73-5.834-7.965-8.473-1.078-.88-2.346-1.96-2.816-2.4-.967-.904-2.551-1.897-4.464-2.798-.715-.337-1.3-.762-1.3-.944s-.699-.541-1.553-.797-1.775-.734-2.049-1.063-.816-.598-1.207-.598-1.674-.448-2.851-.996-2.641-.998-3.253-1-1.782-.306-2.6-.674c-1.467-.662-17.313-1.214-19.487-.679m-60.633 65.914c-.092.09-2.327.459-4.967.819-5.582.761-10.621 2.301-14.6 4.459-.55.299-1.554.806-2.232 1.127s-1.464.864-1.749 1.207-.742.623-1.017.623c-.495 0-5.124 3.53-5.965 4.549-.24.291-1.302 1.135-2.36 1.875-1.813 1.268-6.277 6.312-6.277 7.093 0 .197-.35.676-.777 1.062s-.892 1.227-1.033 1.866-.6 1.346-1.023 1.572-.767.815-.767 1.308-.278 1.294-.619 1.78c-.655.936-2.015 4.559-2.587 6.895-1.843 7.523-1.994 8.512-1.994 13.072 0 3.07.225 5.606.633 7.144.348 1.311.8 3.526 1.004 4.922s.639 2.92.967 3.389.596 1.234.596 1.702.45 1.698 1 2.733 1 2.083 1 2.33.84 1.723 1.866 3.279l2.896 4.389c1.147 1.737 8.876 9.692 10.438 10.744l3 2.079c1.1.772 2.203 1.408 2.451 1.411s.666.264.928.58.995.689 1.63.828a6.18 6.18 0 0 1 2.072.968c.506.393 1.631.845 2.5 1.005a13.67 13.67 0 0 1 3.084 1.058c.827.422 2.133.767 2.904.767s2.944.36 4.831.8c4.141.966 8.786 1.026 12.475.162 1.499-.351 3.773-.79 5.054-.974 2.202-.317 4.855-1.193 8.471-2.796.88-.39 1.989-.825 2.464-.966s1.082-.52 1.349-.841.795-.585 1.174-.585 1.011-.355 1.404-.79 1.096-.909 1.562-1.055c1.508-.471 8.722-6.911 11.204-10.001 1.925-2.397 2.3-2.94 5.35-7.73 1.003-1.574 1.693-3.069 1.693-3.664 0-.214.255-.787.566-1.274 1.547-2.423 4.238-14.459 4.235-18.944-.002-2.552-2.017-14.229-2.599-15.061-.331-.472-.603-1.224-.603-1.67s-.331-1.351-.733-2.011-.862-1.726-1.023-2.368a6.86 6.86 0 0 0-1.068-2.154c-.426-.542-.775-1.154-.775-1.359s-.405-.945-.901-1.646-1.081-1.563-1.3-1.917c-1.588-2.562-3.232-4.379-7.359-8.135-2.807-2.554-6.506-5.421-6.995-5.421-.249 0-.677-.36-.952-.8s-.823-.8-1.219-.8-1.329-.45-2.074-1-1.614-1-1.93-1-1.137-.338-1.823-.751a9.78 9.78 0 0 0-2.787-1.026c-.847-.151-2.107-.527-2.8-.835-2.202-.981-15.266-2.644-15.893-2.023m-92.767 74.12c-.33.122-2.13 1.777-4 3.678-6.403 6.509-9.631 10.615-11.553 14.693-.43.911-.962 1.768-1.183 1.905s-.526.831-.676 1.544a10.01 10.01 0 0 1-.982 2.495c-.39.66-.831 1.92-.981 2.8s-.637 2.59-1.083 3.8c-1.217 3.299-1.206 18.649.016 22.275.449 1.333.939 3.211 1.089 4.174s.607 2.18 1.013 2.705.74 1.355.74 1.846.327 1.321.727 1.846.962 1.539 1.249 2.254.665 1.3.842 1.3.527.629.781 1.397.688 1.533.966 1.7.671.608.874.98c.516.951 4.483 5.456 6.161 6.998 4.25 3.903 5.429 4.922 5.699 4.923.165.001 1.155.598 2.2 1.326 3.147 2.192 9.573 5.055 13.701 6.106 5.127 1.304 6.71 1.444 14.6 1.287 6.262-.123 8.322-.3 9.485-.811.816-.359 2.303-.775 3.304-.925s2.223-.586 2.716-.969 1.552-.817 2.355-.965 1.67-.522 1.927-.832.983-.677 1.613-.815 1.352-.502 1.606-.808 1.302-1.042 2.328-1.637c3.218-1.863 14.907-12.56 15.347-14.043.15-.506-69.222-70.523-69.831-70.48-.248.017-.72.131-1.05.253m172.297 16.841l-34.7 34.512c-9.898 9.812-17.997 18.135-17.997 18.497 0 1.699 13.392 13.732 16.926 15.208.757.317 1.499.774 1.649 1.016s.597.441.995.441 1.194.371 1.77.824 1.725.929 2.554 1.057 2.046.517 2.706.865 2.46.849 4 1.111a101.84 101.84 0 0 1 4.6.892c2.307.533 11.709.555 13.8.032.88-.22 2.95-.652 4.6-.96 3.045-.568 6.341-1.624 9.6-3.075 3.167-1.409 5.997-2.937 5.999-3.238 0-.16.721-.659 1.601-1.108s1.6-.993 1.6-1.208.23-.392.511-.392.794-.315 1.139-.7 1.205-1.15 1.911-1.7 1.857-1.601 2.561-2.336a72.04 72.04 0 0 1 2.42-2.4c.629-.585 1.778-2.054 2.554-3.264l2.076-3.2c1.651-2.487 3.729-7.641 5.481-13.6 1.376-4.677 1.572-17.455.335-21.869l-1.19-4.331c-.689-2.567-2.082-6.099-2.821-7.155-.317-.453-.577-1.072-.577-1.376s-.45-1.088-1-1.742-1-1.417-1-1.696-.36-.833-.8-1.231-.801-.921-.802-1.162c-.004-1.009-12.196-13.45-13.145-13.412-.359.014-8.169 7.529-17.356 16.7" fill="#fbfbfb"/><path d="M124.6 50.006l-6 .995c-2.42.378-4.85.915-5.4 1.192s-1.9.629-3 .782-2.63.598-3.4.987-2.018.83-2.774.978-1.655.521-2 .828-1.37.756-2.279.998-1.877.708-2.149 1.037-.794.597-1.158.597-1.017.248-1.451.552-1.869 1.131-3.189 1.839a60.38 60.38 0 0 0-4.542 2.748l-2.831 1.864c-.379.221-.962.671-1.295 1S81.928 67.45 81.195 68c-3.73 2.802-7.421 6.307-7.041 6.687.129.129.711-.243 1.294-.826s1.217-1.061 1.407-1.061.345-.27.345-.6.199-.6.442-.6c.487 0 2.002-1.147 4.758-3.6 2.814-2.505 4.274-3.6 4.8-3.6.266 0 1.019-.45 1.673-1s1.535-1 1.958-1 .769-.189.769-.42.675-.7 1.5-1.04 1.77-.849 2.1-1.129 1.275-.727 2.1-.991 1.5-.634 1.5-.819.585-.461 1.3-.612a10.04 10.04 0 0 0 2.5-.983c.66-.39 1.92-.836 2.8-.991s1.922-.571 2.315-.924c.434-.39 1.692-.709 3.2-.812 1.438-.099 2.777-.428 3.179-.781.446-.392 2.16-.748 4.8-.997 2.258-.212 4.713-.637 5.455-.944 1.994-.824 16.198-.789 18.194.045.792.331 3.246.754 5.452.941 2.625.222 4.253.551 4.708.952.405.356 1.739.685 3.182.784 1.571.107 2.759.418 3.231.845.41.371 1.593.833 2.629 1.026s2.192.621 2.569.95 1.361.72 2.186.867 1.5.427 1.5.62.675.571 1.5.84 1.929.823 2.454 1.231 1.219.742 1.542.742 1.123.45 1.777 1 1.401 1 1.661 1 .698.36.973.8.714.8.975.8c.576 0 3.22 1.789 4.895 3.313.673.612 2.085 1.782 3.138 2.6s3.532 3.062 5.507 4.987 3.768 3.5 3.984 3.5.394.186.394.413c0 .738 2.75 3.187 3.578 3.187.489 0 2.589-1.765 5.354-4.5 6.461-6.39 10.239-9.837 11.073-10.102.397-.125.822-.492.945-.813s.456-.585.737-.585 1.036-.451 1.675-1 1.377-1 1.638-1 .802-.36 1.2-.8.957-.8 1.241-.8 1.003-.45 1.597-1 1.475-1 1.958-1 1.187-.339 1.562-.754 1.192-.856 1.814-.98 1.406-.501 1.74-.835 1.328-.771 2.207-.968 2.016-.653 2.528-1.011 1.483-.652 2.157-.652 1.94-.366 2.811-.812 2.722-.975 4.112-1.174 2.793-.581 3.116-.85c2.114-1.754 30.207-1.692 33.983.075.895.419 2.425.767 3.4.774 1.054.007 2.586.412 3.774.996 1.1.541 2.471.985 3.046.987s1.475.341 2 .753 1.705.875 2.623 1.03 1.758.515 1.868.8.819.636 1.576.778 1.7.615 2.094 1.051 1.113.792 1.597.792 1.365.45 1.958 1 1.318 1 1.61 1 .77.289 1.063.642.9.803 1.349 1.001 1.626.989 2.616 1.757 2.21 1.575 2.71 1.792 1.015.669 1.143 1.002.474.606.77.606.681.245.857.545 1.133 1.245 2.126 2.1c2.547 2.192 2.707 1.947-8.754 13.392-11.261 11.244-11.361 11.314-13.297 9.317-.721-.745-1.457-1.354-1.633-1.354s-.637-.275-1.022-.61c-2.49-2.17-3.134-2.633-3.94-2.836-.496-.124-.991-.457-1.099-.739s-.706-.639-1.329-.793a5.37 5.37 0 0 1-1.932-.999c-.44-.394-1.51-.825-2.377-.957s-1.725-.506-1.907-.83-1.181-.709-2.223-.856-2.321-.536-2.843-.865c-2.239-1.411-22.062-1.52-24.85-.137-.77.382-2.288.814-3.372.96-1.185.16-2.27.585-2.716 1.064-.409.439-1.242.798-1.852.798s-1.473.339-1.918.754-1.379.878-2.075 1.031-1.267.453-1.267.667-.634.654-1.409.978-1.754.899-2.175 1.279-1.241 1.051-1.824 1.491c-2.259 1.708-3.183 2.554-7.81 7.153-2.783 2.766-4.782 5.072-4.782 5.517 0 .779 4.072 5.13 4.8 5.13.22 0 .4.186.4.413 0 .538 2.649 3.187 3.187 3.187.227 0 .413.174.413.386 0 .518 11.475 12.014 11.993 12.014a.41.41 0 0 1 .407.413c0 .538 2.649 3.187 3.187 3.187.227 0 .413.177.413.394s1.81 2.218 4.022 4.447 4.296 4.473 4.633 4.987c.861 1.314-20.721 23.171-22.452 22.737-.552-.138-1.003-.49-1.003-.781s-.36-.644-.8-.784a2.44 2.44 0 0 1-1.214-1.027c-.228-.425-.671-.773-.986-.773s-.763-.358-.997-.795-.858-.904-1.386-1.036-1.048-.472-1.156-.754-.706-.64-1.329-.796-1.454-.629-1.848-1.051-1.151-.768-1.684-.768-1.291-.344-1.684-.765-1.436-.893-2.316-1.05-1.926-.571-2.324-.919c-.426-.372-1.906-.748-3.6-.913-1.582-.155-3.416-.566-4.076-.915-1.754-.926-14.652-.923-16.4.003-.66.35-2.28.731-3.6.847s-2.94.534-3.6.928-1.92.846-2.8 1.004-1.922.622-2.316 1.033-1.136.747-1.651.747-1.172.285-1.461.634-1.212.909-2.049 1.244-1.523.747-1.523.917-.527.526-1.171.793-1.269.739-1.388 1.049-.479.563-.801.563-.7.36-.84.8-.479.8-.754.8c-.532 0-2.602 1.834-4.251 3.765-.547.64-.725 1.013-.395.828 1.049-.588 3.384-2.328 3.837-2.861.887-1.041 5.481-4.532 5.965-4.532.275 0 .733-.28 1.017-.623s1.072-.886 1.749-1.207 1.682-.828 2.232-1.127c5.025-2.726 9.697-3.931 20.649-5.326 1.963-.25 13.515 1.374 14.965 2.104.557.281 1.727.638 2.6.793s2.147.621 2.833 1.035 1.506.751 1.823.751 1.185.45 1.93 1 1.679 1 2.074 1 .944.36 1.219.8.703.8.952.8c.54 0 4.742 3.313 7.082 5.584 1.844 1.79 2.273 1.96 2.273.901 0-1.083 22.201-23.047 22.989-22.745 1.572.604-1.243-2.397-17.652-18.814l-17.399-17.408.931-1.035c4.49-4.987 11.962-11.807 13.431-12.26.495-.152.9-.443.9-.647s.61-.686 1.356-1.073c4.655-2.414 7.399-3.703 7.886-3.706.307-.001 1.098-.36 1.758-.797s1.781-.796 2.492-.797 2.06-.318 3-.703c2.535-1.039 18.881-1.039 21.416 0 .94.385 2.2.702 2.8.704s2.055.452 3.232 1 2.46.996 2.851.996.934.269 1.207.598 1.196.808 2.049 1.063 1.553.615 1.553.797.585.607 1.3.944c1.902.896 3.491 1.89 4.474 2.798 2.024 1.871 4.325 3.815 4.888 4.131.7.391 23.738-22.353 23.738-23.436 0-.699-1.785-2.526-4.475-4.579l-2.38-1.853c-2.263-1.875-5.797-4.327-8.745-6.067l-3-1.792c-.88-.531-2.05-1.182-2.6-1.447-3.791-1.828-5.019-2.357-5.469-2.357-.281 0-1.101-.359-1.821-.799s-1.675-.799-2.121-.8-1.195-.27-1.665-.599-2.142-.869-3.715-1.2-3.165-.76-3.535-.952-1.754-.47-3.074-.618-4.718-.64-7.552-1.096c-7.715-1.239-23.359-.056-29.248 2.213-.88.339-2.05.628-2.6.642s-1.722.354-2.604.755-2.259.852-3.06 1.002-1.664.524-1.919.831-1.157.676-2.004.819-1.856.607-2.239 1.031-.985.774-1.336.777-1.088.268-1.638.589a37.49 37.49 0 0 1-2.324 1.21c-.728.344-3.218 1.924-5.533 3.51-5.757 3.945-5.841 4.006-6.563 4.685-.35.33-1.317 1.129-2.148 1.776s-3.521 3.167-5.978 5.6l-5.345 5.172-.879.749-4.115-4.166c-4.326-4.379-7.651-7.46-9.857-9.131l-3.74-2.9c-1.331-1.045-2.639-1.9-2.907-1.9s-.813-.36-1.211-.8-.938-.8-1.2-.8-.802-.36-1.2-.8-1.021-.8-1.384-.8-1.271-.45-2.016-1-1.658-1-2.029-1-.896-.269-1.169-.597-1.239-.795-2.149-1.037-1.935-.692-2.279-.998-1.245-.68-2-.828-2.004-.588-2.774-.978-2.3-.833-3.4-.987-2.45-.505-3-.782-2.89-.798-5.2-1.158l-6.2-1.021c-2.387-.437-15.326-.443-17.6-.008M123 83.557c-.66.167-1.56.498-2 .734s-1.677.562-2.749.722c-1.113.167-2.224.613-2.589 1.04-.371.433-1.164.747-1.889.747-.719 0-1.541.322-1.937.76-.379.419-1.267.869-1.975 1.002s-1.594.601-1.97 1.04-.956.798-1.29.798-.998.45-1.476 1-1.067 1-1.308 1-.732.315-1.089.7-1.253 1.134-1.989 1.664-2.145 1.971-3.129 3.2c-1.727 2.156-1.741 2.196-.4 1.109 2.137-1.733 5.173-4.374 6.177-5.373.498-.495 1.047-.9 1.221-.9s.906-.45 1.628-1 1.481-1 1.688-1 .578-.24.821-.534 1.169-.773 2.055-1.066 1.811-.772 2.055-1.066.788-.534 1.21-.534 1.464-.355 2.315-.79 2.689-1.05 4.084-1.369l4.453-1.046c2.885-.703 17.183-.31 19.283.53.88.352 2.14.653 2.8.67s2.1.473 3.2 1.014 2.293.985 2.651.987.875.274 1.149.604.721.6.993.6 1.158.45 1.969 1 1.708 1 1.994 1 .842.355 1.235.79 1.029.89 1.414 1.012c1.489.472 13.995 12.347 13.995 13.288 0 .293-8.01 8.528-17.8 18.299l-17.787 18.088c.008.178.351-.082.764-.577s1.028-.9 1.367-.9c1.19 0 34.307-33.508 34.342-34.748.029-1.025-8.659-10.452-9.633-10.452-.161 0-1.041-.72-1.957-1.6s-1.821-1.6-2.011-1.6-.768-.45-1.285-1-1.24-1-1.608-1-.985-.35-1.371-.777-1.207-.888-1.821-1.023-1.434-.595-1.821-1.023-1.188-.777-1.78-.777-1.482-.352-1.978-.781-1.738-.904-2.761-1.052-2.4-.563-3.06-.919c-1.314-.71-19.931-1.118-22.4-.491M50.161 133.2c0 3.41.061 4.805.136 3.1a85.45 85.45 0 0 0 0-6.2c-.075-1.705-.136-.31-.136 3.1m35.442 16.49c-.002.16.356.88.796 1.6s.797 1.13.797.91-.359-.94-.796-1.6-.796-1.069-.797-.91M100.4 171.4c.746.77 1.447 1.4 1.557 1.4s-.411-.63-1.157-1.4-1.447-1.4-1.557-1.4.411.63 1.157 1.4M78.2 196c1.083 1.1 2.06 2 2.17 2s-.687-.9-1.77-2-2.06-2-2.17-2 .687.9 1.77 2m29.4 29.4c.746.77 1.447 1.4 1.557 1.4s-.411-.63-1.157-1.4-1.447-1.4-1.557-1.4.411.63 1.157 1.4m3.2 3.2c.746.77 1.447 1.4 1.557 1.4s-.411-.63-1.157-1.4-1.447-1.4-1.557-1.4.411.63 1.157 1.4m52.553 5.818c.457.835 1.285 1.794 1.839 2.131s1.593 1.171 2.308 1.852c2.489 2.373 1.279.849-1.839-2.315-2.614-2.653-3.001-2.932-2.308-1.668m69.783 2.782c-.723.66-1.139 1.2-.924 1.2s.9-.54 1.523-1.2 1.039-1.2.924-1.2-.801.54-1.523 1.2m-109.736 4c.859.88 1.652 1.6 1.762 1.6s-.503-.72-1.362-1.6-1.652-1.6-1.762-1.6.503.72 1.362 1.6m45.8-1.489c0 .076.585.567 1.3 1.09.804.589 1.084.686.733.254-.533-.656-2.033-1.648-2.033-1.344m3.8 2.901c.66.541 1.37.985 1.578.986s-.233-.448-.978-.998c-1.74-1.283-2.17-1.275-.6.012m53.303-.112c-.518.495-.663.7-.323.456s.98-.644 1.42-.888.585-.449.322-.456-.901.393-1.419.888m-99.503 2.1c.746.77 1.447 1.4 1.557 1.4s-.411-.63-1.157-1.4-1.447-1.4-1.557-1.4.411.63 1.157 1.4m96.056-.187c-1.24 1.033-.681 1.022.635-.013.559-.44.858-.794.663-.787s-.779.368-1.298.8m-45.623.517c.733.574 3.565 1.79 3.347 1.438-.153-.247-.88-.701-1.616-1.009-1.238-.517-2.124-.737-1.731-.429m42.134 1.063c-.216.216-1.197.653-2.18.971-3.224 1.044-5 1.801-4.265 1.818.397.01 1.477-.322 2.4-.737s2.251-.876 2.95-1.025 1.487-.53 1.749-.846c.532-.64-.037-.798-.654-.181M184.6 248c2.068.999 2.824.999 1 0-.77-.422-1.67-.768-2-.77s.12.345 1 .77m6.2 1.467c1.21.33 2.92.668 3.8.751 1.024.097.52-.125-1.4-.617-1.65-.423-3.36-.76-3.8-.751s.19.288 1.4.617m15.8.165c-2.354.624-2.514.715-1 .568 2.122-.205 6.275-1.354 4.8-1.328-.55.009-2.26.351-3.8.76M134 251.8c.746.77 1.447 1.4 1.557 1.4s-.411-.63-1.157-1.4-1.447-1.4-1.557-1.4.411.63 1.157 1.4m-83.151 4.4a17.47 17.47 0 0 1-.266 1.8l-.206 1 .429-.981c.236-.54.355-1.35.266-1.8-.159-.798-.165-.798-.223-.019m89.503 2.07c.506.896 35.646 36.041 35.647 35.652.001-.152-7.739-8.035-17.199-17.517l-17.2-17.609c0-.202-.374-.568-.83-.812-.739-.396-.785-.364-.418.286m100.537 18.255C230.553 286.855 224 293.698 224 294.16c0 .783 6.97 8.153 9.8 10.361.88.687-.875-1.214-3.9-4.225s-5.5-5.771-5.5-6.135 7.568-8.22 16.818-17.46l16.689-16.927c-.07-.071-7.729 7.467-17.018 16.751M50.162 266.6c0 3.52.062 4.906.136 3.081a91.63 91.63 0 0 0-.001-6.4c-.075-1.695-.136-.201-.135 3.319m33.147 2.2c0 .99.078 1.395.173.9s.096-1.305 0-1.8-.173-.09-.173.9m87.822 30.485c-1.909 1.933-3.345 3.515-3.192 3.515.382 0 7.063-6.744 6.84-6.903-.098-.07-1.74 1.454-3.648 3.388m-74.396 3.076c-.591 1.147-20.367 21.054-21.941 22.085l-.986.646 2.882 2.854c1.585 1.57 3.024 2.853 3.196 2.851s-.82-1.044-2.205-2.318c-3.264-2.999-3.877-1.968 8.669-14.579 12.192-12.256 11.474-11.845 14.85-8.488 1.21 1.203 2.38 2.187 2.6 2.186.362-.001-.499-.844-5.065-4.957l-1.465-1.319-.535 1.039m203.59.883c-.933.875-1.058 1.108-.425.786.495-.252.9-.632.9-.844s.461-.386 1.024-.386c.58 0 .916-.173.776-.4-.401-.648-.873-.473-2.275.844m-134.925 1.6c-2.644 2.135-3.616 3.178-1.6 1.716 1.724-1.25 4.127-3.364 3.8-3.344-.11.007-1.1.739-2.2 1.628m70.577 1.29c.617.784 3.78 3.066 4.249 3.066.155 0-.147-.327-.672-.727-2.934-2.234-4.09-2.99-3.577-2.339m60.823-.142c0 .215-.72.759-1.6 1.208s-1.6 1.02-1.6 1.27c0 .263.308.175.731-.208.403-.364.911-.662 1.131-.662s.821-.45 1.338-1 .728-1 .47-1-.47.176-.47.392M105.527 308.6c.654.55 1.343.999 1.531.998.427-.002-1.935-1.964-2.389-1.984-.182-.008.204.436.858.986m54.411.185c-1.025.643-1.982 1.363-2.128 1.599-.252.407 1.857-.857 3.59-2.151 1.339-1 .511-.688-1.462.552m81.562.903c.495.239.9.587.9.773s.225.333.5.326.075-.368-.444-.8-1.15-.775-1.4-.76-.051.222.444.461m-133.69.328c.265.43 5.076 2.831 5.274 2.633.084-.084-1.114-.784-2.662-1.556s-2.723-1.257-2.612-1.077m47.79 1.374c-.55.318-1.36.754-1.8.969-.662.323-.683.395-.124.416.372.014.791-.16.931-.386s.825-.662 1.524-.968 1.089-.568.869-.582-.85.233-1.4.551m89.052-.014c.689.3 1.374.743 1.524.984s.576.426.948.408c.552-.025.566-.073.076-.259-.33-.126-1.029-.562-1.554-.969s-1.245-.733-1.6-.724-.083.26.606.56m41.754.647c-.766.427-1.126.776-.8.774s1.134-.36 1.794-.797c1.531-1.014.838-.998-.994.023M115 313.6c.863.44 1.756.792 1.985.783.607-.024-2.279-1.546-2.97-1.566-.321-.009.122.343.985.783m35.456.013c-1.214 1.012-.835 1.006.834-.012.721-.439 1.04-.793.71-.786s-1.025.366-1.544.798m99.504.003c.967.439 1.839.718 1.937.621.271-.272-2.161-1.438-2.977-1.428-.396.005.072.368 1.04.807m32.24-.038c-.88.417-1.323.772-.985.79s1.322-.328 2.185-.768c1.992-1.016.941-1.035-1.2-.022m-29.095 1.105c.497.096 1.217.092 1.6-.008s-.025-.179-.905-.174-1.193.086-.695.182m-132.305.801c.77.341 2.21.681 3.2.756l1.8.136-1.6-.355c-.88-.195-2.107-.549-2.726-.788-1.714-.659-2.267-.453-.674.251m24.297-.251c-.386.225-1.466.56-2.4.744-1.677.331-1.681.336-.297.357.77.012 2.21-.319 3.2-.734 1.039-.436 1.462-.76 1-.765a3.45 3.45 0 0 0-1.503.398m111.903.238c1.839 1.089 14.081 1.296 17.76.301 1.443-.391 2.432-.775 2.197-.853s-1.485.133-2.776.469c-2.636.687-11.712.821-14.381.212l-2.8-.602-1.2-.238 1.2.711m-125.487 1.224c1.163.081 2.963.081 4-.002s.087-.148-2.113-.147-3.049.068-1.887.149m73.687 6.545c5.709 5.699 10 9.509 10 8.878 0-.208-1.206-1.355-2.68-2.548s-4.417-3.88-6.541-5.97-4.383-4.239-5.02-4.776 1.271 1.451 4.241 4.416m-12.6 1.455c-3.52 3.44-5.86 5.852-5.2 5.359 1.479-1.104 12.254-11.662 11.874-11.634-.151.011-3.154 2.834-6.674 6.275m131.828 1.032c-.309.813-1.822 2.259-6.087 5.816-3 2.502-6.018 4.571-8.935 6.124-.69.367-1.513.984-1.83 1.371-.381.466.1.314 1.424-.448 1.1-.632 2.144-1.384 2.32-1.67s.536-.523.8-.527c.494-.008 3.553-1.971 4.657-2.991.343-.316 1.883-1.612 3.423-2.88 5.149-4.241 5.839-5.004 5-5.522-.221-.136-.568.19-.772.727m-243.14 6.086c.598.63 1.159 1.064 1.247.966s-.402-.614-1.088-1.145l-1.247-.965 1.088 1.144m103.312.02a53.71 53.71 0 0 1-2 1.602c-2.893 2.144-3.856 2.965-3.479 2.965.238 0 .548-.187.689-.416s.917-.839 1.724-1.355c1.497-.958 4.828-3.792 4.466-3.8-.11-.002-.74.45-1.4 1.004m-99.258 2.846c.413.708 3.858 2.956 3.858 2.518 0-.207-.585-.673-1.3-1.035s-1.646-.952-2.069-1.31-.643-.437-.489-.173m133.207.038c.149.242 1.122.996 2.161 1.675 1.516.991 1.652 1.033.69.212-2.172-1.853-3.286-2.59-2.851-1.887m-42.822 3.21c-2.381 1.678-2.587 2.21-.274.708s3.193-2.201 2.747-2.184c-.22.008-1.333.672-2.473 1.476m-84.736.693c.827.561 1.581.941 1.677.845.193-.193-2.381-1.865-2.871-1.865-.17 0 .368.459 1.194 1.02m133.171-.02c.81.55 1.591 1 1.733 1s-.35-.45-1.095-1-1.526-1-1.734-1 .285.45 1.096 1M94.6 340.61c.88.542 1.78.986 2 .986s-.32-.444-1.2-.986-1.78-.985-2-.985.32.443 1.2.985m76.4 0c-.88.542-1.42.981-1.2.975s1.12-.453 2-.995 1.42-.981 1.2-.975-1.12.453-2 .995m56.8 0c.88.542 1.78.986 2 .986s-.32-.444-1.2-.986-1.78-.985-2-.985.32.443 1.2.985m76.4 0c-.88.542-1.33.981-1 .975s1.32-.453 2.2-.995 1.33-.981 1-.975-1.32.453-2.2.995M98.4 342.4c1.857 1.016 2.558 1.015.89-.001-.72-.44-1.53-.791-1.8-.782s.14.361.91.783m69.819-.431c-.126.204-1.147.675-2.269 1.048s-2.515.925-3.095 1.228c-1.626.848-.065.629 1.745-.245.88-.425 1.78-.78 2-.789.595-.024 2.879-1.605 2.324-1.608-.262-.002-.58.163-.705.366m63.181.431c.66.437 1.463.796 1.785.797s-.122-.357-.985-.797c-1.999-1.019-2.339-1.019-.8 0m69.809-.211c-.269.325-1.075.7-1.791.834-1.536.288-3.993 1.77-2.942 1.774.372.002.78-.163.905-.366s1.112-.663 2.193-1.022c1.797-.597 3.488-1.809 2.524-1.809-.22 0-.62.265-.889.589M102.104 344c1.918 1.028 2.448 1.028.896 0-.66-.437-1.467-.796-1.794-.797s.078.357.898.797m133.626.224c1.058.563 2.227.944 2.597.847.535-.142.509-.188-.127-.227-.44-.027-1.34-.407-2-.844s-1.469-.796-1.797-.797.269.458 1.327 1.021m-130.153 1.044c.758.217 1.743.651 2.189.963s1.087.563 1.423.556-.289-.455-1.389-.996-2.36-.969-2.8-.951c-.473.019-.236.194.577.428m53.423.181c-.66.354-1.65.787-2.2.963-.694.221-.78.33-.28.354.396.019 1.295-.263 1.997-.627s1.729-.798 2.28-.965c.815-.248.853-.311.203-.337-.44-.018-1.34.258-2 .612m80.875.307c.481.359 1.471.75 2.2.867l1.325.214-1.4-.565c-3.04-1.225-3.089-1.237-2.125-.516m51.914-.004c-.434.303-1.149.643-1.589.754l-.8.201.8.033c.44.018 1.52-.315 2.4-.74 1.097-.53 1.345-.777.789-.786-.446-.008-1.166.234-1.6.538M113 347.615c1.32.425 2.577.716 2.793.648.553-.176-3.359-1.468-4.364-1.441-.456.011.251.369 1.571.793m38.4.021c-1.62.59-1.791.732-.899.746.606.01 1.774-.342 2.595-.782 1.811-.971 1.02-.954-1.696.036m94.544-.027c.959.435 2.039.787 2.4.782s-.129-.365-1.088-.8-2.039-.787-2.4-.782.129.365 1.088.8m39.256.011c-1.459.597-1.608.741-.785.758.559.012 1.722-.338 2.585-.778 1.976-1.007.674-.993-1.8.02m-167.895 1.067c.609.092 1.509.09 2-.005s-.005-.171-1.105-.168-1.503.081-.895.173m29.8-.004c.497.096 1.217.092 1.6-.008s-.025-.179-.905-.174-1.193.086-.695.182m103.4.004c.609.092 1.509.09 2-.005s-.005-.171-1.105-.168-1.503.081-.895.173m30.395-.011c.385.1 1.015.1 1.4 0s.07-.183-.7-.183-1.085.082-.7.183m-158.1.766c3.239.91 17.482.926 20 .022 1.545-.554 1.602-.61.4-.39-1.957.358-17.731.387-20.4.038l-2.2-.289 2.2.619m134.8.183c4.644.998 16.191.882 20-.2l2.2-.625-2 .214c-1.1.118-2.99.375-4.2.571-2.912.472-9.114.468-12.6-.009-6.068-.83-7.402-.81-3.4.049" fill="#c8708d"/></svg>