<svg xmlns="http://www.w3.org/2000/svg" width="400" height="400" fill-rule="evenodd" xmlns:v="https://vecta.io/nano"><path d="M143.5 27.128c.495.07.9.25.9.4s23.22.226 51.6.169l51.6-.4c0-.163-23.625-.297-52.5-.297l-51.6.128m191.967 183.939c-.48.48-.28 1.2.333 1.2.33 0 .6-.15.6-.334s-.191-.333-.424-.333-.312-.18-.176-.4c.28-.453.07-.537-.333-.133m-2.067 2.232c-.88.229-1.706.579-1.835.778s-1.208.618-2.397.931-2.222.755-2.298.981-.371.411-.657.411c-.697 0-4.76 1.297-5.013 1.6s-4.316 1.6-5.013 1.6c-.286 0-.582.185-.657.411s-1.124.671-2.33.989-2.254.763-2.33.989-.371.411-.657.411c-.697 0-4.76 1.297-5.013 1.6s-4.316 1.6-5.013 1.6c-.286 0-.582.185-.657.411s-1.124.671-2.33.989-2.254.763-2.33.989-.371.411-.657.411c-.697 0-4.76 1.297-5.013 1.6s-4.316 1.6-5.013 1.6c-.286 0-.582.185-.657.411s-1.124.671-2.33.989-2.254.763-2.33.989-.371.411-.657.411c-.697 0-4.76 1.297-5.013 1.6s-4.316 1.6-5.013 1.6c-.286 0-.582.185-.657.411s-1.124.671-2.33.989-2.254.763-2.33.989-.371.411-.657.411c-.697 0-4.76 1.297-5.013 1.6s-4.316 1.6-5.013 1.6c-.286 0-.582.185-.657.411s-1.124.671-2.33.989-2.254.763-2.33.989-.371.411-.657.411c-.697 0-4.76 1.297-5.013 1.6s-4.316 1.6-5.013 1.6c-.286 0-.582.185-.657.411s-1.124.671-2.33.989-2.254.763-2.33.989c-.241.724-1.607.439-1.87-.389-.14-.44-.432-.8-.651-.8s-.278.191-.135.423c.236.382 6.001 17.239 13.398 39.177l7.991 23.6c14.307 42.152 13.706 40.028 12.632 44.684-1.455 6.315-6.582 12.27-11.332 13.161-.717.134-1.303.359-1.303.5s19.893.19 44.207.112l44.752.309c1.577 1.309 33.136.35 34.57-1.05.29-.284.75-.516 1.021-.516.615 0 3.824-2.314 4.708-3.395a85.67 85.67 0 0 1 1.488-1.753c.457-.521.95-1.331 1.096-1.8s.44-.964.652-1.101c1.839-1.182 1.783-13.48-.071-15.725-.193-.234-.647-1.569-1.008-2.965s-.811-2.837-.999-3.2c-.465-.898-1.616-4.821-1.616-5.507 0-.305-.142-.554-.316-.554s-.64-1.215-1.035-2.7-.858-2.88-1.027-3.1-.638-1.66-1.04-3.2-.846-2.89-.984-3-.548-1.19-.912-2.4-1.309-4-2.1-6.2-1.688-4.973-1.991-6.163-.697-2.27-.874-2.4c-.355-.262-.386-.361-1.221-3.935-.321-1.374-.744-2.398-.942-2.276s-.358-.117-.358-.531c0-.794-.932-3.877-1.782-5.895-.279-.66-.743-2.1-1.032-3.2s-.641-2.09-.781-2.2-.584-1.46-.987-3-.863-2.98-1.023-3.2c-.338-.464-1.14-2.875-1.392-4.182-.095-.495-.35-1.113-.567-1.375s-.57-1.187-.784-2.059c-.485-1.968-2.343-7.347-2.857-8.268-.21-.376-.264-.991-.121-1.366.156-.404.101-.582-.134-.436-.227.14-.712-.985-1.135-2.635-.406-1.583-.868-2.969-1.026-3.079-.273-.19-1.556-4.435-1.663-5.5-.027-.275-.199-.5-.383-.5s-.333-.249-.333-.554c0-.687-1.28-4.772-1.58-5.046-.121-.11-.54-1.452-.931-2.983s-.859-2.881-1.04-3-.45-.757-.597-1.417-.339-1.47-.429-1.8-.176-.836-.192-1.124-.236-.397-.494-.237c-.317.196-.392.014-.237-.577.124-.475.082-.774-.094-.666s-.409-.386-.518-1.099c-.344-2.249-.655-3.23-1.113-3.512-.244-.151-.416-.344-.383-.43.061-.158-.184-1.002-.655-2.255-.145-.385-.227-.925-.183-1.2s-.117-.5-.36-.5-.325-.188-.183-.418.042-.677-.221-.994-.371-.859-.239-1.204c.138-.36.072-.522-.156-.381-.217.134-.395-.126-.395-.579s-.191-.824-.424-.824-.307-.188-.165-.418.085-.634-.125-.9-.332-.797-.27-1.182-.045-.7-.239-.7-.237-.3-.096-.666c.171-.447.102-.57-.213-.376s-.468-.055-.468-.734c0-.563-.191-1.024-.424-1.024s-.307-.188-.165-.418c.332-.536-.875-2.395-1.52-2.341-.27.023-1.211.229-2.091.458" fill="#279ce3"/><path d="M247.6 27.167c0 .308-14.852.441-51.5.46l-49.859.54c6.546 2.049 8.819 5.472 14.129 21.279l8.831 26.154 9.027 26.8 4.044 12c.443 1.123 8.161 23.789 8.921 26.2.416 1.32 2.218 6.63 4.003 11.8 4.425 12.814 4.846 14.206 5.218 17.239.178 1.451.764 3.701 1.302 5s1.105 2.901 1.261 3.561a17.36 17.36 0 0 0 .806 2.4c.685 1.575 2.029 5.659 3.093 9.4.47 1.65.975 3.09 1.122 3.2s.603 1.505 1.012 3.1.869 2.9 1.023 2.9.403.675.556 1.5.533 2.044.846 2.708.916 2.374 1.341 3.8c.839 2.82 2.652 8.113 3.216 9.392.194.44.568 1.52.832 2.4s.614 1.78.777 2 .245.715.183 1.1.021.7.184.7.634 1.35 1.045 3 .891 3 1.067 3 .32.258.32.574.209 1.081.465 1.7.429 1.28.386 1.468.123.585.369.883.333.728.191.957-.086.418.125.418.6.9.864 2 .626 2 .805 2 .28.302.226.671.15 1.17.454 1.779.645 1.523.757 2.029a12.54 12.54 0 0 0 .868 2.771c.238.578.638 1.813.889 2.745.292 1.085.729 1.766 1.215 1.893a1.6 1.6 0 0 1 1 .955c.252.795 1.621 1.051 1.856.346.076-.226 1.124-.671 2.33-.989s2.254-.763 2.33-.989.371-.411.657-.411c.697 0 4.76-1.297 5.013-1.6s4.316-1.6 5.013-1.6c.286 0 .582-.185.657-.411s1.124-.671 2.33-.989 2.254-.763 2.33-.989.371-.411.657-.411c.697 0 4.76-1.297 5.013-1.6s4.316-1.6 5.013-1.6c.286 0 .582-.185.657-.411s1.124-.671 2.33-.989 2.254-.763 2.33-.989.371-.411.657-.411c.697 0 4.76-1.297 5.013-1.6s4.316-1.6 5.013-1.6c.286 0 .582-.185.657-.411s1.124-.671 2.33-.989 2.254-.763 2.33-.989.371-.411.657-.411c.697 0 4.76-1.297 5.013-1.6s4.316-1.6 5.013-1.6c.286 0 .582-.185.657-.411s1.124-.671 2.33-.989 2.254-.763 2.33-.989.371-.411.657-.411c.697 0 4.76-1.297 5.013-1.6s4.316-1.6 5.013-1.6c.286 0 .582-.185.657-.411s1.124-.671 2.33-.989 2.254-.763 2.33-.989.371-.411.657-.411c.697 0 4.76-1.297 5.013-1.6s4.316-1.6 5.013-1.6c.286 0 .582-.185.657-.411s1.11-.667 2.298-.981 2.267-.729 2.397-.924c.709-1.067 4.208-1.357 4.981-.413l.761.929-.308-1c-.332-1.082-.971-1.665-1.48-1.35-.175.108-.319-.073-.319-.403s.208-.728.462-.885c.286-.177.353-.11.176.176-.157.254-.08.462.172.462s.377-.225.28-.5-.472-.475-.833-.444-.657-.105-.657-.3.18-.356.4-.356.4-.199.4-.443c0-.256-.294-.331-.7-.176-.561.214-.601.167-.2-.237.582-.586.681-1.703.121-1.357-.209.129-.31-.127-.225-.568s-.006-.902-.203-1.023-.257-.486-.133-.809.06-.587-.142-.587-.604-.945-.894-2.1-.699-2.317-.91-2.582-.267-.671-.125-.9.088-.418-.121-.418-.505-.674-.66-1.497-.394-1.678-.533-1.9-.284-.583-.322-.803c-.171-.99-.37-1.615-.572-1.8-.24-.219-1.598-4.694-1.67-5.5-.024-.275-.16-.5-.302-.5s-.495-.945-.785-2.1-.674-2.286-.853-2.514-.717-1.848-1.193-3.6-1.01-3.366-1.185-3.586c-.385-.486-1.781-5.079-1.671-5.5.043-.165-.08-.3-.273-.3s-.656-1.212-1.028-2.692-.822-2.876-1-3.1-.655-1.713-1.061-3.308-.859-2.9-1.009-2.9-.493-.945-.765-2.1-.711-2.55-.977-3.1-.718-1.9-1.003-3-.747-2.54-1.027-3.2c-.483-1.14-1.921-5.375-1.969-5.8-.012-.11-.132-.38-.267-.6s-.569-1.48-.965-2.8l-.783-2.6c-.034-.11-.259-.673-.5-1.25s-.648-1.838-.905-2.8-.615-1.93-.793-2.15-.628-1.57-.997-3-.814-2.78-.987-3-.618-1.48-.987-2.8-.921-2.948-1.228-3.618-.757-2.106-1-3.19-.582-2.066-.754-2.182-.604-1.29-.961-2.61c-.689-2.548-2.448-7.864-3.044-9.2-.44-.986-1.784-5.064-2.899-8.8-.46-1.54-.969-2.89-1.13-3s-.52-1.19-.797-2.4-.725-2.56-.995-3-.81-2.105-1.198-3.7-.831-2.9-.983-2.9-.613-1.35-1.024-3-.861-3-1-3-.589-1.35-1-3-.866-3-1.011-3-.477-.922-.737-2.048-.725-2.612-1.034-3.3-.862-2.242-1.231-3.452-.899-2.74-1.179-3.4-.746-2.1-1.035-3.2-.641-2.09-.781-2.2-.587-1.46-.993-3-.854-2.89-.993-3-.505-.984-.814-1.943-.796-1.832-1.083-1.942-.522-.407-.522-.66c0-.773-4.224-4.588-5.86-5.293a41.75 41.75 0 0 1-2.74-1.313c-1.478-.799-19.4-1.244-19.4-.482M339.818 223.3c.15.495.458 1.08.686 1.3.283.274.317.148.107-.4-.168-.44-.315-1.025-.325-1.3s-.181-.5-.38-.5-.238.405-.088.9m3.939 11.733c.134.348.243.808.243 1.023s.189.275.419.132c.291-.18.292-.413.004-.76-.229-.276-.298-.62-.153-.765s.034-.263-.246-.263c-.3 0-.41.26-.267.633" fill="#32baef"/><path d="M141.4 27.2c.136.22.642.397 1.124.394.712-.005.764-.079.276-.394-.788-.509-1.715-.509-1.4 0m-29.75 42.25c-.264.579-.388 1.145-.276 1.257s.394-.296.626-.907c.549-1.443.273-1.718-.35-.35m-1.077 3.554c-.145.773-.423 1.503-.618 1.624s-.355.416-.355.657.36.022.8-.485c.79-.91 1.03-.665.557.567-.133.348-.483.633-.776.633s-.664.211-.823.468c-.194.315-.071.384.376.213.815-.313.873.369.098 1.144-.356.356-.621.409-.709.143-.078-.234-.425.496-.771 1.622-.504 1.645-.522 2.007-.09 1.842.63-.242.683.125.138.968-.345.533-.39.533-.407 0-.027-.803-1.562 2.406-1.579 3.3-.008.385-.164.7-.347.7s-.353.225-.377.5c-.124 1.437-1.405 5.268-1.871 5.594-.23.162-.295.297-.144.3s-.362 1.761-1.14 3.906l-1.854 5.7c-.241.99-.57 1.893-.732 2.007s-.663 1.463-1.113 3l-3.048 9.193c-.302.66-.756 2.01-1.008 3s-.592 1.98-.757 2.2-.615 1.57-1.003 3-.851 2.78-1.027 3-.624 1.57-.993 3-.822 2.782-1.006 3.005-.558 1.303-.83 2.4a30.44 30.44 0 0 1-1.241 3.756 25.34 25.34 0 0 0-1.157 3.59c-.225 1.006-.558 1.923-.739 2.039s-.699 1.47-1.15 3.01l-2.924 9c-.143.11-.579 1.37-.969 2.8s-.927 3.05-1.193 3.6-.706 1.945-.977 3.1-.616 2.1-.765 2.1-.604 1.305-1.009 2.9-.878 3.08-1.05 3.3-.526 1.21-.787 2.2-.709 2.34-.995 3c-.556 1.283-4.196 12.148-5.294 15.8-.364 1.21-.774 2.29-.912 2.4s-.581 1.46-.984 3-.867 2.98-1.032 3.2-.621 1.57-1.014 3-.828 2.69-.968 2.8-.584 1.442-.989 2.96-.969 3.228-1.253 3.8-.748 1.94-1.032 3.04-.619 2.09-.743 2.2c-.35.309-1.587 4.399-1.587 5.246 0 .415-.153.754-.341.754s-.666 1.215-1.064 2.7-.845 2.79-.995 2.9-.605 1.46-1.012 3-.856 2.89-1 3-.593 1.46-1 3-.856 2.89-1 3-.593 1.46-1 3-.856 2.89-1 3-.593 1.46-1 3-.883 2.9-1.06 3.021-.625 1.472-.997 3-.818 2.877-.992 2.996-.637 1.469-1.028 3-.828 2.873-.971 2.983-.57 1.28-.949 2.6-.818 2.58-.977 2.8-.523 1.3-.808 2.4-.739 2.54-1.01 3.2-.726 2.01-1.012 3-.829 2.52-1.208 3.4-.917 2.635-1.196 3.9-.659 2.3-.844 2.3-.336.242-.336.538-.369 1.601-.82 2.9a142.68 142.68 0 0 0-1.648 5.162c-.456 1.54-.98 2.896-1.165 3.014s-.6 1.343-.921 2.723-.795 2.76-1.05 3.068-.349.748-.207.977.109.418-.074.418-.571 1.022-.861 2.27-.765 2.644-1.054 3.1-.736 1.865-.992 3.13-.611 2.3-.789 2.3c-.282 0-.963 2.152-1.446 4.571-.085.423-.296.873-.47 1s-.643 1.488-1.044 3.027-.868 2.889-1.036 3-.533 1.192-.81 2.402-.721 2.56-.988 3c-.73 1.204-1.07 2.275-.637 2.008.208-.129.127.25-.181.843s-.675 1.769-.818 2.614-.402 1.451-.575 1.344-.631 1.309-1.016 3.147c-.699 3.329-.588 9.155.182 9.632.172.106.226.645.121 1.197-.131.683.014 1.084.453 1.253.355.136.646.498.646.805s.174.557.387.557.284.27.158.6-.031.6.212.6.398.225.343.5.141.45.434.389.632.26.751.716.74 1.097 1.379 1.428c.671.347 1.046.789.887 1.046s-.094.333.16.176c.238-.147.922.185 1.52.738s1.24 1.03 1.427 1.057.522.095.742.15a7.83 7.83 0 0 0 .824.15c.233.028.309.234.17.46s-.105.377.076.336.647.066 1.035.235c.427.187.97.094 1.377-.236.369-.3.549-.341.399-.091-.503.841 1.718.879 47.119.812L123 373l2.359-1.122c3.865-1.837 9.092-6.825 8.373-7.989-.144-.232-.062-.293.187-.139.277.171.614-.366.902-1.438a26.21 26.21 0 0 1 1.18-3.312c.396-.88.851-2.23 1.011-3s.475-1.85.7-2.4.466-1.18.534-1.4c.57-1.853 1.519-4.647 1.972-5.8.302-.77.772-2.21 1.046-3.2s.612-1.89.753-2 .584-1.46.985-3 .853-2.98 1.003-3.2.577-1.39.949-2.6.837-2.56 1.033-3 .655-1.79 1.02-3 .916-2.763 1.224-3.452.779-2.218 1.045-3.4.61-2.238.764-2.348.582-1.28.952-2.6.913-2.94 1.209-3.6.762-2.1 1.034-3.2.614-2.09.759-2.2c.347-.263 1.606-4.832 1.606-5.829 0-.477-1.883-2.528-4.9-5.335l-8.112-7.597-8.385-7.839c-15.45-14.337-16.101-14.991-17.005-17.092-1.455-3.385-.245-7.339 2.88-9.408l1.663-1.1 25.429-.212 25.512-.3c.045-.048.2-.763.344-1.588s.586-2.22.981-3.1c.782-1.741 2.063-5.529 3.045-9 .342-1.21.766-2.38.942-2.6s.637-1.57 1.026-3 .841-2.78 1.007-3 .604-1.57.973-3 .816-2.78.993-3 .638-1.57 1.027-3 .839-2.78 1.003-3 .513-1.21.774-2.2.711-2.34.999-3c.788-1.803 3.404-9.978 3.404-10.637 0-.316.384-1.292.854-2.169s.838-1.684.818-1.794c-.071-.382.386-2.205.8-3.2.583-1.397.894-6 .406-6-.215 0-.697-1.247-1.071-2.77s-1.009-3.07-1.414-3.436-.854-1.369-.999-2.23-.416-1.564-.6-1.564-.558-.99-.829-2.2-.657-2.2-.857-2.2c-.67 0-1.516-1.14-1.763-2.377-.135-.673-.39-1.223-.566-1.223s-.549-1.018-.828-2.261-.898-2.729-1.377-3.3-.998-1.624-1.154-2.339-.421-1.3-.588-1.3-.535-1.028-.816-2.284c-.352-1.575-.868-2.618-1.663-3.36-.634-.592-1.153-1.365-1.153-1.716s-.18-.64-.4-.64-.4-.216-.4-.48c0-.909-1.378-5.12-1.675-5.12-1.021 0-2.622-2.429-3.107-4.716-.29-1.366-.654-2.484-.809-2.484s-.498-.72-.762-1.6-.709-1.6-.99-1.6c-.306 0-.794-1.202-1.218-3-.389-1.65-.872-3-1.073-3s-.372-.315-.379-.7c-.014-.802-.901-2.1-1.435-2.1-.516 0-1.205-1.22-1.533-2.713-.155-.708-.435-1.287-.622-1.287s-.567-1.016-.845-2.257c-.331-1.48-.735-2.318-1.172-2.432s-.837-.936-1.152-2.343c-.267-1.192-.632-2.168-.812-2.168s-.438-.585-.574-1.3c-.164-.864-.633-1.52-1.402-1.957-.87-.495-1.224-1.063-1.433-2.3-.152-.904-.411-1.643-.575-1.643s-.626-1.318-1.027-2.928c-.605-2.429-.926-3.042-1.884-3.591-.635-.365-1.421-1.301-1.747-2.081s-.925-1.751-1.331-2.157-.969-1.707-1.252-2.891-.832-2.377-1.221-2.652-.834-1.086-.989-1.8-.425-1.392-.6-1.504-.568-1.193-.872-2.4c-.515-2.042-.658-2.222-2.032-2.567-.812-.203-1.477-.503-1.477-.665s-1.35-.614-3-1.003-3-.839-3-1-1.35-.611-3-1-3-.828-3-.975-1.17-.584-2.6-.971-2.6-.831-2.6-.986-1.35-.601-3-.99-3-.843-3-1.009c0-.619-4.396-1.332-5.019-.814-.375.311-.581.331-.581.057a.9.9 0 0 1 .4-.673c.509-.314.521-1 .018-1-.21 0-.5.632-.645 1.404M219.6 251.2c0 .219.819 2.784 1.82 5.7l7.202 21.3 7.384 21.8 17.474 51.791c5.219 15.528 4.645 14.264 5.814 12.791 3.748-4.72 3.848-9.78.397-19.982L250.01 316l-11.016-32.6-7.381-21.8-3.61-10.7c-.009-.334-8.403-.035-8.403.3" fill="#045aa7"/><path d="M174.931 27.1h48.4c13.238-.059 2.289-.106-24.331-.106l-24.069.106M146.97 251.191l-25.229.209-1.663 1.1c-3.125 2.069-4.335 6.023-2.88 9.408.904 2.101 1.555 2.755 17.005 17.092l8.385 7.839 8.112 7.597c2.987 2.779 4.9 4.859 4.9 5.328 0 .423.119.65.264.505s.516.095.823.534.818.797 1.136.797.577.27.577.6.159.6.353.6 1.86 1.527 3.7 3.394 3.482 3.397 3.647 3.4.976.699 1.8 1.545a64.72 64.72 0 0 0 3.376 3.158c1.031.89 1.77 1.723 1.642 1.851s.105.363.517.521 2.103 1.591 3.757 3.183c6.899 6.642 10.102 9.555 10.639 9.677a.76.76 0 0 1 .569.7c0 .314.159.571.353.571s1.86 1.527 3.7 3.394 3.469 3.397 3.619 3.4c.261.006 4.635 4.083 11.163 10.406 1.704 1.65 3.608 3.431 4.231 3.957 1.438 1.213 9.564 8.778 12.39 11.534 1.179 1.151 2.144 1.997 2.144 1.882s.969.744 2.154 1.909c2.844 2.798 2.908 2.844 6.095 4.387L237 373l50.987.107 50.537-.343c-.331-.331-12.224-.413-44.688-.308-24.33.079-44.236.029-44.236-.111s.586-.366 1.303-.5c1.786-.335 5.86-3.065 7.34-4.919 1.613-2.02 3.365-5.056 3.325-5.761-.018-.311-.333.072-.7.849-.761 1.611-2.394 3.793-2.65 3.538-.093-.094-2.225-6.286-4.738-13.761L236.354 301l-15.659-46.3-1.294-3.9-23.601.091-48.83.3m83.659 7.609c.147.55.435 1.27.638 1.6.258.417.29.295.104-.4-.147-.55-.435-1.27-.638-1.6-.258-.417-.29-.295-.104.4m2 6c.147.55.435 1.27.638 1.6.258.417.29.295.104-.4-.147-.55-.435-1.27-.638-1.6-.258-.417-.29-.295-.104.4m6 17.6c.147.55.435 1.27.638 1.6.258.417.29.295.104-.4-.147-.55-.435-1.27-.638-1.6-.258-.417-.29-.295-.104.4m2 6c.147.55.435 1.27.638 1.6.258.417.29.295.104-.4-.147-.55-.435-1.27-.638-1.6-.258-.417-.29-.295-.104.4m7.625 22.4c.135.55.491 1.54.791 2.2.439.964.498 1.003.301.2-.135-.55-.491-1.54-.791-2.2-.439-.964-.498-1.003-.301-.2m2 6c.135.55.491 1.54.791 2.2.439.964.498 1.003.301.2-.135-.55-.491-1.54-.791-2.2-.439-.964-.498-1.003-.301-.2m6 17.6c.135.55.491 1.54.791 2.2.439.964.498 1.003.301.2-.135-.55-.491-1.54-.791-2.2-.439-.964-.498-1.003-.301-.2m1.975 6c.147.55.435 1.27.638 1.6.258.417.29.295.104-.4-.147-.55-.435-1.27-.638-1.6-.258-.417-.29-.295-.104.4m2 6c.147.55.435 1.27.638 1.6.258.417.29.295.104-.4-.147-.55-.435-1.27-.638-1.6-.258-.417-.29-.295-.104.4m1.95 9.077c-.012 2.002.1 3.091.26 2.523.353-1.254.364-3.907.021-5.123-.143-.508-.27.662-.281 2.6M22.011 368.662a20.68 20.68 0 0 1 1.889 1.47c.495.444.9.621.9.392 0-.448-2.805-2.524-3.411-2.524-.202 0 .078.298.622.662m13.096 4.428c.719.089 1.799.087 2.4-.004s.013-.164-1.307-.162-1.812.077-1.093.166" fill="#047bd4"/><path d="M134.607 27.227c-1.097.183-2.057.522-2.134.753s-.363.42-.635.42c-.841 0-3.478 1.426-3.183 1.721.153.154.016.279-.305.279-.634 0-3.55 2.978-3.55 3.626 0 .22-.269.502-.598.628s-.51.371-.404.543-.075.535-.402.807-.596.819-.596 1.216-.24.962-.533 1.255c-.543.543-.85 1.506-1.658 5.196-.104.478-.419 1.016-.7 1.193s-.383.327-.229.33.016.635-.305 1.404l-.589 1.598c-.026 1.005-.565 2.604-.879 2.604-.216 0-.291.264-.167.587s.037.703-.192.845-.329.598-.22 1.013.05.755-.13.755-.449.721-.598 1.602c-.169.998-.434 1.501-.703 1.334s-.344-.034-.201.336c.127.332-.112 1.372-.532 2.31s-.764 2.136-.764 2.662-.191.956-.424.956-.32.168-.193.372a.45.45 0 0 1-.159.613c-.214.132-.287.507-.162.833s.021.841-.231 1.145-.433.707-.402.895c.117.697-.532 2.126-.87 1.917-.192-.119-.24.07-.106.419s-.059.97-.429 1.379c-.522.578-.556.787-.148.936.42.153.425.296.024.721-.695.736-.629 1.375.081.786.623-.518 5.019.195 5.019.814 0 .166 1.35.62 3 1.009s3 .834 3 .99 1.17.599 2.6.986 2.6.824 2.6.971 1.35.586 3 .975 3 .839 3 1 1.35.611 3 1 3 .84 3 1.003.665.462 1.477.665c1.374.345 1.517.525 2.032 2.567.304 1.207.697 2.287.872 2.4s.445.789.6 1.504.601 1.524.989 1.8.939 1.469 1.221 2.652.846 2.485 1.252 2.891 1.005 1.377 1.331 2.157 1.112 1.716 1.747 2.081c.958.549 1.279 1.162 1.884 3.591.401 1.61.863 2.928 1.027 2.928s.423.739.575 1.643c.209 1.237.563 1.805 1.433 2.3.769.437 1.238 1.093 1.402 1.957.136.715.394 1.3.574 1.3s.545.976.812 2.168c.315 1.407.719 2.23 1.152 2.343s.841.952 1.172 2.432c.278 1.241.658 2.257.845 2.257s.467.579.622 1.287c.328 1.493 1.017 2.713 1.533 2.713.534 0 1.421 1.298 1.435 2.1.007.385.178.7.379.7s.684 1.35 1.073 3c.424 1.798.912 3 1.218 3 .281 0 .727.72.99 1.6s.607 1.6.762 1.6.519 1.118.809 2.484c.485 2.287 2.086 4.716 3.107 4.716.297 0 1.675 4.211 1.675 5.12 0 .264.18.48.4.48s.4.288.4.64.519 1.124 1.153 1.716c.795.742 1.311 1.785 1.663 3.36.281 1.256.648 2.284.816 2.284s.432.585.588 1.3.675 1.767 1.154 2.339 1.099 2.056 1.377 3.3.651 2.261.828 2.261.431.55.566 1.223c.247 1.237 1.093 2.377 1.763 2.377.2 0 .586.99.857 2.2s.644 2.2.829 2.2.455.704.6 1.564.595 1.864.999 2.23 1.041 1.912 1.414 3.436.865 2.77 1.092 2.77c.263 0 .328.822.18 2.257-.155 1.497-.099 2.123.165 1.859.219-.219.444-.832.501-1.363s.396-1.553.754-2.27.942-2.335 1.298-3.594.894-2.829 1.195-3.489.771-2.1 1.043-3.2.612-2.09.756-2.2.685-1.703 1.202-3.539l.941-3.34-5.265-15.66L173.405 89.4l-11.65-34.6c-7.502-22.37-9.74-25.637-18.534-27.043-.901-.144-1.735-.418-1.853-.61-.261-.421-4.027-.377-6.761.08M110.8 74.376c0 .281-.26.41-.58.287-.387-.148-.505-.03-.357.357.123.319.023.58-.22.58s-.443.163-.443.363.354.27.787.156c.786-.205 1.496-1.569 1.05-2.016-.131-.13-.237-.007-.237.273m-1.283 2.459c-.376.213-.584.647-.462.965.193.503.301.501.816-.014.786-.786.537-1.453-.354-.951m-1.59 4.869c-.698.562-1.344 2.077-.722 1.693.217-.134.398-.549.401-.921.005-.523.083-.555.344-.142.269.422.394.39.604-.158.35-.913.127-1.081-.627-.472" fill="#04407d"/></svg>