<svg id="svg" version="1.1" xmlns="http://www.w3.org/2000/svg" xmlns:xlink="http://www.w3.org/1999/xlink" width="400" height="400" viewBox="0, 0, 400,400"><g id="svgg"><path id="path0" d="M143.500 27.128 C 143.995 27.198,144.400 27.378,144.400 27.528 C 144.400 27.678,167.620 27.754,196.000 27.697 C 224.380 27.640,247.600 27.460,247.600 27.297 C 247.600 27.134,223.975 27.000,195.100 27.000 C 166.225 27.000,143.005 27.058,143.500 27.128 M335.467 211.067 C 334.987 211.547,335.187 212.267,335.800 212.267 C 336.130 212.267,336.400 212.117,336.400 211.933 C 336.400 211.750,336.209 211.600,335.976 211.600 C 335.743 211.600,335.664 211.420,335.800 211.200 C 336.080 210.747,335.870 210.663,335.467 211.067 M333.400 213.299 C 332.520 213.528,331.694 213.878,331.565 214.077 C 331.435 214.276,330.357 214.695,329.168 215.008 C 327.980 215.322,326.946 215.763,326.870 215.989 C 326.795 216.215,326.499 216.400,326.213 216.400 C 325.516 216.400,321.453 217.697,321.200 218.000 C 320.947 218.303,316.884 219.600,316.187 219.600 C 315.901 219.600,315.605 219.785,315.530 220.011 C 315.454 220.237,314.406 220.682,313.200 221.000 C 311.994 221.318,310.946 221.763,310.870 221.989 C 310.795 222.215,310.499 222.400,310.213 222.400 C 309.516 222.400,305.453 223.697,305.200 224.000 C 304.947 224.303,300.884 225.600,300.187 225.600 C 299.901 225.600,299.605 225.785,299.530 226.011 C 299.454 226.237,298.406 226.682,297.200 227.000 C 295.994 227.318,294.946 227.763,294.870 227.989 C 294.795 228.215,294.499 228.400,294.213 228.400 C 293.516 228.400,289.453 229.697,289.200 230.000 C 288.947 230.303,284.884 231.600,284.187 231.600 C 283.901 231.600,283.605 231.785,283.530 232.011 C 283.454 232.237,282.406 232.682,281.200 233.000 C 279.994 233.318,278.946 233.763,278.870 233.989 C 278.795 234.215,278.499 234.400,278.213 234.400 C 277.516 234.400,273.453 235.697,273.200 236.000 C 272.947 236.303,268.884 237.600,268.187 237.600 C 267.901 237.600,267.605 237.785,267.530 238.011 C 267.454 238.237,266.406 238.682,265.200 239.000 C 263.994 239.318,262.946 239.763,262.870 239.989 C 262.795 240.215,262.499 240.400,262.213 240.400 C 261.516 240.400,257.453 241.697,257.200 242.000 C 256.947 242.303,252.884 243.600,252.187 243.600 C 251.901 243.600,251.605 243.785,251.530 244.011 C 251.454 244.237,250.406 244.682,249.200 245.000 C 247.994 245.318,246.946 245.763,246.870 245.989 C 246.795 246.215,246.499 246.400,246.213 246.400 C 245.516 246.400,241.453 247.697,241.200 248.000 C 240.947 248.303,236.884 249.600,236.187 249.600 C 235.901 249.600,235.605 249.785,235.530 250.011 C 235.454 250.237,234.406 250.682,233.200 251.000 C 231.994 251.318,230.946 251.763,230.870 251.989 C 230.629 252.713,229.263 252.428,229.000 251.600 C 228.860 251.160,228.568 250.800,228.349 250.800 C 228.131 250.800,228.071 250.991,228.214 251.223 C 228.450 251.605,234.215 268.462,241.612 290.400 C 243.132 294.910,246.729 305.530,249.603 314.000 C 263.910 356.152,263.309 354.028,262.235 358.684 C 260.780 364.999,255.653 370.954,250.903 371.845 C 250.186 371.979,249.600 372.204,249.600 372.345 C 249.600 372.485,269.493 372.535,293.807 372.457 C 326.305 372.351,338.158 372.433,338.559 372.766 C 340.136 374.075,371.695 373.116,373.129 371.716 C 373.419 371.432,373.879 371.200,374.150 371.200 C 374.765 371.200,377.974 368.886,378.858 367.805 C 379.220 367.362,379.890 366.574,380.346 366.052 C 380.803 365.531,381.296 364.721,381.442 364.252 C 381.588 363.784,381.882 363.288,382.094 363.151 C 383.933 361.969,383.877 349.671,382.023 347.426 C 381.830 347.192,381.376 345.857,381.015 344.461 C 380.653 343.064,380.204 341.624,380.016 341.261 C 379.551 340.363,378.400 336.440,378.400 335.754 C 378.400 335.449,378.258 335.200,378.084 335.200 C 377.910 335.200,377.444 333.985,377.049 332.500 C 376.653 331.015,376.191 329.620,376.022 329.400 C 375.852 329.180,375.384 327.740,374.982 326.200 C 374.579 324.660,374.136 323.310,373.998 323.200 C 373.860 323.090,373.450 322.010,373.086 320.800 C 372.722 319.590,371.777 316.800,370.986 314.600 C 370.194 312.400,369.298 309.627,368.995 308.437 C 368.691 307.247,368.298 306.167,368.121 306.037 C 367.766 305.775,367.735 305.676,366.900 302.102 C 366.579 300.728,366.156 299.704,365.958 299.826 C 365.761 299.948,365.600 299.709,365.600 299.295 C 365.600 298.501,364.668 295.418,363.818 293.400 C 363.539 292.740,363.075 291.300,362.786 290.200 C 362.496 289.100,362.145 288.110,362.005 288.000 C 361.865 287.890,361.421 286.540,361.018 285.000 C 360.616 283.460,360.155 282.020,359.995 281.800 C 359.657 281.336,358.855 278.925,358.603 277.618 C 358.508 277.123,358.253 276.505,358.036 276.243 C 357.819 275.982,357.466 275.056,357.252 274.184 C 356.767 272.216,354.909 266.837,354.395 265.916 C 354.185 265.540,354.131 264.925,354.274 264.550 C 354.430 264.146,354.375 263.968,354.140 264.114 C 353.913 264.254,353.428 263.129,353.005 261.479 C 352.599 259.896,352.137 258.510,351.979 258.400 C 351.706 258.210,350.423 253.965,350.316 252.900 C 350.289 252.625,350.117 252.400,349.933 252.400 C 349.750 252.400,349.600 252.151,349.600 251.846 C 349.600 251.159,348.320 247.074,348.020 246.800 C 347.899 246.690,347.480 245.348,347.089 243.817 C 346.698 242.286,346.230 240.936,346.049 240.817 C 345.868 240.698,345.599 240.060,345.452 239.400 C 345.306 238.740,345.113 237.930,345.023 237.600 C 344.934 237.270,344.847 236.764,344.831 236.476 C 344.814 236.185,344.595 236.079,344.337 236.239 C 344.020 236.435,343.945 236.253,344.100 235.662 C 344.224 235.187,344.182 234.888,344.006 234.996 C 343.830 235.105,343.597 234.610,343.488 233.897 C 343.144 231.648,342.833 230.667,342.375 230.385 C 342.131 230.234,341.959 230.041,341.992 229.955 C 342.053 229.797,341.808 228.953,341.337 227.700 C 341.192 227.315,341.110 226.775,341.154 226.500 C 341.199 226.225,341.037 226.000,340.794 226.000 C 340.551 226.000,340.469 225.812,340.611 225.582 C 340.753 225.353,340.653 224.905,340.390 224.588 C 340.126 224.270,340.019 223.729,340.151 223.384 C 340.289 223.024,340.223 222.862,339.995 223.003 C 339.778 223.137,339.600 222.877,339.600 222.424 C 339.600 221.971,339.409 221.600,339.176 221.600 C 338.943 221.600,338.869 221.412,339.011 221.182 C 339.153 220.953,339.096 220.548,338.886 220.282 C 338.675 220.017,338.554 219.485,338.616 219.100 C 338.678 218.715,338.571 218.400,338.377 218.400 C 338.184 218.400,338.140 218.100,338.281 217.734 C 338.452 217.287,338.383 217.164,338.068 217.358 C 337.757 217.550,337.600 217.303,337.600 216.624 C 337.600 216.061,337.409 215.600,337.176 215.600 C 336.943 215.600,336.869 215.412,337.011 215.182 C 337.343 214.646,336.136 212.787,335.491 212.841 C 335.221 212.864,334.280 213.070,333.400 213.299 " stroke="none" fill="#279ce3" fill-rule="evenodd"></path><path id="path1" d="M247.600 27.167 C 247.600 27.475,232.748 27.608,196.100 27.627 C 153.549 27.649,144.885 27.743,146.241 28.167 C 152.787 30.216,155.060 33.639,160.370 49.446 C 162.357 55.361,166.331 67.130,169.201 75.600 C 172.072 84.070,176.134 96.130,178.228 102.400 C 180.322 108.670,182.142 114.070,182.272 114.400 C 182.715 115.523,190.433 138.189,191.193 140.600 C 191.609 141.920,193.411 147.230,195.196 152.400 C 199.621 165.214,200.042 166.606,200.414 169.639 C 200.592 171.090,201.178 173.340,201.716 174.639 C 202.253 175.937,202.821 177.540,202.977 178.200 C 203.134 178.860,203.496 179.940,203.783 180.600 C 204.468 182.175,205.812 186.259,206.876 190.000 C 207.346 191.650,207.851 193.090,207.998 193.200 C 208.146 193.310,208.601 194.705,209.010 196.300 C 209.420 197.895,209.879 199.200,210.033 199.200 C 210.186 199.200,210.436 199.875,210.589 200.700 C 210.741 201.525,211.122 202.744,211.435 203.408 C 211.748 204.072,212.351 205.782,212.776 207.208 C 213.615 210.028,215.428 215.321,215.992 216.600 C 216.186 217.040,216.560 218.120,216.824 219.000 C 217.088 219.880,217.438 220.780,217.601 221.000 C 217.764 221.220,217.846 221.715,217.784 222.100 C 217.722 222.485,217.805 222.800,217.968 222.800 C 218.132 222.800,218.602 224.150,219.013 225.800 C 219.424 227.450,219.904 228.800,220.080 228.800 C 220.256 228.800,220.400 229.058,220.400 229.374 C 220.400 229.690,220.609 230.455,220.865 231.074 C 221.120 231.693,221.294 232.354,221.251 232.542 C 221.207 232.730,221.374 233.127,221.620 233.425 C 221.867 233.722,221.953 234.153,221.811 234.382 C 221.669 234.612,221.725 234.800,221.936 234.800 C 222.148 234.800,222.536 235.700,222.800 236.800 C 223.064 237.900,223.426 238.800,223.605 238.800 C 223.783 238.800,223.885 239.102,223.831 239.471 C 223.777 239.840,223.981 240.641,224.285 241.250 C 224.589 241.860,224.930 242.773,225.042 243.279 C 225.329 244.572,225.420 244.861,225.910 246.050 C 226.148 246.628,226.548 247.863,226.799 248.795 C 227.091 249.880,227.528 250.561,228.014 250.688 C 228.432 250.797,228.882 251.227,229.014 251.643 C 229.266 252.438,230.635 252.694,230.870 251.989 C 230.946 251.763,231.994 251.318,233.200 251.000 C 234.406 250.682,235.454 250.237,235.530 250.011 C 235.605 249.785,235.901 249.600,236.187 249.600 C 236.884 249.600,240.947 248.303,241.200 248.000 C 241.453 247.697,245.516 246.400,246.213 246.400 C 246.499 246.400,246.795 246.215,246.870 245.989 C 246.946 245.763,247.994 245.318,249.200 245.000 C 250.406 244.682,251.454 244.237,251.530 244.011 C 251.605 243.785,251.901 243.600,252.187 243.600 C 252.884 243.600,256.947 242.303,257.200 242.000 C 257.453 241.697,261.516 240.400,262.213 240.400 C 262.499 240.400,262.795 240.215,262.870 239.989 C 262.946 239.763,263.994 239.318,265.200 239.000 C 266.406 238.682,267.454 238.237,267.530 238.011 C 267.605 237.785,267.901 237.600,268.187 237.600 C 268.884 237.600,272.947 236.303,273.200 236.000 C 273.453 235.697,277.516 234.400,278.213 234.400 C 278.499 234.400,278.795 234.215,278.870 233.989 C 278.946 233.763,279.994 233.318,281.200 233.000 C 282.406 232.682,283.454 232.237,283.530 232.011 C 283.605 231.785,283.901 231.600,284.187 231.600 C 284.884 231.600,288.947 230.303,289.200 230.000 C 289.453 229.697,293.516 228.400,294.213 228.400 C 294.499 228.400,294.795 228.215,294.870 227.989 C 294.946 227.763,295.994 227.318,297.200 227.000 C 298.406 226.682,299.454 226.237,299.530 226.011 C 299.605 225.785,299.901 225.600,300.187 225.600 C 300.884 225.600,304.947 224.303,305.200 224.000 C 305.453 223.697,309.516 222.400,310.213 222.400 C 310.499 222.400,310.795 222.215,310.870 221.989 C 310.946 221.763,311.994 221.318,313.200 221.000 C 314.406 220.682,315.454 220.237,315.530 220.011 C 315.605 219.785,315.901 219.600,316.187 219.600 C 316.884 219.600,320.947 218.303,321.200 218.000 C 321.453 217.697,325.516 216.400,326.213 216.400 C 326.499 216.400,326.795 216.215,326.870 215.989 C 326.946 215.763,327.980 215.322,329.168 215.008 C 330.357 214.695,331.435 214.279,331.565 214.084 C 332.274 213.017,335.773 212.727,336.546 213.671 L 337.307 214.600 336.999 213.600 C 336.667 212.518,336.028 211.935,335.519 212.250 C 335.344 212.358,335.200 212.177,335.200 211.847 C 335.200 211.517,335.408 211.119,335.662 210.962 C 335.948 210.785,336.015 210.852,335.838 211.138 C 335.681 211.392,335.758 211.600,336.010 211.600 C 336.261 211.600,336.387 211.375,336.290 211.100 C 336.193 210.825,335.818 210.625,335.457 210.656 C 335.096 210.686,334.800 210.551,334.800 210.356 C 334.800 210.160,334.980 210.000,335.200 210.000 C 335.420 210.000,335.600 209.801,335.600 209.557 C 335.600 209.301,335.306 209.226,334.900 209.381 C 334.339 209.595,334.299 209.548,334.700 209.144 C 335.282 208.558,335.381 207.441,334.821 207.787 C 334.612 207.916,334.511 207.660,334.596 207.219 C 334.681 206.778,334.590 206.317,334.393 206.196 C 334.196 206.074,334.136 205.710,334.260 205.387 C 334.384 205.064,334.320 204.800,334.118 204.800 C 333.916 204.800,333.514 203.855,333.224 202.700 C 332.934 201.545,332.525 200.383,332.314 200.118 C 332.103 199.852,332.047 199.447,332.189 199.218 C 332.331 198.988,332.277 198.800,332.068 198.800 C 331.860 198.800,331.563 198.126,331.408 197.303 C 331.254 196.480,331.014 195.625,330.875 195.403 C 330.736 195.181,330.591 194.820,330.553 194.600 C 330.382 193.610,330.183 192.985,329.981 192.800 C 329.741 192.581,328.383 188.106,328.311 187.300 C 328.287 187.025,328.151 186.800,328.009 186.800 C 327.867 186.800,327.514 185.855,327.224 184.700 C 326.934 183.545,326.550 182.414,326.371 182.186 C 326.191 181.958,325.654 180.338,325.178 178.586 C 324.701 176.834,324.168 175.220,323.993 175.000 C 323.608 174.514,322.212 169.921,322.322 169.500 C 322.365 169.335,322.242 169.200,322.049 169.200 C 321.855 169.200,321.393 167.988,321.021 166.508 C 320.649 165.027,320.199 163.632,320.021 163.408 C 319.843 163.183,319.366 161.695,318.960 160.100 C 318.555 158.505,318.101 157.200,317.951 157.200 C 317.802 157.200,317.458 156.255,317.186 155.100 C 316.915 153.945,316.475 152.550,316.209 152.000 C 315.942 151.450,315.491 150.100,315.206 149.000 C 314.921 147.900,314.459 146.460,314.179 145.800 C 313.696 144.660,312.258 140.425,312.210 140.000 C 312.198 139.890,312.078 139.620,311.943 139.400 C 311.808 139.180,311.374 137.920,310.978 136.600 C 310.581 135.280,310.229 134.110,310.195 134.000 C 310.161 133.890,309.936 133.327,309.695 132.750 C 309.455 132.172,309.047 130.912,308.790 129.950 C 308.532 128.987,308.175 128.020,307.997 127.800 C 307.818 127.580,307.369 126.230,307.000 124.800 C 306.631 123.370,306.186 122.020,306.013 121.800 C 305.839 121.580,305.395 120.320,305.026 119.000 C 304.657 117.680,304.105 116.052,303.798 115.382 C 303.491 114.712,303.041 113.276,302.798 112.192 C 302.555 111.107,302.216 110.126,302.044 110.010 C 301.873 109.895,301.440 108.720,301.083 107.400 C 300.394 104.852,298.635 99.536,298.039 98.200 C 297.599 97.214,296.255 93.136,295.140 89.400 C 294.680 87.860,294.171 86.510,294.010 86.400 C 293.848 86.290,293.490 85.210,293.213 84.000 C 292.936 82.790,292.488 81.440,292.218 81.000 C 291.947 80.560,291.408 78.895,291.020 77.300 C 290.631 75.705,290.189 74.400,290.037 74.400 C 289.885 74.400,289.424 73.050,289.013 71.400 C 288.602 69.750,288.152 68.400,288.013 68.400 C 287.874 68.400,287.424 67.050,287.013 65.400 C 286.602 63.750,286.147 62.400,286.002 62.400 C 285.856 62.400,285.525 61.478,285.265 60.352 C 285.005 59.225,284.540 57.740,284.231 57.052 C 283.923 56.363,283.369 54.810,283.000 53.600 C 282.631 52.390,282.101 50.860,281.821 50.200 C 281.541 49.540,281.075 48.100,280.786 47.000 C 280.496 45.900,280.145 44.910,280.005 44.800 C 279.865 44.690,279.418 43.340,279.012 41.800 C 278.605 40.260,278.158 38.910,278.019 38.800 C 277.880 38.690,277.514 37.816,277.205 36.857 C 276.896 35.899,276.409 35.025,276.122 34.915 C 275.835 34.805,275.600 34.508,275.600 34.255 C 275.600 33.482,271.376 29.667,269.740 28.962 C 268.893 28.597,267.660 28.006,267.000 27.649 C 265.522 26.850,247.600 26.405,247.600 27.167 M339.818 223.300 C 339.968 223.795,340.276 224.380,340.504 224.600 C 340.787 224.874,340.821 224.748,340.611 224.200 C 340.443 223.760,340.296 223.175,340.286 222.900 C 340.275 222.625,340.105 222.400,339.906 222.400 C 339.708 222.400,339.668 222.805,339.818 223.300 M343.757 235.033 C 343.891 235.381,344.000 235.841,344.000 236.056 C 344.000 236.271,344.189 236.331,344.419 236.188 C 344.710 236.008,344.711 235.775,344.423 235.428 C 344.194 235.152,344.125 234.808,344.270 234.663 C 344.415 234.518,344.304 234.400,344.024 234.400 C 343.724 234.400,343.614 234.660,343.757 235.033 " stroke="none" fill="#32baef" fill-rule="evenodd"></path><path id="path2" d="M141.400 27.200 C 141.536 27.420,142.042 27.597,142.524 27.594 C 143.236 27.589,143.288 27.515,142.800 27.200 C 142.012 26.691,141.085 26.691,141.400 27.200 M111.650 69.450 C 111.386 70.029,111.262 70.595,111.374 70.707 C 111.486 70.819,111.768 70.411,112.000 69.800 C 112.549 68.357,112.273 68.082,111.650 69.450 M110.573 73.004 C 110.428 73.777,110.150 74.507,109.955 74.628 C 109.760 74.749,109.600 75.044,109.600 75.285 C 109.600 75.525,109.960 75.307,110.400 74.800 C 111.190 73.890,111.430 74.135,110.957 75.367 C 110.824 75.715,110.474 76.000,110.181 76.000 C 109.887 76.000,109.517 76.211,109.358 76.468 C 109.164 76.783,109.287 76.852,109.734 76.681 C 110.549 76.368,110.607 77.050,109.832 77.825 C 109.476 78.181,109.211 78.234,109.123 77.968 C 109.045 77.734,108.698 78.464,108.352 79.590 C 107.848 81.235,107.830 81.597,108.262 81.432 C 108.892 81.190,108.945 81.557,108.400 82.400 C 108.055 82.933,108.010 82.933,107.993 82.400 C 107.966 81.597,106.431 84.806,106.414 85.700 C 106.406 86.085,106.250 86.400,106.067 86.400 C 105.883 86.400,105.714 86.625,105.690 86.900 C 105.566 88.337,104.285 92.168,103.819 92.494 C 103.589 92.656,103.524 92.791,103.675 92.794 C 103.827 92.797,103.313 94.555,102.535 96.700 C 101.756 98.845,100.922 101.410,100.681 102.400 C 100.440 103.390,100.111 104.293,99.949 104.407 C 99.787 104.520,99.286 105.870,98.836 107.407 C 97.568 111.738,96.392 115.284,95.788 116.600 C 95.486 117.260,95.032 118.610,94.780 119.600 C 94.528 120.590,94.188 121.580,94.023 121.800 C 93.859 122.020,93.408 123.370,93.020 124.800 C 92.631 126.230,92.169 127.580,91.993 127.800 C 91.816 128.020,91.369 129.370,91.000 130.800 C 90.631 132.230,90.178 133.582,89.994 133.805 C 89.810 134.028,89.436 135.108,89.164 136.205 C 88.892 137.302,88.333 138.993,87.923 139.961 C 87.512 140.930,86.992 142.545,86.766 143.551 C 86.541 144.557,86.208 145.474,86.027 145.590 C 85.845 145.705,85.328 147.060,84.877 148.600 C 83.165 154.450,82.204 157.407,81.953 157.600 C 81.810 157.710,81.374 158.970,80.984 160.400 C 80.594 161.830,80.057 163.450,79.791 164.000 C 79.525 164.550,79.085 165.945,78.814 167.100 C 78.542 168.255,78.198 169.200,78.049 169.200 C 77.899 169.200,77.445 170.505,77.040 172.100 C 76.634 173.695,76.162 175.180,75.990 175.400 C 75.819 175.620,75.464 176.610,75.203 177.600 C 74.942 178.590,74.494 179.940,74.208 180.600 C 73.652 181.883,70.012 192.748,68.914 196.400 C 68.550 197.610,68.140 198.690,68.002 198.800 C 67.864 198.910,67.421 200.260,67.018 201.800 C 66.616 203.340,66.151 204.780,65.986 205.000 C 65.821 205.220,65.365 206.570,64.972 208.000 C 64.579 209.430,64.144 210.690,64.004 210.800 C 63.865 210.910,63.420 212.242,63.015 213.760 C 62.610 215.278,62.046 216.988,61.762 217.560 C 61.478 218.132,61.014 219.500,60.730 220.600 C 60.446 221.700,60.111 222.690,59.987 222.800 C 59.637 223.109,58.400 227.199,58.400 228.046 C 58.400 228.461,58.247 228.800,58.059 228.800 C 57.872 228.800,57.393 230.015,56.995 231.500 C 56.598 232.985,56.150 234.290,56.000 234.400 C 55.850 234.510,55.395 235.860,54.988 237.400 C 54.582 238.940,54.132 240.290,53.988 240.400 C 53.845 240.510,53.395 241.860,52.988 243.400 C 52.582 244.940,52.132 246.290,51.988 246.400 C 51.845 246.510,51.395 247.860,50.988 249.400 C 50.582 250.940,50.132 252.290,49.988 252.400 C 49.845 252.510,49.395 253.860,48.988 255.400 C 48.582 256.940,48.105 258.300,47.928 258.421 C 47.752 258.543,47.303 259.893,46.931 261.421 C 46.560 262.950,46.113 264.298,45.939 264.417 C 45.764 264.536,45.302 265.886,44.911 267.417 C 44.520 268.948,44.083 270.290,43.940 270.400 C 43.797 270.510,43.370 271.680,42.991 273.000 C 42.613 274.320,42.173 275.580,42.014 275.800 C 41.854 276.020,41.491 277.100,41.206 278.200 C 40.921 279.300,40.467 280.740,40.196 281.400 C 39.925 282.060,39.470 283.410,39.184 284.400 C 38.899 285.390,38.355 286.920,37.976 287.800 C 37.598 288.680,37.059 290.435,36.780 291.700 C 36.501 292.965,36.121 294.000,35.936 294.000 C 35.751 294.000,35.600 294.242,35.600 294.538 C 35.600 294.834,35.231 296.139,34.780 297.438 C 34.329 298.737,33.588 301.060,33.132 302.600 C 32.676 304.140,32.152 305.496,31.967 305.614 C 31.782 305.732,31.367 306.957,31.046 308.337 C 30.724 309.716,30.251 311.097,29.996 311.405 C 29.740 311.713,29.647 312.153,29.789 312.382 C 29.931 312.612,29.898 312.800,29.715 312.800 C 29.532 312.800,29.144 313.822,28.854 315.070 C 28.564 316.319,28.089 317.714,27.800 318.170 C 27.510 318.627,27.064 320.035,26.808 321.300 C 26.553 322.565,26.197 323.600,26.019 323.600 C 25.737 323.600,25.056 325.752,24.573 328.171 C 24.488 328.594,24.277 329.044,24.103 329.171 C 23.930 329.297,23.460 330.659,23.059 332.198 C 22.657 333.737,22.191 335.087,22.023 335.198 C 21.854 335.309,21.490 336.390,21.213 337.600 C 20.936 338.810,20.492 340.160,20.225 340.600 C 19.495 341.804,19.155 342.875,19.588 342.608 C 19.796 342.479,19.715 342.858,19.407 343.451 C 19.100 344.043,18.732 345.220,18.589 346.065 C 18.446 346.911,18.187 347.516,18.014 347.409 C 17.841 347.302,17.383 348.718,16.998 350.556 C 16.299 353.885,16.410 359.711,17.180 360.188 C 17.352 360.294,17.406 360.833,17.301 361.385 C 17.170 362.068,17.315 362.469,17.754 362.638 C 18.109 362.774,18.400 363.136,18.400 363.443 C 18.400 363.749,18.574 364.000,18.787 364.000 C 19.001 364.000,19.071 364.270,18.945 364.600 C 18.818 364.930,18.914 365.200,19.157 365.200 C 19.401 365.200,19.555 365.425,19.500 365.700 C 19.445 365.975,19.641 366.150,19.934 366.089 C 20.228 366.027,20.566 366.349,20.685 366.805 C 20.804 367.260,21.425 367.902,22.064 368.233 C 22.735 368.580,23.110 369.022,22.951 369.279 C 22.791 369.538,22.857 369.612,23.111 369.455 C 23.349 369.308,24.033 369.640,24.631 370.193 C 25.228 370.747,25.871 371.223,26.058 371.250 C 26.246 371.278,26.580 371.345,26.800 371.400 C 27.020 371.455,27.391 371.523,27.624 371.550 C 27.857 371.578,27.933 371.784,27.794 372.010 C 27.655 372.235,27.689 372.387,27.870 372.346 C 28.052 372.306,28.517 372.412,28.905 372.581 C 29.332 372.768,29.875 372.675,30.282 372.345 C 30.651 372.045,30.831 372.004,30.681 372.254 C 30.178 373.095,32.399 373.133,77.800 373.066 L 123.000 373.000 125.359 371.878 C 129.224 370.041,134.451 365.053,133.732 363.889 C 133.588 363.657,133.670 363.596,133.919 363.750 C 134.196 363.921,134.533 363.384,134.821 362.312 C 135.073 361.370,135.604 359.880,136.001 359.000 C 136.397 358.120,136.852 356.770,137.012 356.000 C 137.171 355.230,137.487 354.150,137.712 353.600 C 137.938 353.050,138.178 352.420,138.246 352.200 C 138.816 350.347,139.765 347.553,140.218 346.400 C 140.520 345.630,140.990 344.190,141.264 343.200 C 141.537 342.210,141.876 341.310,142.017 341.200 C 142.157 341.090,142.601 339.740,143.002 338.200 C 143.404 336.660,143.855 335.220,144.005 335.000 C 144.155 334.780,144.582 333.610,144.954 332.400 C 145.326 331.190,145.791 329.840,145.987 329.400 C 146.183 328.960,146.642 327.610,147.007 326.400 C 147.372 325.190,147.923 323.637,148.231 322.948 C 148.540 322.260,149.010 320.730,149.276 319.548 C 149.542 318.367,149.886 317.310,150.040 317.200 C 150.194 317.090,150.622 315.920,150.992 314.600 C 151.361 313.280,151.905 311.660,152.201 311.000 C 152.498 310.340,152.963 308.900,153.235 307.800 C 153.507 306.700,153.849 305.710,153.994 305.600 C 154.341 305.337,155.600 300.768,155.600 299.771 C 155.600 299.294,153.717 297.243,150.700 294.436 C 148.005 291.929,144.355 288.510,142.588 286.839 C 140.821 285.167,137.048 281.640,134.203 279.000 C 118.753 264.663,118.102 264.009,117.198 261.908 C 115.743 258.523,116.953 254.569,120.078 252.500 L 121.741 251.400 147.170 251.188 C 161.157 251.072,172.637 250.937,172.682 250.888 C 172.727 250.840,172.882 250.125,173.026 249.300 C 173.171 248.475,173.612 247.080,174.007 246.200 C 174.789 244.459,176.070 240.671,177.052 237.200 C 177.394 235.990,177.818 234.820,177.994 234.600 C 178.170 234.380,178.631 233.030,179.020 231.600 C 179.408 230.170,179.861 228.820,180.027 228.600 C 180.193 228.380,180.631 227.030,181.000 225.600 C 181.369 224.170,181.816 222.820,181.993 222.600 C 182.169 222.380,182.631 221.030,183.020 219.600 C 183.408 218.170,183.859 216.820,184.023 216.600 C 184.188 216.380,184.536 215.390,184.797 214.400 C 185.058 213.410,185.508 212.060,185.796 211.400 C 186.584 209.597,189.200 201.422,189.200 200.763 C 189.200 200.447,189.584 199.471,190.054 198.594 C 190.524 197.717,190.892 196.910,190.872 196.800 C 190.801 196.418,191.258 194.595,191.672 193.600 C 192.255 192.203,192.566 187.600,192.078 187.600 C 191.863 187.600,191.381 186.353,191.007 184.830 C 190.634 183.306,189.998 181.760,189.593 181.394 C 189.189 181.028,188.739 180.025,188.594 179.164 C 188.449 178.304,188.178 177.600,187.994 177.600 C 187.809 177.600,187.436 176.610,187.165 175.400 C 186.894 174.190,186.508 173.200,186.308 173.200 C 185.638 173.200,184.792 172.060,184.545 170.823 C 184.410 170.150,184.155 169.600,183.979 169.600 C 183.802 169.600,183.430 168.582,183.151 167.339 C 182.873 166.095,182.253 164.610,181.774 164.039 C 181.295 163.467,180.776 162.415,180.620 161.700 C 180.464 160.985,180.199 160.400,180.032 160.400 C 179.864 160.400,179.497 159.372,179.216 158.116 C 178.864 156.541,178.348 155.498,177.553 154.756 C 176.919 154.164,176.400 153.391,176.400 153.040 C 176.400 152.688,176.220 152.400,176.000 152.400 C 175.780 152.400,175.600 152.184,175.600 151.920 C 175.600 151.011,174.222 146.800,173.925 146.800 C 172.904 146.800,171.303 144.371,170.818 142.084 C 170.528 140.718,170.164 139.600,170.009 139.600 C 169.854 139.600,169.511 138.880,169.247 138.000 C 168.984 137.120,168.538 136.400,168.257 136.400 C 167.951 136.400,167.463 135.198,167.039 133.400 C 166.650 131.750,166.167 130.400,165.966 130.400 C 165.765 130.400,165.594 130.085,165.587 129.700 C 165.573 128.898,164.686 127.600,164.152 127.600 C 163.636 127.600,162.947 126.380,162.619 124.887 C 162.464 124.179,162.184 123.600,161.997 123.600 C 161.810 123.600,161.430 122.584,161.152 121.343 C 160.821 119.863,160.417 119.025,159.980 118.911 C 159.547 118.798,159.143 117.975,158.828 116.568 C 158.561 115.376,158.196 114.400,158.016 114.400 C 157.836 114.400,157.578 113.815,157.442 113.100 C 157.278 112.236,156.809 111.580,156.040 111.143 C 155.170 110.648,154.816 110.080,154.607 108.843 C 154.455 107.939,154.196 107.200,154.032 107.200 C 153.868 107.200,153.406 105.882,153.005 104.272 C 152.400 101.843,152.079 101.230,151.121 100.681 C 150.486 100.316,149.700 99.380,149.374 98.600 C 149.048 97.820,148.449 96.849,148.043 96.443 C 147.637 96.037,147.074 94.736,146.791 93.552 C 146.509 92.369,145.959 91.175,145.570 90.900 C 145.182 90.624,144.736 89.814,144.581 89.100 C 144.426 88.385,144.156 87.708,143.981 87.596 C 143.806 87.483,143.413 86.403,143.109 85.196 C 142.594 83.154,142.451 82.974,141.077 82.629 C 140.265 82.426,139.600 82.126,139.600 81.964 C 139.600 81.801,138.250 81.350,136.600 80.961 C 134.950 80.572,133.600 80.122,133.600 79.961 C 133.600 79.800,132.250 79.350,130.600 78.961 C 128.950 78.572,127.600 78.133,127.600 77.986 C 127.600 77.839,126.430 77.402,125.000 77.015 C 123.570 76.628,122.400 76.184,122.400 76.029 C 122.400 75.873,121.050 75.428,119.400 75.039 C 117.750 74.650,116.400 74.196,116.400 74.030 C 116.400 73.411,112.004 72.698,111.381 73.216 C 111.006 73.527,110.800 73.547,110.800 73.273 C 110.800 73.039,110.980 72.736,111.200 72.600 C 111.709 72.286,111.721 71.600,111.218 71.600 C 111.008 71.600,110.718 72.232,110.573 73.004 M219.600 251.200 C 219.600 251.419,220.419 253.984,221.420 256.900 C 222.422 259.815,225.662 269.400,228.622 278.200 C 231.581 287.000,234.904 296.810,236.006 300.000 C 237.876 305.416,242.425 318.899,253.480 351.791 C 258.699 367.319,258.125 366.055,259.294 364.582 C 263.042 359.862,263.142 354.802,259.691 344.600 C 258.351 340.640,253.995 327.770,250.010 316.000 C 246.026 304.230,241.068 289.560,238.994 283.400 C 236.919 277.240,233.597 267.430,231.613 261.600 C 229.629 255.770,228.004 250.955,228.003 250.900 C 227.994 250.566,219.600 250.865,219.600 251.200 " stroke="none" fill="#045aa7" fill-rule="evenodd"></path><path id="path3" d="M174.931 27.100 C 188.313 27.158,210.093 27.158,223.331 27.100 C 236.569 27.041,225.620 26.994,199.000 26.994 C 172.380 26.994,161.549 27.042,174.931 27.100 M146.970 251.191 L 121.741 251.400 120.078 252.500 C 116.953 254.569,115.743 258.523,117.198 261.908 C 118.102 264.009,118.753 264.663,134.203 279.000 C 137.048 281.640,140.821 285.167,142.588 286.839 C 144.355 288.510,148.005 291.929,150.700 294.436 C 153.687 297.215,155.600 299.295,155.600 299.764 C 155.600 300.187,155.719 300.414,155.864 300.269 C 156.009 300.124,156.380 300.364,156.687 300.803 C 156.994 301.241,157.505 301.600,157.823 301.600 C 158.140 301.600,158.400 301.870,158.400 302.200 C 158.400 302.530,158.559 302.800,158.753 302.800 C 158.948 302.800,160.613 304.327,162.453 306.194 C 164.294 308.061,165.935 309.591,166.100 309.594 C 166.266 309.597,167.076 310.293,167.900 311.139 C 168.725 311.986,170.244 313.407,171.276 314.297 C 172.307 315.187,173.046 316.020,172.918 316.148 C 172.790 316.276,173.023 316.511,173.435 316.669 C 173.848 316.827,175.538 318.260,177.192 319.852 C 184.091 326.494,187.294 329.407,187.831 329.529 C 188.144 329.600,188.400 329.915,188.400 330.229 C 188.400 330.543,188.559 330.800,188.753 330.800 C 188.948 330.800,190.613 332.327,192.453 334.194 C 194.294 336.061,195.922 337.591,196.072 337.594 C 196.333 337.600,200.707 341.677,207.235 348.000 C 208.939 349.650,210.843 351.431,211.466 351.957 C 212.904 353.170,221.030 360.735,223.856 363.491 C 225.035 364.642,226.000 365.488,226.000 365.373 C 226.000 365.258,226.969 366.117,228.154 367.282 C 230.998 370.080,231.062 370.126,234.249 371.669 L 237.000 373.000 287.987 373.107 C 325.823 373.187,338.859 373.099,338.524 372.764 C 338.193 372.433,326.300 372.351,293.836 372.456 C 269.506 372.535,249.600 372.485,249.600 372.345 C 249.600 372.204,250.186 371.979,250.903 371.845 C 252.689 371.510,256.763 368.780,258.243 366.926 C 259.856 364.906,261.608 361.870,261.568 361.165 C 261.550 360.854,261.235 361.237,260.868 362.014 C 260.107 363.625,258.474 365.807,258.218 365.552 C 258.125 365.458,255.993 359.266,253.480 351.791 C 245.855 329.105,237.947 305.652,236.354 301.000 C 234.092 294.396,222.178 259.170,220.695 254.700 L 219.401 250.800 195.800 250.891 C 182.820 250.942,160.847 251.077,146.970 251.191 M230.629 258.800 C 230.776 259.350,231.064 260.070,231.267 260.400 C 231.525 260.817,231.557 260.695,231.371 260.000 C 231.224 259.450,230.936 258.730,230.733 258.400 C 230.475 257.983,230.443 258.105,230.629 258.800 M232.629 264.800 C 232.776 265.350,233.064 266.070,233.267 266.400 C 233.525 266.817,233.557 266.695,233.371 266.000 C 233.224 265.450,232.936 264.730,232.733 264.400 C 232.475 263.983,232.443 264.105,232.629 264.800 M238.629 282.400 C 238.776 282.950,239.064 283.670,239.267 284.000 C 239.525 284.417,239.557 284.295,239.371 283.600 C 239.224 283.050,238.936 282.330,238.733 282.000 C 238.475 281.583,238.443 281.705,238.629 282.400 M240.629 288.400 C 240.776 288.950,241.064 289.670,241.267 290.000 C 241.525 290.417,241.557 290.295,241.371 289.600 C 241.224 289.050,240.936 288.330,240.733 288.000 C 240.475 287.583,240.443 287.705,240.629 288.400 M248.254 310.800 C 248.389 311.350,248.745 312.340,249.045 313.000 C 249.484 313.964,249.543 314.003,249.346 313.200 C 249.211 312.650,248.855 311.660,248.555 311.000 C 248.116 310.036,248.057 309.997,248.254 310.800 M250.254 316.800 C 250.389 317.350,250.745 318.340,251.045 319.000 C 251.484 319.964,251.543 320.003,251.346 319.200 C 251.211 318.650,250.855 317.660,250.555 317.000 C 250.116 316.036,250.057 315.997,250.254 316.800 M256.254 334.400 C 256.389 334.950,256.745 335.940,257.045 336.600 C 257.484 337.564,257.543 337.603,257.346 336.800 C 257.211 336.250,256.855 335.260,256.555 334.600 C 256.116 333.636,256.057 333.597,256.254 334.400 M258.229 340.400 C 258.376 340.950,258.664 341.670,258.867 342.000 C 259.125 342.417,259.157 342.295,258.971 341.600 C 258.824 341.050,258.536 340.330,258.333 340.000 C 258.075 339.583,258.043 339.705,258.229 340.400 M260.229 346.400 C 260.376 346.950,260.664 347.670,260.867 348.000 C 261.125 348.417,261.157 348.295,260.971 347.600 C 260.824 347.050,260.536 346.330,260.333 346.000 C 260.075 345.583,260.043 345.705,260.229 346.400 M262.179 355.477 C 262.167 357.479,262.279 358.568,262.439 358.000 C 262.792 356.746,262.803 354.093,262.460 352.877 C 262.317 352.369,262.190 353.539,262.179 355.477 M22.011 368.662 C 22.555 369.027,23.405 369.688,23.900 370.132 C 24.395 370.576,24.800 370.753,24.800 370.524 C 24.800 370.076,21.995 368.000,21.389 368.000 C 21.187 368.000,21.467 368.298,22.011 368.662 M35.107 373.090 C 35.826 373.179,36.906 373.177,37.507 373.086 C 38.108 372.995,37.520 372.922,36.200 372.924 C 34.880 372.926,34.388 373.001,35.107 373.090 " stroke="none" fill="#047bd4" fill-rule="evenodd"></path><path id="path4" d="M134.607 27.227 C 133.510 27.410,132.550 27.749,132.473 27.980 C 132.396 28.211,132.110 28.400,131.838 28.400 C 130.997 28.400,128.360 29.826,128.655 30.121 C 128.808 30.275,128.671 30.400,128.350 30.400 C 127.716 30.400,124.800 33.378,124.800 34.026 C 124.800 34.246,124.531 34.528,124.202 34.654 C 123.874 34.781,123.692 35.025,123.798 35.197 C 123.904 35.369,123.723 35.732,123.396 36.004 C 123.068 36.276,122.800 36.823,122.800 37.220 C 122.800 37.618,122.560 38.182,122.267 38.475 C 121.724 39.018,121.417 39.981,120.609 43.671 C 120.505 44.149,120.190 44.687,119.909 44.864 C 119.629 45.042,119.526 45.191,119.680 45.194 C 119.833 45.197,119.696 45.829,119.375 46.598 C 119.054 47.367,118.789 48.086,118.786 48.196 C 118.760 49.201,118.221 50.800,117.907 50.800 C 117.691 50.800,117.616 51.064,117.740 51.387 C 117.864 51.710,117.777 52.090,117.548 52.232 C 117.318 52.374,117.219 52.830,117.328 53.245 C 117.436 53.660,117.378 54.000,117.198 54.000 C 117.018 54.000,116.749 54.721,116.600 55.602 C 116.431 56.600,116.166 57.103,115.897 56.936 C 115.631 56.772,115.553 56.902,115.696 57.272 C 115.823 57.604,115.584 58.644,115.164 59.582 C 114.744 60.520,114.400 61.718,114.400 62.244 C 114.400 62.770,114.209 63.200,113.976 63.200 C 113.743 63.200,113.656 63.368,113.783 63.572 C 113.909 63.777,113.838 64.053,113.624 64.185 C 113.410 64.317,113.337 64.692,113.462 65.018 C 113.587 65.344,113.483 65.859,113.231 66.163 C 112.978 66.467,112.798 66.870,112.829 67.058 C 112.946 67.755,112.297 69.184,111.959 68.975 C 111.767 68.856,111.719 69.045,111.853 69.394 C 111.987 69.744,111.794 70.364,111.424 70.773 C 110.902 71.351,110.868 71.560,111.276 71.709 C 111.696 71.862,111.701 72.005,111.300 72.430 C 110.605 73.166,110.671 73.805,111.381 73.216 C 112.004 72.698,116.400 73.411,116.400 74.030 C 116.400 74.196,117.750 74.650,119.400 75.039 C 121.050 75.428,122.400 75.873,122.400 76.029 C 122.400 76.184,123.570 76.628,125.000 77.015 C 126.430 77.402,127.600 77.839,127.600 77.986 C 127.600 78.133,128.950 78.572,130.600 78.961 C 132.250 79.350,133.600 79.800,133.600 79.961 C 133.600 80.122,134.950 80.572,136.600 80.961 C 138.250 81.350,139.600 81.801,139.600 81.964 C 139.600 82.126,140.265 82.426,141.077 82.629 C 142.451 82.974,142.594 83.154,143.109 85.196 C 143.413 86.403,143.806 87.483,143.981 87.596 C 144.156 87.708,144.426 88.385,144.581 89.100 C 144.736 89.814,145.182 90.624,145.570 90.900 C 145.959 91.175,146.509 92.369,146.791 93.552 C 147.074 94.736,147.637 96.037,148.043 96.443 C 148.449 96.849,149.048 97.820,149.374 98.600 C 149.700 99.380,150.486 100.316,151.121 100.681 C 152.079 101.230,152.400 101.843,153.005 104.272 C 153.406 105.882,153.868 107.200,154.032 107.200 C 154.196 107.200,154.455 107.939,154.607 108.843 C 154.816 110.080,155.170 110.648,156.040 111.143 C 156.809 111.580,157.278 112.236,157.442 113.100 C 157.578 113.815,157.836 114.400,158.016 114.400 C 158.196 114.400,158.561 115.376,158.828 116.568 C 159.143 117.975,159.547 118.798,159.980 118.911 C 160.417 119.025,160.821 119.863,161.152 121.343 C 161.430 122.584,161.810 123.600,161.997 123.600 C 162.184 123.600,162.464 124.179,162.619 124.887 C 162.947 126.380,163.636 127.600,164.152 127.600 C 164.686 127.600,165.573 128.898,165.587 129.700 C 165.594 130.085,165.765 130.400,165.966 130.400 C 166.167 130.400,166.650 131.750,167.039 133.400 C 167.463 135.198,167.951 136.400,168.257 136.400 C 168.538 136.400,168.984 137.120,169.247 138.000 C 169.511 138.880,169.854 139.600,170.009 139.600 C 170.164 139.600,170.528 140.718,170.818 142.084 C 171.303 144.371,172.904 146.800,173.925 146.800 C 174.222 146.800,175.600 151.011,175.600 151.920 C 175.600 152.184,175.780 152.400,176.000 152.400 C 176.220 152.400,176.400 152.688,176.400 153.040 C 176.400 153.391,176.919 154.164,177.553 154.756 C 178.348 155.498,178.864 156.541,179.216 158.116 C 179.497 159.372,179.864 160.400,180.032 160.400 C 180.199 160.400,180.464 160.985,180.620 161.700 C 180.776 162.415,181.295 163.467,181.774 164.039 C 182.253 164.610,182.873 166.095,183.151 167.339 C 183.430 168.582,183.802 169.600,183.979 169.600 C 184.155 169.600,184.410 170.150,184.545 170.823 C 184.792 172.060,185.638 173.200,186.308 173.200 C 186.508 173.200,186.894 174.190,187.165 175.400 C 187.436 176.610,187.809 177.600,187.994 177.600 C 188.178 177.600,188.449 178.304,188.594 179.164 C 188.739 180.025,189.189 181.028,189.593 181.394 C 189.998 181.760,190.634 183.306,191.007 184.830 C 191.381 186.353,191.872 187.600,192.099 187.600 C 192.362 187.600,192.427 188.422,192.279 189.857 C 192.124 191.354,192.180 191.980,192.444 191.716 C 192.663 191.497,192.888 190.884,192.945 190.353 C 193.001 189.822,193.341 188.800,193.699 188.083 C 194.057 187.365,194.641 185.748,194.997 184.489 C 195.353 183.230,195.891 181.660,196.192 181.000 C 196.494 180.340,196.963 178.900,197.235 177.800 C 197.507 176.700,197.847 175.710,197.991 175.600 C 198.135 175.490,198.676 173.897,199.193 172.061 L 200.134 168.721 194.869 153.061 C 188.416 133.865,181.595 113.632,173.405 89.400 C 169.985 79.280,164.743 63.710,161.755 54.800 C 154.253 32.430,152.015 29.163,143.221 27.757 C 142.320 27.613,141.486 27.339,141.368 27.147 C 141.107 26.726,137.341 26.770,134.607 27.227 M110.800 74.376 C 110.800 74.657,110.540 74.786,110.220 74.663 C 109.833 74.515,109.715 74.633,109.863 75.020 C 109.986 75.339,109.886 75.600,109.643 75.600 C 109.399 75.600,109.200 75.763,109.200 75.963 C 109.200 76.162,109.554 76.233,109.987 76.119 C 110.773 75.914,111.483 74.550,111.037 74.103 C 110.906 73.973,110.800 74.096,110.800 74.376 M109.517 76.835 C 109.141 77.048,108.933 77.482,109.055 77.800 C 109.248 78.303,109.356 78.301,109.871 77.786 C 110.657 77.000,110.408 76.333,109.517 76.835 M107.927 81.704 C 107.229 82.266,106.583 83.781,107.205 83.397 C 107.422 83.263,107.603 82.848,107.606 82.476 C 107.611 81.953,107.689 81.921,107.950 82.334 C 108.219 82.756,108.344 82.724,108.554 82.176 C 108.904 81.263,108.681 81.095,107.927 81.704 " stroke="none" fill="#04407d" fill-rule="evenodd"></path></g></svg>