<svg width="1280" height="347" viewBox="0 0 1280 347" fill="none" xmlns="http://www.w3.org/2000/svg">
<rect x="640.5" y="47.5" width="299" height="299" rx="31.5" stroke="#CDD0D5"/>
<path d="M727.895 183.432C725.451 178.01 727.865 171.633 733.287 169.189L804.465 137.099C809.887 134.655 816.264 137.069 818.708 142.491L850.798 213.669C853.242 219.091 850.828 225.468 845.406 227.913L774.228 260.002C768.806 262.446 762.429 260.032 759.984 254.61L727.895 183.432Z" fill="#06132D"/>
<path d="M727.895 183.432C727.085 181.635 726.808 179.733 726.998 177.905L741.709 174.885C741.047 172.718 740.593 170.468 740.593 168.523C740.593 167.611 740.644 166.711 740.744 165.827C742.015 154.574 751.143 145.846 762.216 145.846C767.054 145.846 771.521 147.512 775.122 150.328C775.938 150.965 776.709 151.661 777.43 152.41C780.279 155.276 785.424 155.276 800.387 155.276C810.822 155.276 820.371 158.876 828.233 164.822C828.551 165.063 828.847 165.327 829.13 165.607C829.589 166.061 830.013 166.555 830.436 167.048C830.602 167.24 830.767 167.433 830.935 167.623C835.196 172.462 845.852 177.11 856.545 178.154V191.615C854.916 199.026 851.84 203.724 848.11 207.707C846.231 209.713 844.025 211.538 841.43 213.436C839.83 214.451 837.897 214.775 836.023 214.494C829.032 213.446 823.509 213.154 819.919 213.154C788.85 213.154 766.158 230.358 764.47 259.542C762.557 258.454 760.958 256.771 759.984 254.61L727.895 183.432Z" fill="#53B18A"/>
<mask id="mask0_196_1182" style="mask-type:alpha" maskUnits="userSpaceOnUse" x="726" y="136" width="126" height="125">
<path d="M727.895 183.432C725.451 178.01 727.865 171.633 733.287 169.189L804.465 137.099C809.887 134.655 816.264 137.069 818.708 142.491L850.798 213.669C853.242 219.091 850.828 225.468 845.406 227.913L774.228 260.002C768.806 262.446 762.429 260.032 759.984 254.61L727.895 183.432Z" fill="#031E3D"/>
</mask>
<g mask="url(#mask0_196_1182)">
<path d="M746.66 225.047L764.372 264.323C764.37 263.725 764.37 263.224 764.37 263.074C764.37 232.186 786.977 213.672 818.581 213.165C791.436 213.408 766.503 217.811 746.66 225.047Z" fill="#66C0EE"/>
<path d="M817.198 213.198C790.319 213.835 766.378 221.259 750.097 232.665L764.373 264.322C764.372 263.725 764.371 263.224 764.371 263.074C764.371 232.639 786.32 214.217 817.198 213.198Z" fill="#1F60E0"/>
<path d="M807.463 214.14C784.439 217.551 765.345 229.523 755.932 245.608L764.371 264.323C764.37 263.725 764.37 263.224 764.37 263.074C764.37 235.946 781.808 218.363 807.463 214.14Z" fill="#4321B1"/>
</g>
<path d="M740.904 175.061C750.987 173.514 764.396 172.434 779.454 172.066C774.849 169.077 773.37 163.968 771.934 159.008C770.255 153.209 768.635 147.614 762.147 145.846C749.475 145.594 740.441 155.816 740.441 170.084C740.441 171.728 740.604 173.413 740.904 175.061Z" fill="#4321B1"/>
<path d="M856.6 191.615C856.6 191.615 860.045 190.95 858.918 180.698C858.75 179.167 857.792 177.962 856.6 177.782C856.085 177.704 855.581 177.649 855.136 177.649C852.68 177.649 851.646 177.874 850.254 179.236L846.49 182.903C846.138 183.246 846.153 183.816 846.522 184.14C851.181 188.229 855.271 191.615 856.6 191.615Z" fill="#4321B1"/>
<path fill-rule="evenodd" clip-rule="evenodd" d="M821.451 178.394C823.538 178.292 825.174 176.791 825.247 174.982L825.244 174.984C825.328 172.89 823.319 171.271 820.947 171.386C818.977 171.482 818.751 171.518 812.518 173.008C812.14 173.099 812.036 173.532 812.344 173.743C819.256 178.5 819.364 178.495 821.451 178.394Z" fill="white"/>
<rect x="980.5" y="47.5" width="299" height="299" rx="31.5" stroke="#CDD0D5"/>
<path d="M1068.56 200.799H1056.78V213.471C1056.78 213.689 1056.7 213.899 1056.54 214.053C1056.39 214.207 1056.18 214.294 1055.96 214.294H1050.82C1050.6 214.294 1050.39 214.207 1050.24 214.053C1050.09 213.899 1050 213.689 1050 213.471V181.388C1050.01 181.174 1050.09 180.97 1050.25 180.82C1050.4 180.67 1050.61 180.586 1050.82 180.586H1072.07C1072.29 180.586 1072.5 180.673 1072.66 180.827C1072.81 180.981 1072.9 181.19 1072.9 181.408V186.03C1072.9 186.248 1072.81 186.457 1072.66 186.612C1072.5 186.766 1072.29 186.852 1072.07 186.852H1056.78V194.552H1068.56C1068.78 194.552 1068.98 194.639 1069.14 194.793C1069.29 194.947 1069.38 195.156 1069.38 195.375V199.996C1069.37 200.211 1069.29 200.415 1069.13 200.565C1068.98 200.715 1068.77 200.799 1068.56 200.799Z" fill="#06132D"/>
<path d="M1095.4 180.002C1097.66 179.969 1099.9 180.36 1102.01 181.155C1103.79 181.804 1105.42 182.803 1106.8 184.093C1108.02 185.304 1109.03 186.702 1109.81 188.233C1110.58 189.69 1111.15 191.245 1111.51 192.855C1111.83 194.342 1111.99 195.857 1111.99 197.377C1111.99 198.92 1111.83 200.459 1111.51 201.969C1111.16 203.587 1110.58 205.148 1109.81 206.611C1109.03 208.143 1108.02 209.541 1106.8 210.752C1105.42 212.038 1103.79 213.027 1102.01 213.659C1099.9 214.439 1097.65 214.823 1095.4 214.792C1093.13 214.826 1090.87 214.442 1088.73 213.659C1086.96 213.027 1085.33 212.038 1083.95 210.752C1082.71 209.541 1081.67 208.144 1080.87 206.611C1080.08 205.153 1079.49 203.59 1079.14 201.969C1078.82 200.459 1078.65 198.92 1078.65 197.377C1078.66 195.857 1078.82 194.342 1079.14 192.855C1079.5 191.241 1080.08 189.686 1080.87 188.233C1081.67 186.7 1082.72 185.303 1083.96 184.093C1085.34 182.803 1086.97 181.804 1088.74 181.155C1090.87 180.359 1093.13 179.968 1095.4 180.002ZM1095.4 208.496C1096.86 208.517 1098.3 208.201 1099.62 207.573C1100.72 207.07 1101.69 206.322 1102.45 205.388C1103.15 204.494 1103.71 203.5 1104.11 202.44C1104.47 201.514 1104.75 200.553 1104.93 199.573C1105.05 198.84 1105.11 198.099 1105.12 197.357C1105.11 196.615 1105.05 195.874 1104.93 195.141C1104.75 194.17 1104.47 193.22 1104.11 192.304C1103.71 191.264 1103.17 190.288 1102.49 189.406C1101.72 188.469 1100.73 187.727 1099.62 187.241C1098.29 186.648 1096.85 186.361 1095.4 186.399C1093.91 186.37 1092.43 186.675 1091.07 187.291C1089.97 187.764 1088.99 188.488 1088.21 189.406C1087.54 190.298 1086.99 191.28 1086.59 192.324C1086.21 193.235 1085.93 194.187 1085.77 195.161C1085.54 196.63 1085.54 198.124 1085.77 199.593C1085.93 200.57 1086.21 201.525 1086.59 202.44C1086.99 203.493 1087.54 204.482 1088.22 205.378C1089 206.318 1089.98 207.066 1091.09 207.563C1092.44 208.185 1093.91 208.49 1095.4 208.456V208.496Z" fill="#06132D"/>
<path d="M1125.24 189.527C1125.25 190.041 1125.41 190.541 1125.69 190.971C1126.08 191.48 1126.59 191.886 1127.18 192.154C1127.88 192.522 1128.48 192.803 1128.96 192.996C1129.45 193.19 1130.27 193.478 1131.42 193.859L1133.77 194.681C1134.22 194.841 1134.97 195.139 1136.01 195.573C1136.81 195.885 1137.58 196.271 1138.31 196.726C1138.81 197.06 1139.42 197.525 1140.17 198.12C1140.81 198.612 1141.36 199.225 1141.78 199.924C1142.18 200.629 1142.5 201.38 1142.72 202.16C1142.96 203.078 1143.05 204.03 1142.98 204.977C1142.92 206.33 1142.55 207.651 1141.92 208.848C1141.29 210.045 1140.4 211.089 1139.32 211.905C1136.86 213.801 1133.8 214.773 1130.7 214.652C1126.41 214.655 1122.19 213.623 1118.38 211.645C1118.29 211.597 1118.2 211.529 1118.14 211.446C1118.07 211.363 1118.03 211.266 1118 211.163C1117.92 210.964 1117.92 210.741 1118 210.542L1120.22 206.351C1120.26 206.252 1120.32 206.163 1120.4 206.089C1120.48 206.015 1120.57 205.958 1120.68 205.92C1120.77 205.877 1120.88 205.854 1120.99 205.854C1121.09 205.854 1121.2 205.877 1121.3 205.92C1124.1 207.363 1127.17 208.184 1130.32 208.326C1131.6 208.374 1132.88 208.073 1134.01 207.454C1134.45 207.22 1134.83 206.889 1135.13 206.486C1135.42 206.083 1135.62 205.619 1135.71 205.128C1135.81 204.604 1135.76 204.061 1135.55 203.568C1135.35 203.075 1135 202.654 1134.55 202.361C1133.26 201.492 1131.84 200.841 1130.34 200.436C1127.96 199.791 1125.64 198.938 1123.41 197.889C1120.07 196.091 1118.4 193.417 1118.4 189.868C1118.34 188.525 1118.57 187.184 1119.09 185.943C1119.61 184.703 1120.4 183.595 1121.41 182.7C1123.62 180.869 1126.43 179.926 1129.29 180.053C1133.3 180.148 1137.24 181.08 1140.87 182.79C1140.97 182.827 1141.07 182.887 1141.15 182.967C1141.23 183.046 1141.29 183.143 1141.33 183.249C1141.36 183.355 1141.37 183.468 1141.36 183.58C1141.35 183.691 1141.31 183.798 1141.25 183.893L1139.46 188.084C1139.43 188.19 1139.37 188.288 1139.29 188.37C1139.21 188.453 1139.12 188.519 1139.02 188.564C1138.91 188.609 1138.8 188.633 1138.69 188.633C1138.58 188.633 1138.47 188.61 1138.36 188.565C1135.67 187.314 1132.77 186.579 1129.8 186.399C1126.86 186.399 1125.34 187.442 1125.24 189.527Z" fill="#06132D"/>
<path d="M1156.12 189.528C1156.14 190.044 1156.31 190.544 1156.6 190.971C1157 191.48 1157.51 191.886 1158.09 192.154C1158.8 192.522 1159.39 192.803 1159.88 192.997C1160.36 193.19 1161.18 193.478 1162.33 193.859L1164.69 194.681C1165.13 194.841 1165.88 195.139 1166.92 195.573C1167.72 195.885 1168.5 196.271 1169.23 196.726C1169.72 197.06 1170.34 197.525 1171.08 198.12C1171.73 198.612 1172.28 199.225 1172.69 199.924C1173.07 200.633 1173.36 201.384 1173.56 202.16C1173.8 203.078 1173.89 204.03 1173.82 204.978C1173.75 206.33 1173.39 207.651 1172.76 208.848C1172.12 210.045 1171.24 211.089 1170.16 211.905C1167.7 213.797 1164.65 214.768 1161.55 214.653C1157.26 214.655 1153.04 213.623 1149.24 211.645C1149.14 211.597 1149.06 211.529 1148.99 211.446C1148.93 211.363 1148.88 211.267 1148.85 211.164C1148.78 210.964 1148.78 210.742 1148.85 210.542L1151.07 206.351C1151.12 206.254 1151.19 206.168 1151.27 206.097C1151.35 206.027 1151.45 205.973 1151.55 205.94C1151.65 205.897 1151.75 205.875 1151.86 205.875C1151.97 205.875 1152.07 205.897 1152.17 205.94C1154.97 207.383 1158.05 208.204 1161.19 208.346C1162.47 208.394 1163.74 208.096 1164.87 207.484C1165.31 207.248 1165.7 206.913 1165.99 206.505C1166.29 206.096 1166.49 205.625 1166.57 205.128C1166.68 204.604 1166.62 204.061 1166.42 203.569C1166.21 203.076 1165.86 202.655 1165.42 202.361C1164.13 201.494 1162.72 200.844 1161.22 200.436C1158.84 199.791 1156.53 198.939 1154.3 197.889C1150.96 196.091 1149.29 193.418 1149.29 189.868C1149.22 188.525 1149.46 187.184 1149.98 185.944C1150.5 184.703 1151.29 183.595 1152.29 182.7C1154.5 180.869 1157.31 179.925 1160.18 180.053C1164.19 180.144 1168.15 181.076 1171.78 182.79C1171.89 182.827 1171.98 182.887 1172.06 182.967C1172.14 183.046 1172.2 183.143 1172.24 183.249C1172.28 183.355 1172.29 183.468 1172.27 183.58C1172.26 183.691 1172.22 183.798 1172.16 183.893L1170.38 188.084C1170.34 188.19 1170.28 188.288 1170.21 188.371C1170.13 188.453 1170.04 188.519 1169.93 188.564C1169.83 188.61 1169.72 188.633 1169.6 188.633C1169.49 188.633 1169.38 188.61 1169.28 188.565C1166.57 187.311 1163.66 186.576 1160.69 186.399C1157.74 186.399 1156.21 187.442 1156.12 189.528Z" fill="#06132D"/>
<path d="M1195.13 180.597L1209.94 213.483C1209.98 213.567 1210 213.66 1210 213.753C1210 213.847 1209.98 213.939 1209.94 214.024C1209.9 214.107 1209.84 214.177 1209.76 214.225C1209.68 214.273 1209.59 214.298 1209.5 214.295H1203.49C1203.24 214.32 1202.99 214.257 1202.78 214.116C1202.57 213.975 1202.42 213.764 1202.35 213.523L1199.45 206.404H1188.92L1186.04 213.483C1185.96 213.72 1185.81 213.925 1185.6 214.065C1185.39 214.205 1185.15 214.271 1184.9 214.255H1178.8C1178.7 214.257 1178.61 214.233 1178.53 214.185C1178.46 214.137 1178.39 214.067 1178.35 213.984C1178.31 213.901 1178.28 213.809 1178.27 213.714C1178.26 213.618 1178.27 213.523 1178.3 213.432L1193.02 180.587C1193.15 180.445 1193.3 180.333 1193.48 180.258C1193.65 180.183 1193.84 180.149 1194.03 180.156C1194.23 180.13 1194.44 180.157 1194.63 180.234C1194.83 180.311 1195 180.436 1195.13 180.597ZM1194.13 193.441L1191.12 201H1197.13L1194.13 193.441Z" fill="#06132D"/>
<rect x="0.5" y="47.5" width="599" height="299" rx="31.5" stroke="#CDD0D5"/>
<path d="M110.895 183.432C108.451 178.01 110.865 171.633 116.287 169.189L187.465 137.099C192.887 134.655 199.264 137.069 201.708 142.491L233.798 213.669C236.242 219.091 233.828 225.468 228.406 227.913L157.228 260.002C151.806 262.446 145.429 260.032 142.984 254.61L110.895 183.432Z" fill="#06132D"/>
<path d="M110.895 183.432C110.085 181.635 109.808 179.733 109.998 177.905L124.709 174.885C124.047 172.718 123.593 170.468 123.593 168.523C123.593 167.611 123.644 166.711 123.744 165.827C125.015 154.574 134.143 145.846 145.216 145.846C150.054 145.846 154.521 147.512 158.122 150.328C158.938 150.965 159.709 151.661 160.43 152.41C163.279 155.276 168.424 155.276 183.387 155.276C193.822 155.276 203.371 158.876 211.233 164.822C211.551 165.063 211.847 165.327 212.13 165.607C212.589 166.061 213.013 166.555 213.436 167.048C213.602 167.24 213.767 167.433 213.935 167.623C218.196 172.462 228.852 177.11 239.545 178.154V191.615C237.916 199.026 234.84 203.724 231.11 207.707C229.231 209.713 227.025 211.538 224.43 213.436C222.83 214.451 220.897 214.775 219.023 214.494C212.032 213.446 206.509 213.154 202.919 213.154C171.85 213.154 149.158 230.358 147.47 259.542C145.557 258.454 143.958 256.771 142.984 254.61L110.895 183.432Z" fill="#53B18A"/>
<mask id="mask1_196_1182" style="mask-type:alpha" maskUnits="userSpaceOnUse" x="109" y="136" width="126" height="125">
<path d="M110.895 183.432C108.451 178.01 110.865 171.633 116.287 169.189L187.465 137.099C192.887 134.655 199.264 137.069 201.708 142.491L233.798 213.669C236.242 219.091 233.828 225.468 228.406 227.913L157.228 260.002C151.806 262.446 145.429 260.032 142.984 254.61L110.895 183.432Z" fill="#031E3D"/>
</mask>
<g mask="url(#mask1_196_1182)">
<path d="M129.66 225.047L147.372 264.323C147.37 263.725 147.37 263.224 147.37 263.074C147.37 232.186 169.977 213.672 201.581 213.165C174.436 213.408 149.503 217.811 129.66 225.047Z" fill="#66C0EE"/>
<path d="M200.198 213.198C173.319 213.835 149.378 221.259 133.097 232.665L147.373 264.322C147.372 263.725 147.371 263.224 147.371 263.074C147.371 232.639 169.32 214.217 200.198 213.198Z" fill="#1F60E0"/>
<path d="M190.463 214.14C167.439 217.551 148.345 229.523 138.932 245.608L147.371 264.323C147.37 263.725 147.37 263.224 147.37 263.074C147.37 235.946 164.808 218.363 190.463 214.14Z" fill="#4321B1"/>
</g>
<path d="M123.904 175.061C133.987 173.514 147.396 172.434 162.454 172.066C157.849 169.077 156.37 163.968 154.934 159.008C153.255 153.209 151.635 147.614 145.147 145.846C132.475 145.594 123.441 155.816 123.441 170.084C123.441 171.728 123.604 173.413 123.904 175.061Z" fill="#4321B1"/>
<path d="M239.6 191.615C239.6 191.615 243.045 190.95 241.918 180.698C241.75 179.167 240.792 177.962 239.6 177.782C239.085 177.704 238.581 177.649 238.136 177.649C235.68 177.649 234.646 177.874 233.254 179.236L229.49 182.903C229.138 183.246 229.153 183.816 229.522 184.14C234.181 188.229 238.271 191.615 239.6 191.615Z" fill="#4321B1"/>
<path fill-rule="evenodd" clip-rule="evenodd" d="M204.451 178.394C206.538 178.292 208.174 176.791 208.247 174.982L208.244 174.984C208.328 172.89 206.319 171.271 203.947 171.386C201.977 171.482 201.751 171.518 195.518 173.008C195.14 173.099 195.036 173.532 195.344 173.743C202.256 178.5 202.364 178.495 204.451 178.394Z" fill="white"/>
<path d="M300.847 201.738H284.448V219.388C284.448 219.692 284.328 219.983 284.113 220.198C283.899 220.413 283.608 220.533 283.304 220.533H276.144C275.841 220.533 275.55 220.413 275.335 220.198C275.121 219.983 275 219.692 275 219.388V174.703C275.007 174.404 275.131 174.12 275.345 173.911C275.559 173.702 275.846 173.586 276.144 173.586H305.746C306.049 173.586 306.341 173.706 306.555 173.921C306.77 174.136 306.89 174.427 306.89 174.731V181.168C306.89 181.472 306.77 181.763 306.555 181.978C306.341 182.193 306.049 182.313 305.746 182.313H284.448V193.038H300.847C301.151 193.038 301.442 193.158 301.656 193.373C301.871 193.588 301.992 193.879 301.992 194.183V200.62C301.984 200.919 301.861 201.203 301.647 201.412C301.433 201.621 301.146 201.738 300.847 201.738Z" fill="#06132D"/>
<path d="M338.231 172.772C341.375 172.726 344.499 173.271 347.442 174.378C349.917 175.282 352.185 176.673 354.113 178.47C355.807 180.157 357.22 182.104 358.3 184.237C359.378 186.266 360.176 188.431 360.673 190.674C361.116 192.744 361.34 194.855 361.343 196.972C361.342 199.121 361.117 201.265 360.673 203.368C360.18 205.621 359.382 207.796 358.3 209.833C357.221 211.967 355.807 213.914 354.113 215.6C352.189 217.392 349.919 218.77 347.442 219.65C344.494 220.736 341.372 221.271 338.231 221.228C335.067 221.275 331.921 220.74 328.95 219.65C326.473 218.77 324.203 217.392 322.279 215.6C320.558 213.914 319.112 211.968 317.994 209.833C316.89 207.802 316.077 205.626 315.58 203.368C315.135 201.265 314.91 199.121 314.91 196.972C314.912 194.855 315.136 192.744 315.58 190.674C316.081 188.426 316.894 186.26 317.994 184.237C319.117 182.101 320.567 180.155 322.293 178.47C324.22 176.673 326.489 175.281 328.964 174.378C331.926 173.269 335.069 172.724 338.231 172.772ZM338.231 212.458C340.262 212.487 342.272 212.048 344.106 211.174C345.637 210.472 346.988 209.431 348.056 208.129C349.026 206.885 349.802 205.501 350.359 204.024C350.871 202.734 351.254 201.396 351.503 200.03C351.672 199.01 351.761 197.978 351.769 196.944C351.761 195.91 351.672 194.878 351.503 193.858C351.255 192.506 350.872 191.182 350.359 189.906C349.811 188.458 349.054 187.099 348.112 185.871C347.032 184.565 345.66 183.532 344.106 182.854C342.26 182.029 340.252 181.628 338.231 181.681C336.154 181.641 334.094 182.066 332.202 182.924C330.664 183.583 329.302 184.592 328.224 185.871C327.283 187.112 326.522 188.48 325.963 189.934C325.429 191.202 325.045 192.529 324.819 193.886C324.506 195.931 324.506 198.013 324.819 200.058C325.048 201.419 325.432 202.75 325.963 204.024C326.522 205.49 327.288 206.868 328.238 208.116C329.316 209.425 330.682 210.466 332.23 211.16C334.11 212.025 336.162 212.45 338.231 212.403V212.458Z" fill="#06132D"/>
<path d="M379.789 186.039C379.807 186.755 380.025 187.451 380.417 188.05C380.967 188.758 381.681 189.324 382.496 189.698C383.473 190.21 384.301 190.601 384.98 190.871C385.66 191.141 386.799 191.541 388.4 192.072L391.68 193.217C392.303 193.44 393.34 193.854 394.792 194.459C395.909 194.894 396.984 195.431 398.002 196.065C398.69 196.531 399.551 197.178 400.584 198.006C401.487 198.692 402.25 199.546 402.831 200.52C403.391 201.502 403.831 202.547 404.143 203.634C404.48 204.913 404.603 206.239 404.505 207.558C404.413 209.441 403.91 211.281 403.029 212.948C402.149 214.616 400.914 216.069 399.411 217.207C395.975 219.848 391.724 221.201 387.395 221.033C381.424 221.036 375.54 219.599 370.242 216.844C370.111 216.777 369.995 216.683 369.904 216.567C369.812 216.451 369.747 216.317 369.712 216.174C369.602 215.896 369.602 215.586 369.712 215.308L372.797 209.471C372.859 209.333 372.947 209.21 373.058 209.107C373.168 209.004 373.297 208.923 373.439 208.87C373.575 208.81 373.722 208.779 373.871 208.779C374.02 208.779 374.167 208.81 374.304 208.87C378.2 210.881 382.485 212.024 386.865 212.222C388.659 212.289 390.439 211.87 392.014 211.007C392.627 210.681 393.158 210.22 393.567 209.659C393.975 209.098 394.251 208.451 394.373 207.767C394.52 207.038 394.446 206.281 394.16 205.594C393.874 204.908 393.389 204.322 392.768 203.913C390.97 202.703 388.985 201.797 386.892 201.232C383.581 200.334 380.354 199.147 377.249 197.685C372.596 195.181 370.27 191.457 370.27 186.514C370.18 184.643 370.51 182.775 371.234 181.047C371.959 179.32 373.06 177.776 374.457 176.529C377.535 173.98 381.45 172.666 385.441 172.843C391.021 172.975 396.512 174.274 401.561 176.655C401.708 176.706 401.843 176.79 401.953 176.901C402.064 177.012 402.148 177.146 402.199 177.294C402.25 177.442 402.267 177.6 402.248 177.755C402.229 177.91 402.176 178.06 402.091 178.191L399.607 184.028C399.555 184.176 399.472 184.312 399.365 184.428C399.258 184.543 399.129 184.635 398.985 184.698C398.841 184.76 398.685 184.793 398.528 184.793C398.371 184.793 398.216 184.761 398.072 184.698C394.322 182.956 390.279 181.933 386.153 181.682C382.05 181.682 379.928 183.134 379.789 186.039Z" fill="#06132D"/>
<path d="M422.804 186.039C422.835 186.759 423.067 187.456 423.474 188.05C424.024 188.759 424.738 189.324 425.553 189.698C426.53 190.21 427.358 190.601 428.037 190.871C428.717 191.141 429.856 191.541 431.457 192.072L434.736 193.217C435.36 193.44 436.397 193.855 437.849 194.46C438.966 194.894 440.041 195.431 441.059 196.066C441.747 196.531 442.608 197.178 443.641 198.007C444.544 198.692 445.307 199.546 445.888 200.52C446.408 201.507 446.811 202.553 447.088 203.634C447.426 204.913 447.549 206.239 447.451 207.558C447.359 209.441 446.855 211.281 445.975 212.949C445.094 214.616 443.859 216.07 442.357 217.207C438.928 219.842 434.688 221.195 430.368 221.034C424.397 221.036 418.514 219.599 413.216 216.844C413.084 216.778 412.968 216.683 412.877 216.567C412.785 216.452 412.72 216.317 412.685 216.174C412.575 215.896 412.575 215.586 412.685 215.308L415.77 209.471C415.838 209.336 415.932 209.216 416.047 209.118C416.162 209.02 416.296 208.945 416.44 208.899C416.576 208.839 416.723 208.808 416.872 208.808C417.021 208.808 417.169 208.839 417.305 208.899C421.201 210.909 425.486 212.052 429.866 212.25C431.65 212.317 433.419 211.902 434.988 211.049C435.608 210.721 436.145 210.254 436.556 209.685C436.968 209.116 437.243 208.46 437.36 207.768C437.506 207.038 437.431 206.282 437.145 205.596C436.859 204.909 436.375 204.324 435.755 203.913C433.965 202.706 431.99 201.8 429.907 201.232C426.596 200.334 423.369 199.147 420.264 197.685C415.611 195.181 413.285 191.457 413.285 186.514C413.195 184.643 413.525 182.775 414.249 181.048C414.974 179.32 416.075 177.776 417.472 176.53C420.549 173.979 424.464 172.665 428.456 172.843C434.05 172.969 439.556 174.268 444.618 176.655C444.765 176.706 444.9 176.791 445.01 176.901C445.121 177.012 445.205 177.146 445.256 177.294C445.307 177.442 445.324 177.6 445.305 177.755C445.286 177.911 445.233 178.06 445.148 178.191L442.664 184.028C442.611 184.177 442.529 184.313 442.422 184.428C442.315 184.543 442.186 184.635 442.042 184.698C441.898 184.761 441.742 184.793 441.585 184.793C441.428 184.793 441.273 184.761 441.128 184.699C437.366 182.951 433.308 181.928 429.168 181.682C425.055 181.682 422.934 183.135 422.804 186.039Z" fill="#06132D"/>
<path d="M477.136 173.601L497.764 219.404C497.82 219.522 497.849 219.651 497.849 219.781C497.849 219.911 497.82 220.04 497.764 220.158C497.709 220.274 497.622 220.371 497.513 220.438C497.404 220.505 497.278 220.539 497.15 220.535H488.776C488.428 220.571 488.08 220.483 487.791 220.286C487.502 220.089 487.293 219.796 487.199 219.46L483.151 209.545H468.483L464.478 219.404C464.37 219.735 464.155 220.02 463.867 220.215C463.579 220.41 463.234 220.503 462.887 220.479H454.387C454.259 220.483 454.133 220.45 454.024 220.383C453.915 220.316 453.828 220.218 453.773 220.102C453.707 219.987 453.666 219.858 453.654 219.726C453.642 219.593 453.659 219.46 453.703 219.334L474.205 173.587C474.378 173.389 474.594 173.233 474.835 173.129C475.077 173.025 475.338 172.976 475.601 172.987C475.888 172.95 476.18 172.988 476.448 173.095C476.717 173.203 476.954 173.377 477.136 173.601ZM475.741 191.489L471.554 202.019H479.928L475.741 191.489Z" fill="#06132D"/>
<path d="M599.5 37.7472L615.197 41.9531C621.475 43.6354 625.364 50.3715 623.682 56.65L619.476 72.3463L627.366 86.3661C630.79 91.9422 628.784 99.4281 623.031 102.545L609.188 110.742L605.047 126.197C603.3 132.717 596.628 136.364 590.35 134.682L574.654 130.476L560.569 138.608C554.993 142.031 547.507 140.025 544.39 134.273L536.258 120.188L520.803 116.047C514.283 114.3 510.571 107.87 512.318 101.35L516.459 85.8952L508.327 71.8106C504.904 66.2346 506.91 58.7487 512.663 55.6314L526.747 47.4997L530.953 31.8034C532.635 25.5248 539.13 21.5711 545.65 23.3181L561.105 27.4592L575.125 19.5689C580.701 16.1455 588.187 18.1513 591.304 23.9042L599.5 37.7472Z" fill="#53B18A"/>
<path d="M553.126 70.1859C551.256 69.6848 549.781 68.8508 548.703 67.6838C547.643 66.5056 546.983 65.1361 546.723 63.5754C546.462 62.0146 546.557 60.392 547.008 58.7074C547.46 57.0228 548.186 55.5777 549.189 54.372C550.195 53.1509 551.449 52.3026 552.951 51.8272C554.473 51.3405 556.169 51.3477 558.039 51.8488C559.925 52.354 561.397 53.1957 562.456 54.374C563.535 55.5409 564.205 56.9048 564.466 58.4655C564.731 60.0108 564.638 61.6257 564.186 63.3103C563.735 64.9948 563.006 66.4477 562 67.6688C560.993 68.89 559.729 69.7439 558.207 70.2306C556.705 70.706 555.011 70.6911 553.126 70.1859ZM553.927 67.1954C555.534 67.6261 556.937 67.3974 558.136 66.5094C559.35 65.6255 560.208 64.2485 560.709 62.3785C561.21 60.5085 561.154 58.8949 560.54 57.5378C559.942 56.1849 558.839 55.2931 557.232 54.8624C555.64 54.4359 554.237 54.6646 553.023 55.5485C551.828 56.421 550.982 57.7846 550.485 59.6392C549.984 61.5092 550.031 63.1284 550.625 64.4968C551.235 65.8693 552.335 66.7688 553.927 67.1954ZM571.192 75.0267C568.75 74.3724 567.109 73.295 566.269 71.7944C565.433 70.2783 565.296 68.4693 565.859 66.3675L568.779 55.4719C568.845 55.2246 569.002 55.1341 569.249 55.2003L571.869 55.9022C572.116 55.9685 572.207 56.1253 572.14 56.3725L569.221 67.2682C568.902 68.4582 568.947 69.4642 569.356 70.2861C569.77 71.0926 570.649 71.6759 571.993 72.0362C573.338 72.3965 574.391 72.3307 575.152 71.839C575.917 71.3318 576.459 70.4832 576.778 69.2932L579.698 58.3975C579.764 58.1503 579.921 58.0598 580.168 58.126L582.788 58.8279C583.035 58.8942 583.125 59.051 583.059 59.2982L580.14 70.1939C579.576 72.2957 578.546 73.792 577.049 74.6828C575.571 75.5622 573.618 75.6769 571.192 75.0267ZM581.788 77.5179C581.54 77.4517 581.45 77.2949 581.516 77.0476L586.057 60.1014C586.123 59.8542 586.28 59.7636 586.527 59.8299L593.783 61.7741C595.514 62.238 596.766 63.0372 597.538 64.1718C598.315 65.291 598.468 66.7315 597.996 68.4934C597.714 69.5443 597.249 70.4136 596.601 71.1013C595.957 71.7736 595.183 72.2204 594.279 72.442C594.049 72.4963 593.944 72.642 593.963 72.8791L595.003 80.5871C595.007 80.6376 595 80.6937 594.983 80.7555C594.934 80.941 594.8 81.0047 594.584 80.9468L591.802 80.2014C591.586 80.1434 591.474 80.0057 591.466 79.7882L590.626 72.6309C590.618 72.4134 590.505 72.2757 590.289 72.2177L587.02 71.3418C586.773 71.2756 586.616 71.3661 586.55 71.6134L584.854 77.9421C584.788 78.1894 584.631 78.2799 584.384 78.2136L581.788 77.5179ZM591.257 69.3464C592.154 69.5866 592.887 69.5679 593.459 69.2903C594.045 69.0168 594.442 68.4938 594.649 67.721C594.852 66.9637 594.768 66.32 594.397 65.7898C594.025 65.2596 593.399 64.8765 592.518 64.6404L589.064 63.7149C588.817 63.6486 588.66 63.7391 588.594 63.9864L587.531 67.9506C587.465 68.1979 587.556 68.3546 587.803 68.4209L591.257 69.3464ZM532.139 94.2378C531.892 94.1715 531.802 94.0148 531.868 93.7675L536.409 76.8213C536.475 76.574 536.632 76.4835 536.879 76.5498L547.937 79.5127C548.184 79.579 548.275 79.7357 548.208 79.983L547.606 82.2317C547.54 82.479 547.383 82.5695 547.136 82.5032L539.416 80.4347C539.169 80.3685 539.012 80.459 538.946 80.7063L537.977 84.3227C537.91 84.57 538.001 84.7267 538.248 84.793L545.087 86.6254C545.334 86.6917 545.425 86.8485 545.358 87.0957L544.762 89.3212C544.696 89.5685 544.539 89.659 544.292 89.5928L537.453 87.7603C537.206 87.6941 537.049 87.7846 536.983 88.0319L535.206 94.662C535.14 94.9092 534.983 94.9998 534.736 94.9335L532.139 94.2378ZM543.156 97.1896C543.032 97.1565 542.95 97.093 542.909 96.9991C542.868 96.9053 542.889 96.795 542.972 96.6684L553.494 81.3248C553.61 81.1404 553.784 81.0793 554.015 81.1414L557.029 81.9489C557.23 82.0028 557.35 82.1426 557.389 82.3683L558.806 100.911L558.803 101.109C558.782 101.186 558.734 101.24 558.66 101.269C558.586 101.299 558.502 101.302 558.41 101.277L555.651 100.538C555.435 100.48 555.322 100.342 555.314 100.124L555.131 96.8205C555.139 96.6072 555.027 96.4695 554.795 96.4073L548.698 94.7737C548.482 94.7157 548.315 94.7789 548.2 94.9632L546.389 97.733C546.289 97.9215 546.123 97.9847 545.891 97.9226L543.156 97.1896ZM554.534 93.2069C554.658 93.24 554.753 93.2241 554.82 93.1593C554.903 93.0986 554.945 93.0023 554.947 92.8703L554.574 86.0119C554.573 85.8295 554.518 85.7238 554.41 85.6948C554.287 85.6617 554.179 85.7239 554.087 85.8815L550.357 91.6404C550.334 91.6672 550.313 91.7115 550.297 91.7733C550.247 91.9588 550.331 92.0805 550.547 92.1385L554.534 93.2069ZM563.898 102.748C563.697 102.694 563.578 102.554 563.539 102.328L562.122 83.7856C562.119 83.7351 562.125 83.6789 562.142 83.6171C562.192 83.4316 562.317 83.3658 562.518 83.4197L565.276 84.1588C565.493 84.2168 565.605 84.3545 565.613 84.572L566.36 98.6614C566.365 98.8284 566.429 98.9284 566.553 98.9616C566.661 98.9905 566.759 98.934 566.847 98.7918L574.538 86.9635C574.638 86.775 574.804 86.7118 575.036 86.774L577.772 87.5069C577.895 87.5401 577.978 87.6035 578.019 87.6974C578.06 87.7912 578.039 87.9015 577.955 88.0281L567.433 103.372C567.318 103.556 567.144 103.617 566.912 103.555L563.898 102.748ZM575.493 105.854C575.246 105.788 575.155 105.631 575.221 105.384L579.762 88.4378C579.828 88.1905 579.985 88.1 580.232 88.1663L591.29 91.1292C591.538 91.1955 591.628 91.3523 591.562 91.5995L590.959 93.8482C590.893 94.0955 590.736 94.186 590.489 94.1198L582.769 92.0513C582.522 91.985 582.365 92.0755 582.299 92.3228L581.33 95.9392C581.264 96.1865 581.354 96.3433 581.602 96.4095L588.44 98.242C588.688 98.3082 588.778 98.465 588.712 98.7123L588.116 100.938C588.049 101.185 587.893 101.276 587.645 101.209L580.806 99.3768C580.559 99.3106 580.402 99.4011 580.336 99.6484L579.361 103.288C579.295 103.535 579.385 103.692 579.632 103.758L587.352 105.827C587.599 105.893 587.69 106.05 587.624 106.297L587.021 108.546C586.955 108.793 586.798 108.884 586.551 108.817L575.493 105.854ZM591.257 104.339C591.4 103.681 591.495 103.202 591.543 102.9C591.589 102.664 591.71 102.091 591.904 101.182C592.101 100.258 592.323 99.3402 592.567 98.4284L594.306 91.9373L597.436 92.7759L595.697 99.2669C595.448 100.194 594.976 101.741 594.28 103.906L593.899 105.047L591.257 104.339ZM591.075 110.303C590.549 110.162 590.149 109.864 589.873 109.409C589.617 108.943 589.559 108.447 589.7 107.922C589.833 107.427 590.132 107.052 590.598 106.796C591.068 106.524 591.559 106.457 592.069 106.594C592.563 106.726 592.939 107.025 593.195 107.492C593.47 107.946 593.542 108.421 593.409 108.916C593.269 109.441 592.971 109.842 592.516 110.117C592.065 110.378 591.585 110.439 591.075 110.303Z" fill="white"/>
</svg>
