<svg xmlns="http://www.w3.org/2000/svg" width="1280" height="347" fill="none" xmlns:v="https://vecta.io/nano"><rect x="640.5" y="47.5" width="299" height="299" rx="31.5" stroke="#cdd0d5"/><use href="#D" fill="#06132d"/><use href="#E" fill="#53b18a"/><mask id="A" maskUnits="userSpaceOnUse" x="726" y="136" width="126" height="125" mask-type="alpha"><path d="M727.895 183.432a10.77 10.77 0 0 1 5.392-14.243l71.178-32.09a10.77 10.77 0 0 1 14.243 5.392l32.09 71.178c2.444 5.422.03 11.799-5.392 14.244l-71.178 32.089c-5.422 2.444-11.799.03-14.244-5.392l-32.089-71.178z" fill="#031e3d"/></mask><g mask="url(#A)"><use href="#F" fill="#66c0ee"/><use href="#G" fill="#1f60e0"/><use href="#H" fill="#4321b1"/></g><g fill="#4321b1"><use href="#I"/><use href="#J"/></g><use href="#K" fill-rule="evenodd" fill="#fff"/><rect x="980.5" y="47.5" width="299" height="299" rx="31.5" stroke="#cdd0d5"/><path d="M1068.56 200.799h-11.78v12.672a.8.8 0 0 1-.24.582.81.81 0 0 1-.58.241h-5.14a.81.81 0 0 1-.58-.241.84.84 0 0 1-.24-.582v-32.083c.01-.214.09-.418.25-.568.15-.15.36-.234.57-.234h21.25a.85.85 0 0 1 .59.241.84.84 0 0 1 .24.581v4.622c0 .218-.09.427-.24.582a.85.85 0 0 1-.59.24h-15.29v7.7h11.78c.22 0 .42.087.58.241a.84.84 0 0 1 .24.582v4.621c-.01.215-.09.419-.25.569-.15.15-.36.234-.57.234zm26.84-20.797c2.26-.033 4.5.358 6.61 1.153 1.78.649 3.41 1.648 4.79 2.938 1.22 1.211 2.23 2.609 3.01 4.14.77 1.457 1.34 3.012 1.7 4.622.32 1.487.48 3.002.48 4.522a22.15 22.15 0 0 1-.48 4.592 18.28 18.28 0 0 1-1.7 4.642c-.78 1.532-1.79 2.93-3.01 4.141-1.38 1.286-3.01 2.275-4.79 2.907a18.37 18.37 0 0 1-6.61 1.133 18.6 18.6 0 0 1-6.67-1.133c-1.77-.632-3.4-1.621-4.78-2.907-1.24-1.211-2.28-2.608-3.08-4.141-.79-1.458-1.38-3.021-1.73-4.642a22.16 22.16 0 0 1-.49-4.592 22.18 22.18 0 0 1 .49-4.522 17.77 17.77 0 0 1 1.73-4.622 16.4 16.4 0 0 1 3.09-4.14c1.38-1.29 3.01-2.289 4.78-2.938a18.25 18.25 0 0 1 6.66-1.153zm0 28.494c1.46.021 2.9-.295 4.22-.923 1.1-.503 2.07-1.251 2.83-2.185.7-.894 1.26-1.888 1.66-2.948a15.81 15.81 0 0 0 .82-2.867 14.96 14.96 0 0 0 .19-2.216 14.96 14.96 0 0 0-.19-2.216c-.18-.971-.46-1.921-.82-2.837a11.49 11.49 0 0 0-1.62-2.898c-.77-.937-1.76-1.679-2.87-2.165a9.73 9.73 0 0 0-4.22-.842c-1.49-.029-2.97.276-4.33.892a7.8 7.8 0 0 0-2.86 2.115 12.04 12.04 0 0 0-1.62 2.918c-.38.911-.66 1.863-.82 2.837a14.32 14.32 0 0 0 0 4.432c.16.977.44 1.932.82 2.847a11.78 11.78 0 0 0 1.63 2.938c.78.94 1.76 1.688 2.87 2.185 1.35.622 2.82.927 4.31.893v.04zm29.84-18.969a2.75 2.75 0 0 0 .45 1.444 3.91 3.91 0 0 0 1.49 1.183l1.78.842 2.46.863 2.35.822 2.24.892a13.89 13.89 0 0 1 2.3 1.153c.5.334 1.11.799 1.86 1.394a6.51 6.51 0 0 1 1.61 1.804c.4.705.72 1.456.94 2.236.24.918.33 1.87.26 2.817-.06 1.353-.43 2.674-1.06 3.871s-1.52 2.241-2.6 3.057a13.29 13.29 0 0 1-8.62 2.747c-4.29.003-8.51-1.029-12.32-3.007a.71.71 0 0 1-.24-.199.75.75 0 0 1-.14-.283c-.08-.199-.08-.422 0-.621l2.22-4.191c.04-.099.1-.188.18-.262a.78.78 0 0 1 .28-.169c.09-.043.2-.066.31-.066.1 0 .21.023.31.066 2.8 1.443 5.87 2.264 9.02 2.406a7.14 7.14 0 0 0 3.69-.872 3.37 3.37 0 0 0 1.7-2.326 2.69 2.69 0 0 0-.16-1.56 2.62 2.62 0 0 0-1-1.207 14.12 14.12 0 0 0-4.21-1.925c-2.38-.645-4.7-1.498-6.93-2.547-3.34-1.798-5.01-4.472-5.01-8.021a9.1 9.1 0 0 1 .69-3.925c.52-1.24 1.31-2.348 2.32-3.243a11.55 11.55 0 0 1 7.88-2.647c4.01.095 7.95 1.027 11.58 2.737.1.037.2.097.28.177a.79.79 0 0 1 .18.282.92.92 0 0 1 .03.331.71.71 0 0 1-.11.313l-1.79 4.191a.68.68 0 0 1-.17.286c-.08.083-.17.149-.27.194a.87.87 0 0 1-.33.069c-.11 0-.22-.023-.33-.068-2.69-1.251-5.59-1.986-8.56-2.166-2.94 0-4.46 1.043-4.56 3.128zm30.88.001c.02.516.19 1.016.48 1.443a4.07 4.07 0 0 0 1.49 1.183l1.79.843 2.45.862 2.36.822 2.23.892c.8.312 1.58.698 2.31 1.153l1.85 1.394a6.21 6.21 0 0 1 1.61 1.804 10.03 10.03 0 0 1 .87 2.236 8.63 8.63 0 0 1 .26 2.818c-.07 1.352-.43 2.673-1.06 3.87-.64 1.197-1.52 2.241-2.6 3.057a13.32 13.32 0 0 1-8.61 2.748c-4.29.002-8.51-1.03-12.31-3.008-.1-.048-.18-.116-.25-.199a.93.93 0 0 1-.14-.282c-.07-.2-.07-.422 0-.622l2.22-4.191c.05-.097.12-.183.2-.254a.81.81 0 0 1 .28-.157c.1-.043.2-.065.31-.065s.21.022.31.065c2.8 1.443 5.88 2.264 9.02 2.406 1.28.048 2.55-.25 3.68-.862.44-.236.83-.571 1.12-.979.3-.409.5-.88.58-1.377.11-.524.05-1.067-.15-1.559-.21-.493-.56-.914-1-1.208a14.19 14.19 0 0 0-4.2-1.925c-2.38-.645-4.69-1.497-6.92-2.547-3.34-1.798-5.01-4.471-5.01-8.021-.07-1.343.17-2.684.69-3.924s1.31-2.349 2.31-3.244c2.21-1.831 5.02-2.775 7.89-2.647a28.72 28.72 0 0 1 11.6 2.737.71.71 0 0 1 .28.177c.08.079.14.176.18.282a.62.62 0 0 1 .03.331.71.71 0 0 1-.11.313l-1.78 4.191c-.04.106-.1.204-.17.287a.82.82 0 0 1-.28.193.78.78 0 0 1-.33.069c-.11 0-.22-.023-.32-.068a23.82 23.82 0 0 0-8.59-2.166c-2.95 0-4.48 1.043-4.57 3.129zm39.01-8.931l14.81 32.886a.63.63 0 0 1 .06.27c0 .094-.02.186-.06.271s-.1.153-.18.201-.17.073-.26.07h-6.01a1.08 1.08 0 0 1-.71-.179 1.07 1.07 0 0 1-.43-.593l-2.9-7.119h-10.53l-2.88 7.079c-.08.237-.23.442-.44.582a1.12 1.12 0 0 1-.7.19h-6.1c-.1.002-.19-.022-.27-.07a.54.54 0 0 1-.18-.201c-.04-.083-.07-.175-.08-.27s0-.191.03-.282l14.72-32.845a1.29 1.29 0 0 1 .46-.329c.17-.075.36-.109.55-.102a1.2 1.2 0 0 1 .6.078c.2.077.37.202.5.363zm-1 12.844l-3.01 7.559h6.01l-3-7.559z" fill="#06132d"/><rect x=".5" y="47.5" width="599" height="299" rx="31.5" stroke="#cdd0d5"/><use href="#D" x="-617" fill="#06132d"/><use href="#E" x="-617" fill="#53b18a"/><mask id="B" maskUnits="userSpaceOnUse" x="109" y="136" width="126" height="125" mask-type="alpha"><path d="M110.895 183.432a10.77 10.77 0 0 1 5.392-14.243l71.178-32.09a10.77 10.77 0 0 1 14.243 5.392l32.09 71.178c2.444 5.422.03 11.799-5.392 14.244l-71.178 32.089c-5.422 2.444-11.799.03-14.244-5.392l-32.089-71.178z" fill="#031e3d"/></mask><g mask="url(#B)"><use href="#F" x="-617" fill="#66c0ee"/><use href="#G" x="-617" fill="#1f60e0"/><use href="#H" x="-617" fill="#4321b1"/></g><g fill="#4321b1"><use href="#I" x="-617"/><use href="#J" x="-617"/></g><use href="#K" x="-617" fill-rule="evenodd" fill="#fff"/><path d="M300.847 201.738h-16.399v17.65c0 .304-.12.595-.335.81a1.14 1.14 0 0 1-.809.335h-7.16c-.303 0-.594-.12-.809-.335a1.15 1.15 0 0 1-.335-.81v-44.685c.007-.299.131-.583.345-.792s.501-.325.799-.325h29.602a1.14 1.14 0 0 1 .809.335c.215.215.335.506.335.81v6.437c0 .304-.12.595-.335.81a1.14 1.14 0 0 1-.809.335h-21.298v10.725h16.399a1.14 1.14 0 0 1 .809.335c.215.215.336.506.336.81v6.437a1.15 1.15 0 0 1-.345.792c-.214.209-.501.326-.8.326zm37.384-28.966a25.12 25.12 0 0 1 9.211 1.606 19.69 19.69 0 0 1 6.671 4.092 22.45 22.45 0 0 1 4.187 5.767c1.078 2.029 1.876 4.194 2.373 6.437a30.3 30.3 0 0 1 .67 6.298c-.001 2.149-.226 4.293-.67 6.396-.493 2.253-1.291 4.428-2.373 6.465-1.079 2.134-2.493 4.081-4.187 5.767-1.924 1.792-4.194 3.17-6.671 4.05a25.63 25.63 0 0 1-9.211 1.578c-3.164.047-6.31-.488-9.281-1.578-2.477-.88-4.747-2.258-6.671-4.05a23.03 23.03 0 0 1-4.285-5.767c-1.104-2.031-1.917-4.207-2.414-6.465a30.9 30.9 0 0 1-.67-6.396c.002-2.117.226-4.228.67-6.298a24.74 24.74 0 0 1 2.414-6.437c1.123-2.136 2.573-4.082 4.299-5.767 1.927-1.797 4.196-3.189 6.671-4.092a25.33 25.33 0 0 1 9.267-1.606zm0 39.686c2.031.029 4.041-.41 5.875-1.284 1.531-.702 2.882-1.743 3.95-3.045.97-1.244 1.746-2.628 2.303-4.105a21.07 21.07 0 0 0 1.144-3.994 19.82 19.82 0 0 0 .266-3.086 19.82 19.82 0 0 0-.266-3.086 20.52 20.52 0 0 0-1.144-3.952 15.84 15.84 0 0 0-2.247-4.035c-1.08-1.306-2.452-2.339-4.006-3.017a13.53 13.53 0 0 0-5.875-1.173 13.95 13.95 0 0 0-6.029 1.243c-1.538.659-2.9 1.668-3.978 2.947a16.56 16.56 0 0 0-2.261 4.063 17.66 17.66 0 0 0-1.144 3.952 20.4 20.4 0 0 0 0 6.172 18.13 18.13 0 0 0 1.144 3.966c.559 1.466 1.325 2.844 2.275 4.092a11 11 0 0 0 3.992 3.044c1.88.865 3.932 1.29 6.001 1.243v.055zm41.558-26.419a3.85 3.85 0 0 0 .628 2.011c.55.708 1.264 1.274 2.079 1.648l2.484 1.173 3.42 1.201 3.28 1.145 3.112 1.242c1.117.435 2.192.972 3.21 1.606.688.466 1.549 1.113 2.582 1.941.903.686 1.666 1.54 2.247 2.514.56.982 1 2.027 1.312 3.114a11.93 11.93 0 0 1 .362 3.924 12.88 12.88 0 0 1-5.094 9.649c-3.436 2.641-7.687 3.994-12.016 3.826a37.14 37.14 0 0 1-17.153-4.189 1.02 1.02 0 0 1-.338-.277c-.092-.116-.157-.25-.192-.393a1.18 1.18 0 0 1 0-.866l3.085-5.837a1.12 1.12 0 0 1 .261-.364 1.14 1.14 0 0 1 .381-.237 1.07 1.07 0 0 1 .432-.091 1.08 1.08 0 0 1 .433.091c3.896 2.011 8.181 3.154 12.561 3.352 1.794.067 3.574-.352 5.149-1.215a4.59 4.59 0 0 0 1.553-1.348c.408-.561.684-1.208.806-1.892.147-.729.073-1.486-.213-2.173a3.73 3.73 0 0 0-1.392-1.681 19.74 19.74 0 0 0-5.876-2.681 58.72 58.72 0 0 1-9.643-3.547c-4.653-2.504-6.979-6.228-6.979-11.171-.09-1.871.24-3.739.964-5.467s1.826-3.271 3.223-4.518c3.078-2.549 6.993-3.863 10.984-3.686 5.58.132 11.071 1.431 16.12 3.812.147.051.282.135.392.246a1.03 1.03 0 0 1 .295.854c-.019.155-.072.305-.157.436l-2.484 5.837c-.052.148-.135.284-.242.4s-.236.207-.38.27a1.16 1.16 0 0 1-.457.095c-.157 0-.312-.032-.456-.095-3.75-1.742-7.793-2.765-11.919-3.016-4.103 0-6.225 1.452-6.364 4.357zm43.015 0a3.85 3.85 0 0 0 .67 2.011c.55.709 1.264 1.274 2.079 1.648l2.484 1.173 3.42 1.201 3.279 1.145 3.113 1.243a19.21 19.21 0 0 1 3.21 1.606c.688.465 1.549 1.112 2.582 1.941.903.685 1.666 1.539 2.247 2.513.52.987.923 2.033 1.2 3.114.338 1.279.461 2.605.363 3.924-.092 1.883-.596 3.723-1.476 5.391a12.9 12.9 0 0 1-3.618 4.258 18.54 18.54 0 0 1-11.989 3.827 37.15 37.15 0 0 1-17.152-4.19 1 1 0 0 1-.339-.277c-.092-.115-.157-.25-.192-.393a1.18 1.18 0 0 1 0-.866l3.085-5.837c.068-.135.162-.255.277-.353s.249-.173.393-.219a1.07 1.07 0 0 1 .432-.091c.149 0 .297.031.433.091a30.39 30.39 0 0 0 12.561 3.351 9.94 9.94 0 0 0 5.122-1.201c.62-.328 1.157-.795 1.568-1.364a4.58 4.58 0 0 0 .804-1.917 3.74 3.74 0 0 0-.215-2.172c-.286-.687-.77-1.272-1.39-1.683-1.79-1.207-3.765-2.113-5.848-2.681a58.72 58.72 0 0 1-9.643-3.547c-4.653-2.504-6.979-6.228-6.979-11.171-.09-1.871.24-3.739.964-5.466a12.57 12.57 0 0 1 3.223-4.518c3.077-2.551 6.992-3.865 10.984-3.687 5.594.126 11.1 1.425 16.162 3.812a1.04 1.04 0 0 1 .392.246 1.03 1.03 0 0 1 .295.854c-.019.156-.072.305-.157.436l-2.484 5.837c-.053.149-.135.285-.242.4s-.236.207-.38.27a1.14 1.14 0 0 1-.457.095 1.16 1.16 0 0 1-.457-.094c-3.762-1.748-7.82-2.771-11.96-3.017-4.113 0-6.234 1.453-6.364 4.357zm54.332-12.438l20.628 45.803a.88.88 0 0 1 0 .754.66.66 0 0 1-.251.28c-.109.067-.235.101-.363.097h-8.374c-.348.036-.696-.052-.985-.249s-.498-.49-.592-.826l-4.048-9.915h-14.668l-4.005 9.859c-.108.331-.323.616-.611.811s-.633.288-.98.264h-8.5c-.128.004-.254-.029-.363-.096s-.196-.165-.251-.281c-.066-.115-.107-.244-.119-.376a.93.93 0 0 1 .049-.392l20.502-45.747c.173-.198.389-.354.63-.458a1.75 1.75 0 0 1 .766-.142 1.7 1.7 0 0 1 .847.108c.269.108.506.282.688.506zm-1.395 17.888l-4.187 10.53h8.374l-4.187-10.53z" fill="#06132d"/><path d="M599.5 37.747l15.697 4.206c6.278 1.682 10.167 8.418 8.485 14.697l-4.206 15.696 7.89 14.02c3.424 5.576 1.418 13.062-4.335 16.179l-13.843 8.197-4.141 15.455c-1.747 6.52-8.419 10.167-14.697 8.485l-15.696-4.206-14.085 8.132c-5.576 3.423-13.062 1.417-16.179-4.335l-8.132-14.085-15.455-4.141c-6.52-1.747-10.232-8.177-8.485-14.697l4.141-15.455-8.132-14.085c-3.423-5.576-1.417-13.062 4.336-16.179l14.084-8.132 4.206-15.696c1.682-6.279 8.177-10.232 14.697-8.485l15.455 4.141 14.02-7.89c5.576-3.423 13.062-1.418 16.179 4.335l8.196 13.843z" fill="#53b18a"/><path d="M553.126 70.186c-1.87-.501-3.345-1.335-4.423-2.502-1.06-1.178-1.72-2.548-1.98-4.108s-.166-3.183.285-4.868 1.178-3.13 2.181-4.335c1.006-1.221 2.26-2.069 3.762-2.545 1.522-.487 3.218-.479 5.088.022 1.886.505 3.358 1.347 4.417 2.525a7.8 7.8 0 0 1 2.01 4.091c.265 1.545.172 3.16-.28 4.845s-1.18 3.137-2.186 4.359-2.271 2.075-3.793 2.562c-1.502.475-3.196.461-5.081-.045zm.801-2.99c1.607.431 3.01.202 4.209-.686 1.214-.884 2.072-2.261 2.573-4.131s.445-3.484-.169-4.841c-.598-1.353-1.701-2.245-3.308-2.675-1.592-.427-2.995-.198-4.209.686-1.195.873-2.041 2.236-2.538 4.091-.501 1.87-.454 3.489.14 4.858.61 1.373 1.71 2.272 3.302 2.699zm17.265 7.831c-2.442-.654-4.083-1.732-4.923-3.232-.836-1.516-.973-3.325-.41-5.427l2.92-10.896c.066-.247.223-.338.47-.272l2.62.702c.247.066.338.223.271.47l-2.919 10.896c-.319 1.19-.274 2.196.135 3.018.414.806 1.293 1.39 2.637 1.75s2.398.294 3.159-.197c.765-.507 1.307-1.356 1.626-2.546l2.92-10.896c.066-.247.223-.338.47-.272l2.62.702c.247.066.337.223.271.47l-2.919 10.896c-.564 2.102-1.594 3.598-3.091 4.489-1.478.879-3.431.994-5.857.344zm10.596 2.491c-.248-.066-.338-.223-.272-.47l4.541-16.946c.066-.247.223-.338.47-.271l7.256 1.944c1.731.464 2.983 1.263 3.755 2.398.777 1.119.93 2.56.458 4.322-.282 1.051-.747 1.92-1.395 2.608a4.7 4.7 0 0 1-2.322 1.341.37.37 0 0 0-.316.437l1.04 7.708c.004.05-.003.107-.02.168-.049.186-.183.249-.399.191l-2.782-.745c-.216-.058-.328-.196-.336-.413l-.84-7.157c-.008-.218-.121-.355-.337-.413l-3.269-.876c-.247-.066-.404.024-.47.272l-1.696 6.329c-.066.247-.223.338-.47.272l-2.596-.696zm9.469-8.171c.897.24 1.63.221 2.202-.056.586-.273.983-.797 1.19-1.569.203-.757.119-1.401-.252-1.931s-.998-.913-1.879-1.149l-3.454-.925c-.247-.066-.404.024-.47.272l-1.063 3.964c-.066.247.025.404.272.47l3.454.925zm-59.118 24.891c-.247-.066-.337-.223-.271-.47l4.541-16.946c.066-.247.223-.338.47-.271l11.058 2.963c.247.066.338.223.271.47l-.602 2.249c-.066.247-.223.338-.47.272l-7.72-2.068c-.247-.066-.404.024-.47.272l-.969 3.616c-.067.247.024.404.271.47l6.839 1.832c.247.066.338.223.271.47l-.596 2.226c-.066.247-.223.338-.47.272l-6.839-1.832c-.247-.066-.404.024-.47.272l-1.777 6.63c-.066.247-.223.338-.47.271l-2.597-.696zm11.017 2.952c-.124-.033-.206-.097-.247-.191s-.02-.204.063-.331l10.522-15.344c.116-.184.29-.245.521-.183l3.014.807c.201.054.321.194.36.419l1.417 18.543-.003.198c-.021.077-.069.131-.143.16s-.158.033-.25.008l-2.759-.739a.41.41 0 0 1-.337-.414l-.183-3.303c.008-.213-.104-.351-.336-.413l-6.097-1.634c-.216-.058-.383.005-.498.189l-1.811 2.77c-.1.188-.266.252-.498.19l-2.735-.733zm11.378-3.983c.124.033.219.017.286-.048.083-.061.125-.157.127-.289l-.373-6.858c-.001-.182-.056-.288-.164-.317-.123-.033-.231.029-.323.187l-3.73 5.759c-.023.027-.044.071-.06.133-.05.185.034.307.25.365l3.987 1.068zm9.364 9.541c-.201-.054-.32-.194-.359-.42l-1.417-18.542a.52.52 0 0 1 .02-.169c.05-.185.175-.251.376-.197l2.758.739c.217.058.329.196.337.413l.747 14.089c.005.167.069.267.193.3.108.029.206-.028.294-.17l7.691-11.828c.1-.188.266-.252.498-.189l2.736.733c.123.033.206.097.247.191s.02.204-.064.331l-10.522 15.344c-.115.184-.289.245-.521.183l-3.014-.807zm11.595 3.106c-.247-.066-.338-.223-.272-.47l4.541-16.946c.066-.247.223-.338.47-.271l11.058 2.963c.248.066.338.223.272.47l-.603 2.249c-.066.247-.223.338-.47.272l-7.72-2.068c-.247-.066-.404.024-.47.272l-.969 3.616c-.066.247.024.404.272.47l6.838 1.833c.248.066.338.223.272.47l-.596 2.226c-.067.247-.223.338-.471.271l-6.839-1.832c-.247-.066-.404.024-.47.272l-.975 3.64c-.066.247.024.404.271.47l7.72 2.069c.247.066.338.223.272.47l-.603 2.249c-.066.247-.223.338-.47.271l-11.058-2.963zm15.764-1.515l.286-1.439.361-1.718.663-2.754 1.739-6.491 3.13.839-1.739 6.491-1.417 4.639-.381 1.141-2.642-.708zm-.182 5.964a1.94 1.94 0 0 1-1.202-.894c-.256-.466-.314-.962-.173-1.487.133-.495.432-.87.898-1.126.47-.272.961-.339 1.471-.202a1.76 1.76 0 0 1 1.126.898c.275.454.347.929.214 1.424a1.93 1.93 0 0 1-.893 1.201c-.451.261-.931.322-1.441.186z" fill="#fff"/><defs ><path id="D" d="M727.895 183.432a10.77 10.77 0 0 1 5.392-14.243l71.178-32.09a10.77 10.77 0 0 1 14.243 5.392l32.09 71.178c2.444 5.422.03 11.799-5.392 14.244l-71.178 32.089c-5.422 2.444-11.799.03-14.244-5.392l-32.089-71.178z"/><path id="E" d="M727.895 183.432c-.81-1.797-1.087-3.699-.897-5.527l14.711-3.02c-.662-2.167-1.116-4.417-1.116-6.362 0-.912.051-1.812.151-2.696 1.271-11.253 10.399-19.981 21.472-19.981 4.838 0 9.305 1.666 12.906 4.482.816.637 1.587 1.333 2.308 2.082 2.849 2.866 7.994 2.866 22.957 2.866 10.435 0 19.984 3.6 27.846 9.546a9.05 9.05 0 0 1 .897.785c.459.454.883.948 1.306 1.441l.499.575c4.261 4.839 14.917 9.487 25.61 10.531v13.461c-1.629 7.411-4.705 12.109-8.435 16.092-1.879 2.006-4.085 3.831-6.68 5.729-1.6 1.015-3.533 1.339-5.407 1.058-6.991-1.048-12.514-1.34-16.104-1.34-31.069 0-53.761 17.204-55.449 46.388a10.72 10.72 0 0 1-4.486-4.932l-32.089-71.178z"/><path id="F" d="M746.66 225.047l17.712 39.276-.002-1.249c0-30.888 22.607-49.402 54.211-49.909-27.145.243-52.078 4.646-71.921 11.882z"/><path id="G" d="M817.198 213.198c-26.879.637-50.82 8.061-67.101 19.467l14.276 31.657-.002-1.248c0-30.435 21.949-48.857 52.827-49.876z"/><path id="H" d="M807.463 214.14c-23.024 3.411-42.118 15.383-51.531 31.468l8.439 18.715-.001-1.249c0-27.128 17.438-44.711 43.093-48.934z"/><path id="I" d="M740.904 175.061c10.083-1.547 23.492-2.627 38.55-2.995-4.605-2.989-6.084-8.098-7.52-13.058-1.679-5.799-3.299-11.394-9.787-13.162-12.672-.252-21.706 9.97-21.706 24.238a27.97 27.97 0 0 0 .463 4.977z"/><path id="J" d="M856.6 191.615s3.445-.665 2.318-10.917c-.168-1.531-1.126-2.736-2.318-2.916-.515-.078-1.019-.133-1.464-.133-2.456 0-3.49.225-4.882 1.587l-3.764 3.667c-.352.343-.337.913.032 1.237 4.659 4.089 8.749 7.475 10.078 7.475z"/><path id="K" d="M821.451 178.394c2.087-.102 3.723-1.603 3.796-3.412l-.003.002c.084-2.094-1.925-3.713-4.297-3.598-1.97.096-2.196.132-8.429 1.622-.378.091-.482.524-.174.735 6.912 4.757 7.02 4.752 9.107 4.651z"/></defs></svg>