<svg id="svg" version="1.1" xmlns="http://www.w3.org/2000/svg" xmlns:xlink="http://www.w3.org/1999/xlink" width="400" height="400" viewBox="0, 0, 400,400"><g id="svgg"><path id="path0" d="M316.895 202.350 C 316.196 202.507,315.625 202.566,315.625 202.480 C 315.625 202.284,314.492 203.295,305.108 211.870 C 295.722 220.446,295.504 220.655,296.973 219.729 C 297.563 219.356,298.047 219.180,298.047 219.339 C 298.047 219.497,298.283 219.431,298.571 219.192 C 298.859 218.953,299.211 218.872,299.352 219.014 C 299.494 219.155,299.623 218.934,299.640 218.522 C 299.657 218.110,299.758 217.989,299.865 218.252 C 300.014 218.620,300.253 218.607,300.908 218.192 C 302.679 217.072,304.445 216.980,304.147 218.023 C 301.793 226.271,302.100 232.370,305.250 239.896 C 305.468 240.415,304.989 240.695,302.678 241.397 C 301.116 241.871,298.663 242.851,297.227 243.574 L 294.616 244.889 292.813 243.695 C 289.793 241.694,285.803 236.199,285.406 233.493 C 285.357 233.162,285.097 232.626,284.827 232.301 C 284.496 231.902,284.470 231.628,284.747 231.457 C 284.972 231.318,285.142 230.731,285.125 230.153 C 285.108 229.575,285.007 229.317,284.901 229.580 C 284.794 229.843,284.760 230.107,284.825 230.166 C 284.890 230.225,283.628 231.488,282.022 232.971 C 278.213 236.491,278.032 236.721,278.570 237.370 C 278.808 237.656,278.900 237.891,278.775 237.891 C 277.695 237.891,282.597 245.557,285.395 248.242 L 287.429 250.195 282.990 254.843 L 278.551 259.491 276.011 259.254 C 271.966 258.876,269.012 257.061,265.880 253.028 C 264.934 251.810,264.041 250.933,263.896 251.078 C 263.750 251.224,263.747 251.041,263.888 250.672 C 264.319 249.548,263.724 249.895,260.881 252.421 C 257.804 255.156,257.744 255.475,259.780 258.284 C 262.224 261.659,267.951 265.772,271.477 266.686 L 272.672 266.995 269.537 271.681 C 265.078 278.347,265.156 278.221,262.165 283.547 L 259.449 288.383 258.383 286.672 C 256.012 282.868,251.820 278.432,248.536 276.251 C 246.836 275.123,246.515 274.735,246.725 274.061 C 247.041 273.047,248.895 269.407,249.230 269.141 C 249.366 269.033,249.725 268.374,250.029 267.676 C 250.333 266.978,250.714 266.406,250.877 266.406 C 251.039 266.406,251.172 266.227,251.172 266.008 C 251.172 265.789,251.601 264.929,252.126 264.098 C 252.651 263.266,252.978 262.483,252.852 262.357 C 252.726 262.231,252.911 262.017,253.264 261.881 C 253.617 261.746,253.906 261.297,253.906 260.883 C 253.906 260.470,254.185 260.025,254.525 259.894 C 255.014 259.707,255.037 259.591,254.632 259.341 C 254.256 259.109,254.377 258.922,255.088 258.639 C 255.619 258.426,255.901 258.242,255.714 258.228 C 255.526 258.214,255.592 257.939,255.859 257.617 C 257.495 255.646,254.453 258.285,243.815 268.066 C 237.214 274.136,231.027 279.817,230.067 280.692 C 229.106 281.566,228.296 282.621,228.266 283.035 C 228.216 283.734,228.010 285.085,227.585 287.500 C 227.490 288.037,227.296 289.327,227.154 290.367 C 227.011 291.407,226.843 292.550,226.779 292.906 C 226.715 293.263,226.522 294.434,226.349 295.508 C 226.176 296.582,226.011 297.549,225.983 297.656 C 225.954 297.764,225.798 298.574,225.635 299.457 L 225.341 301.062 221.978 299.903 C 219.399 299.014,217.729 298.708,214.806 298.591 C 210.250 298.408,211.993 297.219,198.070 310.011 C 197.410 310.618,197.759 311.163,198.509 310.695 C 198.792 310.519,199.375 310.323,199.805 310.261 C 200.234 310.198,200.850 310.037,201.172 309.902 C 206.001 307.883,217.461 309.379,221.613 312.572 C 223.170 313.769,217.112 331.596,210.539 345.158 L 207.490 351.450 203.572 353.871 C 197.447 357.657,194.508 361.218,192.916 366.786 C 191.668 371.151,192.007 372.977,193.653 370.751 C 202.135 359.278,214.139 355.036,221.788 360.808 L 223.067 361.774 224.913 360.221 C 225.927 359.366,227.285 358.108,227.930 357.425 C 229.806 355.437,230.382 355.261,231.580 356.313 C 232.150 356.814,231.650 356.207,230.469 354.964 C 228.159 352.533,225.153 350.525,222.149 349.406 C 221.118 349.022,220.360 348.515,220.465 348.280 C 222.834 342.933,224.099 339.813,225.831 335.037 L 227.930 329.254 235.742 325.405 C 246.096 320.304,257.230 315.625,259.015 315.625 C 259.978 315.625,258.995 324.609,257.601 328.563 C 256.767 330.924,257.041 330.848,260.225 327.829 C 265.345 322.975,270.597 318.359,271.000 318.359 C 271.870 318.359,271.075 301.804,270.161 300.890 C 270.108 300.837,269.473 300.964,268.750 301.172 C 268.027 301.379,267.352 301.466,267.250 301.365 C 266.961 301.076,270.400 293.843,272.815 289.660 C 274.017 287.579,275.000 285.792,275.000 285.691 C 275.000 284.808,283.246 273.142,287.526 267.969 C 293.346 260.933,297.914 256.918,303.023 254.345 C 313.005 249.319,324.382 252.586,328.786 261.744 C 330.137 264.553,330.859 265.497,330.859 264.453 C 330.859 264.238,330.662 264.063,330.421 264.063 C 329.772 264.063,330.569 263.209,334.855 259.314 C 338.531 255.973,339.674 255.219,339.204 256.445 C 339.080 256.768,339.174 257.031,339.411 257.031 C 340.126 257.031,339.908 256.263,338.672 254.432 C 338.027 253.477,337.500 252.583,337.500 252.447 C 337.500 252.310,336.823 251.396,335.996 250.416 L 334.493 248.633 334.832 245.796 C 335.955 236.392,342.998 228.722,350.982 228.210 C 354.980 227.953,357.424 229.571,361.572 235.222 C 362.334 236.260,363.042 237.109,363.146 237.109 C 363.250 237.109,362.971 236.599,362.527 235.976 L 361.720 234.842 364.161 232.523 C 369.855 227.111,370.573 226.570,370.349 227.861 C 370.318 228.038,370.462 228.078,370.669 227.951 C 370.876 227.823,371.227 228.029,371.448 228.410 C 371.670 228.790,371.857 228.945,371.863 228.753 C 371.937 226.584,359.022 214.950,351.758 210.641 C 340.654 204.055,325.420 200.432,316.895 202.350 M332.262 215.372 C 335.891 216.380,342.166 218.916,343.995 220.114 L 345.015 220.782 342.332 222.108 C 335.387 225.539,329.550 232.766,327.565 240.391 C 326.800 243.330,327.053 243.219,323.959 241.981 C 322.497 241.396,319.799 240.641,317.964 240.303 C 314.726 239.706,314.597 239.641,313.571 238.066 C 308.949 230.973,309.910 219.964,315.567 215.197 L 316.992 213.995 322.852 214.191 C 327.484 214.345,329.455 214.593,332.262 215.372 M244.141 285.125 C 245.322 286.108,246.610 287.309,247.003 287.794 C 247.395 288.279,247.952 288.911,248.239 289.199 C 250.994 291.954,254.705 300.874,255.153 305.818 L 255.273 307.143 252.148 308.216 C 248.385 309.508,242.206 312.122,236.982 314.632 C 232.373 316.846,232.665 317.062,233.832 312.303 C 234.914 307.889,236.808 298.241,237.512 293.555 C 237.770 291.836,238.030 290.166,238.091 289.844 C 238.151 289.521,238.314 288.115,238.452 286.719 C 238.590 285.322,238.794 283.600,238.904 282.891 L 239.105 281.603 240.549 282.470 C 241.343 282.947,242.959 284.142,244.141 285.125 M179.883 326.761 C 177.305 329.189,175.086 331.108,174.952 331.025 C 174.818 330.942,174.692 331.669,174.673 332.639 C 174.653 333.610,174.553 334.540,174.451 334.707 C 174.348 334.873,173.986 337.139,173.646 339.742 C 172.390 349.365,169.933 359.888,168.057 363.672 L 166.992 365.820 163.672 365.924 L 160.352 366.027 159.502 364.704 C 158.587 363.279,155.859 354.971,155.859 353.608 C 155.859 353.153,155.672 352.664,155.442 352.523 C 155.213 352.381,155.119 352.019,155.235 351.718 C 155.350 351.418,155.255 351.172,155.024 351.172 C 154.793 351.172,154.705 350.908,154.829 350.586 C 155.210 349.591,154.787 349.890,150.867 353.384 C 145.573 358.103,145.801 357.658,146.841 361.230 C 147.045 361.929,147.100 362.500,146.965 362.500 C 146.830 362.500,146.930 362.711,147.187 362.969 C 147.445 363.227,147.656 363.806,147.656 364.256 C 147.656 364.706,148.435 366.625,149.386 368.521 C 151.739 373.210,152.856 380.087,151.486 381.457 C 151.212 381.730,144.412 381.990,131.093 382.236 L 119.022 382.458 116.640 384.728 C 115.330 385.977,112.368 388.720,110.059 390.823 C 106.072 394.454,104.910 395.848,106.641 394.922 C 107.070 394.692,107.422 394.664,107.422 394.860 C 107.422 395.056,109.211 395.247,111.398 395.285 C 113.585 395.322,115.502 395.432,115.658 395.528 C 115.814 395.625,124.528 395.543,135.022 395.347 C 157.468 394.928,157.085 394.993,161.076 390.939 L 163.364 388.616 163.982 389.523 C 166.353 393.002,169.332 394.501,174.772 394.952 C 179.986 395.384,187.109 395.398,187.109 394.976 C 187.109 394.791,187.593 394.706,188.184 394.786 C 189.022 394.900,189.094 394.861,188.515 394.608 C 187.879 394.331,188.655 393.472,193.869 388.679 C 197.223 385.597,199.885 382.943,199.786 382.782 C 199.686 382.621,199.825 382.400,200.095 382.291 C 200.365 382.182,196.367 382.068,191.211 382.038 C 181.771 381.982,176.036 381.765,175.055 381.425 C 173.714 380.961,174.650 373.163,176.437 369.922 C 178.993 365.283,181.002 357.659,182.974 345.117 C 184.030 338.396,184.723 330.517,184.630 326.271 C 184.591 324.484,184.727 322.994,184.936 322.925 C 185.173 322.846,185.175 322.715,184.942 322.573 C 184.737 322.449,182.461 324.333,179.883 326.761 M247.645 344.434 L 245.117 347.070 247.754 344.543 C 249.204 343.152,250.391 341.966,250.391 341.906 C 250.391 341.618,249.993 341.984,247.645 344.434 M132.946 369.831 C 132.620 370.038,132.691 370.364,133.196 370.987 C 133.819 371.757,133.918 371.779,134.073 371.182 C 134.413 369.869,133.884 369.235,132.946 369.831 M205.566 382.318 C 206.587 382.399,208.257 382.399,209.277 382.318 C 210.298 382.238,209.463 382.172,207.422 382.172 C 205.381 382.172,204.546 382.238,205.566 382.318 M196.582 395.592 C 197.173 395.682,198.140 395.682,198.730 395.592 C 199.321 395.503,198.838 395.430,197.656 395.430 C 196.475 395.430,195.991 395.503,196.582 395.592 M213.579 395.589 C 214.065 395.682,214.768 395.679,215.141 395.581 C 215.515 395.483,215.117 395.407,214.258 395.411 C 213.398 395.415,213.093 395.495,213.579 395.589 " stroke="none" fill="#593a80" fill-rule="evenodd"></path><path id="path1" d="M290.234 3.384 C 270.953 4.733,251.045 12.065,230.342 25.443 L 228.066 26.913 225.654 25.533 C 199.403 10.518,168.469 5.813,139.063 12.363 C 132.428 13.841,128.061 15.184,127.442 15.936 C 127.141 16.302,127.018 16.363,127.168 16.071 C 127.464 15.498,126.702 15.641,124.414 16.587 C 123.770 16.854,121.506 17.750,119.384 18.578 C 117.262 19.406,115.714 20.147,115.945 20.224 C 116.175 20.300,116.728 20.168,117.174 19.929 C 117.620 19.690,118.184 19.618,118.428 19.769 C 118.689 19.930,118.763 19.869,118.609 19.620 C 118.293 19.108,119.731 18.586,120.369 18.980 C 120.652 19.155,120.719 19.091,120.545 18.810 C 120.392 18.562,120.467 18.359,120.713 18.359 C 121.576 18.359,120.796 19.131,109.212 29.733 C 102.785 35.616,89.801 47.526,80.358 56.200 C 70.110 65.613,63.083 71.796,62.924 71.539 C 62.773 71.294,62.026 72.207,61.196 73.651 C 60.391 75.050,59.855 76.392,60.005 76.634 C 60.184 76.923,60.099 76.964,59.760 76.754 C 59.381 76.520,59.311 76.614,59.499 77.105 C 59.641 77.473,59.607 77.682,59.424 77.569 C 59.241 77.456,58.516 78.633,57.814 80.186 C 57.111 81.738,55.967 84.238,55.272 85.742 C 54.577 87.246,53.342 90.410,52.527 92.773 C 51.712 95.137,50.919 97.217,50.763 97.396 C 50.516 97.681,46.329 91.714,44.927 89.077 C 44.443 88.167,44.399 88.157,44.131 88.882 C 43.896 89.515,41.172 92.159,33.437 99.262 C 32.570 100.059,35.129 104.252,40.780 111.296 C 42.894 113.930,43.681 115.206,43.552 115.788 C 40.849 127.976,39.756 155.541,41.697 162.553 C 45.758 177.220,71.284 205.271,87.144 212.498 C 87.737 212.768,88.661 214.026,89.585 215.823 C 90.404 217.413,91.689 219.519,92.441 220.504 L 93.808 222.294 92.384 225.610 C 88.103 235.577,84.210 252.925,83.007 267.398 L 82.746 270.537 80.534 271.694 C 73.614 275.315,63.646 286.834,62.744 292.252 C 62.697 292.539,62.440 293.169,62.175 293.652 C 61.241 295.351,62.499 294.523,66.694 290.678 C 73.770 284.194,95.842 264.001,96.799 263.137 C 97.475 262.526,97.639 262.481,97.456 262.958 C 97.322 263.307,97.396 263.706,97.621 263.845 C 97.888 264.011,98.019 263.317,97.999 261.834 C 97.982 260.589,98.070 258.779,98.195 257.813 C 98.320 256.846,98.521 255.176,98.642 254.102 C 99.347 247.856,102.879 234.734,104.916 230.794 L 105.469 229.726 108.496 231.520 C 113.072 234.233,124.730 239.072,125.304 238.498 C 125.420 238.383,125.706 238.444,125.941 238.635 C 126.576 239.151,129.344 239.845,129.083 239.423 C 128.960 239.225,128.618 239.063,128.323 239.063 C 128.027 239.063,127.290 238.859,126.686 238.609 C 126.081 238.360,125.335 238.199,125.028 238.252 C 124.557 238.332,124.563 238.208,125.061 237.457 C 126.142 235.830,126.763 235.689,128.705 236.633 C 131.607 238.043,131.259 237.627,127.967 235.751 C 122.512 232.643,110.217 222.075,111.066 221.225 C 111.457 220.835,118.768 223.459,123.047 225.526 C 128.307 228.066,133.984 230.222,133.984 229.678 C 133.984 229.468,133.765 229.285,133.496 229.269 C 133.223 229.254,133.286 229.125,133.640 228.976 C 134.669 228.544,147.267 216.802,147.251 216.290 C 147.243 216.032,146.548 215.345,145.707 214.763 C 140.935 211.464,142.940 208.788,151.491 207.046 C 153.639 206.608,156.072 206.232,156.897 206.211 C 158.823 206.161,160.202 205.770,160.205 205.273 C 160.208 204.577,174.385 191.817,175.195 191.782 C 175.895 191.751,175.881 191.709,175.062 191.381 C 174.558 191.179,173.943 191.131,173.694 191.273 C 173.446 191.415,173.368 191.392,173.522 191.222 C 173.676 191.051,173.105 190.407,172.254 189.790 C 170.499 188.519,168.748 186.261,167.297 183.398 C 166.752 182.324,166.153 181.387,165.966 181.315 C 165.778 181.243,165.625 180.518,165.625 179.703 L 165.625 178.221 169.421 177.744 C 182.705 176.072,190.815 168.930,187.753 161.602 C 183.657 151.799,148.792 151.252,143.204 160.904 C 138.911 168.318,148.112 176.402,162.598 177.942 L 164.844 178.181 164.844 179.647 C 164.844 182.538,159.687 189.260,156.038 191.126 C 150.999 193.701,143.089 191.896,136.054 186.564 C 126.724 179.492,125.395 166.862,133.220 159.617 C 146.498 147.324,175.223 145.677,192.919 156.194 C 197.682 159.025,202.544 164.973,202.008 167.314 C 201.967 167.491,202.106 167.530,202.317 167.399 C 202.528 167.269,202.614 166.938,202.509 166.664 C 202.272 166.048,208.824 160.011,209.366 160.346 C 209.588 160.483,209.661 160.338,209.535 160.010 C 209.367 159.572,209.746 159.367,211.102 159.164 C 212.086 159.016,212.891 158.741,212.891 158.552 C 212.891 158.154,211.792 158.268,210.938 158.755 C 209.874 159.360,212.905 156.513,230.083 140.771 C 251.584 121.068,250.075 122.365,250.437 123.287 C 251.282 125.438,250.610 122.624,249.587 119.726 C 242.660 100.100,229.902 84.540,214.295 76.683 C 202.806 70.898,184.099 66.406,171.500 66.406 L 168.750 66.406 168.750 45.643 L 168.750 24.880 173.145 25.126 C 215.113 27.468,252.914 57.926,267.163 100.879 C 268.071 103.618,268.903 105.859,269.010 105.859 C 269.118 105.859,269.136 105.651,269.052 105.397 C 268.967 105.142,270.051 103.935,271.460 102.715 C 273.903 100.600,274.639 99.940,277.695 97.122 C 278.426 96.449,278.899 96.118,278.747 96.387 C 278.594 96.655,278.656 96.875,278.883 96.875 C 279.400 96.875,279.414 97.021,278.670 94.504 C 276.021 85.546,267.837 69.898,260.855 60.445 L 258.905 57.805 261.575 53.615 C 271.033 38.780,282.435 26.432,292.098 20.562 C 295.435 18.535,295.507 18.569,296.420 22.559 C 300.123 38.741,299.458 53.775,294.321 70.006 C 292.555 75.587,292.882 74.808,288.992 82.694 C 287.169 86.388,285.956 89.253,286.296 89.061 C 286.636 88.868,292.363 83.692,299.022 77.558 C 305.681 71.425,311.370 66.406,311.664 66.406 C 312.033 66.406,312.146 66.051,312.029 65.255 C 311.936 64.622,311.982 64.179,312.130 64.271 C 312.410 64.443,312.451 64.245,313.571 57.422 C 314.520 51.642,314.524 34.096,313.577 27.833 C 310.415 6.903,306.003 2.282,290.234 3.384 M269.206 26.465 C 263.602 32.546,258.063 39.749,253.726 46.596 L 251.899 49.479 248.508 46.168 C 246.643 44.347,243.936 41.835,242.492 40.587 L 239.867 38.318 240.929 37.577 C 244.509 35.081,257.057 28.430,261.845 26.491 C 264.591 25.378,271.994 22.701,272.393 22.676 C 272.570 22.665,271.136 24.370,269.206 26.465 M162.109 45.643 L 162.109 66.286 157.129 66.541 C 133.660 67.742,112.864 75.656,100.582 88.061 C 84.992 103.805,74.372 130.925,79.872 140.945 C 84.110 148.665,100.639 156.231,119.763 159.206 L 121.361 159.455 120.437 161.742 C 119.265 164.645,118.609 169.688,118.928 173.352 C 119.173 176.166,119.166 176.193,118.279 176.003 C 117.786 175.897,115.713 175.612,113.672 175.370 C 100.876 173.849,83.792 169.878,69.358 165.069 C 55.428 160.428,56.518 161.502,56.045 151.953 C 54.519 121.194,65.081 87.157,83.187 64.488 C 101.547 41.499,132.469 25.429,159.082 25.044 L 162.109 25.000 162.109 45.643 M52.344 32.153 C 52.344 32.221,52.915 32.792,53.613 33.423 L 54.883 34.570 53.736 33.301 C 52.666 32.117,52.344 31.852,52.344 32.153 M152.387 36.071 C 150.507 37.155,149.924 39.371,150.981 41.414 C 152.797 44.927,158.203 43.498,158.203 39.505 C 158.203 36.536,154.930 34.603,152.387 36.071 M174.175 36.112 C 171.995 37.341,171.725 41.008,173.700 42.561 C 176.258 44.573,180.078 42.743,180.078 39.505 C 180.078 36.488,176.823 34.617,174.175 36.112 M90.209 37.867 C 90.688 38.170,90.691 38.326,90.231 38.935 C 89.723 39.606,89.733 39.610,90.400 39.002 C 91.120 38.345,90.958 37.495,90.114 37.506 C 89.822 37.510,89.857 37.644,90.209 37.867 M85.327 43.066 L 84.180 44.336 85.545 43.164 C 86.296 42.520,86.984 41.948,87.075 41.895 C 87.165 41.841,87.067 41.797,86.857 41.797 C 86.646 41.797,85.958 42.368,85.327 43.066 M152.387 51.696 C 150.507 52.780,149.924 54.996,150.981 57.039 C 152.797 60.552,158.203 59.123,158.203 55.130 C 158.203 52.161,154.930 50.228,152.387 51.696 M174.262 51.696 C 172.382 52.780,171.799 54.996,172.856 57.039 C 174.672 60.552,180.078 59.123,180.078 55.130 C 180.078 52.161,176.805 50.228,174.262 51.696 M71.484 57.814 C 71.484 58.102,71.187 58.666,70.823 59.068 C 70.218 59.736,70.217 59.778,70.808 59.551 C 71.491 59.289,72.107 57.914,71.715 57.523 C 71.588 57.396,71.484 57.527,71.484 57.814 M67.969 62.891 C 67.510 63.535,67.222 64.063,67.330 64.063 C 67.437 64.063,67.900 63.535,68.359 62.891 C 68.818 62.246,69.106 61.719,68.999 61.719 C 68.891 61.719,68.428 62.246,67.969 62.891 M65.887 65.918 C 65.381 66.724,64.503 68.121,63.936 69.024 C 63.337 69.978,63.065 70.765,63.288 70.903 C 63.499 71.033,63.672 70.855,63.672 70.508 C 63.672 70.160,63.852 69.987,64.072 70.123 C 64.292 70.259,64.433 70.226,64.385 70.049 C 64.202 69.369,64.919 67.969,65.323 68.219 C 65.560 68.365,65.634 68.300,65.492 68.070 C 65.353 67.845,65.513 67.555,65.847 67.427 C 66.182 67.298,66.349 67.021,66.219 66.811 C 66.089 66.600,66.274 65.984,66.630 65.441 C 66.986 64.898,67.171 64.453,67.042 64.453 C 66.913 64.453,66.393 65.112,65.887 65.918 M311.211 67.447 C 311.378 67.881,311.311 68.004,311.008 67.817 C 310.708 67.631,310.638 67.752,310.801 68.177 C 310.997 68.688,311.112 68.711,311.377 68.294 C 311.823 67.590,311.804 66.797,311.340 66.797 C 311.132 66.797,311.074 67.089,311.211 67.447 M284.375 91.797 C 284.896 92.133,284.896 92.178,284.375 92.196 C 283.800 92.216,279.855 97.656,280.415 97.656 C 280.573 97.656,281.378 96.594,282.206 95.295 C 283.033 93.997,284.040 92.757,284.444 92.541 C 285.201 92.136,285.078 91.402,284.254 91.412 C 283.975 91.416,284.023 91.569,284.375 91.797 M123.258 113.888 C 131.441 116.018,137.734 124.481,137.941 133.633 C 138.082 139.893,132.199 139.350,131.597 133.048 C 130.241 118.850,114.884 114.771,107.917 126.758 C 105.428 131.039,100.150 129.040,102.162 124.579 C 105.872 116.351,114.984 111.733,123.258 113.888 M215.313 113.721 C 224.491 115.670,232.980 127.477,226.393 129.130 C 225.040 129.470,224.008 128.757,222.519 126.454 C 215.042 114.893,201.160 118.712,199.050 132.910 C 198.466 136.839,197.761 137.891,195.713 137.891 C 192.747 137.891,191.907 134.781,193.350 129.139 C 196.127 118.280,205.569 111.652,215.313 113.721 M247.635 144.824 L 246.289 146.289 247.754 144.943 C 249.117 143.690,249.398 143.359,249.100 143.359 C 249.035 143.359,248.376 144.019,247.635 144.824 M210.602 163.281 C 210.602 163.604,210.753 164.219,210.938 164.648 C 211.149 165.141,211.273 165.213,211.273 164.844 C 211.273 164.521,211.122 163.906,210.938 163.477 C 210.726 162.984,210.602 162.912,210.602 163.281 M75.922 174.253 C 88.023 177.763,102.707 180.809,115.180 182.396 C 118.480 182.816,121.223 183.214,121.275 183.279 C 121.327 183.345,121.830 184.189,122.393 185.156 C 125.569 190.613,130.526 194.985,137.141 198.162 C 141.924 200.460,141.830 200.362,140.199 201.326 C 136.091 203.753,134.204 206.933,134.190 211.455 L 134.180 214.513 132.480 214.258 C 126.224 213.319,110.835 208.073,102.286 203.965 C 88.081 197.137,74.021 185.674,64.821 173.421 C 62.077 169.766,62.036 169.817,66.504 171.328 C 68.706 172.073,72.944 173.390,75.922 174.253 M268.139 193.066 L 266.992 194.336 268.262 193.189 C 268.960 192.558,269.531 191.986,269.531 191.919 C 269.531 191.617,269.209 191.883,268.139 193.066 M192.188 202.466 C 192.188 202.533,192.759 203.104,193.457 203.736 L 194.727 204.883 193.579 203.613 C 192.510 202.430,192.188 202.164,192.188 202.466 M161.680 205.588 C 161.853 205.760,163.032 205.846,164.299 205.778 L 166.602 205.654 163.983 205.464 C 162.542 205.359,161.506 205.415,161.680 205.588 M310.645 227.148 C 310.650 228.008,310.730 228.313,310.823 227.827 C 310.917 227.342,310.913 226.638,310.815 226.265 C 310.717 225.892,310.641 226.289,310.645 227.148 M272.056 238.379 L 270.117 240.430 272.168 238.491 C 274.074 236.690,274.398 236.328,274.106 236.328 C 274.045 236.328,273.122 237.251,272.056 238.379 M80.078 287.305 C 79.129 288.271,78.441 289.063,78.548 289.063 C 78.656 289.063,79.520 288.271,80.469 287.305 C 81.418 286.338,82.106 285.547,81.999 285.547 C 81.891 285.547,81.027 286.338,80.078 287.305 M60.592 298.113 C 60.567 298.471,60.446 299.086,60.322 299.480 C 60.109 300.158,60.121 300.159,60.544 299.499 C 60.789 299.117,60.911 298.501,60.814 298.132 C 60.655 297.527,60.633 297.526,60.592 298.113 M271.591 314.844 C 271.591 315.811,271.667 316.206,271.760 315.723 C 271.853 315.239,271.853 314.448,271.760 313.965 C 271.667 313.481,271.591 313.877,271.591 314.844 M150.879 395.191 C 151.255 395.289,151.870 395.289,152.246 395.191 C 152.622 395.093,152.314 395.013,151.563 395.013 C 150.811 395.013,150.503 395.093,150.879 395.191 M174.316 395.191 C 174.692 395.289,175.308 395.289,175.684 395.191 C 176.060 395.093,175.752 395.013,175.000 395.013 C 174.248 395.013,173.940 395.093,174.316 395.191 M191.504 395.582 C 191.880 395.680,192.495 395.680,192.871 395.582 C 193.247 395.484,192.939 395.403,192.188 395.403 C 191.436 395.403,191.128 395.484,191.504 395.582 " stroke="none" fill="#d6536a" fill-rule="evenodd"></path><path id="path2" d="M279.688 163.563 C 270.695 171.856,254.599 186.657,251.563 189.425 C 250.811 190.110,249.668 191.188,249.023 191.820 C 247.854 192.967,246.971 193.371,247.498 192.518 C 247.672 192.236,247.605 192.173,247.320 192.349 C 247.068 192.505,246.955 192.782,247.068 192.964 C 247.180 193.147,240.811 199.227,232.914 206.476 C 225.016 213.725,218.204 219.984,217.775 220.384 C 216.910 221.192,218.785 221.076,220.457 220.219 C 220.939 219.972,221.106 219.977,220.946 220.235 C 219.865 221.984,213.111 228.904,210.957 230.469 C 210.218 231.006,209.053 231.929,208.368 232.520 C 207.684 233.110,206.946 233.594,206.729 233.594 C 206.511 233.594,206.232 233.857,206.109 234.180 C 205.985 234.502,205.694 234.766,205.462 234.766 C 205.230 234.766,204.079 235.381,202.903 236.133 C 201.728 236.885,200.603 237.500,200.403 237.500 C 200.204 237.500,199.561 237.944,198.976 238.487 C 198.390 239.029,197.739 239.416,197.529 239.345 C 197.190 239.232,195.313 240.809,195.313 241.206 C 195.313 241.292,195.708 241.284,196.191 241.190 C 196.675 241.096,197.686 240.909,198.438 240.776 C 204.924 239.625,214.888 236.384,219.768 233.838 L 222.433 232.448 223.319 234.876 C 225.218 240.077,227.088 247.666,227.572 252.126 C 227.689 253.213,227.858 254.326,227.947 254.601 C 228.628 256.704,228.911 272.089,228.390 278.647 C 228.217 280.824,228.255 282.051,228.493 281.968 C 228.701 281.895,234.886 276.299,242.239 269.531 C 254.311 258.419,257.505 255.620,255.909 257.554 C 255.592 257.939,255.543 258.203,255.789 258.203 C 256.018 258.203,256.519 257.672,256.903 257.024 C 257.286 256.375,257.803 255.922,258.052 256.018 C 258.322 256.121,258.434 255.920,258.329 255.519 C 258.209 255.059,259.017 254.078,260.879 252.423 C 263.724 249.895,264.320 249.548,263.888 250.672 C 263.747 251.041,263.754 251.220,263.906 251.068 C 264.057 250.917,264.421 251.098,264.716 251.471 C 265.034 251.874,264.971 251.516,264.559 250.586 C 264.179 249.727,263.732 248.923,263.566 248.800 C 262.919 248.320,266.995 243.492,273.230 237.352 C 276.318 234.311,277.179 233.649,277.293 234.227 C 277.676 236.166,278.131 236.857,278.626 236.252 C 278.887 235.932,280.416 234.455,282.022 232.971 C 283.628 231.488,284.884 230.273,284.813 230.273 C 284.741 230.273,284.887 229.516,285.136 228.590 C 285.687 226.544,287.604 225.072,294.402 221.474 C 295.084 221.114,296.050 220.372,296.551 219.826 C 297.543 218.744,311.934 205.535,313.976 203.834 C 315.685 202.409,315.573 202.226,313.184 202.541 C 302.070 204.006,285.317 211.279,276.182 218.604 C 275.854 218.867,274.192 220.190,272.488 221.544 C 262.967 229.109,248.971 245.365,243.364 255.371 C 242.072 257.678,242.054 257.651,241.040 251.855 C 239.410 242.541,236.869 232.836,234.790 227.986 L 234.057 226.276 235.706 224.173 C 237.574 221.791,240.274 217.290,241.371 214.730 C 241.916 213.459,242.528 212.792,243.719 212.171 C 251.544 208.093,265.464 196.495,272.862 187.891 C 283.543 175.467,288.908 165.683,289.281 157.945 C 289.367 156.153,289.398 154.699,289.348 154.712 C 289.298 154.726,284.951 158.709,279.688 163.563 M300.954 218.186 C 300.207 218.783,300.208 218.787,300.977 218.434 C 301.406 218.236,302.021 217.977,302.344 217.857 C 302.850 217.669,302.847 217.636,302.321 217.609 C 301.986 217.592,301.371 217.851,300.954 218.186 M284.623 231.555 C 284.492 231.768,284.645 232.160,284.965 232.425 C 285.600 232.953,285.733 232.539,285.199 231.697 C 284.995 231.375,284.769 231.319,284.623 231.555 M254.492 258.984 C 254.359 259.199,254.514 259.375,254.837 259.375 C 255.159 259.375,255.531 259.199,255.664 258.984 C 255.797 258.770,255.642 258.594,255.320 258.594 C 254.997 258.594,254.625 258.770,254.492 258.984 M171.289 263.082 C 169.355 264.893,168.028 266.382,168.340 266.391 C 168.733 266.401,168.782 266.531,168.499 266.813 C 168.216 267.096,168.247 267.818,168.598 269.172 C 168.876 270.245,169.277 272.303,169.488 273.745 C 169.699 275.187,170.143 278.125,170.475 280.273 C 171.473 286.729,172.984 298.060,173.236 300.977 C 173.367 302.480,173.545 304.326,173.633 305.078 C 174.231 310.189,174.284 313.282,173.773 313.311 C 173.481 313.328,172.891 313.410,172.461 313.495 C 170.454 313.891,160.237 314.135,156.452 313.877 L 152.229 313.589 152.487 309.085 C 152.628 306.607,152.905 303.418,153.103 301.997 C 153.300 300.576,153.664 297.744,153.912 295.703 C 154.515 290.734,154.686 289.437,154.892 288.281 C 155.345 285.732,155.642 282.808,155.653 280.799 C 155.659 279.584,155.776 278.659,155.913 278.744 C 156.224 278.936,156.632 277.465,156.347 277.180 C 156.162 276.995,152.871 279.899,146.202 286.133 C 145.052 287.207,144.026 288.525,143.922 289.063 C 143.711 290.142,143.058 294.917,142.746 297.656 C 141.628 307.473,142.024 306.600,139.403 305.026 C 134.161 301.879,130.830 300.366,130.263 300.875 C 129.961 301.146,129.489 301.545,129.213 301.763 C 125.964 304.325,121.253 308.971,122.052 308.826 C 122.574 308.731,123.056 308.789,123.122 308.955 C 123.188 309.121,124.473 309.644,125.977 310.117 C 129.735 311.299,134.363 313.682,138.086 316.353 L 141.211 318.595 141.304 320.724 C 141.692 329.647,142.775 342.009,143.510 345.898 C 143.591 346.328,143.787 347.471,143.945 348.438 C 144.303 350.624,144.303 350.625,145.139 354.830 C 145.787 358.088,145.864 358.248,146.449 357.541 C 148.022 355.639,154.429 350.237,154.584 350.684 C 154.677 350.952,154.924 351.172,155.134 351.172 C 155.343 351.172,155.390 350.969,155.237 350.722 C 155.084 350.475,154.926 349.727,154.886 349.062 C 154.846 348.396,154.511 345.918,154.143 343.555 C 153.774 341.191,153.384 338.467,153.276 337.500 C 153.167 336.533,152.998 335.303,152.900 334.766 C 152.803 334.229,152.610 331.186,152.471 328.004 L 152.220 322.220 153.356 322.521 C 155.051 322.969,171.422 322.844,173.346 322.368 L 175.012 321.955 174.758 325.987 C 174.374 332.054,174.265 332.036,179.833 326.812 C 182.486 324.323,184.769 322.399,184.906 322.537 C 185.044 322.674,185.156 321.930,185.156 320.883 C 185.156 318.758,186.146 317.609,189.915 315.357 C 190.927 314.752,191.928 313.906,192.140 313.477 C 192.352 313.047,192.537 312.903,192.552 313.156 C 192.568 313.437,193.451 313.174,194.824 312.477 C 196.060 311.851,197.271 311.336,197.515 311.333 C 197.760 311.330,197.936 311.088,197.906 310.795 C 197.858 310.323,206.908 301.679,209.964 299.277 L 211.133 298.359 208.594 298.620 C 202.404 299.258,196.107 301.241,188.901 304.823 L 184.850 306.836 184.382 301.953 C 182.974 287.273,177.753 262.965,175.530 260.743 C 175.122 260.335,175.114 260.176,175.492 260.023 C 175.816 259.892,175.783 259.821,175.391 259.808 C 175.068 259.798,173.223 261.271,171.289 263.082 M254.041 260.368 C 253.689 261.285,254.069 261.392,254.608 260.529 C 254.910 260.046,254.936 259.766,254.679 259.766 C 254.455 259.766,254.168 260.037,254.041 260.368 M227.958 283.426 C 227.814 283.999,227.772 284.543,227.864 284.635 C 227.956 284.727,228.149 284.334,228.292 283.761 C 228.436 283.189,228.478 282.645,228.386 282.553 C 228.294 282.461,228.101 282.854,227.958 283.426 M102.547 326.106 C 100.437 328.029,98.577 329.843,98.412 330.138 C 98.017 330.844,102.349 342.730,104.558 347.002 C 104.876 347.616,105.079 348.160,105.009 348.210 C 104.940 348.261,103.496 348.950,101.802 349.743 C 95.506 352.688,90.880 358.760,89.497 365.890 L 88.867 369.138 73.438 369.144 C 53.842 369.151,56.228 368.608,49.788 374.521 L 44.458 379.416 45.959 380.098 C 48.308 381.165,49.423 381.219,69.531 381.243 L 88.477 381.266 89.830 384.027 C 92.582 389.643,97.664 393.756,103.274 394.907 L 105.273 395.318 108.594 392.196 C 110.420 390.479,113.439 387.709,115.303 386.041 C 117.167 384.373,118.705 382.891,118.721 382.748 C 118.755 382.441,114.631 382.087,109.174 381.929 C 102.685 381.741,99.687 377.711,100.096 369.727 C 100.823 355.539,117.119 354.077,129.546 367.084 C 134.069 371.818,135.357 370.105,132.257 363.477 C 130.737 360.227,127.835 357.085,124.219 354.773 C 118.687 351.237,118.862 351.426,116.260 346.145 C 113.600 340.746,110.333 333.206,109.014 329.425 C 108.552 328.098,107.770 326.022,107.278 324.811 L 106.382 322.609 102.547 326.106 M184.402 323.535 C 184.479 324.897,185.102 325.567,185.129 324.316 C 185.144 323.618,184.980 323.047,184.766 323.047 C 184.551 323.047,184.387 323.267,184.402 323.535 M174.219 333.398 C 174.219 334.150,174.287 334.766,174.371 334.766 C 174.455 334.766,174.596 334.150,174.684 333.398 C 174.771 332.646,174.703 332.031,174.531 332.031 C 174.359 332.031,174.219 332.646,174.219 333.398 M79.827 346.394 C 79.948 346.590,79.440 347.340,78.697 348.060 C 77.121 349.588,77.177 349.656,80.958 350.799 C 82.409 351.238,84.767 352.121,86.197 352.763 C 87.627 353.405,88.967 353.873,89.176 353.803 C 89.742 353.614,81.814 347.657,80.987 347.650 C 80.504 347.646,80.426 347.547,80.746 347.344 C 81.085 347.129,80.990 346.901,80.412 346.540 C 79.969 346.263,79.705 346.197,79.827 346.394 M123.730 382.314 C 124.429 382.400,125.571 382.400,126.270 382.314 C 126.968 382.227,126.396 382.156,125.000 382.156 C 123.604 382.156,123.032 382.227,123.730 382.314 M125.684 395.588 C 126.167 395.681,126.958 395.681,127.441 395.588 C 127.925 395.495,127.529 395.419,126.563 395.419 C 125.596 395.419,125.200 395.495,125.684 395.588 M131.348 395.582 C 131.724 395.680,132.339 395.680,132.715 395.582 C 133.091 395.484,132.783 395.403,132.031 395.403 C 131.279 395.403,130.972 395.484,131.348 395.582 " stroke="none" fill="#844176" fill-rule="evenodd"></path><path id="path3" d="M31.658 3.552 C 24.344 4.986,20.513 9.880,18.388 20.508 C 14.512 39.888,15.648 59.183,21.687 76.563 C 23.047 80.474,26.719 89.213,27.351 90.039 C 27.632 90.407,30.454 95.643,31.402 97.556 C 31.641 98.037,31.968 98.433,32.129 98.434 C 32.290 98.436,32.422 98.701,32.422 99.023 C 32.422 100.117,33.111 99.615,38.629 94.503 C 45.021 88.580,44.704 89.522,42.046 84.338 C 40.894 82.091,39.817 79.818,39.652 79.287 C 39.486 78.755,39.024 77.617,38.624 76.758 C 35.590 70.236,32.690 57.705,32.015 48.194 C 31.249 37.407,33.513 19.141,35.616 19.141 C 38.467 19.141,50.710 29.451,57.680 37.720 C 59.114 39.422,60.140 40.751,64.445 46.484 C 65.009 47.236,66.683 49.697,68.163 51.953 C 69.644 54.209,70.983 56.144,71.139 56.254 C 71.928 56.808,71.922 58.561,71.129 59.240 C 70.680 59.624,70.313 60.193,70.313 60.503 C 70.313 60.814,70.203 60.958,70.070 60.825 C 69.728 60.484,65.928 66.340,66.203 66.784 C 66.327 66.984,66.106 67.321,65.712 67.532 C 65.318 67.742,64.655 68.614,64.240 69.469 C 63.824 70.324,63.350 70.941,63.187 70.840 C 63.024 70.739,62.891 70.931,62.891 71.266 C 62.891 72.259,62.633 72.482,80.410 56.152 C 114.010 25.289,119.244 20.497,120.260 19.664 C 120.826 19.200,121.186 18.716,121.059 18.588 C 120.670 18.194,118.342 19.187,118.616 19.630 C 118.759 19.862,118.686 19.928,118.449 19.782 C 118.217 19.639,117.619 19.685,117.119 19.885 C 116.042 20.317,114.727 20.810,114.453 20.884 C 114.208 20.951,109.250 23.471,107.422 24.458 C 106.670 24.863,105.926 25.371,105.768 25.586 C 105.610 25.801,105.478 25.838,105.475 25.670 C 105.471 25.501,104.823 25.801,104.034 26.337 L 102.600 27.312 100.812 26.011 C 99.828 25.296,98.496 24.419,97.852 24.062 C 97.207 23.706,96.213 23.111,95.643 22.742 C 76.023 10.034,45.418 0.855,31.658 3.552 M69.336 26.639 C 72.316 27.930,80.235 31.838,82.422 33.097 C 83.174 33.530,85.107 34.665,86.719 35.620 C 88.330 36.574,89.956 37.470,90.332 37.611 C 91.351 37.992,91.174 38.461,89.551 39.674 C 87.742 41.027,85.551 43.038,81.578 46.994 C 79.856 48.708,78.516 49.777,78.516 49.435 C 78.516 49.101,78.372 48.828,78.197 48.828 C 78.022 48.828,77.604 48.257,77.267 47.559 C 76.931 46.860,75.928 45.234,75.038 43.945 C 74.148 42.656,72.815 40.723,72.077 39.648 C 69.637 36.100,65.232 30.725,61.278 26.473 L 57.380 22.281 61.991 23.868 C 64.527 24.741,67.832 25.988,69.336 26.639 M299.606 77.006 C 293.270 82.835,287.515 88.065,286.816 88.627 C 286.118 89.189,285.547 89.849,285.547 90.095 C 285.547 90.340,285.263 90.650,284.917 90.783 C 284.421 90.973,284.385 91.143,284.747 91.579 C 285.112 92.019,285.048 92.218,284.438 92.545 C 284.015 92.771,283.147 93.794,282.509 94.818 C 280.918 97.374,279.814 98.567,279.504 98.066 C 279.365 97.841,279.359 97.480,279.492 97.266 C 279.625 97.051,279.438 96.875,279.077 96.875 C 278.514 96.875,278.494 96.777,278.938 96.191 C 279.222 95.815,278.760 96.147,277.911 96.928 C 274.551 100.019,273.934 100.573,271.484 102.696 C 268.770 105.049,268.738 105.131,269.521 107.813 C 273.547 121.599,276.289 154.044,273.916 159.813 C 272.595 163.026,238.200 172.562,218.555 175.163 C 215.977 175.504,213.340 175.871,212.695 175.978 L 211.523 176.172 211.645 171.881 C 211.744 168.401,211.610 167.053,210.938 164.752 C 210.482 163.191,210.065 161.693,210.011 161.422 C 209.696 159.826,208.978 160.103,205.706 163.082 C 201.994 166.460,201.945 166.536,202.393 168.122 C 205.653 179.664,192.030 193.012,177.981 192.041 L 174.414 191.795 167.310 198.339 C 159.953 205.116,159.562 205.576,160.965 205.795 C 161.553 205.886,161.716 205.780,161.506 205.441 C 161.342 205.175,161.366 205.054,161.561 205.172 C 161.755 205.290,164.111 205.497,166.797 205.631 C 184.220 206.502,190.864 209.421,185.984 214.063 C 183.403 216.519,180.462 217.409,172.461 218.159 C 166.032 218.761,163.651 218.760,157.813 218.153 C 156.846 218.053,154.854 217.881,153.387 217.772 C 151.920 217.662,150.382 217.392,149.969 217.171 C 149.556 216.950,149.219 216.868,149.219 216.987 C 149.219 217.107,148.801 216.931,148.289 216.597 C 147.518 216.091,147.325 216.079,147.154 216.525 C 146.865 217.278,134.145 228.906,133.610 228.906 C 133.318 228.906,133.340 229.088,133.676 229.453 C 133.953 229.753,134.240 229.943,134.313 229.873 C 134.386 229.804,135.177 230.016,136.070 230.344 C 136.964 230.673,138.223 231.083,138.867 231.257 C 139.512 231.431,141.006 231.833,142.188 232.150 C 163.070 237.757,187.782 235.155,208.398 225.180 C 210.762 224.037,213.195 222.978,213.807 222.827 C 214.643 222.621,214.788 222.463,214.393 222.188 C 214.019 221.929,214.099 221.888,214.670 222.047 C 215.111 222.170,216.430 221.915,217.600 221.480 C 219.250 220.868,219.421 220.738,218.365 220.901 C 217.191 221.082,217.083 221.037,217.583 220.571 C 217.903 220.273,224.844 213.917,233.008 206.444 C 241.172 198.972,248.379 192.367,249.023 191.765 C 249.668 191.163,250.811 190.110,251.563 189.425 C 252.314 188.739,256.797 184.626,261.523 180.283 C 290.418 153.739,289.287 154.734,289.374 155.786 C 289.503 157.349,289.844 157.308,289.844 155.729 C 289.844 154.941,289.668 154.297,289.453 154.297 C 289.238 154.297,289.063 154.111,289.063 153.883 C 289.063 153.656,289.250 153.586,289.480 153.727 C 289.894 153.983,289.764 133.614,289.339 131.836 C 289.237 131.406,289.030 129.824,288.879 128.320 C 288.728 126.816,288.176 123.138,287.652 120.146 L 286.698 114.707 287.811 113.506 C 294.359 106.437,304.085 90.045,307.414 80.469 C 307.899 79.072,308.539 77.376,308.836 76.699 C 309.132 76.022,309.375 75.225,309.375 74.927 C 309.375 74.630,309.786 73.133,310.288 71.601 C 310.933 69.631,311.090 68.618,310.824 68.143 C 310.538 67.632,310.569 67.546,310.954 67.784 C 311.314 68.006,311.391 67.915,311.221 67.472 C 311.089 67.129,311.191 66.762,311.448 66.658 C 311.704 66.553,311.737 66.454,311.520 66.437 C 311.303 66.420,305.942 71.176,299.606 77.006 M248.581 123.902 C 242.328 129.292,209.790 159.413,210.938 158.749 C 211.260 158.563,212.139 158.385,212.891 158.355 C 213.643 158.324,214.697 158.193,215.234 158.062 C 215.771 157.932,216.738 157.725,217.383 157.601 C 234.415 154.341,247.300 147.696,251.009 140.259 C 252.553 137.161,252.518 127.885,250.952 125.351 C 250.828 125.151,250.641 124.511,250.535 123.928 C 250.268 122.455,250.260 122.455,248.581 123.902 M266.551 172.149 C 265.302 173.612,264.917 174.275,265.430 174.079 C 266.072 173.835,266.121 173.873,265.703 174.293 C 265.424 174.575,264.984 174.813,264.727 174.822 C 264.469 174.832,264.302 175.052,264.355 175.311 C 264.409 175.570,264.233 175.737,263.965 175.684 C 263.696 175.630,263.521 175.806,263.574 176.074 C 263.628 176.343,263.532 176.519,263.360 176.465 C 263.028 176.361,258.306 181.588,257.569 182.876 C 257.327 183.298,256.976 183.651,256.788 183.661 C 256.368 183.684,248.633 191.082,248.633 191.461 C 248.633 191.610,248.473 191.878,248.277 192.057 C 248.068 192.249,248.042 192.142,248.213 191.797 C 248.374 191.475,248.123 191.650,247.656 192.188 C 247.189 192.725,246.940 192.912,247.103 192.605 C 247.266 192.297,246.756 192.537,245.969 193.137 C 245.182 193.737,244.652 194.411,244.791 194.635 C 244.939 194.875,244.853 194.926,244.584 194.759 C 244.116 194.470,241.532 196.371,241.684 196.892 C 241.729 197.047,241.466 197.150,241.098 197.122 C 240.730 197.094,240.478 197.303,240.537 197.588 C 240.596 197.872,240.458 197.990,240.230 197.849 C 240.002 197.708,238.548 198.376,236.998 199.334 C 226.851 205.601,211.708 211.475,198.629 214.217 L 196.281 214.709 196.424 211.879 C 196.657 207.248,194.689 203.843,190.286 201.263 L 188.554 200.247 189.887 199.786 C 196.732 197.416,204.819 191.080,207.813 185.742 C 209.465 182.798,209.014 183.031,214.174 182.455 C 229.603 180.732,250.480 176.035,264.453 171.143 C 266.279 170.504,267.927 169.967,268.114 169.951 C 268.301 169.935,267.598 170.924,266.551 172.149 M216.577 225.098 L 215.430 226.367 216.699 225.220 C 217.397 224.589,217.969 224.018,217.969 223.950 C 217.969 223.649,217.646 223.914,216.577 225.098 M125.706 236.621 C 124.701 237.792,124.593 238.191,125.218 238.431 C 125.550 238.559,125.719 238.497,125.593 238.293 C 125.468 238.090,125.854 238.179,126.452 238.491 C 127.050 238.803,127.817 239.059,128.158 239.060 C 128.498 239.061,128.898 239.185,129.048 239.334 C 129.197 239.484,129.534 239.655,129.796 239.716 C 139.191 241.878,141.806 241.943,136.171 239.875 C 134.903 239.410,132.388 238.333,130.581 237.483 C 126.860 235.732,126.521 235.672,125.706 236.621 M198.145 238.367 C 197.661 238.601,197.266 238.940,197.266 239.122 C 197.266 239.635,197.931 239.513,198.558 238.886 C 198.870 238.574,199.263 238.442,199.430 238.593 C 199.598 238.744,199.608 238.647,199.454 238.379 C 199.299 238.110,199.139 237.903,199.098 237.917 C 199.057 237.932,198.628 238.134,198.145 238.367 M192.676 240.530 C 190.688 241.291,189.063 242.041,189.063 242.197 C 189.063 242.532,192.593 242.208,193.164 241.821 C 193.379 241.675,193.950 241.586,194.434 241.623 C 194.917 241.660,195.313 241.493,195.313 241.252 C 195.313 241.010,195.664 240.593,196.094 240.325 C 196.847 239.854,197.182 239.018,196.582 239.105 C 196.421 239.129,194.663 239.770,192.676 240.530 M153.711 257.298 C 152.595 257.590,151.585 258.580,150.792 260.156 C 149.235 263.255,144.861 280.613,144.773 284.042 C 144.747 285.040,144.595 285.776,144.434 285.679 C 144.272 285.581,144.138 285.819,144.135 286.207 C 144.132 286.596,144.029 287.289,143.906 287.747 C 143.750 288.332,144.366 287.924,145.972 286.380 C 149.640 282.855,156.420 276.720,156.155 277.167 C 156.021 277.392,156.067 277.829,156.258 278.139 C 156.532 278.581,156.599 278.535,156.574 277.925 C 156.556 277.498,156.648 276.621,156.778 275.977 C 156.908 275.332,157.360 272.959,157.783 270.703 C 158.206 268.447,158.767 265.510,159.030 264.175 C 159.971 259.395,157.570 256.291,153.711 257.298 M168.560 257.878 C 166.788 259.272,166.266 261.005,166.981 263.113 C 167.310 264.080,167.578 265.129,167.578 265.443 C 167.578 266.373,167.890 266.170,171.628 262.806 C 173.590 261.041,175.270 259.545,175.362 259.482 C 175.594 259.322,174.147 258.010,173.146 257.475 C 171.819 256.765,169.743 256.947,168.560 257.878 M84.166 274.660 C 76.869 281.348,69.006 288.555,66.694 290.675 C 64.382 292.796,62.350 294.531,62.178 294.531 C 62.007 294.531,61.642 295.454,61.368 296.582 C 60.115 301.736,59.684 302.334,57.891 301.410 C 56.944 300.923,55.449 301.412,56.049 302.013 C 56.128 302.092,55.950 303.297,55.654 304.691 C 53.838 313.235,55.064 326.677,58.331 334.066 L 59.286 336.224 57.163 336.699 C 51.043 338.068,45.273 342.641,42.598 348.242 C 36.048 361.956,35.990 373.378,42.446 378.308 L 44.216 379.659 49.690 374.617 C 53.137 371.442,55.545 369.516,56.195 369.416 C 56.762 369.329,55.710 369.231,53.856 369.199 C 49.419 369.122,48.424 367.539,49.607 362.440 C 51.860 352.727,59.877 347.714,71.303 348.873 C 73.165 349.061,74.832 349.127,75.006 349.020 C 75.181 348.912,75.383 348.979,75.455 349.169 C 75.527 349.359,76.201 349.622,76.953 349.753 C 77.705 349.884,78.084 349.885,77.796 349.756 C 77.420 349.587,77.687 349.095,78.739 348.019 C 79.545 347.193,80.396 346.626,80.630 346.760 C 80.864 346.894,79.906 345.788,78.502 344.302 C 70.699 336.049,66.812 327.016,66.799 317.113 L 66.797 315.281 69.434 316.182 C 80.849 320.086,97.134 328.138,97.675 330.147 C 97.896 330.968,98.177 331.641,98.299 331.641 C 98.421 331.641,98.419 331.375,98.294 331.049 C 98.033 330.369,98.908 329.378,103.298 325.383 C 106.035 322.892,106.439 322.646,106.724 323.291 C 107.253 324.490,106.892 323.043,105.347 317.773 L 103.973 313.086 105.404 312.205 C 109.616 309.611,116.061 308.374,121.191 309.174 C 122.408 309.364,123.047 309.323,123.047 309.055 C 123.047 308.830,122.609 308.725,122.074 308.822 C 121.358 308.952,122.102 308.100,124.906 305.581 C 126.999 303.701,128.943 301.940,129.227 301.668 C 129.511 301.395,129.907 301.172,130.106 301.172 C 131.583 301.172,130.021 299.984,127.637 299.294 C 119.487 296.934,112.827 297.246,104.312 300.385 C 102.585 301.022,101.172 301.405,101.172 301.237 C 101.172 301.069,100.821 299.020,100.391 296.684 C 98.658 287.248,97.682 277.280,97.589 268.066 C 97.559 265.005,97.511 262.500,97.484 262.500 C 97.457 262.500,91.464 267.972,84.166 274.660 M155.828 279.981 C 156.015 281.329,156.042 281.356,156.171 280.324 C 156.248 279.707,156.157 279.047,155.968 278.859 C 155.772 278.663,155.712 279.141,155.828 279.981 M87.529 283.496 C 87.545 284.302,87.618 285.313,87.691 285.742 C 87.765 286.172,88.115 288.721,88.471 291.406 C 89.159 296.610,91.295 307.827,92.584 313.006 C 93.557 316.918,93.840 316.811,88.817 314.424 C 84.093 312.180,75.278 308.534,72.818 307.808 L 71.221 307.336 71.729 304.547 C 73.445 295.113,77.961 287.988,85.345 283.068 C 87.359 281.725,87.494 281.752,87.529 283.496 M81.055 347.547 C 81.484 347.651,82.188 348.026,82.617 348.380 C 83.392 349.018,83.392 349.016,82.654 348.145 C 82.245 347.661,81.542 347.286,81.092 347.311 C 80.305 347.355,80.303 347.364,81.055 347.547 M95.093 354.395 L 93.945 355.664 95.215 354.517 C 96.398 353.447,96.664 353.125,96.362 353.125 C 96.295 353.125,95.724 353.696,95.093 354.395 M117.688 382.319 C 118.715 382.400,120.297 382.399,121.203 382.317 C 122.110 382.235,121.270 382.169,119.336 382.170 C 117.402 382.171,116.661 382.238,117.688 382.319 M111.235 395.589 C 111.721 395.682,112.424 395.679,112.798 395.581 C 113.171 395.483,112.773 395.407,111.914 395.411 C 111.055 395.415,110.749 395.495,111.235 395.589 M128.813 395.589 C 129.299 395.682,130.002 395.679,130.376 395.581 C 130.749 395.483,130.352 395.407,129.492 395.411 C 128.633 395.415,128.327 395.495,128.813 395.589 M193.848 395.582 C 194.224 395.680,194.839 395.680,195.215 395.582 C 195.591 395.484,195.283 395.403,194.531 395.403 C 193.779 395.403,193.472 395.484,193.848 395.582 " stroke="none" fill="#a44e7c" fill-rule="evenodd"></path><path id="path4" d="M368.353 228.615 C 367.390 229.493,365.512 231.244,364.181 232.507 L 361.761 234.803 363.888 238.067 C 365.058 239.862,366.016 241.509,366.016 241.727 C 366.016 241.944,366.154 242.181,366.322 242.253 C 367.671 242.825,371.145 253.834,371.167 257.605 C 371.231 268.812,353.302 276.661,345.852 268.687 C 344.490 267.229,342.553 263.816,341.810 261.564 C 341.541 260.748,341.077 259.614,340.780 259.044 C 340.483 258.474,340.238 257.788,340.237 257.520 C 340.235 257.251,339.952 257.031,339.607 257.031 C 339.209 257.031,339.061 256.816,339.204 256.445 C 339.674 255.219,338.531 255.973,334.855 259.314 C 330.485 263.286,329.765 264.063,330.453 264.063 C 330.713 264.063,330.848 264.282,330.755 264.551 C 330.439 265.463,333.523 272.696,335.110 274.762 C 349.173 293.077,382.175 282.142,383.120 258.854 C 383.462 250.435,378.961 237.152,373.926 231.721 C 373.657 231.431,373.435 231.075,373.431 230.929 C 373.419 230.427,370.997 227.930,370.626 228.037 C 370.422 228.096,370.358 227.976,370.485 227.771 C 371.134 226.721,369.895 227.212,368.353 228.615 M266.797 321.758 C 258.076 329.679,256.250 331.644,256.083 333.281 C 256.067 333.432,255.835 333.774,255.566 334.043 C 255.298 334.312,255.078 334.670,255.078 334.840 C 255.078 336.874,246.953 345.879,240.706 350.770 C 236.833 353.802,236.475 354.299,238.905 353.272 C 255.848 346.112,268.541 347.358,274.496 356.766 C 276.576 360.053,277.572 365.510,276.571 368.142 L 276.188 369.148 256.356 369.047 L 236.523 368.945 236.263 366.797 C 235.644 361.692,231.681 354.718,229.972 355.724 C 228.798 356.415,222.883 362.109,223.339 362.109 C 226.184 362.109,227.396 371.980,225.163 376.955 C 222.930 381.931,222.749 381.994,209.961 382.211 C 198.382 382.408,199.518 382.348,199.765 382.748 C 199.876 382.928,197.223 385.597,193.869 388.679 C 188.655 393.472,187.879 394.331,188.515 394.608 C 189.094 394.861,189.022 394.900,188.184 394.786 C 187.593 394.706,187.109 394.781,187.109 394.954 C 187.109 395.765,219.404 395.594,223.394 394.762 C 228.959 393.602,233.330 390.093,236.284 384.415 L 237.930 381.250 258.014 381.250 C 275.522 381.250,278.337 381.169,279.967 380.616 C 290.155 377.157,291.889 364.481,284.312 348.851 C 281.148 342.324,276.745 338.680,269.967 336.980 C 266.840 336.195,266.929 336.317,267.880 334.094 C 268.933 331.634,270.580 325.357,270.880 322.656 C 271.012 321.475,271.186 320.024,271.268 319.434 C 271.499 317.756,270.807 318.116,266.797 321.758 " stroke="none" fill="#32348c" fill-rule="evenodd"></path></g></svg>