<svg xmlns="http://www.w3.org/2000/svg" width="400" height="400" fill-rule="evenodd" xmlns:v="https://vecta.io/nano"><path d="M316.895 202.35c-.699.157-1.27.216-1.27.13 0-.196-1.133.815-10.517 9.39s-9.604 8.785-8.135 7.859c.59-.373 1.074-.549 1.074-.39s.236.092.524-.147.64-.32.781-.178.271-.08.288-.492.118-.533.225-.27c.149.368.388.355 1.043-.06 1.771-1.12 3.537-1.212 3.239-.169-2.354 8.248-2.047 14.347 1.103 21.873.218.519-.261.799-2.572 1.501a41.37 41.37 0 0 0-5.451 2.177l-2.611 1.315-1.803-1.194c-3.02-2.001-7.01-7.496-7.407-10.202-.049-.331-.309-.867-.579-1.192-.331-.399-.357-.673-.08-.844.225-.139.395-.726.378-1.304s-.118-.836-.224-.573-.141.527-.076.586-1.197 1.322-2.803 2.805c-3.809 3.52-3.99 3.75-3.452 4.399.238.286.33.521.205.521-1.08 0 3.822 7.666 6.62 10.351l2.034 1.953-4.439 4.648-4.439 4.648-2.54-.237c-4.045-.378-6.999-2.193-10.131-6.226-.946-1.218-1.839-2.095-1.984-1.95s-.149-.037-.008-.406c.431-1.124-.164-.777-3.007 1.749-3.077 2.735-3.137 3.054-1.101 5.863 2.444 3.375 8.171 7.488 11.697 8.402l1.195.309-3.135 4.686c-4.459 6.666-4.381 6.54-7.372 11.866l-2.716 4.836-1.066-1.711c-2.371-3.804-6.563-8.24-9.847-10.421-1.7-1.128-2.021-1.516-1.811-2.19.316-1.014 2.17-4.654 2.505-4.92.136-.108.495-.767.799-1.465s.685-1.27.848-1.27.295-.179.295-.398.429-1.079.954-1.91.852-1.615.726-1.741.059-.34.412-.476.642-.584.642-.998.279-.858.619-.989c.489-.187.512-.303.107-.553-.376-.232-.255-.419.456-.702.531-.213.813-.397.626-.411s-.122-.289.145-.611c1.636-1.971-1.406.668-12.044 10.449l-13.748 12.626c-.961.874-1.771 1.929-1.801 2.343-.05.699-.256 2.05-.681 4.465a97.33 97.33 0 0 0-.431 2.867l-.375 2.539-.43 2.602-.366 2.148c-.029.108-.185.918-.348 1.801l-.294 1.605-3.363-1.159c-2.579-.889-4.249-1.195-7.172-1.312-4.556-.183-2.813-1.372-16.736 11.42-.66.607-.311 1.152.439.684.283-.176.866-.372 1.296-.434s1.045-.224 1.367-.359c4.829-2.019 16.289-.523 20.441 2.67 1.557 1.197-4.501 19.024-11.074 32.586l-3.049 6.292-3.918 2.421c-6.125 3.786-9.064 7.347-10.656 12.915-1.248 4.365-.909 6.191.737 3.965 8.482-11.473 20.486-15.715 28.135-9.943l1.279.966 1.846-1.553c1.014-.855 2.372-2.113 3.017-2.796 1.876-1.988 2.452-2.164 3.65-1.112.57.501.07-.106-1.111-1.349-2.31-2.431-5.316-4.439-8.32-5.558-1.031-.384-1.789-.891-1.684-1.126 2.369-5.347 3.634-8.467 5.366-13.243l2.099-5.783 7.812-3.849c10.354-5.101 21.488-9.78 23.273-9.78.963 0-.02 8.984-1.414 12.938-.834 2.361-.56 2.285 2.624-.734 5.12-4.854 10.372-9.47 10.775-9.47.87 0 .075-16.555-.839-17.469-.053-.053-.688.074-1.411.282s-1.398.294-1.5.193c-.289-.289 3.15-7.522 5.565-11.705 1.202-2.081 2.185-3.868 2.185-3.969 0-.883 8.246-12.549 12.526-17.722 5.82-7.036 10.388-11.051 15.497-13.624 9.982-5.026 21.359-1.759 25.763 7.399 1.351 2.809 2.073 3.753 2.073 2.709 0-.215-.197-.39-.438-.39-.649 0 .148-.854 4.434-4.749 3.676-3.341 4.819-4.095 4.349-2.869-.124.323-.03.586.207.586.715 0 .497-.768-.739-2.599-.645-.955-1.172-1.849-1.172-1.985s-.677-1.051-1.504-2.031l-1.503-1.783.339-2.837c1.123-9.404 8.166-17.074 16.15-17.586 3.998-.257 6.442 1.361 10.59 7.012.762 1.038 1.47 1.887 1.574 1.887s-.175-.51-.619-1.133l-.807-1.134 2.441-2.319c5.694-5.412 6.412-5.953 6.188-4.662-.031.177.113.217.32.09s.558.078.779.459.409.535.415.343c.074-2.169-12.841-13.803-20.105-18.112-11.104-6.586-26.338-10.209-34.863-8.291m15.367 13.022c3.629 1.008 9.904 3.544 11.733 4.742l1.02.668-2.683 1.326c-6.945 3.431-12.782 10.658-14.767 18.283-.765 2.939-.512 2.828-3.606 1.59-1.462-.585-4.16-1.34-5.995-1.678-3.238-.597-3.367-.662-4.393-2.237-4.622-7.093-3.661-18.102 1.996-22.869l1.425-1.202 5.86.196c4.632.154 6.603.402 9.41 1.181m-88.121 69.753c1.181.983 2.469 2.184 2.862 2.669s.949 1.117 1.236 1.405c2.755 2.755 6.466 11.675 6.914 16.619l.12 1.325-3.125 1.073c-3.763 1.292-9.942 3.906-15.166 6.416-4.609 2.214-4.317 2.43-3.15-2.329 1.082-4.414 2.976-14.062 3.68-18.748l.579-3.711c.06-.323.223-1.729.361-3.125s.342-3.119.452-3.828l.201-1.288 1.444.867c.794.477 2.41 1.672 3.592 2.655m-64.258 41.636c-2.578 2.428-4.797 4.347-4.931 4.264s-.26.644-.279 1.614-.12 1.901-.222 2.068-.465 2.432-.805 5.035c-1.256 9.623-3.713 20.146-5.589 23.93l-1.065 2.148-3.32.104-3.32.103-.85-1.323c-.915-1.425-3.643-9.733-3.643-11.096 0-.455-.187-.944-.417-1.085s-.323-.504-.207-.805.02-.546-.211-.546-.319-.264-.195-.586c.381-.995-.042-.696-3.962 2.798-5.294 4.719-5.066 4.274-4.026 7.846.204.699.259 1.27.124 1.27s-.035.211.222.469.469.837.469 1.287.779 2.369 1.73 4.265c2.353 4.689 3.47 11.566 2.1 12.936-.274.273-7.074.533-20.393.779l-12.071.222-2.382 2.27c-1.31 1.249-4.272 3.992-6.581 6.095-3.987 3.631-5.149 5.025-3.418 4.099.429-.23.781-.258.781-.062s1.789.387 3.976.425 4.104.147 4.26.243 8.87.015 19.364-.181c22.446-.419 22.063-.354 26.054-4.408l2.288-2.323.618.907c2.371 3.479 5.35 4.978 10.79 5.429 5.214.432 12.337.446 12.337.024 0-.185.484-.27 1.075-.19.838.114.91.075.331-.178-.636-.277.14-1.136 5.354-5.929 3.354-3.082 6.016-5.736 5.917-5.897s.039-.382.309-.491-3.728-.223-8.884-.253c-9.44-.056-15.175-.273-16.156-.613-1.341-.464-.405-8.262 1.382-11.503 2.556-4.639 4.565-12.263 6.537-24.805 1.056-6.721 1.749-14.6 1.656-18.846-.039-1.787.097-3.277.306-3.346.237-.079.239-.21.006-.352-.205-.124-2.481 1.76-5.059 4.188m67.762 17.673l-2.528 2.636 2.637-2.527c1.45-1.391 2.637-2.577 2.637-2.637 0-.288-.398.078-2.746 2.528m-114.699 25.397c-.326.207-.255.533.25 1.156.623.77.722.792.877.195.34-1.313-.189-1.947-1.127-1.351m72.62 12.487a28.37 28.37 0 0 0 3.711 0c1.021-.08.186-.146-1.855-.146s-2.876.066-1.856.146m-8.984 13.274a8.58 8.58 0 0 0 2.148 0c.591-.089.108-.162-1.074-.162s-1.665.073-1.074.162m16.997-.003c.486.093 1.189.09 1.562-.008s-.024-.174-.883-.17-1.165.084-.679.178" fill="#593a80"/><path d="M290.234 3.384c-19.281 1.349-39.189 8.681-59.892 22.059l-2.276 1.47-2.412-1.38c-26.251-15.015-57.185-19.72-86.591-13.17-6.635 1.478-11.002 2.821-11.621 3.573-.301.366-.424.427-.274.135.296-.573-.466-.43-2.754.516-.644.267-2.908 1.163-5.03 1.991s-3.67 1.569-3.439 1.646.783-.056 1.229-.295 1.01-.311 1.254-.16c.261.161.335.1.181-.149-.316-.512 1.122-1.034 1.76-.64.283.175.35.111.176-.17-.153-.248-.078-.451.168-.451.863 0 .083.772-11.501 11.374L80.358 56.2C70.11 65.613 63.083 71.796 62.924 71.539c-.151-.245-.898.668-1.728 2.112-.805 1.399-1.341 2.741-1.191 2.983.179.289.094.33-.245.12-.379-.234-.449-.14-.261.351.142.368.108.577-.075.464s-.908 1.064-1.61 2.617l-2.542 5.556c-.695 1.504-1.93 4.668-2.745 7.031s-1.608 4.444-1.764 4.623c-.247.285-4.434-5.682-5.836-8.319-.484-.91-.528-.92-.796-.195-.235.633-2.959 3.277-10.694 10.38-.867.797 1.692 4.99 7.343 12.034 2.114 2.634 2.901 3.91 2.772 4.492-2.703 12.188-3.796 39.753-1.855 46.765 4.061 14.667 29.587 42.718 45.447 49.945.593.27 1.517 1.528 2.441 3.325.819 1.59 2.104 3.696 2.856 4.681l1.367 1.79-1.424 3.316c-4.281 9.967-8.174 27.315-9.377 41.788l-.261 3.139-2.212 1.157c-6.92 3.621-16.888 15.14-17.79 20.558-.047.287-.304.917-.569 1.4-.934 1.699.324.871 4.519-2.974l30.105-27.541c.676-.611.84-.656.657-.179-.134.349-.06.748.165.887.267.166.398-.528.378-2.011-.017-1.245.071-3.055.196-4.021l.447-3.711c.705-6.246 4.237-19.368 6.274-23.308l.553-1.068 3.027 1.794c4.576 2.713 16.234 7.552 16.808 6.978.116-.115.402-.054.637.137.635.516 3.403 1.21 3.142.788-.123-.198-.465-.36-.76-.36s-1.033-.204-1.637-.454-1.351-.41-1.658-.357c-.471.08-.465-.044.033-.795 1.081-1.627 1.702-1.768 3.644-.824 2.902 1.41 2.554.994-.738-.882-5.455-3.108-17.75-13.676-16.901-14.526.391-.39 7.702 2.234 11.981 4.301 5.26 2.54 10.937 4.696 10.937 4.152 0-.21-.219-.393-.488-.409s-.21-.144.144-.293c1.029-.432 13.627-12.174 13.611-12.686-.008-.258-.703-.945-1.544-1.527-4.772-3.299-2.767-5.975 5.784-7.717 2.148-.438 4.581-.814 5.406-.835 1.926-.05 3.305-.441 3.308-.938.003-.696 14.18-13.456 14.99-13.491.7-.031.686-.073-.133-.401-.504-.202-1.119-.25-1.368-.108s-.326.119-.172-.051-.417-.815-1.268-1.432c-1.755-1.271-3.506-3.529-4.957-6.392-.545-1.074-1.144-2.011-1.331-2.083s-.341-.797-.341-1.612v-1.482l3.796-.477c13.284-1.672 21.394-8.814 18.332-16.142-4.096-9.803-38.961-10.35-44.549-.698-4.293 7.414 4.908 15.498 19.394 17.038l2.246.239v1.466c0 2.891-5.157 9.613-8.806 11.479-5.039 2.575-12.949.77-19.984-4.562-9.33-7.072-10.659-19.702-2.834-26.947 13.278-12.293 42.003-13.94 59.699-3.423 4.763 2.831 9.625 8.779 9.089 11.12-.041.177.098.216.309.085s.297-.461.192-.735c-.237-.616 6.315-6.653 6.857-6.318.222.137.295-.008.169-.336-.168-.438.211-.643 1.567-.846.984-.148 1.789-.423 1.789-.612 0-.398-1.099-.284-1.953.203-1.064.605 1.967-2.242 19.145-17.984 21.501-19.703 19.992-18.406 20.354-17.484.845 2.151.173-.663-.85-3.561-6.927-19.626-19.685-35.186-35.292-43.043-11.489-5.785-30.196-10.277-42.795-10.277h-2.75V45.643 24.88l4.395.246c41.968 2.342 79.769 32.8 94.018 75.753.908 2.739 1.74 4.98 1.847 4.98s.126-.208.042-.462.999-1.462 2.408-2.682c2.443-2.115 3.179-2.775 6.235-5.593.731-.673 1.204-1.004 1.052-.735s-.091.488.136.488c.517 0 .531.146-.213-2.371-2.649-8.958-10.833-24.606-17.815-34.059l-1.95-2.64 2.67-4.19c9.458-14.835 20.86-27.183 30.523-33.053 3.337-2.027 3.409-1.993 4.322 1.997 3.703 16.182 3.038 31.216-2.099 47.447-1.766 5.581-1.439 4.802-5.329 12.688-1.823 3.694-3.036 6.559-2.696 6.367s6.067-5.369 12.726-11.503 12.348-11.152 12.642-11.152c.369 0 .482-.355.365-1.151-.093-.633-.047-1.076.101-.984.28.172.321-.026 1.441-6.849.949-5.78.953-23.326.006-29.589-3.162-20.93-7.574-25.551-23.343-24.449m-21.028 23.081c-5.604 6.081-11.143 13.284-15.48 20.131l-1.827 2.883-3.391-3.311c-1.865-1.821-4.572-4.333-6.016-5.581l-2.625-2.269 1.062-.741c3.58-2.496 16.128-9.147 20.916-11.086 2.746-1.113 10.149-3.79 10.548-3.815.177-.011-1.257 1.694-3.187 3.789M162.109 45.643v20.643l-4.98.255c-23.469 1.201-44.265 9.115-56.547 21.52-15.59 15.744-26.21 42.864-20.71 52.884 4.238 7.72 20.767 15.286 39.891 18.261l1.598.249-.924 2.287c-1.172 2.903-1.828 7.946-1.509 11.61.245 2.814.238 2.841-.649 2.651-.493-.106-2.566-.391-4.607-.633-12.796-1.521-29.88-5.492-44.314-10.301-13.93-4.641-12.84-3.567-13.313-13.116-1.526-30.759 9.036-64.796 27.142-87.465 18.36-22.989 49.282-39.059 75.895-39.444l3.027-.044v20.643M52.344 32.153c0 .068.571.639 1.269 1.27l1.27 1.147-1.147-1.269c-1.07-1.184-1.392-1.449-1.392-1.148m100.043 3.918c-1.88 1.084-2.463 3.3-1.406 5.343 1.816 3.513 7.222 2.084 7.222-1.909 0-2.969-3.273-4.902-5.816-3.434m21.788.041c-2.18 1.229-2.45 4.896-.475 6.449 2.558 2.012 6.378.182 6.378-3.056 0-3.017-3.255-4.888-5.903-3.393m-83.966 1.755c.479.303.482.459.022 1.068-.508.671-.498.675.169.067.72-.657.558-1.507-.286-1.496-.292.004-.257.138.095.361m-4.882 5.199l-1.147 1.27 1.365-1.172c.751-.644 1.439-1.216 1.53-1.269s-.008-.098-.218-.098-.899.571-1.53 1.269m67.06 8.63c-1.88 1.084-2.463 3.3-1.406 5.343 1.816 3.513 7.222 2.084 7.222-1.909 0-2.969-3.273-4.902-5.816-3.434m21.875 0c-1.88 1.084-2.463 3.3-1.406 5.343 1.816 3.513 7.222 2.084 7.222-1.909 0-2.969-3.273-4.902-5.816-3.434M71.484 57.814c0 .288-.297.852-.661 1.254-.605.668-.606.71-.015.483.683-.262 1.299-1.637.907-2.028-.127-.127-.231.004-.231.291m-3.515 5.077c-.459.644-.747 1.172-.639 1.172s.57-.528 1.029-1.172.747-1.172.64-1.172-.571.527-1.03 1.172m-2.082 3.027l-1.951 3.106c-.599.954-.871 1.741-.648 1.879.211.13.384-.048.384-.395s.18-.521.4-.385.361.103.313-.074c-.183-.68.534-2.08.938-1.83.237.146.311.081.169-.149-.139-.225.021-.515.355-.643s.502-.406.372-.616.055-.827.411-1.37.541-.988.412-.988-.649.659-1.155 1.465m245.324 1.529c.167.434.1.557-.203.37s-.37-.065-.207.36c.196.511.311.534.576.117.446-.704.427-1.497-.037-1.497-.208 0-.266.292-.129.65m-26.836 24.35c.521.336.521.381 0 .399-.575.02-4.52 5.46-3.96 5.46.158 0 .963-1.062 1.791-2.361s1.834-2.538 2.238-2.754c.757-.405.634-1.139-.19-1.129-.279.004-.231.157.121.385m-161.117 22.091c8.183 2.13 14.476 10.593 14.683 19.745.141 6.26-5.742 5.717-6.344-.585-1.356-14.198-16.713-18.277-23.68-6.29-2.489 4.281-7.767 2.282-5.755-2.179 3.71-8.228 12.822-12.846 21.096-10.691m92.055-.167c9.178 1.949 17.667 13.756 11.08 15.409-1.353.34-2.385-.373-3.874-2.676-7.477-11.561-21.359-7.742-23.469 6.456-.584 3.929-1.289 4.981-3.337 4.981-2.966 0-3.806-3.11-2.363-8.752 2.777-10.859 12.219-17.487 21.963-15.418m32.322 31.103l-1.346 1.465 1.465-1.346c1.363-1.253 1.644-1.584 1.346-1.584-.065 0-.724.66-1.465 1.465m-37.033 18.457c0 .323.151.938.336 1.367.211.493.335.565.335.196 0-.323-.151-.938-.335-1.367-.212-.493-.336-.565-.336-.196m-134.68 10.972c12.101 3.51 26.785 6.556 39.258 8.143 3.3.42 6.043.818 6.095.883s.555.91 1.118 1.877c3.176 5.457 8.133 9.829 14.748 13.006 4.783 2.298 4.689 2.2 3.058 3.164-4.108 2.427-5.995 5.607-6.009 10.129l-.01 3.058-1.7-.255c-6.256-.939-21.645-6.185-30.194-10.293-14.205-6.828-28.265-18.291-37.465-30.544-2.744-3.655-2.785-3.604 1.683-2.093 2.202.745 6.44 2.062 9.418 2.925m192.217 18.813l-1.147 1.27 1.27-1.147c.698-.631 1.269-1.203 1.269-1.27 0-.302-.322-.036-1.392 1.147m-75.951 9.4c0 .067.571.638 1.269 1.27l1.27 1.147-1.148-1.27c-1.069-1.183-1.391-1.449-1.391-1.147m-30.508 3.122c.173.172 1.352.258 2.619.19l2.303-.124-2.619-.19c-1.441-.105-2.477-.049-2.303.124m148.965 21.56c.005.86.085 1.165.178.679s.09-1.189-.008-1.562-.174.024-.17.883m-38.589 11.231l-1.939 2.051 2.051-1.939c1.906-1.801 2.23-2.163 1.938-2.163-.061 0-.984.923-2.05 2.051M80.078 287.305c-.949.966-1.637 1.758-1.53 1.758s.972-.792 1.921-1.758 1.637-1.758 1.53-1.758-.972.791-1.921 1.758m-19.486 10.808a7.19 7.19 0 0 1-.27 1.367c-.213.678-.201.679.222.019.245-.382.367-.998.27-1.367-.159-.605-.181-.606-.222-.019m210.999 16.731c0 .967.076 1.362.169.879s.093-1.275 0-1.758-.169-.088-.169.879m-120.712 80.347c.376.098.991.098 1.367 0s.068-.178-.683-.178-1.06.08-.684.178m23.437 0a3.22 3.22 0 0 0 1.368 0c.376-.098.068-.178-.684-.178s-1.06.08-.684.178m17.188.391c.376.098.991.098 1.367 0s.068-.179-.683-.179-1.06.081-.684.179" fill="#d6536a"/><path d="M279.688 163.563l-28.125 25.862-2.54 2.395c-1.169 1.147-2.052 1.551-1.525.698.174-.282.107-.345-.178-.169-.252.156-.365.433-.252.615s-6.257 6.263-14.154 13.512l-15.139 13.908c-.865.808 1.01.692 2.682-.165.482-.247.649-.242.489.016-1.081 1.749-7.835 8.669-9.989 10.234-.739.537-1.904 1.46-2.589 2.051s-1.422 1.074-1.639 1.074-.497.263-.62.586-.415.586-.647.586-1.383.615-2.559 1.367-2.3 1.367-2.5 1.367-.842.444-1.427.987-1.237.929-1.447.858c-.339-.113-2.216 1.464-2.216 1.861 0 .086.395.078.878-.016l2.247-.414c6.486-1.151 16.45-4.392 21.33-6.938l2.665-1.39.886 2.428c1.899 5.201 3.769 12.79 4.253 17.25.117 1.087.286 2.2.375 2.475.681 2.103.964 17.488.443 24.046-.173 2.177-.135 3.404.103 3.321.208-.073 6.393-5.669 13.746-12.437 12.072-11.112 15.266-13.911 13.67-11.977-.317.385-.366.649-.12.649.229 0 .73-.531 1.114-1.179s.9-1.102 1.149-1.006c.27.103.382-.098.277-.499-.12-.46.688-1.441 2.55-3.096 2.845-2.528 3.441-2.875 3.009-1.751-.141.369-.134.548.018.396s.515.03.81.403c.318.403.255.045-.157-.885-.38-.859-.827-1.663-.993-1.786-.647-.48 3.429-5.308 9.664-11.448 3.088-3.041 3.949-3.703 4.063-3.125.383 1.939.838 2.63 1.333 2.025.261-.32 1.79-1.797 3.396-3.281s2.862-2.698 2.791-2.698.074-.757.323-1.683c.551-2.046 2.468-3.518 9.266-7.116.682-.36 1.648-1.102 2.149-1.648.992-1.082 15.383-14.291 17.425-15.992 1.709-1.425 1.597-1.608-.792-1.293-11.114 1.465-27.867 8.738-37.002 16.063l-3.694 2.94c-9.521 7.565-23.517 23.821-29.124 33.827-1.292 2.307-1.31 2.28-2.324-3.516-1.63-9.314-4.171-19.019-6.25-23.869l-.733-1.71 1.649-2.103c1.868-2.382 4.568-6.883 5.665-9.443.545-1.271 1.157-1.938 2.348-2.559 7.825-4.078 21.745-15.676 29.143-24.28 10.681-12.424 16.046-22.208 16.419-29.946.086-1.792.117-3.246.067-3.233s-4.397 3.997-9.66 8.851m21.266 54.623c-.747.597-.746.601.023.248.429-.198 1.044-.457 1.367-.577.506-.188.503-.221-.023-.248-.335-.017-.95.242-1.367.577m-16.331 13.369c-.131.213.022.605.342.87.635.528.768.114.234-.728-.204-.322-.43-.378-.576-.142m-30.131 27.429c-.133.215.022.391.345.391s.694-.176.827-.391-.022-.39-.344-.39-.695.176-.828.39m-83.203 4.098c-1.934 1.811-3.261 3.3-2.949 3.309.393.01.442.14.159.422s-.252 1.005.099 2.359c.278 1.073.679 3.131.89 4.573l.987 6.528c.998 6.456 2.509 17.787 2.761 20.704l.397 4.101c.598 5.111.651 8.204.14 8.233a12.07 12.07 0 0 0-1.312.184c-2.007.396-12.224.64-16.009.382l-4.223-.288.258-4.504c.141-2.478.418-5.667.616-7.088l.809-6.294.98-7.422c.453-2.549.75-5.473.761-7.482.006-1.215.123-2.14.26-2.055.311.192.719-1.279.434-1.564-.185-.185-3.476 2.719-10.145 8.953-1.15 1.074-2.176 2.392-2.28 2.93-.211 1.079-.864 5.854-1.176 8.593-1.118 9.817-.722 8.944-3.343 7.37-5.242-3.147-8.573-4.66-9.14-4.151-.302.271-.774.67-1.05.888-3.249 2.562-7.96 7.208-7.161 7.063.522-.095 1.004-.037 1.07.129s1.351.689 2.855 1.162c3.758 1.182 8.386 3.565 12.109 6.236l3.125 2.242.093 2.129c.388 8.923 1.471 21.285 2.206 25.174.081.43.277 1.573.435 2.54.358 2.186.358 2.187 1.194 6.392.648 3.258.725 3.418 1.31 2.711 1.573-1.902 7.98-7.304 8.135-6.857.093.268.34.488.55.488s.256-.203.103-.45-.311-.995-.351-1.66-.375-3.144-.743-5.507l-.867-6.055c-.109-.967-.278-2.197-.376-2.734s-.29-3.58-.429-6.762l-.251-5.784 1.136.301c1.695.448 18.066.323 19.99-.153l1.666-.413-.254 4.032c-.384 6.067-.493 6.049 5.075.825 2.653-2.489 4.936-4.413 5.073-4.275s.25-.607.25-1.654c0-2.125.99-3.274 4.759-5.526 1.012-.605 2.013-1.451 2.225-1.88s.397-.574.412-.321c.016.281.899.018 2.272-.679 1.236-.626 2.447-1.141 2.691-1.144s.421-.245.391-.538c-.048-.472 9.002-9.116 12.058-11.518l1.169-.918-2.539.261c-6.19.638-12.487 2.621-19.693 6.203l-4.051 2.013-.468-4.883c-1.408-14.68-6.629-38.988-8.852-41.21-.408-.408-.416-.567-.038-.72.324-.131.291-.202-.101-.215-.323-.01-2.168 1.463-4.102 3.274m82.752-2.714c-.352.917.028 1.024.567.161.302-.483.328-.763.071-.763-.224 0-.511.271-.638.602m-26.083 23.058c-.144.573-.186 1.117-.094 1.209s.285-.301.428-.874.186-1.116.094-1.208-.285.301-.428.873m-125.411 42.68c-2.11 1.923-3.97 3.737-4.135 4.032-.395.706 3.937 12.592 6.146 16.864.318.614.521 1.158.451 1.208s-1.513.74-3.207 1.533c-6.296 2.945-10.922 9.017-12.305 16.147l-.63 3.248-15.429.006c-19.596.007-17.21-.536-23.65 5.377l-5.33 4.895 1.501.682c2.349 1.067 3.464 1.121 23.572 1.145l18.946.023 1.353 2.761c2.752 5.616 7.834 9.729 13.444 10.88l1.999.411 3.321-3.122 6.709-6.155c1.864-1.668 3.402-3.15 3.418-3.293.034-.307-4.09-.661-9.547-.819-6.489-.188-9.487-4.218-9.078-12.202.727-14.188 17.023-15.65 29.45-2.643 4.523 4.734 5.811 3.021 2.711-3.607-1.52-3.25-4.422-6.392-8.038-8.704-5.532-3.536-5.357-3.347-7.959-8.628-2.66-5.399-5.927-12.939-7.246-16.72-.462-1.327-1.244-3.403-1.736-4.614l-.896-2.202-3.835 3.497m81.855-2.571c.077 1.362.7 2.032.727.781.015-.698-.149-1.269-.363-1.269s-.379.22-.364.488m-10.183 9.863c0 .752.068 1.368.152 1.368s.225-.616.313-1.368.019-1.367-.153-1.367-.312.615-.312 1.367m-94.392 12.996c.121.196-.387.946-1.13 1.666-1.576 1.528-1.52 1.596 2.261 2.739 1.451.439 3.809 1.322 5.239 1.964s2.77 1.11 2.979 1.04c.566-.189-7.362-6.146-8.189-6.153-.483-.004-.561-.103-.241-.306.339-.215.244-.443-.334-.804-.443-.277-.707-.343-.585-.146m43.903 35.92c.699.086 1.841.086 2.54 0s.126-.158-1.27-.158-1.968.071-1.27.158m1.954 13.274a5.57 5.57 0 0 0 1.757 0c.484-.093.088-.169-.878-.169s-1.363.076-.879.169m5.664-.006c.376.098.991.098 1.367 0s.068-.179-.684-.179-1.059.081-.683.179" fill="#844176"/><path d="M31.658 3.552c-7.314 1.434-11.145 6.328-13.27 16.956-3.876 19.38-2.74 38.675 3.299 56.055 1.36 3.911 5.032 12.65 5.664 13.476.281.368 3.103 5.604 4.051 7.517.239.481.566.877.727.878s.293.267.293.589c0 1.094.689.592 6.207-4.52 6.392-5.923 6.075-4.981 3.417-10.165-1.152-2.247-2.229-4.52-2.394-5.051s-.628-1.67-1.028-2.529c-3.034-6.522-5.934-19.053-6.609-28.564-.766-10.787 1.498-29.053 3.601-29.053 2.851 0 15.094 10.31 22.064 18.579 1.434 1.702 2.46 3.031 6.765 8.764.564.752 2.238 3.213 3.718 5.469s2.82 4.191 2.976 4.301c.789.554.783 2.307-.01 2.986-.449.384-.816.953-.816 1.263s-.11.455-.243.322c-.342-.341-4.142 5.515-3.867 5.959.124.2-.097.537-.491.748s-1.057 1.082-1.472 1.937-.89 1.472-1.053 1.371-.296.091-.296.426c0 .993-.258 1.216 17.519-15.114l39.85-36.488c.566-.464.926-.948.799-1.076-.389-.394-2.717.599-2.443 1.042.143.232.07.298-.167.152-.232-.143-.83-.097-1.33.103-1.077.432-2.392.925-2.666.999-.245.067-5.203 2.587-7.031 3.574-.752.405-1.496.913-1.654 1.128s-.29.252-.293.084-.652.131-1.441.667l-1.434.975-1.788-1.301c-.984-.715-2.316-1.592-2.96-1.949s-1.639-.951-2.209-1.32C76.023 10.034 45.418.855 31.658 3.552m37.678 23.087c2.98 1.291 10.899 5.199 13.086 6.458l4.297 2.523c1.611.954 3.237 1.85 3.613 1.991 1.019.381.842.85-.781 2.063-1.809 1.353-4 3.364-7.973 7.32-1.722 1.714-3.062 2.783-3.062 2.441 0-.334-.144-.607-.319-.607s-.593-.571-.93-1.269-1.339-2.325-2.229-3.614l-2.961-4.297c-2.44-3.548-6.845-8.923-10.799-13.175l-3.898-4.192 4.611 1.587c2.536.873 5.841 2.12 7.345 2.771m230.27 50.367l-12.79 11.621c-.698.562-1.269 1.222-1.269 1.468s-.284.555-.63.688c-.496.19-.532.36-.17.796s.301.639-.309.966c-.423.226-1.291 1.249-1.929 2.273-1.591 2.556-2.695 3.749-3.005 3.248-.139-.225-.145-.586-.012-.8s-.054-.391-.415-.391c-.563 0-.583-.098-.139-.684.284-.376-.178-.044-1.027.737l-6.427 5.768c-2.714 2.353-2.746 2.435-1.963 5.117 4.026 13.786 6.768 46.231 4.395 52-1.321 3.213-35.716 12.749-55.361 15.35l-5.86.815-1.172.194.122-4.291c.099-3.48-.035-4.828-.707-7.129l-.927-3.33c-.315-1.596-1.033-1.319-4.305 1.66-3.712 3.378-3.761 3.454-3.313 5.04 3.26 11.542-10.363 24.89-24.412 23.919l-3.567-.246-7.104 6.544c-7.357 6.777-7.748 7.237-6.345 7.456.588.091.751-.015.541-.354-.164-.266-.14-.387.055-.269s2.55.325 5.236.459c17.423.871 24.067 3.79 19.187 8.432-2.581 2.456-5.522 3.346-13.523 4.096-6.429.602-8.81.601-14.648-.006a192.59 192.59 0 0 0-4.426-.381c-1.467-.11-3.005-.38-3.418-.601s-.75-.303-.75-.184-.418-.056-.93-.39c-.771-.506-.964-.518-1.135-.072-.289.753-13.009 12.381-13.544 12.381-.292 0-.27.182.066.547.277.3.564.49.637.42s.864.143 1.757.471 2.153.739 2.797.913l3.321.893c20.882 5.607 45.594 3.005 66.21-6.97 2.364-1.143 4.797-2.202 5.409-2.353.836-.206.981-.364.586-.639-.374-.259-.294-.3.277-.141.441.123 1.76-.132 2.93-.567 1.65-.612 1.821-.742.765-.579-1.174.181-1.282.136-.782-.33l15.425-14.127 16.015-14.679 2.54-2.34 9.96-9.142c28.895-26.544 27.764-25.549 27.851-24.497.129 1.563.47 1.522.47-.057 0-.788-.176-1.432-.391-1.432s-.39-.186-.39-.414.187-.297.417-.156c.414.256.284-20.113-.141-21.891-.102-.43-.309-2.012-.46-3.516s-.703-5.182-1.227-8.174l-.954-5.439 1.113-1.201c6.548-7.069 16.274-23.461 19.603-33.037.485-1.397 1.125-3.093 1.422-3.77s.539-1.474.539-1.772.411-1.794.913-3.326c.645-1.97.802-2.983.536-3.458-.286-.511-.255-.597.13-.359.36.222.437.131.267-.312-.132-.343-.03-.71.227-.814s.289-.204.072-.221-5.578 4.739-11.914 10.569m-51.025 46.896c-6.253 5.39-38.791 35.511-37.643 34.847.322-.186 1.201-.364 1.953-.394s1.806-.162 2.343-.293 1.504-.337 2.149-.461c17.032-3.26 29.917-9.905 33.626-17.342 1.544-3.098 1.509-12.374-.057-14.908-.124-.2-.311-.84-.417-1.423-.267-1.473-.275-1.473-1.954-.026m17.97 48.247c-1.249 1.463-1.634 2.126-1.121 1.93.642-.244.691-.206.273.214-.279.282-.719.52-.976.529a.39.39 0 0 0-.372.489c.054.259-.122.426-.39.373s-.444.122-.391.39-.042.445-.214.391c-.332-.104-5.054 5.123-5.791 6.411-.242.422-.593.775-.781.785-.42.023-8.155 7.421-8.155 7.8 0 .149-.16.417-.356.596-.209.192-.235.085-.064-.26.161-.322-.09-.147-.557.391s-.716.724-.553.417-.347-.068-1.134.532-1.317 1.274-1.178 1.498c.148.24.062.291-.207.124-.468-.289-3.052 1.612-2.9 2.133.045.155-.218.258-.586.23s-.62.181-.561.466-.079.402-.307.261-1.682.527-3.232 1.485c-10.147 6.267-25.29 12.141-38.369 14.883l-2.348.492.143-2.83c.233-4.631-1.735-8.036-6.138-10.616l-1.732-1.016 1.333-.461c6.845-2.37 14.932-8.706 17.926-14.044 1.652-2.944 1.201-2.711 6.361-3.287 15.429-1.723 36.306-6.42 50.279-11.312 1.826-.639 3.474-1.176 3.661-1.192s-.516.973-1.563 2.198m-49.974 52.949l-1.147 1.269 1.269-1.147c.698-.631 1.27-1.202 1.27-1.27 0-.301-.323-.036-1.392 1.148m-90.871 11.523c-1.005 1.171-1.113 1.57-.488 1.81.332.128.501.066.375-.138s.261-.114.859.198 1.365.568 1.706.569.74.125.89.274.486.321.748.382c9.395 2.162 12.01 2.227 6.375.159-1.268-.465-3.783-1.542-5.59-2.392-3.721-1.751-4.06-1.811-4.875-.862m72.439 1.746c-.484.234-.879.573-.879.755 0 .513.665.391 1.292-.236.312-.312.705-.444.872-.293s.178.054.024-.214-.315-.476-.356-.462-.47.217-.953.45m-5.469 2.163c-1.988.761-3.613 1.511-3.613 1.667 0 .335 3.53.011 4.101-.376.215-.146.786-.235 1.27-.198s.879-.13.879-.371.351-.659.781-.927c.753-.471 1.088-1.307.488-1.22-.161.024-1.919.665-3.906 1.425m-38.965 16.768c-1.116.292-2.126 1.282-2.919 2.858-1.557 3.099-5.931 20.457-6.019 23.886-.026.998-.178 1.734-.339 1.637s-.296.14-.299.528-.106 1.082-.229 1.54c-.156.585.46.177 2.066-1.367 3.668-3.525 10.448-9.66 10.183-9.213-.134.225-.088.662.103.972.274.442.341.396.316-.214-.018-.427.074-1.304.204-1.948l1.005-5.274 1.247-6.528c.941-4.78-1.46-7.884-5.319-6.877m14.849.58c-1.772 1.394-2.294 3.127-1.579 5.235.329.967.597 2.016.597 2.33 0 .93.312.727 4.05-2.637l3.734-3.324c.232-.16-1.215-1.472-2.216-2.007-1.327-.71-3.403-.528-4.586.403M84.166 274.66l-17.472 16.015c-2.312 2.121-4.344 3.856-4.516 3.856s-.536.923-.81 2.051c-1.253 5.154-1.684 5.752-3.477 4.828-.947-.487-2.442.002-1.842.603.079.079-.099 1.284-.395 2.678-1.816 8.544-.59 21.986 2.677 29.375l.955 2.158-2.123.475c-6.12 1.369-11.89 5.942-14.565 11.543-6.55 13.714-6.608 25.136-.152 30.066l1.77 1.351 5.474-5.042c3.447-3.175 5.855-5.101 6.505-5.201.567-.087-.485-.185-2.339-.217-4.437-.077-5.432-1.66-4.249-6.759 2.253-9.713 10.27-14.726 21.696-13.567 1.862.188 3.529.254 3.703.147s.377-.041.449.149.746.453 1.498.584 1.131.132.843.003c-.376-.169-.109-.661.943-1.737.806-.826 1.657-1.393 1.891-1.259s-.724-.972-2.128-2.458c-7.803-8.253-11.69-17.286-11.703-27.189l-.002-1.832 2.637.901c11.415 3.904 27.7 11.956 28.241 13.965.221.821.502 1.494.624 1.494s.12-.266-.005-.592c-.261-.68.614-1.671 5.004-5.666 2.737-2.491 3.141-2.737 3.426-2.092.529 1.199.168-.248-1.377-5.518l-1.374-4.687 1.431-.881c4.212-2.594 10.657-3.831 15.787-3.031 1.217.19 1.856.149 1.856-.119 0-.225-.438-.33-.973-.233-.716.13.028-.722 2.832-3.241l4.321-3.913c.284-.273.68-.496.879-.496 1.477 0-.085-1.188-2.469-1.878-8.15-2.36-14.81-2.048-23.325 1.091-1.727.637-3.14 1.02-3.14.852s-.351-2.217-.781-4.553c-1.733-9.436-2.709-19.404-2.802-28.618l-.105-5.566c-.027 0-6.02 5.472-13.318 12.16m71.662 5.321c.187 1.348.214 1.375.343.343.077-.617-.014-1.277-.203-1.465-.196-.196-.256.282-.14 1.122m-68.299 3.515c.016.806.089 1.817.162 2.246s.424 2.979.78 5.664c.688 5.204 2.824 16.421 4.113 21.6.973 3.912 1.256 3.805-3.767 1.418-4.724-2.244-13.539-5.89-15.999-6.616l-1.597-.472.508-2.789c1.716-9.434 6.232-16.559 13.616-21.479 2.014-1.343 2.149-1.316 2.184.428m-6.474 64.051c.429.104 1.133.479 1.562.833.775.638.775.636.037-.235-.409-.484-1.112-.859-1.562-.834-.787.044-.789.053-.037.236m14.038 6.848l-1.148 1.269 1.27-1.147c1.183-1.07 1.449-1.392 1.147-1.392-.067 0-.638.571-1.269 1.27m22.595 27.924c1.027.081 2.609.08 3.515-.002s.067-.148-1.867-.147-2.675.068-1.648.149m-6.453 13.27c.486.093 1.189.09 1.563-.008s-.025-.174-.884-.17-1.165.084-.679.178m17.578 0c.486.093 1.189.09 1.563-.008s-.024-.174-.884-.17-1.165.084-.679.178m65.035-.007c.376.098.991.098 1.367 0s.068-.179-.684-.179-1.059.081-.683.179" fill="#a44e7c"/><path d="M368.353 228.615l-4.172 3.892-2.42 2.296 2.127 3.264c1.17 1.795 2.128 3.442 2.128 3.66s.138.454.306.526c1.349.572 4.823 11.581 4.845 15.352.064 11.207-17.865 19.056-25.315 11.082-1.362-1.458-3.299-4.871-4.042-7.123-.269-.816-.733-1.95-1.03-2.52s-.542-1.256-.543-1.524-.285-.489-.63-.489c-.398 0-.546-.215-.403-.586.47-1.226-.673-.472-4.349 2.869-4.37 3.972-5.09 4.749-4.402 4.749.26 0 .395.219.302.488-.316.912 2.768 8.145 4.355 10.211 14.063 18.315 47.065 7.38 48.01-15.908.342-8.419-4.159-21.702-9.194-27.133-.269-.29-.491-.646-.495-.792-.012-.502-2.434-2.999-2.805-2.892-.204.059-.268-.061-.141-.266.649-1.05-.59-.559-2.132.844m-101.556 93.143c-8.721 7.921-10.547 9.886-10.714 11.523-.016.151-.248.493-.517.762s-.488.627-.488.797c0 2.034-8.125 11.039-14.372 15.93-3.873 3.032-4.231 3.529-1.801 2.502 16.943-7.16 29.636-5.914 35.591 3.494 2.08 3.287 3.076 8.744 2.075 11.376l-.383 1.006-19.832-.101-19.833-.102-.26-2.148c-.619-5.105-4.582-12.079-6.291-11.073-1.174.691-7.089 6.385-6.633 6.385 2.845 0 4.057 9.871 1.824 14.846s-2.414 5.039-15.202 5.256c-11.579.197-10.443.137-10.196.537.111.18-2.542 2.849-5.896 5.931-5.214 4.793-5.99 5.652-5.354 5.929.579.253.507.292-.331.178-.591-.08-1.075-.005-1.075.168 0 .811 32.295.64 36.285-.192 5.565-1.16 9.936-4.669 12.89-10.347l1.646-3.165h20.084c17.508 0 20.323-.081 21.953-.634 10.188-3.459 11.922-16.135 4.345-31.765-3.164-6.527-7.567-10.171-14.345-11.871-3.127-.785-3.038-.663-2.087-2.886 1.053-2.46 2.7-8.737 3-11.438l.388-3.222c.231-1.678-.461-1.318-4.471 2.324" fill="#32348c"/></svg>